<?xml version="1.0" encoding="utf-8"?>
<svg xmlns="http://www.w3.org/2000/svg" xmlns:xlink="http://www.w3.org/1999/xlink" width="600" height="400" viewBox="0 0 2400 1600">
<defs>
  <clipPath id="clip850">
    <rect x="0" y="0" width="2400" height="1600"/>
  </clipPath>
</defs>
<path clip-path="url(#clip850)" d="
M0 1600 L2400 1600 L2400 0 L0 0  Z
  " fill="#ffffff" fill-rule="evenodd" fill-opacity="1"/>
<defs>
  <clipPath id="clip851">
    <rect x="480" y="0" width="1681" height="1600"/>
  </clipPath>
</defs>
<path clip-path="url(#clip850)" d="
M284.422 642.531 L2352.76 642.531 L2352.76 47.2441 L284.422 47.2441  Z
  " fill="#ffffff" fill-rule="evenodd" fill-opacity="1"/>
<defs>
  <clipPath id="clip852">
    <rect x="284" y="47" width="2069" height="596"/>
  </clipPath>
</defs>
<polyline clip-path="url(#clip852)" style="stroke:#000000; stroke-linecap:butt; stroke-linejoin:round; stroke-width:2; stroke-opacity:0.1; fill:none" points="
  284.422,642.531 284.422,47.2441 
  "/>
<polyline clip-path="url(#clip852)" style="stroke:#000000; stroke-linecap:butt; stroke-linejoin:round; stroke-width:2; stroke-opacity:0.1; fill:none" points="
  1318.59,642.531 1318.59,47.2441 
  "/>
<polyline clip-path="url(#clip852)" style="stroke:#000000; stroke-linecap:butt; stroke-linejoin:round; stroke-width:2; stroke-opacity:0.1; fill:none" points="
  2352.76,642.531 2352.76,47.2441 
  "/>
<polyline clip-path="url(#clip850)" style="stroke:#000000; stroke-linecap:butt; stroke-linejoin:round; stroke-width:4; stroke-opacity:1; fill:none" points="
  284.422,642.531 2352.76,642.531 
  "/>
<polyline clip-path="url(#clip850)" style="stroke:#000000; stroke-linecap:butt; stroke-linejoin:round; stroke-width:4; stroke-opacity:1; fill:none" points="
  284.422,642.531 284.422,623.633 
  "/>
<polyline clip-path="url(#clip850)" style="stroke:#000000; stroke-linecap:butt; stroke-linejoin:round; stroke-width:4; stroke-opacity:1; fill:none" points="
  1318.59,642.531 1318.59,623.633 
  "/>
<polyline clip-path="url(#clip850)" style="stroke:#000000; stroke-linecap:butt; stroke-linejoin:round; stroke-width:4; stroke-opacity:1; fill:none" points="
  2352.76,642.531 2352.76,623.633 
  "/>
<path clip-path="url(#clip850)" d="M234.443 720.803 L242.082 720.803 L242.082 694.437 L233.772 696.104 L233.772 691.845 L242.035 690.178 L246.711 690.178 L246.711 720.803 L254.35 720.803 L254.35 724.738 L234.443 724.738 L234.443 720.803 Z" fill="#000000" fill-rule="evenodd" fill-opacity="1" /><path clip-path="url(#clip850)" d="M273.795 693.257 Q270.183 693.257 268.355 696.821 Q266.549 700.363 266.549 707.493 Q266.549 714.599 268.355 718.164 Q270.183 721.705 273.795 721.705 Q277.429 721.705 279.234 718.164 Q281.063 714.599 281.063 707.493 Q281.063 700.363 279.234 696.821 Q277.429 693.257 273.795 693.257 M273.795 689.553 Q279.605 689.553 282.66 694.159 Q285.739 698.743 285.739 707.493 Q285.739 716.219 282.66 720.826 Q279.605 725.409 273.795 725.409 Q267.984 725.409 264.906 720.826 Q261.85 716.219 261.85 707.493 Q261.85 698.743 264.906 694.159 Q267.984 689.553 273.795 689.553 Z" fill="#000000" fill-rule="evenodd" fill-opacity="1" /><path clip-path="url(#clip850)" d="M285.739 683.654 L309.85 683.654 L309.85 686.852 L285.739 686.852 L285.739 683.654 Z" fill="#000000" fill-rule="evenodd" fill-opacity="1" /><path clip-path="url(#clip850)" d="M318.088 669.247 L333.003 669.247 L333.003 672.445 L321.568 672.445 L321.568 679.328 Q322.395 679.046 323.223 678.915 Q324.05 678.764 324.878 678.764 Q329.58 678.764 332.326 681.341 Q335.072 683.918 335.072 688.319 Q335.072 692.851 332.251 695.371 Q329.429 697.873 324.295 697.873 Q322.527 697.873 320.684 697.572 Q318.859 697.271 316.903 696.669 L316.903 692.851 Q318.596 693.773 320.402 694.224 Q322.207 694.676 324.22 694.676 Q327.473 694.676 329.373 692.964 Q331.273 691.253 331.273 688.319 Q331.273 685.385 329.373 683.673 Q327.473 681.962 324.22 681.962 Q322.696 681.962 321.173 682.3 Q319.668 682.639 318.088 683.353 L318.088 669.247 Z" fill="#000000" fill-rule="evenodd" fill-opacity="1" /><path clip-path="url(#clip850)" d="M1283.57 720.803 L1291.21 720.803 L1291.21 694.437 L1282.9 696.104 L1282.9 691.845 L1291.16 690.178 L1295.84 690.178 L1295.84 720.803 L1303.48 720.803 L1303.48 724.738 L1283.57 724.738 L1283.57 720.803 Z" fill="#000000" fill-rule="evenodd" fill-opacity="1" /><path clip-path="url(#clip850)" d="M1322.92 693.257 Q1319.31 693.257 1317.48 696.821 Q1315.68 700.363 1315.68 707.493 Q1315.68 714.599 1317.48 718.164 Q1319.31 721.705 1322.92 721.705 Q1326.56 721.705 1328.36 718.164 Q1330.19 714.599 1330.19 707.493 Q1330.19 700.363 1328.36 696.821 Q1326.56 693.257 1322.92 693.257 M1322.92 689.553 Q1328.73 689.553 1331.79 694.159 Q1334.87 698.743 1334.87 707.493 Q1334.87 716.219 1331.79 720.826 Q1328.73 725.409 1322.92 725.409 Q1317.11 725.409 1314.03 720.826 Q1310.98 716.219 1310.98 707.493 Q1310.98 698.743 1314.03 694.159 Q1317.11 689.553 1322.92 689.553 Z" fill="#000000" fill-rule="evenodd" fill-opacity="1" /><path clip-path="url(#clip850)" d="M1344.57 671.749 Q1341.64 671.749 1340.15 674.645 Q1338.69 677.523 1338.69 683.316 Q1338.69 689.09 1340.15 691.986 Q1341.64 694.864 1344.57 694.864 Q1347.53 694.864 1348.99 691.986 Q1350.48 689.09 1350.48 683.316 Q1350.48 677.523 1348.99 674.645 Q1347.53 671.749 1344.57 671.749 M1344.57 668.74 Q1349.29 668.74 1351.78 672.482 Q1354.28 676.206 1354.28 683.316 Q1354.28 690.406 1351.78 694.149 Q1349.29 697.873 1344.57 697.873 Q1339.85 697.873 1337.35 694.149 Q1334.87 690.406 1334.87 683.316 Q1334.87 676.206 1337.35 672.482 Q1339.85 668.74 1344.57 668.74 Z" fill="#000000" fill-rule="evenodd" fill-opacity="1" /><path clip-path="url(#clip850)" d="M2318.36 720.803 L2326 720.803 L2326 694.437 L2317.69 696.104 L2317.69 691.845 L2325.95 690.178 L2330.63 690.178 L2330.63 720.803 L2338.27 720.803 L2338.27 724.738 L2318.36 724.738 L2318.36 720.803 Z" fill="#000000" fill-rule="evenodd" fill-opacity="1" /><path clip-path="url(#clip850)" d="M2357.71 693.257 Q2354.1 693.257 2352.27 696.821 Q2350.47 700.363 2350.47 707.493 Q2350.47 714.599 2352.27 718.164 Q2354.1 721.705 2357.71 721.705 Q2361.35 721.705 2363.15 718.164 Q2364.98 714.599 2364.98 707.493 Q2364.98 700.363 2363.15 696.821 Q2361.35 693.257 2357.71 693.257 M2357.71 689.553 Q2363.52 689.553 2366.58 694.159 Q2369.66 698.743 2369.66 707.493 Q2369.66 716.219 2366.58 720.826 Q2363.52 725.409 2357.71 725.409 Q2351.9 725.409 2348.82 720.826 Q2345.77 716.219 2345.77 707.493 Q2345.77 698.743 2348.82 694.159 Q2351.9 689.553 2357.71 689.553 Z" fill="#000000" fill-rule="evenodd" fill-opacity="1" /><path clip-path="url(#clip850)" d="M2370.84 669.247 L2385.75 669.247 L2385.75 672.445 L2374.32 672.445 L2374.32 679.328 Q2375.15 679.046 2375.97 678.915 Q2376.8 678.764 2377.63 678.764 Q2382.33 678.764 2385.08 681.341 Q2387.82 683.918 2387.82 688.319 Q2387.82 692.851 2385 695.371 Q2382.18 697.873 2377.05 697.873 Q2375.28 697.873 2373.44 697.572 Q2371.61 697.271 2369.66 696.669 L2369.66 692.851 Q2371.35 693.773 2373.15 694.224 Q2374.96 694.676 2376.97 694.676 Q2380.23 694.676 2382.12 692.964 Q2384.02 691.253 2384.02 688.319 Q2384.02 685.385 2382.12 683.673 Q2380.23 681.962 2376.97 681.962 Q2375.45 681.962 2373.92 682.3 Q2372.42 682.639 2370.84 683.353 L2370.84 669.247 Z" fill="#000000" fill-rule="evenodd" fill-opacity="1" /><path clip-path="url(#clip850)" d="M1317.65 760.05 L1317.65 770.172 L1329.71 770.172 L1329.71 774.723 L1317.65 774.723 L1317.65 794.075 Q1317.65 798.435 1318.83 799.677 Q1320.04 800.918 1323.7 800.918 L1329.71 800.918 L1329.71 805.819 L1323.7 805.819 Q1316.92 805.819 1314.34 803.305 Q1311.76 800.759 1311.76 794.075 L1311.76 774.723 L1307.46 774.723 L1307.46 770.172 L1311.76 770.172 L1311.76 760.05 L1317.65 760.05 Z" fill="#000000" fill-rule="evenodd" fill-opacity="1" /><polyline clip-path="url(#clip852)" style="stroke:#000000; stroke-linecap:butt; stroke-linejoin:round; stroke-width:2; stroke-opacity:0.1; fill:none" points="
  284.422,625.55 2352.76,625.55 
  "/>
<polyline clip-path="url(#clip852)" style="stroke:#000000; stroke-linecap:butt; stroke-linejoin:round; stroke-width:2; stroke-opacity:0.1; fill:none" points="
  284.422,482.788 2352.76,482.788 
  "/>
<polyline clip-path="url(#clip852)" style="stroke:#000000; stroke-linecap:butt; stroke-linejoin:round; stroke-width:2; stroke-opacity:0.1; fill:none" points="
  284.422,340.026 2352.76,340.026 
  "/>
<polyline clip-path="url(#clip852)" style="stroke:#000000; stroke-linecap:butt; stroke-linejoin:round; stroke-width:2; stroke-opacity:0.1; fill:none" points="
  284.422,197.264 2352.76,197.264 
  "/>
<polyline clip-path="url(#clip852)" style="stroke:#000000; stroke-linecap:butt; stroke-linejoin:round; stroke-width:2; stroke-opacity:0.1; fill:none" points="
  284.422,54.5016 2352.76,54.5016 
  "/>
<polyline clip-path="url(#clip850)" style="stroke:#000000; stroke-linecap:butt; stroke-linejoin:round; stroke-width:4; stroke-opacity:1; fill:none" points="
  284.422,642.531 284.422,47.2441 
  "/>
<polyline clip-path="url(#clip850)" style="stroke:#000000; stroke-linecap:butt; stroke-linejoin:round; stroke-width:4; stroke-opacity:1; fill:none" points="
  284.422,625.55 303.319,625.55 
  "/>
<polyline clip-path="url(#clip850)" style="stroke:#000000; stroke-linecap:butt; stroke-linejoin:round; stroke-width:4; stroke-opacity:1; fill:none" points="
  284.422,482.788 303.319,482.788 
  "/>
<polyline clip-path="url(#clip850)" style="stroke:#000000; stroke-linecap:butt; stroke-linejoin:round; stroke-width:4; stroke-opacity:1; fill:none" points="
  284.422,340.026 303.319,340.026 
  "/>
<polyline clip-path="url(#clip850)" style="stroke:#000000; stroke-linecap:butt; stroke-linejoin:round; stroke-width:4; stroke-opacity:1; fill:none" points="
  284.422,197.264 303.319,197.264 
  "/>
<polyline clip-path="url(#clip850)" style="stroke:#000000; stroke-linecap:butt; stroke-linejoin:round; stroke-width:4; stroke-opacity:1; fill:none" points="
  284.422,54.5016 303.319,54.5016 
  "/>
<path clip-path="url(#clip850)" d="M161.084 611.349 Q157.473 611.349 155.644 614.913 Q153.839 618.455 153.839 625.585 Q153.839 632.691 155.644 636.256 Q157.473 639.798 161.084 639.798 Q164.718 639.798 166.524 636.256 Q168.353 632.691 168.353 625.585 Q168.353 618.455 166.524 614.913 Q164.718 611.349 161.084 611.349 M161.084 607.645 Q166.894 607.645 169.95 612.251 Q173.029 616.835 173.029 625.585 Q173.029 634.311 169.95 638.918 Q166.894 643.501 161.084 643.501 Q155.274 643.501 152.195 638.918 Q149.14 634.311 149.14 625.585 Q149.14 616.835 152.195 612.251 Q155.274 607.645 161.084 607.645 Z" fill="#000000" fill-rule="evenodd" fill-opacity="1" /><path clip-path="url(#clip850)" d="M181.246 636.95 L186.13 636.95 L186.13 642.83 L181.246 642.83 L181.246 636.95 Z" fill="#000000" fill-rule="evenodd" fill-opacity="1" /><path clip-path="url(#clip850)" d="M206.315 611.349 Q202.704 611.349 200.876 614.913 Q199.07 618.455 199.07 625.585 Q199.07 632.691 200.876 636.256 Q202.704 639.798 206.315 639.798 Q209.95 639.798 211.755 636.256 Q213.584 632.691 213.584 625.585 Q213.584 618.455 211.755 614.913 Q209.95 611.349 206.315 611.349 M206.315 607.645 Q212.126 607.645 215.181 612.251 Q218.26 616.835 218.26 625.585 Q218.26 634.311 215.181 638.918 Q212.126 643.501 206.315 643.501 Q200.505 643.501 197.427 638.918 Q194.371 634.311 194.371 625.585 Q194.371 616.835 197.427 612.251 Q200.505 607.645 206.315 607.645 Z" fill="#000000" fill-rule="evenodd" fill-opacity="1" /><path clip-path="url(#clip850)" d="M236.477 611.349 Q232.866 611.349 231.037 614.913 Q229.232 618.455 229.232 625.585 Q229.232 632.691 231.037 636.256 Q232.866 639.798 236.477 639.798 Q240.111 639.798 241.917 636.256 Q243.746 632.691 243.746 625.585 Q243.746 618.455 241.917 614.913 Q240.111 611.349 236.477 611.349 M236.477 607.645 Q242.287 607.645 245.343 612.251 Q248.422 616.835 248.422 625.585 Q248.422 634.311 245.343 638.918 Q242.287 643.501 236.477 643.501 Q230.667 643.501 227.588 638.918 Q224.533 634.311 224.533 625.585 Q224.533 616.835 227.588 612.251 Q230.667 607.645 236.477 607.645 Z" fill="#000000" fill-rule="evenodd" fill-opacity="1" /><path clip-path="url(#clip850)" d="M162.079 468.587 Q158.468 468.587 156.64 472.151 Q154.834 475.693 154.834 482.823 Q154.834 489.929 156.64 493.494 Q158.468 497.035 162.079 497.035 Q165.714 497.035 167.519 493.494 Q169.348 489.929 169.348 482.823 Q169.348 475.693 167.519 472.151 Q165.714 468.587 162.079 468.587 M162.079 464.883 Q167.89 464.883 170.945 469.489 Q174.024 474.073 174.024 482.823 Q174.024 491.549 170.945 496.156 Q167.89 500.739 162.079 500.739 Q156.269 500.739 153.191 496.156 Q150.135 491.549 150.135 482.823 Q150.135 474.073 153.191 469.489 Q156.269 464.883 162.079 464.883 Z" fill="#000000" fill-rule="evenodd" fill-opacity="1" /><path clip-path="url(#clip850)" d="M182.241 494.188 L187.126 494.188 L187.126 500.068 L182.241 500.068 L182.241 494.188 Z" fill="#000000" fill-rule="evenodd" fill-opacity="1" /><path clip-path="url(#clip850)" d="M201.339 496.133 L217.658 496.133 L217.658 500.068 L195.714 500.068 L195.714 496.133 Q198.376 493.378 202.959 488.748 Q207.565 484.096 208.746 482.753 Q210.991 480.23 211.871 478.494 Q212.774 476.735 212.774 475.045 Q212.774 472.29 210.829 470.554 Q208.908 468.818 205.806 468.818 Q203.607 468.818 201.153 469.582 Q198.723 470.346 195.945 471.897 L195.945 467.174 Q198.769 466.04 201.223 465.462 Q203.676 464.883 205.714 464.883 Q211.084 464.883 214.278 467.568 Q217.473 470.253 217.473 474.744 Q217.473 476.874 216.663 478.795 Q215.876 480.693 213.769 483.286 Q213.19 483.957 210.088 487.174 Q206.987 490.369 201.339 496.133 Z" fill="#000000" fill-rule="evenodd" fill-opacity="1" /><path clip-path="url(#clip850)" d="M227.519 465.508 L245.875 465.508 L245.875 469.443 L231.801 469.443 L231.801 477.915 Q232.82 477.568 233.838 477.406 Q234.857 477.221 235.875 477.221 Q241.662 477.221 245.042 480.392 Q248.422 483.563 248.422 488.98 Q248.422 494.559 244.949 497.66 Q241.477 500.739 235.158 500.739 Q232.982 500.739 230.713 500.369 Q228.468 499.998 226.061 499.258 L226.061 494.559 Q228.144 495.693 230.366 496.248 Q232.588 496.804 235.065 496.804 Q239.07 496.804 241.408 494.697 Q243.746 492.591 243.746 488.98 Q243.746 485.369 241.408 483.262 Q239.07 481.156 235.065 481.156 Q233.19 481.156 231.315 481.573 Q229.463 481.989 227.519 482.869 L227.519 465.508 Z" fill="#000000" fill-rule="evenodd" fill-opacity="1" /><path clip-path="url(#clip850)" d="M161.084 325.824 Q157.473 325.824 155.644 329.389 Q153.839 332.931 153.839 340.06 Q153.839 347.167 155.644 350.732 Q157.473 354.273 161.084 354.273 Q164.718 354.273 166.524 350.732 Q168.353 347.167 168.353 340.06 Q168.353 332.931 166.524 329.389 Q164.718 325.824 161.084 325.824 M161.084 322.121 Q166.894 322.121 169.95 326.727 Q173.029 331.311 173.029 340.06 Q173.029 348.787 169.95 353.394 Q166.894 357.977 161.084 357.977 Q155.274 357.977 152.195 353.394 Q149.14 348.787 149.14 340.06 Q149.14 331.311 152.195 326.727 Q155.274 322.121 161.084 322.121 Z" fill="#000000" fill-rule="evenodd" fill-opacity="1" /><path clip-path="url(#clip850)" d="M181.246 351.426 L186.13 351.426 L186.13 357.306 L181.246 357.306 L181.246 351.426 Z" fill="#000000" fill-rule="evenodd" fill-opacity="1" /><path clip-path="url(#clip850)" d="M196.362 322.746 L214.718 322.746 L214.718 326.681 L200.644 326.681 L200.644 335.153 Q201.663 334.806 202.681 334.644 Q203.7 334.459 204.718 334.459 Q210.505 334.459 213.885 337.63 Q217.264 340.801 217.264 346.218 Q217.264 351.797 213.792 354.898 Q210.32 357.977 204.001 357.977 Q201.825 357.977 199.556 357.607 Q197.311 357.236 194.903 356.496 L194.903 351.797 Q196.987 352.931 199.209 353.486 Q201.431 354.042 203.908 354.042 Q207.913 354.042 210.251 351.935 Q212.588 349.829 212.588 346.218 Q212.588 342.607 210.251 340.5 Q207.913 338.394 203.908 338.394 Q202.033 338.394 200.158 338.81 Q198.306 339.227 196.362 340.107 L196.362 322.746 Z" fill="#000000" fill-rule="evenodd" fill-opacity="1" /><path clip-path="url(#clip850)" d="M236.477 325.824 Q232.866 325.824 231.037 329.389 Q229.232 332.931 229.232 340.06 Q229.232 347.167 231.037 350.732 Q232.866 354.273 236.477 354.273 Q240.111 354.273 241.917 350.732 Q243.746 347.167 243.746 340.06 Q243.746 332.931 241.917 329.389 Q240.111 325.824 236.477 325.824 M236.477 322.121 Q242.287 322.121 245.343 326.727 Q248.422 331.311 248.422 340.06 Q248.422 348.787 245.343 353.394 Q242.287 357.977 236.477 357.977 Q230.667 357.977 227.588 353.394 Q224.533 348.787 224.533 340.06 Q224.533 331.311 227.588 326.727 Q230.667 322.121 236.477 322.121 Z" fill="#000000" fill-rule="evenodd" fill-opacity="1" /><path clip-path="url(#clip850)" d="M162.079 183.062 Q158.468 183.062 156.64 186.627 Q154.834 190.169 154.834 197.298 Q154.834 204.405 156.64 207.97 Q158.468 211.511 162.079 211.511 Q165.714 211.511 167.519 207.97 Q169.348 204.405 169.348 197.298 Q169.348 190.169 167.519 186.627 Q165.714 183.062 162.079 183.062 M162.079 179.359 Q167.89 179.359 170.945 183.965 Q174.024 188.548 174.024 197.298 Q174.024 206.025 170.945 210.632 Q167.89 215.215 162.079 215.215 Q156.269 215.215 153.191 210.632 Q150.135 206.025 150.135 197.298 Q150.135 188.548 153.191 183.965 Q156.269 179.359 162.079 179.359 Z" fill="#000000" fill-rule="evenodd" fill-opacity="1" /><path clip-path="url(#clip850)" d="M182.241 208.664 L187.126 208.664 L187.126 214.544 L182.241 214.544 L182.241 208.664 Z" fill="#000000" fill-rule="evenodd" fill-opacity="1" /><path clip-path="url(#clip850)" d="M196.13 179.984 L218.352 179.984 L218.352 181.974 L205.806 214.544 L200.922 214.544 L212.727 183.919 L196.13 183.919 L196.13 179.984 Z" fill="#000000" fill-rule="evenodd" fill-opacity="1" /><path clip-path="url(#clip850)" d="M227.519 179.984 L245.875 179.984 L245.875 183.919 L231.801 183.919 L231.801 192.391 Q232.82 192.044 233.838 191.882 Q234.857 191.697 235.875 191.697 Q241.662 191.697 245.042 194.868 Q248.422 198.039 248.422 203.456 Q248.422 209.034 244.949 212.136 Q241.477 215.215 235.158 215.215 Q232.982 215.215 230.713 214.845 Q228.468 214.474 226.061 213.733 L226.061 209.034 Q228.144 210.169 230.366 210.724 Q232.588 211.28 235.065 211.28 Q239.07 211.28 241.408 209.173 Q243.746 207.067 243.746 203.456 Q243.746 199.845 241.408 197.738 Q239.07 195.632 235.065 195.632 Q233.19 195.632 231.315 196.048 Q229.463 196.465 227.519 197.345 L227.519 179.984 Z" fill="#000000" fill-rule="evenodd" fill-opacity="1" /><path clip-path="url(#clip850)" d="M151.894 67.8464 L159.533 67.8464 L159.533 41.4808 L151.223 43.1475 L151.223 38.8883 L159.487 37.2216 L164.163 37.2216 L164.163 67.8464 L171.802 67.8464 L171.802 71.7816 L151.894 71.7816 L151.894 67.8464 Z" fill="#000000" fill-rule="evenodd" fill-opacity="1" /><path clip-path="url(#clip850)" d="M181.246 65.902 L186.13 65.902 L186.13 71.7816 L181.246 71.7816 L181.246 65.902 Z" fill="#000000" fill-rule="evenodd" fill-opacity="1" /><path clip-path="url(#clip850)" d="M206.315 40.3003 Q202.704 40.3003 200.876 43.8651 Q199.07 47.4067 199.07 54.5363 Q199.07 61.6428 200.876 65.2076 Q202.704 68.7492 206.315 68.7492 Q209.95 68.7492 211.755 65.2076 Q213.584 61.6428 213.584 54.5363 Q213.584 47.4067 211.755 43.8651 Q209.95 40.3003 206.315 40.3003 M206.315 36.5966 Q212.126 36.5966 215.181 41.2031 Q218.26 45.7864 218.26 54.5363 Q218.26 63.2631 215.181 67.8696 Q212.126 72.4529 206.315 72.4529 Q200.505 72.4529 197.427 67.8696 Q194.371 63.2631 194.371 54.5363 Q194.371 45.7864 197.427 41.2031 Q200.505 36.5966 206.315 36.5966 Z" fill="#000000" fill-rule="evenodd" fill-opacity="1" /><path clip-path="url(#clip850)" d="M236.477 40.3003 Q232.866 40.3003 231.037 43.8651 Q229.232 47.4067 229.232 54.5363 Q229.232 61.6428 231.037 65.2076 Q232.866 68.7492 236.477 68.7492 Q240.111 68.7492 241.917 65.2076 Q243.746 61.6428 243.746 54.5363 Q243.746 47.4067 241.917 43.8651 Q240.111 40.3003 236.477 40.3003 M236.477 36.5966 Q242.287 36.5966 245.343 41.2031 Q248.422 45.7864 248.422 54.5363 Q248.422 63.2631 245.343 67.8696 Q242.287 72.4529 236.477 72.4529 Q230.667 72.4529 227.588 67.8696 Q224.533 63.2631 224.533 54.5363 Q224.533 45.7864 227.588 41.2031 Q230.667 36.5966 236.477 36.5966 Z" fill="#000000" fill-rule="evenodd" fill-opacity="1" /><polyline clip-path="url(#clip852)" style="stroke:#009af9; stroke-linecap:butt; stroke-linejoin:round; stroke-width:4; stroke-opacity:1; fill:none" points="
  284.422,550.535 349.057,550.424 413.693,550.321 478.328,550.231 542.963,550.165 607.599,550.133 672.234,550.126 736.87,550.126 801.505,550.126 866.141,550.126 
  930.776,550.126 995.412,550.126 1060.05,550.127 1124.68,550.127 1189.32,550.128 1253.95,550.129 1318.59,550.133 1383.22,550.139 1447.86,550.153 1512.5,550.181 
  1577.13,550.238 1641.77,550.356 1706.4,550.597 1771.04,551.085 1835.67,552.066 1900.31,553.991 1964.94,557.605 2029.58,563.877 2094.21,573.452 2158.85,585.646 
  2223.49,598.195 2288.12,608.657 2352.76,615.96 
  "/>
<polyline clip-path="url(#clip852)" style="stroke:#e26f46; stroke-linecap:butt; stroke-linejoin:round; stroke-width:4; stroke-opacity:1; fill:none" points="
  284.422,623.742 349.057,624.707 413.693,625.177 478.328,625.403 542.963,625.505 607.599,625.543 672.234,625.549 736.87,625.55 801.505,625.55 866.141,625.55 
  930.776,625.55 995.412,625.55 1060.05,625.55 1124.68,625.55 1189.32,625.55 1253.95,625.55 1318.59,625.55 1383.22,625.55 1447.86,625.55 1512.5,625.55 
  1577.13,625.55 1641.77,625.55 1706.4,625.55 1771.04,625.55 1835.67,625.55 1900.31,625.55 1964.94,625.55 2029.58,625.55 2094.21,625.55 2158.85,625.55 
  2223.49,625.55 2288.12,625.55 2352.76,625.55 
  "/>
<polyline clip-path="url(#clip852)" style="stroke:#3da44d; stroke-linecap:butt; stroke-linejoin:round; stroke-width:4; stroke-opacity:1; fill:none" points="
  284.422,131.325 349.057,130.47 413.693,130.103 478.328,129.968 542.963,129.931 607.599,129.926 672.234,129.926 736.87,129.926 801.505,129.926 866.141,129.926 
  930.776,129.926 995.412,129.925 1060.05,129.925 1124.68,129.925 1189.32,129.924 1253.95,129.923 1318.59,129.919 1383.22,129.913 1447.86,129.899 1512.5,129.871 
  1577.13,129.813 1641.77,129.696 1706.4,129.455 1771.04,128.966 1835.67,127.986 1900.31,126.061 1964.94,122.447 2029.58,116.175 2094.21,106.6 2158.85,94.4055 
  2223.49,81.8565 2288.12,71.3942 2352.76,64.0918 
  "/>
<polyline clip-path="url(#clip852)" style="stroke:#c271d2; stroke-linecap:butt; stroke-linejoin:round; stroke-width:8; stroke-opacity:1; fill:none" stroke-dasharray="32, 20" points="
  284.422,550.546 349.057,550.438 413.693,550.337 478.328,550.249 542.963,550.186 607.599,550.154 672.234,550.148 736.87,550.148 801.505,550.148 866.141,550.148 
  930.776,550.148 995.412,550.148 1060.05,550.148 1124.68,550.149 1189.32,550.149 1253.95,550.151 1318.59,550.154 1383.22,550.16 1447.86,550.172 1512.5,550.197 
  1577.13,550.248 1641.77,550.353 1706.4,550.567 1771.04,551.003 1835.67,551.88 1900.31,553.609 1964.94,556.886 2029.58,562.663 2094.21,571.701 2158.85,583.589 
  2223.49,596.262 2288.12,607.176 2352.76,614.993 
  "/>
<polyline clip-path="url(#clip852)" style="stroke:#ac8d18; stroke-linecap:butt; stroke-linejoin:round; stroke-width:8; stroke-opacity:1; fill:none" stroke-dasharray="32, 20" points="
  284.422,623.801 349.057,624.735 413.693,625.19 478.328,625.408 542.963,625.507 607.599,625.543 672.234,625.549 736.87,625.55 801.505,625.55 866.141,625.55 
  930.776,625.55 995.412,625.55 1060.05,625.55 1124.68,625.55 1189.32,625.55 1253.95,625.55 1318.59,625.55 1383.22,625.55 1447.86,625.55 1512.5,625.55 
  1577.13,625.55 1641.77,625.55 1706.4,625.55 1771.04,625.55 1835.67,625.55 1900.31,625.55 1964.94,625.55 2029.58,625.55 2094.21,625.55 2158.85,625.55 
  2223.49,625.55 2288.12,625.55 2352.76,625.55 
  "/>
<polyline clip-path="url(#clip852)" style="stroke:#00a9ad; stroke-linecap:butt; stroke-linejoin:round; stroke-width:8; stroke-opacity:1; fill:none" stroke-dasharray="32, 20" points="
  284.422,131.255 349.057,130.429 413.693,130.075 478.328,129.944 542.963,129.909 607.599,129.904 672.234,129.904 736.87,129.904 801.505,129.904 866.141,129.904 
  930.776,129.904 995.412,129.904 1060.05,129.903 1124.68,129.903 1189.32,129.902 1253.95,129.901 1318.59,129.898 1383.22,129.892 1447.86,129.88 1512.5,129.855 
  1577.13,129.804 1641.77,129.699 1706.4,129.485 1771.04,129.049 1835.67,128.172 1900.31,126.443 1964.94,123.166 2029.58,117.388 2094.21,108.351 2158.85,96.4626 
  2223.49,83.7891 2288.12,72.8752 2352.76,65.0583 
  "/>
<polyline clip-path="url(#clip852)" style="stroke:#ed5d92; stroke-linecap:butt; stroke-linejoin:round; stroke-width:12; stroke-opacity:1; fill:none" stroke-dasharray="6, 12" points="
  284.422,550.225 349.057,550.225 413.693,550.225 478.328,550.225 542.963,550.225 607.599,550.225 672.234,550.224 736.87,550.224 801.505,550.224 866.141,550.223 
  930.776,550.221 995.412,550.217 1060.05,550.209 1124.68,550.195 1189.32,550.168 1253.95,550.128 1318.59,550.111 1383.22,550.179 1447.86,550.164 1512.5,550.194 
  1577.13,550.244 1641.77,550.349 1706.4,550.562 1771.04,550.996 1835.67,551.868 1900.31,553.587 1964.94,556.844 2029.58,562.585 2094.21,571.565 2158.85,583.397 
  2223.49,596.052 2288.12,607 2352.76,614.876 
  "/>
<polyline clip-path="url(#clip852)" style="stroke:#c68125; stroke-linecap:butt; stroke-linejoin:round; stroke-width:12; stroke-opacity:1; fill:none" stroke-dasharray="6, 12" points="
  284.422,625.268 349.057,625.268 413.693,625.269 478.328,625.269 542.963,625.269 607.599,625.27 672.234,625.271 736.87,625.275 801.505,625.281 866.141,625.294 
  930.776,625.321 995.412,625.371 1060.05,625.461 1124.68,625.592 1189.32,625.683 1253.95,625.491 1318.59,625.555 1383.22,625.547 1447.86,625.548 1512.5,625.548 
  1577.13,625.548 1641.77,625.548 1706.4,625.548 1771.04,625.548 1835.67,625.548 1900.31,625.548 1964.94,625.548 2029.58,625.548 2094.21,625.548 2158.85,625.548 
  2223.49,625.548 2288.12,625.548 2352.76,625.548 
  "/>
<polyline clip-path="url(#clip852)" style="stroke:#00a98d; stroke-linecap:butt; stroke-linejoin:round; stroke-width:12; stroke-opacity:1; fill:none" stroke-dasharray="6, 12" points="
  284.422,130.191 349.057,130.191 413.693,130.191 478.328,130.191 542.963,130.191 607.599,130.191 672.234,130.191 736.87,130.19 801.505,130.19 866.141,130.189 
  930.776,130.187 995.412,130.184 1060.05,130.178 1124.68,130.168 1189.32,130.165 1253.95,130.218 1318.59,130.541 1383.22,130.959 1447.86,129.086 1512.5,130.399 
  1577.13,129.931 1641.77,129.898 1706.4,129.674 1771.04,129.243 1835.67,128.383 1900.31,126.652 1964.94,123.399 2029.58,117.658 2094.21,108.677 2158.85,96.8454 
  2223.49,84.1905 2288.12,73.2428 2352.76,65.3666 
  "/>
<path clip-path="url(#clip850)" d="
M1946.31 585.487 L2283.81 585.487 L2283.81 67.087 L1946.31 67.087  Z
  " fill="#ffffff" fill-rule="evenodd" fill-opacity="1"/>
<polyline clip-path="url(#clip850)" style="stroke:#000000; stroke-linecap:butt; stroke-linejoin:round; stroke-width:4; stroke-opacity:1; fill:none" points="
  1946.31,585.487 2283.81,585.487 2283.81,67.087 1946.31,67.087 1946.31,585.487 
  "/>
<polyline clip-path="url(#clip850)" style="stroke:#009af9; stroke-linecap:butt; stroke-linejoin:round; stroke-width:4; stroke-opacity:1; fill:none" points="
  1969.29,118.927 2107.18,118.927 
  "/>
<path clip-path="url(#clip850)" d="M2130.16 125.976 L2130.16 110.281 L2134.42 110.281 L2134.42 125.814 Q2134.42 129.494 2135.86 131.346 Q2137.29 133.175 2140.16 133.175 Q2143.61 133.175 2145.6 130.976 Q2147.62 128.776 2147.62 124.98 L2147.62 110.281 L2151.88 110.281 L2151.88 136.207 L2147.62 136.207 L2147.62 132.226 Q2146.07 134.587 2144.01 135.744 Q2141.97 136.878 2139.26 136.878 Q2134.79 136.878 2132.48 134.101 Q2130.16 131.323 2130.16 125.976 M2140.88 109.656 L2140.88 109.656 Z" fill="#000000" fill-rule="evenodd" fill-opacity="1" /><path clip-path="url(#clip850)" d="M2162.06 132.272 L2169.7 132.272 L2169.7 105.906 L2161.39 107.573 L2161.39 103.314 L2169.65 101.647 L2174.33 101.647 L2174.33 132.272 L2181.97 132.272 L2181.97 136.207 L2162.06 136.207 L2162.06 132.272 Z" fill="#000000" fill-rule="evenodd" fill-opacity="1" /><path clip-path="url(#clip850)" d="M2201.04 100.235 Q2197.94 105.559 2196.44 110.767 Q2194.93 115.976 2194.93 121.323 Q2194.93 126.67 2196.44 131.925 Q2197.96 137.156 2201.04 142.457 L2197.34 142.457 Q2193.87 137.017 2192.13 131.763 Q2190.42 126.508 2190.42 121.323 Q2190.42 116.161 2192.13 110.929 Q2193.84 105.698 2197.34 100.235 L2201.04 100.235 Z" fill="#000000" fill-rule="evenodd" fill-opacity="1" /><path clip-path="url(#clip850)" d="M2213.52 102.92 L2213.52 110.281 L2222.29 110.281 L2222.29 113.591 L2213.52 113.591 L2213.52 127.665 Q2213.52 130.837 2214.38 131.739 Q2215.26 132.642 2217.92 132.642 L2222.29 132.642 L2222.29 136.207 L2217.92 136.207 Q2212.99 136.207 2211.11 134.378 Q2209.24 132.526 2209.24 127.665 L2209.24 113.591 L2206.11 113.591 L2206.11 110.281 L2209.24 110.281 L2209.24 102.92 L2213.52 102.92 Z" fill="#000000" fill-rule="evenodd" fill-opacity="1" /><path clip-path="url(#clip850)" d="M2227.22 100.235 L2230.93 100.235 Q2234.4 105.698 2236.11 110.929 Q2237.85 116.161 2237.85 121.323 Q2237.85 126.508 2236.11 131.763 Q2234.4 137.017 2230.93 142.457 L2227.22 142.457 Q2230.3 137.156 2231.81 131.925 Q2233.33 126.67 2233.33 121.323 Q2233.33 115.976 2231.81 110.767 Q2230.3 105.559 2227.22 100.235 Z" fill="#000000" fill-rule="evenodd" fill-opacity="1" /><polyline clip-path="url(#clip850)" style="stroke:#e26f46; stroke-linecap:butt; stroke-linejoin:round; stroke-width:4; stroke-opacity:1; fill:none" points="
  1969.29,170.767 2107.18,170.767 
  "/>
<path clip-path="url(#clip850)" d="M2130.16 177.816 L2130.16 162.121 L2134.42 162.121 L2134.42 177.654 Q2134.42 181.334 2135.86 183.186 Q2137.29 185.015 2140.16 185.015 Q2143.61 185.015 2145.6 182.816 Q2147.62 180.616 2147.62 176.82 L2147.62 162.121 L2151.88 162.121 L2151.88 188.047 L2147.62 188.047 L2147.62 184.066 Q2146.07 186.427 2144.01 187.584 Q2141.97 188.718 2139.26 188.718 Q2134.79 188.718 2132.48 185.941 Q2130.16 183.163 2130.16 177.816 M2140.88 161.496 L2140.88 161.496 Z" fill="#000000" fill-rule="evenodd" fill-opacity="1" /><path clip-path="url(#clip850)" d="M2165.28 184.112 L2181.6 184.112 L2181.6 188.047 L2159.65 188.047 L2159.65 184.112 Q2162.32 181.357 2166.9 176.728 Q2171.51 172.075 2172.69 170.732 Q2174.93 168.209 2175.81 166.473 Q2176.71 164.714 2176.71 163.024 Q2176.71 160.269 2174.77 158.533 Q2172.85 156.797 2169.75 156.797 Q2167.55 156.797 2165.09 157.561 Q2162.66 158.325 2159.89 159.876 L2159.89 155.154 Q2162.71 154.019 2165.16 153.441 Q2167.62 152.862 2169.65 152.862 Q2175.02 152.862 2178.22 155.547 Q2181.41 158.232 2181.41 162.723 Q2181.41 164.853 2180.6 166.774 Q2179.82 168.672 2177.71 171.265 Q2177.13 171.936 2174.03 175.154 Q2170.93 178.348 2165.28 184.112 Z" fill="#000000" fill-rule="evenodd" fill-opacity="1" /><path clip-path="url(#clip850)" d="M2201.04 152.075 Q2197.94 157.399 2196.44 162.607 Q2194.93 167.816 2194.93 173.163 Q2194.93 178.51 2196.44 183.765 Q2197.96 188.996 2201.04 194.297 L2197.34 194.297 Q2193.87 188.857 2192.13 183.603 Q2190.42 178.348 2190.42 173.163 Q2190.42 168.001 2192.13 162.769 Q2193.84 157.538 2197.34 152.075 L2201.04 152.075 Z" fill="#000000" fill-rule="evenodd" fill-opacity="1" /><path clip-path="url(#clip850)" d="M2213.52 154.76 L2213.52 162.121 L2222.29 162.121 L2222.29 165.431 L2213.52 165.431 L2213.52 179.505 Q2213.52 182.677 2214.38 183.579 Q2215.26 184.482 2217.92 184.482 L2222.29 184.482 L2222.29 188.047 L2217.92 188.047 Q2212.99 188.047 2211.11 186.218 Q2209.24 184.366 2209.24 179.505 L2209.24 165.431 L2206.11 165.431 L2206.11 162.121 L2209.24 162.121 L2209.24 154.76 L2213.52 154.76 Z" fill="#000000" fill-rule="evenodd" fill-opacity="1" /><path clip-path="url(#clip850)" d="M2227.22 152.075 L2230.93 152.075 Q2234.4 157.538 2236.11 162.769 Q2237.85 168.001 2237.85 173.163 Q2237.85 178.348 2236.11 183.603 Q2234.4 188.857 2230.93 194.297 L2227.22 194.297 Q2230.3 188.996 2231.81 183.765 Q2233.33 178.51 2233.33 173.163 Q2233.33 167.816 2231.81 162.607 Q2230.3 157.399 2227.22 152.075 Z" fill="#000000" fill-rule="evenodd" fill-opacity="1" /><polyline clip-path="url(#clip850)" style="stroke:#3da44d; stroke-linecap:butt; stroke-linejoin:round; stroke-width:4; stroke-opacity:1; fill:none" points="
  1969.29,222.607 2107.18,222.607 
  "/>
<path clip-path="url(#clip850)" d="M2130.16 229.656 L2130.16 213.961 L2134.42 213.961 L2134.42 229.494 Q2134.42 233.174 2135.86 235.026 Q2137.29 236.855 2140.16 236.855 Q2143.61 236.855 2145.6 234.656 Q2147.62 232.456 2147.62 228.66 L2147.62 213.961 L2151.88 213.961 L2151.88 239.887 L2147.62 239.887 L2147.62 235.906 Q2146.07 238.267 2144.01 239.424 Q2141.97 240.558 2139.26 240.558 Q2134.79 240.558 2132.48 237.781 Q2130.16 235.003 2130.16 229.656 M2140.88 213.336 L2140.88 213.336 Z" fill="#000000" fill-rule="evenodd" fill-opacity="1" /><path clip-path="url(#clip850)" d="M2175.42 221.253 Q2178.77 221.97 2180.65 224.239 Q2182.55 226.507 2182.55 229.841 Q2182.55 234.956 2179.03 237.757 Q2175.51 240.558 2169.03 240.558 Q2166.85 240.558 2164.54 240.118 Q2162.25 239.702 2159.79 238.845 L2159.79 234.331 Q2161.74 235.466 2164.05 236.044 Q2166.37 236.623 2168.89 236.623 Q2173.29 236.623 2175.58 234.887 Q2177.9 233.151 2177.9 229.841 Q2177.9 226.785 2175.74 225.072 Q2173.61 223.336 2169.79 223.336 L2165.77 223.336 L2165.77 219.494 L2169.98 219.494 Q2173.43 219.494 2175.26 218.128 Q2177.08 216.739 2177.08 214.146 Q2177.08 211.484 2175.19 210.072 Q2173.31 208.637 2169.79 208.637 Q2167.87 208.637 2165.67 209.054 Q2163.47 209.47 2160.83 210.35 L2160.83 206.183 Q2163.5 205.443 2165.81 205.072 Q2168.15 204.702 2170.21 204.702 Q2175.53 204.702 2178.64 207.133 Q2181.74 209.54 2181.74 213.66 Q2181.74 216.531 2180.09 218.521 Q2178.45 220.489 2175.42 221.253 Z" fill="#000000" fill-rule="evenodd" fill-opacity="1" /><path clip-path="url(#clip850)" d="M2201.04 203.915 Q2197.94 209.239 2196.44 214.447 Q2194.93 219.656 2194.93 225.003 Q2194.93 230.35 2196.44 235.605 Q2197.96 240.836 2201.04 246.137 L2197.34 246.137 Q2193.87 240.697 2192.13 235.443 Q2190.42 230.188 2190.42 225.003 Q2190.42 219.841 2192.13 214.609 Q2193.84 209.378 2197.34 203.915 L2201.04 203.915 Z" fill="#000000" fill-rule="evenodd" fill-opacity="1" /><path clip-path="url(#clip850)" d="M2213.52 206.6 L2213.52 213.961 L2222.29 213.961 L2222.29 217.271 L2213.52 217.271 L2213.52 231.345 Q2213.52 234.517 2214.38 235.419 Q2215.26 236.322 2217.92 236.322 L2222.29 236.322 L2222.29 239.887 L2217.92 239.887 Q2212.99 239.887 2211.11 238.058 Q2209.24 236.206 2209.24 231.345 L2209.24 217.271 L2206.11 217.271 L2206.11 213.961 L2209.24 213.961 L2209.24 206.6 L2213.52 206.6 Z" fill="#000000" fill-rule="evenodd" fill-opacity="1" /><path clip-path="url(#clip850)" d="M2227.22 203.915 L2230.93 203.915 Q2234.4 209.378 2236.11 214.609 Q2237.85 219.841 2237.85 225.003 Q2237.85 230.188 2236.11 235.443 Q2234.4 240.697 2230.93 246.137 L2227.22 246.137 Q2230.3 240.836 2231.81 235.605 Q2233.33 230.35 2233.33 225.003 Q2233.33 219.656 2231.81 214.447 Q2230.3 209.239 2227.22 203.915 Z" fill="#000000" fill-rule="evenodd" fill-opacity="1" /><polyline clip-path="url(#clip850)" style="stroke:#c271d2; stroke-linecap:butt; stroke-linejoin:round; stroke-width:4; stroke-opacity:1; fill:none" stroke-dasharray="16, 10" points="
  1969.29,274.447 2107.18,274.447 
  "/>
<path clip-path="url(#clip850)" d="M2130.16 281.496 L2130.16 265.801 L2134.42 265.801 L2134.42 281.334 Q2134.42 285.014 2135.86 286.866 Q2137.29 288.695 2140.16 288.695 Q2143.61 288.695 2145.6 286.496 Q2147.62 284.296 2147.62 280.5 L2147.62 265.801 L2151.88 265.801 L2151.88 291.727 L2147.62 291.727 L2147.62 287.746 Q2146.07 290.107 2144.01 291.264 Q2141.97 292.398 2139.26 292.398 Q2134.79 292.398 2132.48 289.621 Q2130.16 286.843 2130.16 281.496 M2140.88 265.176 L2140.88 265.176 Z" fill="#000000" fill-rule="evenodd" fill-opacity="1" /><path clip-path="url(#clip850)" d="M2162.06 287.792 L2169.7 287.792 L2169.7 261.426 L2161.39 263.093 L2161.39 258.834 L2169.65 257.167 L2174.33 257.167 L2174.33 287.792 L2181.97 287.792 L2181.97 291.727 L2162.06 291.727 L2162.06 287.792 Z" fill="#000000" fill-rule="evenodd" fill-opacity="1" /><path clip-path="url(#clip850)" d="M2201.04 255.755 Q2197.94 261.079 2196.44 266.287 Q2194.93 271.496 2194.93 276.843 Q2194.93 282.19 2196.44 287.445 Q2197.96 292.676 2201.04 297.977 L2197.34 297.977 Q2193.87 292.537 2192.13 287.283 Q2190.42 282.028 2190.42 276.843 Q2190.42 271.681 2192.13 266.449 Q2193.84 261.218 2197.34 255.755 L2201.04 255.755 Z" fill="#000000" fill-rule="evenodd" fill-opacity="1" /><path clip-path="url(#clip850)" d="M2213.52 258.44 L2213.52 265.801 L2222.29 265.801 L2222.29 269.111 L2213.52 269.111 L2213.52 283.185 Q2213.52 286.357 2214.38 287.259 Q2215.26 288.162 2217.92 288.162 L2222.29 288.162 L2222.29 291.727 L2217.92 291.727 Q2212.99 291.727 2211.11 289.898 Q2209.24 288.046 2209.24 283.185 L2209.24 269.111 L2206.11 269.111 L2206.11 265.801 L2209.24 265.801 L2209.24 258.44 L2213.52 258.44 Z" fill="#000000" fill-rule="evenodd" fill-opacity="1" /><path clip-path="url(#clip850)" d="M2227.22 255.755 L2230.93 255.755 Q2234.4 261.218 2236.11 266.449 Q2237.85 271.681 2237.85 276.843 Q2237.85 282.028 2236.11 287.283 Q2234.4 292.537 2230.93 297.977 L2227.22 297.977 Q2230.3 292.676 2231.81 287.445 Q2233.33 282.19 2233.33 276.843 Q2233.33 271.496 2231.81 266.287 Q2230.3 261.079 2227.22 255.755 Z" fill="#000000" fill-rule="evenodd" fill-opacity="1" /><polyline clip-path="url(#clip850)" style="stroke:#ac8d18; stroke-linecap:butt; stroke-linejoin:round; stroke-width:4; stroke-opacity:1; fill:none" stroke-dasharray="16, 10" points="
  1969.29,326.287 2107.18,326.287 
  "/>
<path clip-path="url(#clip850)" d="M2130.16 333.336 L2130.16 317.641 L2134.42 317.641 L2134.42 333.174 Q2134.42 336.854 2135.86 338.706 Q2137.29 340.535 2140.16 340.535 Q2143.61 340.535 2145.6 338.336 Q2147.62 336.136 2147.62 332.34 L2147.62 317.641 L2151.88 317.641 L2151.88 343.567 L2147.62 343.567 L2147.62 339.586 Q2146.07 341.947 2144.01 343.104 Q2141.97 344.238 2139.26 344.238 Q2134.79 344.238 2132.48 341.461 Q2130.16 338.683 2130.16 333.336 M2140.88 317.016 L2140.88 317.016 Z" fill="#000000" fill-rule="evenodd" fill-opacity="1" /><path clip-path="url(#clip850)" d="M2165.28 339.632 L2181.6 339.632 L2181.6 343.567 L2159.65 343.567 L2159.65 339.632 Q2162.32 336.877 2166.9 332.248 Q2171.51 327.595 2172.69 326.252 Q2174.93 323.729 2175.81 321.993 Q2176.71 320.234 2176.71 318.544 Q2176.71 315.789 2174.77 314.053 Q2172.85 312.317 2169.75 312.317 Q2167.55 312.317 2165.09 313.081 Q2162.66 313.845 2159.89 315.396 L2159.89 310.674 Q2162.71 309.539 2165.16 308.961 Q2167.62 308.382 2169.65 308.382 Q2175.02 308.382 2178.22 311.067 Q2181.41 313.752 2181.41 318.243 Q2181.41 320.373 2180.6 322.294 Q2179.82 324.192 2177.71 326.785 Q2177.13 327.456 2174.03 330.674 Q2170.93 333.868 2165.28 339.632 Z" fill="#000000" fill-rule="evenodd" fill-opacity="1" /><path clip-path="url(#clip850)" d="M2201.04 307.595 Q2197.94 312.919 2196.44 318.127 Q2194.93 323.336 2194.93 328.683 Q2194.93 334.03 2196.44 339.285 Q2197.96 344.516 2201.04 349.817 L2197.34 349.817 Q2193.87 344.377 2192.13 339.123 Q2190.42 333.868 2190.42 328.683 Q2190.42 323.521 2192.13 318.289 Q2193.84 313.058 2197.34 307.595 L2201.04 307.595 Z" fill="#000000" fill-rule="evenodd" fill-opacity="1" /><path clip-path="url(#clip850)" d="M2213.52 310.28 L2213.52 317.641 L2222.29 317.641 L2222.29 320.951 L2213.52 320.951 L2213.52 335.025 Q2213.52 338.197 2214.38 339.099 Q2215.26 340.002 2217.92 340.002 L2222.29 340.002 L2222.29 343.567 L2217.92 343.567 Q2212.99 343.567 2211.11 341.738 Q2209.24 339.886 2209.24 335.025 L2209.24 320.951 L2206.11 320.951 L2206.11 317.641 L2209.24 317.641 L2209.24 310.28 L2213.52 310.28 Z" fill="#000000" fill-rule="evenodd" fill-opacity="1" /><path clip-path="url(#clip850)" d="M2227.22 307.595 L2230.93 307.595 Q2234.4 313.058 2236.11 318.289 Q2237.85 323.521 2237.85 328.683 Q2237.85 333.868 2236.11 339.123 Q2234.4 344.377 2230.93 349.817 L2227.22 349.817 Q2230.3 344.516 2231.81 339.285 Q2233.33 334.03 2233.33 328.683 Q2233.33 323.336 2231.81 318.127 Q2230.3 312.919 2227.22 307.595 Z" fill="#000000" fill-rule="evenodd" fill-opacity="1" /><polyline clip-path="url(#clip850)" style="stroke:#00a9ad; stroke-linecap:butt; stroke-linejoin:round; stroke-width:4; stroke-opacity:1; fill:none" stroke-dasharray="16, 10" points="
  1969.29,378.127 2107.18,378.127 
  "/>
<path clip-path="url(#clip850)" d="M2130.16 385.176 L2130.16 369.481 L2134.42 369.481 L2134.42 385.014 Q2134.42 388.694 2135.86 390.546 Q2137.29 392.375 2140.16 392.375 Q2143.61 392.375 2145.6 390.176 Q2147.62 387.976 2147.62 384.18 L2147.62 369.481 L2151.88 369.481 L2151.88 395.407 L2147.62 395.407 L2147.62 391.426 Q2146.07 393.787 2144.01 394.944 Q2141.97 396.078 2139.26 396.078 Q2134.79 396.078 2132.48 393.301 Q2130.16 390.523 2130.16 385.176 M2140.88 368.856 L2140.88 368.856 Z" fill="#000000" fill-rule="evenodd" fill-opacity="1" /><path clip-path="url(#clip850)" d="M2175.42 376.773 Q2178.77 377.49 2180.65 379.759 Q2182.55 382.027 2182.55 385.361 Q2182.55 390.476 2179.03 393.277 Q2175.51 396.078 2169.03 396.078 Q2166.85 396.078 2164.54 395.638 Q2162.25 395.222 2159.79 394.365 L2159.79 389.851 Q2161.74 390.986 2164.05 391.564 Q2166.37 392.143 2168.89 392.143 Q2173.29 392.143 2175.58 390.407 Q2177.9 388.671 2177.9 385.361 Q2177.9 382.305 2175.74 380.592 Q2173.61 378.856 2169.79 378.856 L2165.77 378.856 L2165.77 375.014 L2169.98 375.014 Q2173.43 375.014 2175.26 373.648 Q2177.08 372.259 2177.08 369.666 Q2177.08 367.004 2175.19 365.592 Q2173.31 364.157 2169.79 364.157 Q2167.87 364.157 2165.67 364.574 Q2163.47 364.99 2160.83 365.87 L2160.83 361.703 Q2163.5 360.963 2165.81 360.592 Q2168.15 360.222 2170.21 360.222 Q2175.53 360.222 2178.64 362.653 Q2181.74 365.06 2181.74 369.18 Q2181.74 372.051 2180.09 374.041 Q2178.45 376.009 2175.42 376.773 Z" fill="#000000" fill-rule="evenodd" fill-opacity="1" /><path clip-path="url(#clip850)" d="M2201.04 359.435 Q2197.94 364.759 2196.44 369.967 Q2194.93 375.176 2194.93 380.523 Q2194.93 385.87 2196.44 391.125 Q2197.96 396.356 2201.04 401.657 L2197.34 401.657 Q2193.87 396.217 2192.13 390.963 Q2190.42 385.708 2190.42 380.523 Q2190.42 375.361 2192.13 370.129 Q2193.84 364.898 2197.34 359.435 L2201.04 359.435 Z" fill="#000000" fill-rule="evenodd" fill-opacity="1" /><path clip-path="url(#clip850)" d="M2213.52 362.12 L2213.52 369.481 L2222.29 369.481 L2222.29 372.791 L2213.52 372.791 L2213.52 386.865 Q2213.52 390.037 2214.38 390.939 Q2215.26 391.842 2217.92 391.842 L2222.29 391.842 L2222.29 395.407 L2217.92 395.407 Q2212.99 395.407 2211.11 393.578 Q2209.24 391.726 2209.24 386.865 L2209.24 372.791 L2206.11 372.791 L2206.11 369.481 L2209.24 369.481 L2209.24 362.12 L2213.52 362.12 Z" fill="#000000" fill-rule="evenodd" fill-opacity="1" /><path clip-path="url(#clip850)" d="M2227.22 359.435 L2230.93 359.435 Q2234.4 364.898 2236.11 370.129 Q2237.85 375.361 2237.85 380.523 Q2237.85 385.708 2236.11 390.963 Q2234.4 396.217 2230.93 401.657 L2227.22 401.657 Q2230.3 396.356 2231.81 391.125 Q2233.33 385.87 2233.33 380.523 Q2233.33 375.176 2231.81 369.967 Q2230.3 364.759 2227.22 359.435 Z" fill="#000000" fill-rule="evenodd" fill-opacity="1" /><polyline clip-path="url(#clip850)" style="stroke:#ed5d92; stroke-linecap:butt; stroke-linejoin:round; stroke-width:4; stroke-opacity:1; fill:none" stroke-dasharray="2, 4" points="
  1969.29,429.967 2107.18,429.967 
  "/>
<path clip-path="url(#clip850)" d="M2144.01 449.654 Q2142.2 454.284 2140.49 455.696 Q2138.77 457.108 2135.9 457.108 L2132.5 457.108 L2132.5 453.543 L2135 453.543 Q2136.76 453.543 2137.73 452.71 Q2138.71 451.877 2139.89 448.775 L2140.65 446.83 L2130.16 421.321 L2134.68 421.321 L2142.78 441.599 L2150.88 421.321 L2155.4 421.321 L2144.01 449.654 Z" fill="#000000" fill-rule="evenodd" fill-opacity="1" /><path clip-path="url(#clip850)" d="M2160.7 412.687 L2182.92 412.687 L2182.92 414.678 L2170.37 447.247 L2165.49 447.247 L2177.29 416.622 L2160.7 416.622 L2160.7 412.687 Z" fill="#000000" fill-rule="evenodd" fill-opacity="1" /><polyline clip-path="url(#clip850)" style="stroke:#c68125; stroke-linecap:butt; stroke-linejoin:round; stroke-width:4; stroke-opacity:1; fill:none" stroke-dasharray="2, 4" points="
  1969.29,481.807 2107.18,481.807 
  "/>
<path clip-path="url(#clip850)" d="M2144.01 501.494 Q2142.2 506.124 2140.49 507.536 Q2138.77 508.948 2135.9 508.948 L2132.5 508.948 L2132.5 505.383 L2135 505.383 Q2136.76 505.383 2137.73 504.55 Q2138.71 503.717 2139.89 500.615 L2140.65 498.67 L2130.16 473.161 L2134.68 473.161 L2142.78 493.439 L2150.88 473.161 L2155.4 473.161 L2144.01 501.494 Z" fill="#000000" fill-rule="evenodd" fill-opacity="1" /><path clip-path="url(#clip850)" d="M2171.88 482.675 Q2168.54 482.675 2166.62 484.457 Q2164.72 486.24 2164.72 489.365 Q2164.72 492.49 2166.62 494.272 Q2168.54 496.055 2171.88 496.055 Q2175.21 496.055 2177.13 494.272 Q2179.05 492.467 2179.05 489.365 Q2179.05 486.24 2177.13 484.457 Q2175.23 482.675 2171.88 482.675 M2167.2 480.684 Q2164.19 479.944 2162.5 477.883 Q2160.83 475.823 2160.83 472.86 Q2160.83 468.717 2163.77 466.309 Q2166.74 463.902 2171.88 463.902 Q2177.04 463.902 2179.98 466.309 Q2182.92 468.717 2182.92 472.86 Q2182.92 475.823 2181.23 477.883 Q2179.56 479.944 2176.58 480.684 Q2179.96 481.471 2181.83 483.763 Q2183.73 486.055 2183.73 489.365 Q2183.73 494.388 2180.65 497.073 Q2177.59 499.758 2171.88 499.758 Q2166.16 499.758 2163.08 497.073 Q2160.02 494.388 2160.02 489.365 Q2160.02 486.055 2161.92 483.763 Q2163.82 481.471 2167.2 480.684 M2165.49 473.3 Q2165.49 475.985 2167.15 477.49 Q2168.84 478.994 2171.88 478.994 Q2174.89 478.994 2176.58 477.49 Q2178.29 475.985 2178.29 473.3 Q2178.29 470.615 2176.58 469.11 Q2174.89 467.606 2171.88 467.606 Q2168.84 467.606 2167.15 469.11 Q2165.49 470.615 2165.49 473.3 Z" fill="#000000" fill-rule="evenodd" fill-opacity="1" /><polyline clip-path="url(#clip850)" style="stroke:#00a98d; stroke-linecap:butt; stroke-linejoin:round; stroke-width:4; stroke-opacity:1; fill:none" stroke-dasharray="2, 4" points="
  1969.29,533.647 2107.18,533.647 
  "/>
<path clip-path="url(#clip850)" d="M2144.01 553.334 Q2142.2 557.964 2140.49 559.376 Q2138.77 560.788 2135.9 560.788 L2132.5 560.788 L2132.5 557.223 L2135 557.223 Q2136.76 557.223 2137.73 556.39 Q2138.71 555.557 2139.89 552.455 L2140.65 550.51 L2130.16 525.001 L2134.68 525.001 L2142.78 545.279 L2150.88 525.001 L2155.4 525.001 L2144.01 553.334 Z" fill="#000000" fill-rule="evenodd" fill-opacity="1" /><path clip-path="url(#clip850)" d="M2162.02 550.209 L2162.02 545.95 Q2163.77 546.783 2165.58 547.223 Q2167.39 547.663 2169.12 547.663 Q2173.75 547.663 2176.18 544.561 Q2178.64 541.436 2178.98 535.094 Q2177.64 537.084 2175.58 538.149 Q2173.52 539.214 2171.02 539.214 Q2165.83 539.214 2162.8 536.089 Q2159.79 532.941 2159.79 527.501 Q2159.79 522.177 2162.94 518.96 Q2166.09 515.742 2171.32 515.742 Q2177.32 515.742 2180.46 520.348 Q2183.64 524.932 2183.64 533.682 Q2183.64 541.853 2179.75 546.737 Q2175.88 551.598 2169.33 551.598 Q2167.57 551.598 2165.77 551.251 Q2163.96 550.904 2162.02 550.209 M2171.32 535.557 Q2174.47 535.557 2176.3 533.404 Q2178.15 531.251 2178.15 527.501 Q2178.15 523.774 2176.3 521.622 Q2174.47 519.446 2171.32 519.446 Q2168.17 519.446 2166.32 521.622 Q2164.49 523.774 2164.49 527.501 Q2164.49 531.251 2166.32 533.404 Q2168.17 535.557 2171.32 535.557 Z" fill="#000000" fill-rule="evenodd" fill-opacity="1" /><path clip-path="url(#clip850)" d="
M284.422 1474.16 L2352.76 1474.16 L2352.76 878.878 L284.422 878.878  Z
  " fill="#ffffff" fill-rule="evenodd" fill-opacity="1"/>
<defs>
  <clipPath id="clip853">
    <rect x="284" y="878" width="2069" height="596"/>
  </clipPath>
</defs>
<polyline clip-path="url(#clip853)" style="stroke:#000000; stroke-linecap:butt; stroke-linejoin:round; stroke-width:2; stroke-opacity:0.1; fill:none" points="
  538.085,1474.16 538.085,878.878 
  "/>
<polyline clip-path="url(#clip853)" style="stroke:#000000; stroke-linecap:butt; stroke-linejoin:round; stroke-width:2; stroke-opacity:0.1; fill:none" points="
  928.337,1474.16 928.337,878.878 
  "/>
<polyline clip-path="url(#clip853)" style="stroke:#000000; stroke-linecap:butt; stroke-linejoin:round; stroke-width:2; stroke-opacity:0.1; fill:none" points="
  1318.59,1474.16 1318.59,878.878 
  "/>
<polyline clip-path="url(#clip853)" style="stroke:#000000; stroke-linecap:butt; stroke-linejoin:round; stroke-width:2; stroke-opacity:0.1; fill:none" points="
  1708.84,1474.16 1708.84,878.878 
  "/>
<polyline clip-path="url(#clip853)" style="stroke:#000000; stroke-linecap:butt; stroke-linejoin:round; stroke-width:2; stroke-opacity:0.1; fill:none" points="
  2099.09,1474.16 2099.09,878.878 
  "/>
<polyline clip-path="url(#clip850)" style="stroke:#000000; stroke-linecap:butt; stroke-linejoin:round; stroke-width:4; stroke-opacity:1; fill:none" points="
  284.422,1474.16 2352.76,1474.16 
  "/>
<polyline clip-path="url(#clip850)" style="stroke:#000000; stroke-linecap:butt; stroke-linejoin:round; stroke-width:4; stroke-opacity:1; fill:none" points="
  538.085,1474.16 538.085,1455.27 
  "/>
<polyline clip-path="url(#clip850)" style="stroke:#000000; stroke-linecap:butt; stroke-linejoin:round; stroke-width:4; stroke-opacity:1; fill:none" points="
  928.337,1474.16 928.337,1455.27 
  "/>
<polyline clip-path="url(#clip850)" style="stroke:#000000; stroke-linecap:butt; stroke-linejoin:round; stroke-width:4; stroke-opacity:1; fill:none" points="
  1318.59,1474.16 1318.59,1455.27 
  "/>
<polyline clip-path="url(#clip850)" style="stroke:#000000; stroke-linecap:butt; stroke-linejoin:round; stroke-width:4; stroke-opacity:1; fill:none" points="
  1708.84,1474.16 1708.84,1455.27 
  "/>
<polyline clip-path="url(#clip850)" style="stroke:#000000; stroke-linecap:butt; stroke-linejoin:round; stroke-width:4; stroke-opacity:1; fill:none" points="
  2099.09,1474.16 2099.09,1455.27 
  "/>
<path clip-path="url(#clip850)" d="M487.505 1552.44 L495.144 1552.44 L495.144 1526.07 L486.833 1527.74 L486.833 1523.48 L495.097 1521.81 L499.773 1521.81 L499.773 1552.44 L507.412 1552.44 L507.412 1556.37 L487.505 1556.37 L487.505 1552.44 Z" fill="#000000" fill-rule="evenodd" fill-opacity="1" /><path clip-path="url(#clip850)" d="M526.856 1524.89 Q523.245 1524.89 521.417 1528.46 Q519.611 1532 519.611 1539.13 Q519.611 1546.23 521.417 1549.8 Q523.245 1553.34 526.856 1553.34 Q530.491 1553.34 532.296 1549.8 Q534.125 1546.23 534.125 1539.13 Q534.125 1532 532.296 1528.46 Q530.491 1524.89 526.856 1524.89 M526.856 1521.19 Q532.666 1521.19 535.722 1525.79 Q538.801 1530.38 538.801 1539.13 Q538.801 1547.85 535.722 1552.46 Q532.666 1557.04 526.856 1557.04 Q521.046 1557.04 517.967 1552.46 Q514.912 1547.85 514.912 1539.13 Q514.912 1530.38 517.967 1525.79 Q521.046 1521.19 526.856 1521.19 Z" fill="#000000" fill-rule="evenodd" fill-opacity="1" /><path clip-path="url(#clip850)" d="M538.801 1515.29 L562.912 1515.29 L562.912 1518.49 L538.801 1518.49 L538.801 1515.29 Z" fill="#000000" fill-rule="evenodd" fill-opacity="1" /><path clip-path="url(#clip850)" d="M581.551 1504.19 L571.959 1519.18 L581.551 1519.18 L581.551 1504.19 M580.554 1500.88 L585.331 1500.88 L585.331 1519.18 L589.337 1519.18 L589.337 1522.34 L585.331 1522.34 L585.331 1528.96 L581.551 1528.96 L581.551 1522.34 L568.874 1522.34 L568.874 1518.67 L580.554 1500.88 Z" fill="#000000" fill-rule="evenodd" fill-opacity="1" /><path clip-path="url(#clip850)" d="M878.603 1552.44 L886.242 1552.44 L886.242 1526.07 L877.931 1527.74 L877.931 1523.48 L886.195 1521.81 L890.871 1521.81 L890.871 1552.44 L898.51 1552.44 L898.51 1556.37 L878.603 1556.37 L878.603 1552.44 Z" fill="#000000" fill-rule="evenodd" fill-opacity="1" /><path clip-path="url(#clip850)" d="M917.954 1524.89 Q914.343 1524.89 912.515 1528.46 Q910.709 1532 910.709 1539.13 Q910.709 1546.23 912.515 1549.8 Q914.343 1553.34 917.954 1553.34 Q921.589 1553.34 923.394 1549.8 Q925.223 1546.23 925.223 1539.13 Q925.223 1532 923.394 1528.46 Q921.589 1524.89 917.954 1524.89 M917.954 1521.19 Q923.765 1521.19 926.82 1525.79 Q929.899 1530.38 929.899 1539.13 Q929.899 1547.85 926.82 1552.46 Q923.765 1557.04 917.954 1557.04 Q912.144 1557.04 909.066 1552.46 Q906.01 1547.85 906.01 1539.13 Q906.01 1530.38 909.066 1525.79 Q912.144 1521.19 917.954 1521.19 Z" fill="#000000" fill-rule="evenodd" fill-opacity="1" /><path clip-path="url(#clip850)" d="M929.899 1515.29 L954.01 1515.29 L954.01 1518.49 L929.899 1518.49 L929.899 1515.29 Z" fill="#000000" fill-rule="evenodd" fill-opacity="1" /><path clip-path="url(#clip850)" d="M965.483 1525.76 L978.743 1525.76 L978.743 1528.96 L960.913 1528.96 L960.913 1525.76 Q963.076 1523.53 966.8 1519.76 Q970.542 1515.98 971.502 1514.89 Q973.326 1512.84 974.041 1511.43 Q974.774 1510 974.774 1508.63 Q974.774 1506.39 973.194 1504.98 Q971.633 1503.57 969.113 1503.57 Q967.326 1503.57 965.333 1504.19 Q963.358 1504.81 961.101 1506.07 L961.101 1502.24 Q963.395 1501.31 965.389 1500.84 Q967.383 1500.37 969.038 1500.37 Q973.401 1500.37 975.997 1502.56 Q978.592 1504.74 978.592 1508.39 Q978.592 1510.12 977.934 1511.68 Q977.294 1513.22 975.583 1515.33 Q975.113 1515.87 972.592 1518.49 Q970.072 1521.08 965.483 1525.76 Z" fill="#000000" fill-rule="evenodd" fill-opacity="1" /><path clip-path="url(#clip850)" d="M1283.57 1552.44 L1291.21 1552.44 L1291.21 1526.07 L1282.9 1527.74 L1282.9 1523.48 L1291.16 1521.81 L1295.84 1521.81 L1295.84 1552.44 L1303.48 1552.44 L1303.48 1556.37 L1283.57 1556.37 L1283.57 1552.44 Z" fill="#000000" fill-rule="evenodd" fill-opacity="1" /><path clip-path="url(#clip850)" d="M1322.92 1524.89 Q1319.31 1524.89 1317.48 1528.46 Q1315.68 1532 1315.68 1539.13 Q1315.68 1546.23 1317.48 1549.8 Q1319.31 1553.34 1322.92 1553.34 Q1326.56 1553.34 1328.36 1549.8 Q1330.19 1546.23 1330.19 1539.13 Q1330.19 1532 1328.36 1528.46 Q1326.56 1524.89 1322.92 1524.89 M1322.92 1521.19 Q1328.73 1521.19 1331.79 1525.79 Q1334.87 1530.38 1334.87 1539.13 Q1334.87 1547.85 1331.79 1552.46 Q1328.73 1557.04 1322.92 1557.04 Q1317.11 1557.04 1314.03 1552.46 Q1310.98 1547.85 1310.98 1539.13 Q1310.98 1530.38 1314.03 1525.79 Q1317.11 1521.19 1322.92 1521.19 Z" fill="#000000" fill-rule="evenodd" fill-opacity="1" /><path clip-path="url(#clip850)" d="M1344.57 1503.38 Q1341.64 1503.38 1340.15 1506.28 Q1338.69 1509.16 1338.69 1514.95 Q1338.69 1520.72 1340.15 1523.62 Q1341.64 1526.5 1344.57 1526.5 Q1347.53 1526.5 1348.99 1523.62 Q1350.48 1520.72 1350.48 1514.95 Q1350.48 1509.16 1348.99 1506.28 Q1347.53 1503.38 1344.57 1503.38 M1344.57 1500.37 Q1349.29 1500.37 1351.78 1504.12 Q1354.28 1507.84 1354.28 1514.95 Q1354.28 1522.04 1351.78 1525.78 Q1349.29 1529.51 1344.57 1529.51 Q1339.85 1529.51 1337.35 1525.78 Q1334.87 1522.04 1334.87 1514.95 Q1334.87 1507.84 1337.35 1504.12 Q1339.85 1500.37 1344.57 1500.37 Z" fill="#000000" fill-rule="evenodd" fill-opacity="1" /><path clip-path="url(#clip850)" d="M1674.61 1552.44 L1682.25 1552.44 L1682.25 1526.07 L1673.94 1527.74 L1673.94 1523.48 L1682.21 1521.81 L1686.88 1521.81 L1686.88 1552.44 L1694.52 1552.44 L1694.52 1556.37 L1674.61 1556.37 L1674.61 1552.44 Z" fill="#000000" fill-rule="evenodd" fill-opacity="1" /><path clip-path="url(#clip850)" d="M1713.96 1524.89 Q1710.35 1524.89 1708.53 1528.46 Q1706.72 1532 1706.72 1539.13 Q1706.72 1546.23 1708.53 1549.8 Q1710.35 1553.34 1713.96 1553.34 Q1717.6 1553.34 1719.4 1549.8 Q1721.23 1546.23 1721.23 1539.13 Q1721.23 1532 1719.4 1528.46 Q1717.6 1524.89 1713.96 1524.89 M1713.96 1521.19 Q1719.78 1521.19 1722.83 1525.79 Q1725.91 1530.38 1725.91 1539.13 Q1725.91 1547.85 1722.83 1552.46 Q1719.78 1557.04 1713.96 1557.04 Q1708.15 1557.04 1705.08 1552.46 Q1702.02 1547.85 1702.02 1539.13 Q1702.02 1530.38 1705.08 1525.79 Q1708.15 1521.19 1713.96 1521.19 Z" fill="#000000" fill-rule="evenodd" fill-opacity="1" /><path clip-path="url(#clip850)" d="M1730.48 1525.76 L1743.74 1525.76 L1743.74 1528.96 L1725.91 1528.96 L1725.91 1525.76 Q1728.07 1523.53 1731.8 1519.76 Q1735.54 1515.98 1736.5 1514.89 Q1738.32 1512.84 1739.04 1511.43 Q1739.77 1510 1739.77 1508.63 Q1739.77 1506.39 1738.19 1504.98 Q1736.63 1503.57 1734.11 1503.57 Q1732.32 1503.57 1730.33 1504.19 Q1728.35 1504.81 1726.1 1506.07 L1726.1 1502.24 Q1728.39 1501.31 1730.39 1500.84 Q1732.38 1500.37 1734.03 1500.37 Q1738.4 1500.37 1740.99 1502.56 Q1743.59 1504.74 1743.59 1508.39 Q1743.59 1510.12 1742.93 1511.68 Q1742.29 1513.22 1740.58 1515.33 Q1740.11 1515.87 1737.59 1518.49 Q1735.07 1521.08 1730.48 1525.76 Z" fill="#000000" fill-rule="evenodd" fill-opacity="1" /><path clip-path="url(#clip850)" d="M2063.55 1552.44 L2071.19 1552.44 L2071.19 1526.07 L2062.88 1527.74 L2062.88 1523.48 L2071.14 1521.81 L2075.82 1521.81 L2075.82 1552.44 L2083.46 1552.44 L2083.46 1556.37 L2063.55 1556.37 L2063.55 1552.44 Z" fill="#000000" fill-rule="evenodd" fill-opacity="1" /><path clip-path="url(#clip850)" d="M2102.9 1524.89 Q2099.29 1524.89 2097.46 1528.46 Q2095.65 1532 2095.65 1539.13 Q2095.65 1546.23 2097.46 1549.8 Q2099.29 1553.34 2102.9 1553.34 Q2106.53 1553.34 2108.34 1549.8 Q2110.17 1546.23 2110.17 1539.13 Q2110.17 1532 2108.34 1528.46 Q2106.53 1524.89 2102.9 1524.89 M2102.9 1521.19 Q2108.71 1521.19 2111.77 1525.79 Q2114.84 1530.38 2114.84 1539.13 Q2114.84 1547.85 2111.77 1552.46 Q2108.71 1557.04 2102.9 1557.04 Q2097.09 1557.04 2094.01 1552.46 Q2090.96 1547.85 2090.96 1539.13 Q2090.96 1530.38 2094.01 1525.79 Q2097.09 1521.19 2102.9 1521.19 Z" fill="#000000" fill-rule="evenodd" fill-opacity="1" /><path clip-path="url(#clip850)" d="M2127.52 1504.19 L2117.93 1519.18 L2127.52 1519.18 L2127.52 1504.19 M2126.52 1500.88 L2131.3 1500.88 L2131.3 1519.18 L2135.31 1519.18 L2135.31 1522.34 L2131.3 1522.34 L2131.3 1528.96 L2127.52 1528.96 L2127.52 1522.34 L2114.84 1522.34 L2114.84 1518.67 L2126.52 1500.88 Z" fill="#000000" fill-rule="evenodd" fill-opacity="1" /><polyline clip-path="url(#clip853)" style="stroke:#000000; stroke-linecap:butt; stroke-linejoin:round; stroke-width:2; stroke-opacity:0.1; fill:none" points="
  284.422,1389.59 2352.76,1389.59 
  "/>
<polyline clip-path="url(#clip853)" style="stroke:#000000; stroke-linecap:butt; stroke-linejoin:round; stroke-width:2; stroke-opacity:0.1; fill:none" points="
  284.422,1304.66 2352.76,1304.66 
  "/>
<polyline clip-path="url(#clip853)" style="stroke:#000000; stroke-linecap:butt; stroke-linejoin:round; stroke-width:2; stroke-opacity:0.1; fill:none" points="
  284.422,1219.72 2352.76,1219.72 
  "/>
<polyline clip-path="url(#clip853)" style="stroke:#000000; stroke-linecap:butt; stroke-linejoin:round; stroke-width:2; stroke-opacity:0.1; fill:none" points="
  284.422,1134.78 2352.76,1134.78 
  "/>
<polyline clip-path="url(#clip853)" style="stroke:#000000; stroke-linecap:butt; stroke-linejoin:round; stroke-width:2; stroke-opacity:0.1; fill:none" points="
  284.422,1049.84 2352.76,1049.84 
  "/>
<polyline clip-path="url(#clip853)" style="stroke:#000000; stroke-linecap:butt; stroke-linejoin:round; stroke-width:2; stroke-opacity:0.1; fill:none" points="
  284.422,964.905 2352.76,964.905 
  "/>
<polyline clip-path="url(#clip853)" style="stroke:#000000; stroke-linecap:butt; stroke-linejoin:round; stroke-width:2; stroke-opacity:0.1; fill:none" points="
  284.422,879.967 2352.76,879.967 
  "/>
<polyline clip-path="url(#clip850)" style="stroke:#000000; stroke-linecap:butt; stroke-linejoin:round; stroke-width:4; stroke-opacity:1; fill:none" points="
  284.422,1474.16 284.422,878.878 
  "/>
<polyline clip-path="url(#clip850)" style="stroke:#000000; stroke-linecap:butt; stroke-linejoin:round; stroke-width:4; stroke-opacity:1; fill:none" points="
  284.422,1389.59 303.319,1389.59 
  "/>
<polyline clip-path="url(#clip850)" style="stroke:#000000; stroke-linecap:butt; stroke-linejoin:round; stroke-width:4; stroke-opacity:1; fill:none" points="
  284.422,1304.66 303.319,1304.66 
  "/>
<polyline clip-path="url(#clip850)" style="stroke:#000000; stroke-linecap:butt; stroke-linejoin:round; stroke-width:4; stroke-opacity:1; fill:none" points="
  284.422,1219.72 303.319,1219.72 
  "/>
<polyline clip-path="url(#clip850)" style="stroke:#000000; stroke-linecap:butt; stroke-linejoin:round; stroke-width:4; stroke-opacity:1; fill:none" points="
  284.422,1134.78 303.319,1134.78 
  "/>
<polyline clip-path="url(#clip850)" style="stroke:#000000; stroke-linecap:butt; stroke-linejoin:round; stroke-width:4; stroke-opacity:1; fill:none" points="
  284.422,1049.84 303.319,1049.84 
  "/>
<polyline clip-path="url(#clip850)" style="stroke:#000000; stroke-linecap:butt; stroke-linejoin:round; stroke-width:4; stroke-opacity:1; fill:none" points="
  284.422,964.905 303.319,964.905 
  "/>
<polyline clip-path="url(#clip850)" style="stroke:#000000; stroke-linecap:butt; stroke-linejoin:round; stroke-width:4; stroke-opacity:1; fill:none" points="
  284.422,879.967 303.319,879.967 
  "/>
<path clip-path="url(#clip850)" d="M51.9875 1390.04 L81.6633 1390.04 L81.6633 1393.98 L51.9875 1393.98 L51.9875 1390.04 Z" fill="#000000" fill-rule="evenodd" fill-opacity="1" /><path clip-path="url(#clip850)" d="M101.756 1375.39 Q98.1447 1375.39 96.316 1378.96 Q94.5104 1382.5 94.5104 1389.63 Q94.5104 1396.73 96.316 1400.3 Q98.1447 1403.84 101.756 1403.84 Q105.39 1403.84 107.196 1400.3 Q109.024 1396.73 109.024 1389.63 Q109.024 1382.5 107.196 1378.96 Q105.39 1375.39 101.756 1375.39 M101.756 1371.69 Q107.566 1371.69 110.621 1376.29 Q113.7 1380.88 113.7 1389.63 Q113.7 1398.35 110.621 1402.96 Q107.566 1407.54 101.756 1407.54 Q95.9456 1407.54 92.8669 1402.96 Q89.8114 1398.35 89.8114 1389.63 Q89.8114 1380.88 92.8669 1376.29 Q95.9456 1371.69 101.756 1371.69 Z" fill="#000000" fill-rule="evenodd" fill-opacity="1" /><path clip-path="url(#clip850)" d="M121.918 1400.99 L126.802 1400.99 L126.802 1406.87 L121.918 1406.87 L121.918 1400.99 Z" fill="#000000" fill-rule="evenodd" fill-opacity="1" /><path clip-path="url(#clip850)" d="M146.987 1375.39 Q143.376 1375.39 141.547 1378.96 Q139.742 1382.5 139.742 1389.63 Q139.742 1396.73 141.547 1400.3 Q143.376 1403.84 146.987 1403.84 Q150.621 1403.84 152.427 1400.3 Q154.255 1396.73 154.255 1389.63 Q154.255 1382.5 152.427 1378.96 Q150.621 1375.39 146.987 1375.39 M146.987 1371.69 Q152.797 1371.69 155.853 1376.29 Q158.931 1380.88 158.931 1389.63 Q158.931 1398.35 155.853 1402.96 Q152.797 1407.54 146.987 1407.54 Q141.177 1407.54 138.098 1402.96 Q135.043 1398.35 135.043 1389.63 Q135.043 1380.88 138.098 1376.29 Q141.177 1371.69 146.987 1371.69 Z" fill="#000000" fill-rule="evenodd" fill-opacity="1" /><path clip-path="url(#clip850)" d="M177.149 1375.39 Q173.538 1375.39 171.709 1378.96 Q169.904 1382.5 169.904 1389.63 Q169.904 1396.73 171.709 1400.3 Q173.538 1403.84 177.149 1403.84 Q180.783 1403.84 182.589 1400.3 Q184.417 1396.73 184.417 1389.63 Q184.417 1382.5 182.589 1378.96 Q180.783 1375.39 177.149 1375.39 M177.149 1371.69 Q182.959 1371.69 186.015 1376.29 Q189.093 1380.88 189.093 1389.63 Q189.093 1398.35 186.015 1402.96 Q182.959 1407.54 177.149 1407.54 Q171.339 1407.54 168.26 1402.96 Q165.204 1398.35 165.204 1389.63 Q165.204 1380.88 168.26 1376.29 Q171.339 1371.69 177.149 1371.69 Z" fill="#000000" fill-rule="evenodd" fill-opacity="1" /><path clip-path="url(#clip850)" d="M198.121 1402.94 L205.76 1402.94 L205.76 1376.57 L197.45 1378.24 L197.45 1373.98 L205.714 1372.31 L210.389 1372.31 L210.389 1402.94 L218.028 1402.94 L218.028 1406.87 L198.121 1406.87 L198.121 1402.94 Z" fill="#000000" fill-rule="evenodd" fill-opacity="1" /><path clip-path="url(#clip850)" d="M227.519 1372.31 L245.875 1372.31 L245.875 1376.25 L231.801 1376.25 L231.801 1384.72 Q232.82 1384.37 233.838 1384.21 Q234.857 1384.03 235.875 1384.03 Q241.662 1384.03 245.042 1387.2 Q248.422 1390.37 248.422 1395.78 Q248.422 1401.36 244.949 1404.47 Q241.477 1407.54 235.158 1407.54 Q232.982 1407.54 230.713 1407.17 Q228.468 1406.8 226.061 1406.06 L226.061 1401.36 Q228.144 1402.5 230.366 1403.05 Q232.588 1403.61 235.065 1403.61 Q239.07 1403.61 241.408 1401.5 Q243.746 1399.4 243.746 1395.78 Q243.746 1392.17 241.408 1390.07 Q239.07 1387.96 235.065 1387.96 Q233.19 1387.96 231.315 1388.38 Q229.463 1388.79 227.519 1389.67 L227.519 1372.31 Z" fill="#000000" fill-rule="evenodd" fill-opacity="1" /><path clip-path="url(#clip850)" d="M50.9921 1305.11 L80.6679 1305.11 L80.6679 1309.04 L50.9921 1309.04 L50.9921 1305.11 Z" fill="#000000" fill-rule="evenodd" fill-opacity="1" /><path clip-path="url(#clip850)" d="M100.76 1290.45 Q97.1493 1290.45 95.3206 1294.02 Q93.515 1297.56 93.515 1304.69 Q93.515 1311.8 95.3206 1315.36 Q97.1493 1318.9 100.76 1318.9 Q104.395 1318.9 106.2 1315.36 Q108.029 1311.8 108.029 1304.69 Q108.029 1297.56 106.2 1294.02 Q104.395 1290.45 100.76 1290.45 M100.76 1286.75 Q106.571 1286.75 109.626 1291.36 Q112.705 1295.94 112.705 1304.69 Q112.705 1313.42 109.626 1318.02 Q106.571 1322.61 100.76 1322.61 Q94.9502 1322.61 91.8715 1318.02 Q88.816 1313.42 88.816 1304.69 Q88.816 1295.94 91.8715 1291.36 Q94.9502 1286.75 100.76 1286.75 Z" fill="#000000" fill-rule="evenodd" fill-opacity="1" /><path clip-path="url(#clip850)" d="M120.922 1316.06 L125.807 1316.06 L125.807 1321.94 L120.922 1321.94 L120.922 1316.06 Z" fill="#000000" fill-rule="evenodd" fill-opacity="1" /><path clip-path="url(#clip850)" d="M145.992 1290.45 Q142.381 1290.45 140.552 1294.02 Q138.746 1297.56 138.746 1304.69 Q138.746 1311.8 140.552 1315.36 Q142.381 1318.9 145.992 1318.9 Q149.626 1318.9 151.431 1315.36 Q153.26 1311.8 153.26 1304.69 Q153.26 1297.56 151.431 1294.02 Q149.626 1290.45 145.992 1290.45 M145.992 1286.75 Q151.802 1286.75 154.857 1291.36 Q157.936 1295.94 157.936 1304.69 Q157.936 1313.42 154.857 1318.02 Q151.802 1322.61 145.992 1322.61 Q140.181 1322.61 137.103 1318.02 Q134.047 1313.42 134.047 1304.69 Q134.047 1295.94 137.103 1291.36 Q140.181 1286.75 145.992 1286.75 Z" fill="#000000" fill-rule="evenodd" fill-opacity="1" /><path clip-path="url(#clip850)" d="M176.153 1290.45 Q172.542 1290.45 170.714 1294.02 Q168.908 1297.56 168.908 1304.69 Q168.908 1311.8 170.714 1315.36 Q172.542 1318.9 176.153 1318.9 Q179.788 1318.9 181.593 1315.36 Q183.422 1311.8 183.422 1304.69 Q183.422 1297.56 181.593 1294.02 Q179.788 1290.45 176.153 1290.45 M176.153 1286.75 Q181.964 1286.75 185.019 1291.36 Q188.098 1295.94 188.098 1304.69 Q188.098 1313.42 185.019 1318.02 Q181.964 1322.61 176.153 1322.61 Q170.343 1322.61 167.265 1318.02 Q164.209 1313.42 164.209 1304.69 Q164.209 1295.94 167.265 1291.36 Q170.343 1286.75 176.153 1286.75 Z" fill="#000000" fill-rule="evenodd" fill-opacity="1" /><path clip-path="url(#clip850)" d="M197.126 1318 L204.764 1318 L204.764 1291.63 L196.454 1293.3 L196.454 1289.04 L204.718 1287.38 L209.394 1287.38 L209.394 1318 L217.033 1318 L217.033 1321.94 L197.126 1321.94 L197.126 1318 Z" fill="#000000" fill-rule="evenodd" fill-opacity="1" /><path clip-path="url(#clip850)" d="M236.477 1290.45 Q232.866 1290.45 231.037 1294.02 Q229.232 1297.56 229.232 1304.69 Q229.232 1311.8 231.037 1315.36 Q232.866 1318.9 236.477 1318.9 Q240.111 1318.9 241.917 1315.36 Q243.746 1311.8 243.746 1304.69 Q243.746 1297.56 241.917 1294.02 Q240.111 1290.45 236.477 1290.45 M236.477 1286.75 Q242.287 1286.75 245.343 1291.36 Q248.422 1295.94 248.422 1304.69 Q248.422 1313.42 245.343 1318.02 Q242.287 1322.61 236.477 1322.61 Q230.667 1322.61 227.588 1318.02 Q224.533 1313.42 224.533 1304.69 Q224.533 1295.94 227.588 1291.36 Q230.667 1286.75 236.477 1286.75 Z" fill="#000000" fill-rule="evenodd" fill-opacity="1" /><path clip-path="url(#clip850)" d="M51.9875 1220.17 L81.6633 1220.17 L81.6633 1224.1 L51.9875 1224.1 L51.9875 1220.17 Z" fill="#000000" fill-rule="evenodd" fill-opacity="1" /><path clip-path="url(#clip850)" d="M101.756 1205.52 Q98.1447 1205.52 96.316 1209.08 Q94.5104 1212.62 94.5104 1219.75 Q94.5104 1226.86 96.316 1230.42 Q98.1447 1233.97 101.756 1233.97 Q105.39 1233.97 107.196 1230.42 Q109.024 1226.86 109.024 1219.75 Q109.024 1212.62 107.196 1209.08 Q105.39 1205.52 101.756 1205.52 M101.756 1201.81 Q107.566 1201.81 110.621 1206.42 Q113.7 1211 113.7 1219.75 Q113.7 1228.48 110.621 1233.09 Q107.566 1237.67 101.756 1237.67 Q95.9456 1237.67 92.8669 1233.09 Q89.8114 1228.48 89.8114 1219.75 Q89.8114 1211 92.8669 1206.42 Q95.9456 1201.81 101.756 1201.81 Z" fill="#000000" fill-rule="evenodd" fill-opacity="1" /><path clip-path="url(#clip850)" d="M121.918 1231.12 L126.802 1231.12 L126.802 1237 L121.918 1237 L121.918 1231.12 Z" fill="#000000" fill-rule="evenodd" fill-opacity="1" /><path clip-path="url(#clip850)" d="M146.987 1205.52 Q143.376 1205.52 141.547 1209.08 Q139.742 1212.62 139.742 1219.75 Q139.742 1226.86 141.547 1230.42 Q143.376 1233.97 146.987 1233.97 Q150.621 1233.97 152.427 1230.42 Q154.255 1226.86 154.255 1219.75 Q154.255 1212.62 152.427 1209.08 Q150.621 1205.52 146.987 1205.52 M146.987 1201.81 Q152.797 1201.81 155.853 1206.42 Q158.931 1211 158.931 1219.75 Q158.931 1228.48 155.853 1233.09 Q152.797 1237.67 146.987 1237.67 Q141.177 1237.67 138.098 1233.09 Q135.043 1228.48 135.043 1219.75 Q135.043 1211 138.098 1206.42 Q141.177 1201.81 146.987 1201.81 Z" fill="#000000" fill-rule="evenodd" fill-opacity="1" /><path clip-path="url(#clip850)" d="M177.149 1205.52 Q173.538 1205.52 171.709 1209.08 Q169.904 1212.62 169.904 1219.75 Q169.904 1226.86 171.709 1230.42 Q173.538 1233.97 177.149 1233.97 Q180.783 1233.97 182.589 1230.42 Q184.417 1226.86 184.417 1219.75 Q184.417 1212.62 182.589 1209.08 Q180.783 1205.52 177.149 1205.52 M177.149 1201.81 Q182.959 1201.81 186.015 1206.42 Q189.093 1211 189.093 1219.75 Q189.093 1228.48 186.015 1233.09 Q182.959 1237.67 177.149 1237.67 Q171.339 1237.67 168.26 1233.09 Q165.204 1228.48 165.204 1219.75 Q165.204 1211 168.26 1206.42 Q171.339 1201.81 177.149 1201.81 Z" fill="#000000" fill-rule="evenodd" fill-opacity="1" /><path clip-path="url(#clip850)" d="M207.311 1205.52 Q203.7 1205.52 201.871 1209.08 Q200.065 1212.62 200.065 1219.75 Q200.065 1226.86 201.871 1230.42 Q203.7 1233.97 207.311 1233.97 Q210.945 1233.97 212.751 1230.42 Q214.579 1226.86 214.579 1219.75 Q214.579 1212.62 212.751 1209.08 Q210.945 1205.52 207.311 1205.52 M207.311 1201.81 Q213.121 1201.81 216.176 1206.42 Q219.255 1211 219.255 1219.75 Q219.255 1228.48 216.176 1233.09 Q213.121 1237.67 207.311 1237.67 Q201.501 1237.67 198.422 1233.09 Q195.366 1228.48 195.366 1219.75 Q195.366 1211 198.422 1206.42 Q201.501 1201.81 207.311 1201.81 Z" fill="#000000" fill-rule="evenodd" fill-opacity="1" /><path clip-path="url(#clip850)" d="M227.519 1202.44 L245.875 1202.44 L245.875 1206.37 L231.801 1206.37 L231.801 1214.84 Q232.82 1214.5 233.838 1214.34 Q234.857 1214.15 235.875 1214.15 Q241.662 1214.15 245.042 1217.32 Q248.422 1220.49 248.422 1225.91 Q248.422 1231.49 244.949 1234.59 Q241.477 1237.67 235.158 1237.67 Q232.982 1237.67 230.713 1237.3 Q228.468 1236.93 226.061 1236.19 L226.061 1231.49 Q228.144 1232.62 230.366 1233.18 Q232.588 1233.73 235.065 1233.73 Q239.07 1233.73 241.408 1231.63 Q243.746 1229.52 243.746 1225.91 Q243.746 1222.3 241.408 1220.19 Q239.07 1218.09 235.065 1218.09 Q233.19 1218.09 231.315 1218.5 Q229.463 1218.92 227.519 1219.8 L227.519 1202.44 Z" fill="#000000" fill-rule="evenodd" fill-opacity="1" /><path clip-path="url(#clip850)" d="M100.76 1120.58 Q97.1493 1120.58 95.3206 1124.14 Q93.515 1127.69 93.515 1134.81 Q93.515 1141.92 95.3206 1145.49 Q97.1493 1149.03 100.76 1149.03 Q104.395 1149.03 106.2 1145.49 Q108.029 1141.92 108.029 1134.81 Q108.029 1127.69 106.2 1124.14 Q104.395 1120.58 100.76 1120.58 M100.76 1116.87 Q106.571 1116.87 109.626 1121.48 Q112.705 1126.06 112.705 1134.81 Q112.705 1143.54 109.626 1148.15 Q106.571 1152.73 100.76 1152.73 Q94.9502 1152.73 91.8715 1148.15 Q88.816 1143.54 88.816 1134.81 Q88.816 1126.06 91.8715 1121.48 Q94.9502 1116.87 100.76 1116.87 Z" fill="#000000" fill-rule="evenodd" fill-opacity="1" /><path clip-path="url(#clip850)" d="M120.922 1146.18 L125.807 1146.18 L125.807 1152.06 L120.922 1152.06 L120.922 1146.18 Z" fill="#000000" fill-rule="evenodd" fill-opacity="1" /><path clip-path="url(#clip850)" d="M145.992 1120.58 Q142.381 1120.58 140.552 1124.14 Q138.746 1127.69 138.746 1134.81 Q138.746 1141.92 140.552 1145.49 Q142.381 1149.03 145.992 1149.03 Q149.626 1149.03 151.431 1145.49 Q153.26 1141.92 153.26 1134.81 Q153.26 1127.69 151.431 1124.14 Q149.626 1120.58 145.992 1120.58 M145.992 1116.87 Q151.802 1116.87 154.857 1121.48 Q157.936 1126.06 157.936 1134.81 Q157.936 1143.54 154.857 1148.15 Q151.802 1152.73 145.992 1152.73 Q140.181 1152.73 137.103 1148.15 Q134.047 1143.54 134.047 1134.81 Q134.047 1126.06 137.103 1121.48 Q140.181 1116.87 145.992 1116.87 Z" fill="#000000" fill-rule="evenodd" fill-opacity="1" /><path clip-path="url(#clip850)" d="M176.153 1120.58 Q172.542 1120.58 170.714 1124.14 Q168.908 1127.69 168.908 1134.81 Q168.908 1141.92 170.714 1145.49 Q172.542 1149.03 176.153 1149.03 Q179.788 1149.03 181.593 1145.49 Q183.422 1141.92 183.422 1134.81 Q183.422 1127.69 181.593 1124.14 Q179.788 1120.58 176.153 1120.58 M176.153 1116.87 Q181.964 1116.87 185.019 1121.48 Q188.098 1126.06 188.098 1134.81 Q188.098 1143.54 185.019 1148.15 Q181.964 1152.73 176.153 1152.73 Q170.343 1152.73 167.265 1148.15 Q164.209 1143.54 164.209 1134.81 Q164.209 1126.06 167.265 1121.48 Q170.343 1116.87 176.153 1116.87 Z" fill="#000000" fill-rule="evenodd" fill-opacity="1" /><path clip-path="url(#clip850)" d="M206.315 1120.58 Q202.704 1120.58 200.876 1124.14 Q199.07 1127.69 199.07 1134.81 Q199.07 1141.92 200.876 1145.49 Q202.704 1149.03 206.315 1149.03 Q209.95 1149.03 211.755 1145.49 Q213.584 1141.92 213.584 1134.81 Q213.584 1127.69 211.755 1124.14 Q209.95 1120.58 206.315 1120.58 M206.315 1116.87 Q212.126 1116.87 215.181 1121.48 Q218.26 1126.06 218.26 1134.81 Q218.26 1143.54 215.181 1148.15 Q212.126 1152.73 206.315 1152.73 Q200.505 1152.73 197.427 1148.15 Q194.371 1143.54 194.371 1134.81 Q194.371 1126.06 197.427 1121.48 Q200.505 1116.87 206.315 1116.87 Z" fill="#000000" fill-rule="evenodd" fill-opacity="1" /><path clip-path="url(#clip850)" d="M236.477 1120.58 Q232.866 1120.58 231.037 1124.14 Q229.232 1127.69 229.232 1134.81 Q229.232 1141.92 231.037 1145.49 Q232.866 1149.03 236.477 1149.03 Q240.111 1149.03 241.917 1145.49 Q243.746 1141.92 243.746 1134.81 Q243.746 1127.69 241.917 1124.14 Q240.111 1120.58 236.477 1120.58 M236.477 1116.87 Q242.287 1116.87 245.343 1121.48 Q248.422 1126.06 248.422 1134.81 Q248.422 1143.54 245.343 1148.15 Q242.287 1152.73 236.477 1152.73 Q230.667 1152.73 227.588 1148.15 Q224.533 1143.54 224.533 1134.81 Q224.533 1126.06 227.588 1121.48 Q230.667 1116.87 236.477 1116.87 Z" fill="#000000" fill-rule="evenodd" fill-opacity="1" /><path clip-path="url(#clip850)" d="M101.756 1035.64 Q98.1447 1035.64 96.316 1039.21 Q94.5104 1042.75 94.5104 1049.88 Q94.5104 1056.98 96.316 1060.55 Q98.1447 1064.09 101.756 1064.09 Q105.39 1064.09 107.196 1060.55 Q109.024 1056.98 109.024 1049.88 Q109.024 1042.75 107.196 1039.21 Q105.39 1035.64 101.756 1035.64 M101.756 1031.94 Q107.566 1031.94 110.621 1036.54 Q113.7 1041.13 113.7 1049.88 Q113.7 1058.6 110.621 1063.21 Q107.566 1067.79 101.756 1067.79 Q95.9456 1067.79 92.8669 1063.21 Q89.8114 1058.6 89.8114 1049.88 Q89.8114 1041.13 92.8669 1036.54 Q95.9456 1031.94 101.756 1031.94 Z" fill="#000000" fill-rule="evenodd" fill-opacity="1" /><path clip-path="url(#clip850)" d="M121.918 1061.24 L126.802 1061.24 L126.802 1067.12 L121.918 1067.12 L121.918 1061.24 Z" fill="#000000" fill-rule="evenodd" fill-opacity="1" /><path clip-path="url(#clip850)" d="M146.987 1035.64 Q143.376 1035.64 141.547 1039.21 Q139.742 1042.75 139.742 1049.88 Q139.742 1056.98 141.547 1060.55 Q143.376 1064.09 146.987 1064.09 Q150.621 1064.09 152.427 1060.55 Q154.255 1056.98 154.255 1049.88 Q154.255 1042.75 152.427 1039.21 Q150.621 1035.64 146.987 1035.64 M146.987 1031.94 Q152.797 1031.94 155.853 1036.54 Q158.931 1041.13 158.931 1049.88 Q158.931 1058.6 155.853 1063.21 Q152.797 1067.79 146.987 1067.79 Q141.177 1067.79 138.098 1063.21 Q135.043 1058.6 135.043 1049.88 Q135.043 1041.13 138.098 1036.54 Q141.177 1031.94 146.987 1031.94 Z" fill="#000000" fill-rule="evenodd" fill-opacity="1" /><path clip-path="url(#clip850)" d="M177.149 1035.64 Q173.538 1035.64 171.709 1039.21 Q169.904 1042.75 169.904 1049.88 Q169.904 1056.98 171.709 1060.55 Q173.538 1064.09 177.149 1064.09 Q180.783 1064.09 182.589 1060.55 Q184.417 1056.98 184.417 1049.88 Q184.417 1042.75 182.589 1039.21 Q180.783 1035.64 177.149 1035.64 M177.149 1031.94 Q182.959 1031.94 186.015 1036.54 Q189.093 1041.13 189.093 1049.88 Q189.093 1058.6 186.015 1063.21 Q182.959 1067.79 177.149 1067.79 Q171.339 1067.79 168.26 1063.21 Q165.204 1058.6 165.204 1049.88 Q165.204 1041.13 168.26 1036.54 Q171.339 1031.94 177.149 1031.94 Z" fill="#000000" fill-rule="evenodd" fill-opacity="1" /><path clip-path="url(#clip850)" d="M207.311 1035.64 Q203.7 1035.64 201.871 1039.21 Q200.065 1042.75 200.065 1049.88 Q200.065 1056.98 201.871 1060.55 Q203.7 1064.09 207.311 1064.09 Q210.945 1064.09 212.751 1060.55 Q214.579 1056.98 214.579 1049.88 Q214.579 1042.75 212.751 1039.21 Q210.945 1035.64 207.311 1035.64 M207.311 1031.94 Q213.121 1031.94 216.176 1036.54 Q219.255 1041.13 219.255 1049.88 Q219.255 1058.6 216.176 1063.21 Q213.121 1067.79 207.311 1067.79 Q201.501 1067.79 198.422 1063.21 Q195.366 1058.6 195.366 1049.88 Q195.366 1041.13 198.422 1036.54 Q201.501 1031.94 207.311 1031.94 Z" fill="#000000" fill-rule="evenodd" fill-opacity="1" /><path clip-path="url(#clip850)" d="M227.519 1032.56 L245.875 1032.56 L245.875 1036.5 L231.801 1036.5 L231.801 1044.97 Q232.82 1044.62 233.838 1044.46 Q234.857 1044.28 235.875 1044.28 Q241.662 1044.28 245.042 1047.45 Q248.422 1050.62 248.422 1056.03 Q248.422 1061.61 244.949 1064.71 Q241.477 1067.79 235.158 1067.79 Q232.982 1067.79 230.713 1067.42 Q228.468 1067.05 226.061 1066.31 L226.061 1061.61 Q228.144 1062.75 230.366 1063.3 Q232.588 1063.86 235.065 1063.86 Q239.07 1063.86 241.408 1061.75 Q243.746 1059.65 243.746 1056.03 Q243.746 1052.42 241.408 1050.32 Q239.07 1048.21 235.065 1048.21 Q233.19 1048.21 231.315 1048.63 Q229.463 1049.04 227.519 1049.92 L227.519 1032.56 Z" fill="#000000" fill-rule="evenodd" fill-opacity="1" /><path clip-path="url(#clip850)" d="M100.76 950.704 Q97.1493 950.704 95.3206 954.268 Q93.515 957.81 93.515 964.94 Q93.515 972.046 95.3206 975.611 Q97.1493 979.152 100.76 979.152 Q104.395 979.152 106.2 975.611 Q108.029 972.046 108.029 964.94 Q108.029 957.81 106.2 954.268 Q104.395 950.704 100.76 950.704 M100.76 947 Q106.571 947 109.626 951.606 Q112.705 956.19 112.705 964.94 Q112.705 973.666 109.626 978.273 Q106.571 982.856 100.76 982.856 Q94.9502 982.856 91.8715 978.273 Q88.816 973.666 88.816 964.94 Q88.816 956.19 91.8715 951.606 Q94.9502 947 100.76 947 Z" fill="#000000" fill-rule="evenodd" fill-opacity="1" /><path clip-path="url(#clip850)" d="M120.922 976.305 L125.807 976.305 L125.807 982.185 L120.922 982.185 L120.922 976.305 Z" fill="#000000" fill-rule="evenodd" fill-opacity="1" /><path clip-path="url(#clip850)" d="M145.992 950.704 Q142.381 950.704 140.552 954.268 Q138.746 957.81 138.746 964.94 Q138.746 972.046 140.552 975.611 Q142.381 979.152 145.992 979.152 Q149.626 979.152 151.431 975.611 Q153.26 972.046 153.26 964.94 Q153.26 957.81 151.431 954.268 Q149.626 950.704 145.992 950.704 M145.992 947 Q151.802 947 154.857 951.606 Q157.936 956.19 157.936 964.94 Q157.936 973.666 154.857 978.273 Q151.802 982.856 145.992 982.856 Q140.181 982.856 137.103 978.273 Q134.047 973.666 134.047 964.94 Q134.047 956.19 137.103 951.606 Q140.181 947 145.992 947 Z" fill="#000000" fill-rule="evenodd" fill-opacity="1" /><path clip-path="url(#clip850)" d="M176.153 950.704 Q172.542 950.704 170.714 954.268 Q168.908 957.81 168.908 964.94 Q168.908 972.046 170.714 975.611 Q172.542 979.152 176.153 979.152 Q179.788 979.152 181.593 975.611 Q183.422 972.046 183.422 964.94 Q183.422 957.81 181.593 954.268 Q179.788 950.704 176.153 950.704 M176.153 947 Q181.964 947 185.019 951.606 Q188.098 956.19 188.098 964.94 Q188.098 973.666 185.019 978.273 Q181.964 982.856 176.153 982.856 Q170.343 982.856 167.265 978.273 Q164.209 973.666 164.209 964.94 Q164.209 956.19 167.265 951.606 Q170.343 947 176.153 947 Z" fill="#000000" fill-rule="evenodd" fill-opacity="1" /><path clip-path="url(#clip850)" d="M197.126 978.25 L204.764 978.25 L204.764 951.884 L196.454 953.551 L196.454 949.291 L204.718 947.625 L209.394 947.625 L209.394 978.25 L217.033 978.25 L217.033 982.185 L197.126 982.185 L197.126 978.25 Z" fill="#000000" fill-rule="evenodd" fill-opacity="1" /><path clip-path="url(#clip850)" d="M236.477 950.704 Q232.866 950.704 231.037 954.268 Q229.232 957.81 229.232 964.94 Q229.232 972.046 231.037 975.611 Q232.866 979.152 236.477 979.152 Q240.111 979.152 241.917 975.611 Q243.746 972.046 243.746 964.94 Q243.746 957.81 241.917 954.268 Q240.111 950.704 236.477 950.704 M236.477 947 Q242.287 947 245.343 951.606 Q248.422 956.19 248.422 964.94 Q248.422 973.666 245.343 978.273 Q242.287 982.856 236.477 982.856 Q230.667 982.856 227.588 978.273 Q224.533 973.666 224.533 964.94 Q224.533 956.19 227.588 951.606 Q230.667 947 236.477 947 Z" fill="#000000" fill-rule="evenodd" fill-opacity="1" /><path clip-path="url(#clip850)" d="M101.756 865.766 Q98.1447 865.766 96.316 869.331 Q94.5104 872.872 94.5104 880.002 Q94.5104 887.108 96.316 890.673 Q98.1447 894.215 101.756 894.215 Q105.39 894.215 107.196 890.673 Q109.024 887.108 109.024 880.002 Q109.024 872.872 107.196 869.331 Q105.39 865.766 101.756 865.766 M101.756 862.062 Q107.566 862.062 110.621 866.669 Q113.7 871.252 113.7 880.002 Q113.7 888.729 110.621 893.335 Q107.566 897.919 101.756 897.919 Q95.9456 897.919 92.8669 893.335 Q89.8114 888.729 89.8114 880.002 Q89.8114 871.252 92.8669 866.669 Q95.9456 862.062 101.756 862.062 Z" fill="#000000" fill-rule="evenodd" fill-opacity="1" /><path clip-path="url(#clip850)" d="M121.918 891.368 L126.802 891.368 L126.802 897.247 L121.918 897.247 L121.918 891.368 Z" fill="#000000" fill-rule="evenodd" fill-opacity="1" /><path clip-path="url(#clip850)" d="M146.987 865.766 Q143.376 865.766 141.547 869.331 Q139.742 872.872 139.742 880.002 Q139.742 887.108 141.547 890.673 Q143.376 894.215 146.987 894.215 Q150.621 894.215 152.427 890.673 Q154.255 887.108 154.255 880.002 Q154.255 872.872 152.427 869.331 Q150.621 865.766 146.987 865.766 M146.987 862.062 Q152.797 862.062 155.853 866.669 Q158.931 871.252 158.931 880.002 Q158.931 888.729 155.853 893.335 Q152.797 897.919 146.987 897.919 Q141.177 897.919 138.098 893.335 Q135.043 888.729 135.043 880.002 Q135.043 871.252 138.098 866.669 Q141.177 862.062 146.987 862.062 Z" fill="#000000" fill-rule="evenodd" fill-opacity="1" /><path clip-path="url(#clip850)" d="M177.149 865.766 Q173.538 865.766 171.709 869.331 Q169.904 872.872 169.904 880.002 Q169.904 887.108 171.709 890.673 Q173.538 894.215 177.149 894.215 Q180.783 894.215 182.589 890.673 Q184.417 887.108 184.417 880.002 Q184.417 872.872 182.589 869.331 Q180.783 865.766 177.149 865.766 M177.149 862.062 Q182.959 862.062 186.015 866.669 Q189.093 871.252 189.093 880.002 Q189.093 888.729 186.015 893.335 Q182.959 897.919 177.149 897.919 Q171.339 897.919 168.26 893.335 Q165.204 888.729 165.204 880.002 Q165.204 871.252 168.26 866.669 Q171.339 862.062 177.149 862.062 Z" fill="#000000" fill-rule="evenodd" fill-opacity="1" /><path clip-path="url(#clip850)" d="M198.121 893.312 L205.76 893.312 L205.76 866.947 L197.45 868.613 L197.45 864.354 L205.714 862.687 L210.389 862.687 L210.389 893.312 L218.028 893.312 L218.028 897.247 L198.121 897.247 L198.121 893.312 Z" fill="#000000" fill-rule="evenodd" fill-opacity="1" /><path clip-path="url(#clip850)" d="M227.519 862.687 L245.875 862.687 L245.875 866.622 L231.801 866.622 L231.801 875.095 Q232.82 874.747 233.838 874.585 Q234.857 874.4 235.875 874.4 Q241.662 874.4 245.042 877.571 Q248.422 880.743 248.422 886.159 Q248.422 891.738 244.949 894.84 Q241.477 897.919 235.158 897.919 Q232.982 897.919 230.713 897.548 Q228.468 897.178 226.061 896.437 L226.061 891.738 Q228.144 892.872 230.366 893.428 Q232.588 893.983 235.065 893.983 Q239.07 893.983 241.408 891.877 Q243.746 889.77 243.746 886.159 Q243.746 882.548 241.408 880.442 Q239.07 878.335 235.065 878.335 Q233.19 878.335 231.315 878.752 Q229.463 879.169 227.519 880.048 L227.519 862.687 Z" fill="#000000" fill-rule="evenodd" fill-opacity="1" /><polyline clip-path="url(#clip853)" style="stroke:#009af9; stroke-linecap:butt; stroke-linejoin:round; stroke-width:4; stroke-opacity:1; fill:none" points="
  342.959,1134.78 403.936,1134.78 464.913,1134.78 525.89,1134.78 586.867,1134.78 647.844,1134.78 708.82,1134.78 769.797,1134.78 830.774,1134.78 891.751,1134.78 
  952.728,1134.78 1013.7,1134.78 1074.68,1134.78 1135.66,1134.78 1196.64,1134.78 1257.61,1134.78 1318.59,1134.78 1379.57,1134.78 1440.54,1134.78 1501.52,1134.78 
  1562.5,1134.78 1623.47,1134.78 1684.45,1134.78 1745.43,1134.78 1806.4,1134.78 1867.38,1134.78 1928.36,1134.78 1989.33,1134.78 2050.31,1134.78 2111.29,1134.78 
  2172.26,1134.78 2233.24,1134.78 2294.22,1134.78 
  "/>
<polyline clip-path="url(#clip853)" style="stroke:#e26f46; stroke-linecap:butt; stroke-linejoin:round; stroke-width:8; stroke-opacity:1; fill:none" stroke-dasharray="32, 20" points="
  342.959,1134.78 403.936,1134.78 464.913,1134.78 525.89,1134.78 586.867,1134.78 647.844,1134.78 708.82,1134.78 769.797,1134.78 830.774,1134.78 891.751,1134.78 
  952.728,1134.78 1013.7,1134.78 1074.68,1134.78 1135.66,1134.78 1196.64,1134.78 1257.61,1134.78 1318.59,1134.78 1379.57,1134.78 1440.54,1134.78 1501.52,1134.78 
  1562.5,1134.78 1623.47,1134.78 1684.45,1134.78 1745.43,1134.78 1806.4,1134.78 1867.38,1134.78 1928.36,1134.78 1989.33,1134.78 2050.31,1134.78 2111.29,1134.78 
  2172.26,1134.78 2233.24,1134.78 2294.22,1134.78 
  "/>
<polyline clip-path="url(#clip853)" style="stroke:#3da44d; stroke-linecap:butt; stroke-linejoin:round; stroke-width:12; stroke-opacity:1; fill:none" stroke-dasharray="6, 12" points="
  342.959,1159.3 403.936,1159.31 464.913,1159.33 525.89,1159.38 586.867,1159.47 647.844,1159.67 708.82,1160.07 769.797,1160.89 830.774,1162.56 891.751,1165.94 
  952.728,1172.64 1013.7,1185.46 1074.68,1208.01 1135.66,1239.89 1196.64,1257.94 1257.61,1204.98 1318.59,1315.16 1379.57,1457.32 1440.54,895.726 1501.52,1295.21 
  1562.5,1170.96 1623.47,1192.36 1684.45,1188.95 1745.43,1189.89 1806.4,1193.41 1867.38,1189.97 1928.36,1191.2 1989.33,1191 2050.31,1191 2111.29,1191.01 
  2172.26,1191.01 2233.24,1191.01 2294.22,1191.01 
  "/>
<path clip-path="url(#clip850)" d="
M2000.99 1106.08 L2283.81 1106.08 L2283.81 898.721 L2000.99 898.721  Z
  " fill="#ffffff" fill-rule="evenodd" fill-opacity="1"/>
<polyline clip-path="url(#clip850)" style="stroke:#000000; stroke-linecap:butt; stroke-linejoin:round; stroke-width:4; stroke-opacity:1; fill:none" points="
  2000.99,1106.08 2283.81,1106.08 2283.81,898.721 2000.99,898.721 2000.99,1106.08 
  "/>
<polyline clip-path="url(#clip850)" style="stroke:#009af9; stroke-linecap:butt; stroke-linejoin:round; stroke-width:4; stroke-opacity:1; fill:none" points="
  2023.97,950.561 2161.86,950.561 
  "/>
<path clip-path="url(#clip850)" d="M2198.68 970.248 Q2196.88 974.878 2195.16 976.29 Q2193.45 977.702 2190.58 977.702 L2187.18 977.702 L2187.18 974.137 L2189.68 974.137 Q2191.44 974.137 2192.41 973.304 Q2193.38 972.471 2194.56 969.369 L2195.33 967.424 L2184.84 941.915 L2189.35 941.915 L2197.46 962.193 L2205.56 941.915 L2210.07 941.915 L2198.68 970.248 Z" fill="#000000" fill-rule="evenodd" fill-opacity="1" /><path clip-path="url(#clip850)" d="M2217.36 963.906 L2225 963.906 L2225 937.54 L2216.69 939.207 L2216.69 934.948 L2224.95 933.281 L2229.63 933.281 L2229.63 963.906 L2237.27 963.906 L2237.27 967.841 L2217.36 967.841 L2217.36 963.906 Z" fill="#000000" fill-rule="evenodd" fill-opacity="1" /><polyline clip-path="url(#clip850)" style="stroke:#e26f46; stroke-linecap:butt; stroke-linejoin:round; stroke-width:4; stroke-opacity:1; fill:none" stroke-dasharray="16, 10" points="
  2023.97,1002.4 2161.86,1002.4 
  "/>
<path clip-path="url(#clip850)" d="M2198.68 1022.09 Q2196.88 1026.72 2195.16 1028.13 Q2193.45 1029.54 2190.58 1029.54 L2187.18 1029.54 L2187.18 1025.98 L2189.68 1025.98 Q2191.44 1025.98 2192.41 1025.14 Q2193.38 1024.31 2194.56 1021.21 L2195.33 1019.26 L2184.84 993.755 L2189.35 993.755 L2197.46 1014.03 L2205.56 993.755 L2210.07 993.755 L2198.68 1022.09 Z" fill="#000000" fill-rule="evenodd" fill-opacity="1" /><path clip-path="url(#clip850)" d="M2220.58 1015.75 L2236.9 1015.75 L2236.9 1019.68 L2214.96 1019.68 L2214.96 1015.75 Q2217.62 1012.99 2222.2 1008.36 Q2226.81 1003.71 2227.99 1002.37 Q2230.23 999.843 2231.11 998.107 Q2232.02 996.348 2232.02 994.658 Q2232.02 991.903 2230.07 990.167 Q2228.15 988.431 2225.05 988.431 Q2222.85 988.431 2220.39 989.195 Q2217.96 989.959 2215.19 991.51 L2215.19 986.788 Q2218.01 985.653 2220.46 985.075 Q2222.92 984.496 2224.95 984.496 Q2230.33 984.496 2233.52 987.181 Q2236.71 989.866 2236.71 994.357 Q2236.71 996.487 2235.9 998.408 Q2235.12 1000.31 2233.01 1002.9 Q2232.43 1003.57 2229.33 1006.79 Q2226.23 1009.98 2220.58 1015.75 Z" fill="#000000" fill-rule="evenodd" fill-opacity="1" /><polyline clip-path="url(#clip850)" style="stroke:#3da44d; stroke-linecap:butt; stroke-linejoin:round; stroke-width:4; stroke-opacity:1; fill:none" stroke-dasharray="2, 4" points="
  2023.97,1054.24 2161.86,1054.24 
  "/>
<path clip-path="url(#clip850)" d="M2198.68 1073.93 Q2196.88 1078.56 2195.16 1079.97 Q2193.45 1081.38 2190.58 1081.38 L2187.18 1081.38 L2187.18 1077.82 L2189.68 1077.82 Q2191.44 1077.82 2192.41 1076.98 Q2193.38 1076.15 2194.56 1073.05 L2195.33 1071.1 L2184.84 1045.6 L2189.35 1045.6 L2197.46 1065.87 L2205.56 1045.6 L2210.07 1045.6 L2198.68 1073.93 Z" fill="#000000" fill-rule="evenodd" fill-opacity="1" /><path clip-path="url(#clip850)" d="M2230.72 1052.89 Q2234.08 1053.6 2235.95 1055.87 Q2237.85 1058.14 2237.85 1061.47 Q2237.85 1066.59 2234.33 1069.39 Q2230.81 1072.19 2224.33 1072.19 Q2222.15 1072.19 2219.84 1071.75 Q2217.55 1071.34 2215.09 1070.48 L2215.09 1065.97 Q2217.04 1067.1 2219.35 1067.68 Q2221.67 1068.26 2224.19 1068.26 Q2228.59 1068.26 2230.88 1066.52 Q2233.2 1064.78 2233.2 1061.47 Q2233.2 1058.42 2231.04 1056.71 Q2228.91 1054.97 2225.09 1054.97 L2221.07 1054.97 L2221.07 1051.13 L2225.28 1051.13 Q2228.73 1051.13 2230.56 1049.76 Q2232.39 1048.37 2232.39 1045.78 Q2232.39 1043.12 2230.49 1041.71 Q2228.61 1040.27 2225.09 1040.27 Q2223.17 1040.27 2220.97 1040.69 Q2218.77 1041.1 2216.14 1041.98 L2216.14 1037.82 Q2218.8 1037.08 2221.11 1036.71 Q2223.45 1036.34 2225.51 1036.34 Q2230.83 1036.34 2233.94 1038.77 Q2237.04 1041.17 2237.04 1045.29 Q2237.04 1048.16 2235.39 1050.16 Q2233.75 1052.12 2230.72 1052.89 Z" fill="#000000" fill-rule="evenodd" fill-opacity="1" /></svg>
