<?xml version="1.0" encoding="utf-8"?>
<svg xmlns="http://www.w3.org/2000/svg" xmlns:xlink="http://www.w3.org/1999/xlink" width="600" height="400" viewBox="0 0 2400 1600">
<defs>
  <clipPath id="clip130">
    <rect x="0" y="0" width="2400" height="1600"/>
  </clipPath>
</defs>
<path clip-path="url(#clip130)" d="
M0 1600 L2400 1600 L2400 0 L0 0  Z
  " fill="#ffffff" fill-rule="evenodd" fill-opacity="1"/>
<defs>
  <clipPath id="clip131">
    <rect x="480" y="0" width="1681" height="1600"/>
  </clipPath>
</defs>
<path clip-path="url(#clip130)" d="
M284.422 642.531 L2352.76 642.531 L2352.76 47.2441 L284.422 47.2441  Z
  " fill="#ffffff" fill-rule="evenodd" fill-opacity="1"/>
<defs>
  <clipPath id="clip132">
    <rect x="284" y="47" width="2069" height="596"/>
  </clipPath>
</defs>
<polyline clip-path="url(#clip132)" style="stroke:#000000; stroke-linecap:butt; stroke-linejoin:round; stroke-width:2; stroke-opacity:0.1; fill:none" points="
  284.422,642.531 284.422,47.2441 
  "/>
<polyline clip-path="url(#clip132)" style="stroke:#000000; stroke-linecap:butt; stroke-linejoin:round; stroke-width:2; stroke-opacity:0.1; fill:none" points="
  1318.59,642.531 1318.59,47.2441 
  "/>
<polyline clip-path="url(#clip132)" style="stroke:#000000; stroke-linecap:butt; stroke-linejoin:round; stroke-width:2; stroke-opacity:0.1; fill:none" points="
  2352.76,642.531 2352.76,47.2441 
  "/>
<polyline clip-path="url(#clip130)" style="stroke:#000000; stroke-linecap:butt; stroke-linejoin:round; stroke-width:4; stroke-opacity:1; fill:none" points="
  284.422,642.531 2352.76,642.531 
  "/>
<polyline clip-path="url(#clip130)" style="stroke:#000000; stroke-linecap:butt; stroke-linejoin:round; stroke-width:4; stroke-opacity:1; fill:none" points="
  284.422,642.531 284.422,623.633 
  "/>
<polyline clip-path="url(#clip130)" style="stroke:#000000; stroke-linecap:butt; stroke-linejoin:round; stroke-width:4; stroke-opacity:1; fill:none" points="
  1318.59,642.531 1318.59,623.633 
  "/>
<polyline clip-path="url(#clip130)" style="stroke:#000000; stroke-linecap:butt; stroke-linejoin:round; stroke-width:4; stroke-opacity:1; fill:none" points="
  2352.76,642.531 2352.76,623.633 
  "/>
<path clip-path="url(#clip130)" d="M234.443 720.803 L242.082 720.803 L242.082 694.437 L233.772 696.104 L233.772 691.845 L242.035 690.178 L246.711 690.178 L246.711 720.803 L254.35 720.803 L254.35 724.738 L234.443 724.738 L234.443 720.803 Z" fill="#000000" fill-rule="evenodd" fill-opacity="1" /><path clip-path="url(#clip130)" d="M273.795 693.257 Q270.183 693.257 268.355 696.821 Q266.549 700.363 266.549 707.493 Q266.549 714.599 268.355 718.164 Q270.183 721.705 273.795 721.705 Q277.429 721.705 279.234 718.164 Q281.063 714.599 281.063 707.493 Q281.063 700.363 279.234 696.821 Q277.429 693.257 273.795 693.257 M273.795 689.553 Q279.605 689.553 282.66 694.159 Q285.739 698.743 285.739 707.493 Q285.739 716.219 282.66 720.826 Q279.605 725.409 273.795 725.409 Q267.984 725.409 264.906 720.826 Q261.85 716.219 261.85 707.493 Q261.85 698.743 264.906 694.159 Q267.984 689.553 273.795 689.553 Z" fill="#000000" fill-rule="evenodd" fill-opacity="1" /><path clip-path="url(#clip130)" d="M285.739 683.654 L309.85 683.654 L309.85 686.852 L285.739 686.852 L285.739 683.654 Z" fill="#000000" fill-rule="evenodd" fill-opacity="1" /><path clip-path="url(#clip130)" d="M318.088 669.247 L333.003 669.247 L333.003 672.445 L321.568 672.445 L321.568 679.328 Q322.395 679.046 323.223 678.915 Q324.05 678.764 324.878 678.764 Q329.58 678.764 332.326 681.341 Q335.072 683.918 335.072 688.319 Q335.072 692.851 332.251 695.371 Q329.429 697.873 324.295 697.873 Q322.527 697.873 320.684 697.572 Q318.859 697.271 316.903 696.669 L316.903 692.851 Q318.596 693.773 320.402 694.224 Q322.207 694.676 324.22 694.676 Q327.473 694.676 329.373 692.964 Q331.273 691.253 331.273 688.319 Q331.273 685.385 329.373 683.673 Q327.473 681.962 324.22 681.962 Q322.696 681.962 321.173 682.3 Q319.668 682.639 318.088 683.353 L318.088 669.247 Z" fill="#000000" fill-rule="evenodd" fill-opacity="1" /><path clip-path="url(#clip130)" d="M1283.57 720.803 L1291.21 720.803 L1291.21 694.437 L1282.9 696.104 L1282.9 691.845 L1291.16 690.178 L1295.84 690.178 L1295.84 720.803 L1303.48 720.803 L1303.48 724.738 L1283.57 724.738 L1283.57 720.803 Z" fill="#000000" fill-rule="evenodd" fill-opacity="1" /><path clip-path="url(#clip130)" d="M1322.92 693.257 Q1319.31 693.257 1317.48 696.821 Q1315.68 700.363 1315.68 707.493 Q1315.68 714.599 1317.48 718.164 Q1319.31 721.705 1322.92 721.705 Q1326.56 721.705 1328.36 718.164 Q1330.19 714.599 1330.19 707.493 Q1330.19 700.363 1328.36 696.821 Q1326.56 693.257 1322.92 693.257 M1322.92 689.553 Q1328.73 689.553 1331.79 694.159 Q1334.87 698.743 1334.87 707.493 Q1334.87 716.219 1331.79 720.826 Q1328.73 725.409 1322.92 725.409 Q1317.11 725.409 1314.03 720.826 Q1310.98 716.219 1310.98 707.493 Q1310.98 698.743 1314.03 694.159 Q1317.11 689.553 1322.92 689.553 Z" fill="#000000" fill-rule="evenodd" fill-opacity="1" /><path clip-path="url(#clip130)" d="M1344.57 671.749 Q1341.64 671.749 1340.15 674.645 Q1338.69 677.523 1338.69 683.316 Q1338.69 689.09 1340.15 691.986 Q1341.64 694.864 1344.57 694.864 Q1347.53 694.864 1348.99 691.986 Q1350.48 689.09 1350.48 683.316 Q1350.48 677.523 1348.99 674.645 Q1347.53 671.749 1344.57 671.749 M1344.57 668.74 Q1349.29 668.74 1351.78 672.482 Q1354.28 676.206 1354.28 683.316 Q1354.28 690.406 1351.78 694.149 Q1349.29 697.873 1344.57 697.873 Q1339.85 697.873 1337.35 694.149 Q1334.87 690.406 1334.87 683.316 Q1334.87 676.206 1337.35 672.482 Q1339.85 668.74 1344.57 668.74 Z" fill="#000000" fill-rule="evenodd" fill-opacity="1" /><path clip-path="url(#clip130)" d="M2318.36 720.803 L2326 720.803 L2326 694.437 L2317.69 696.104 L2317.69 691.845 L2325.95 690.178 L2330.63 690.178 L2330.63 720.803 L2338.27 720.803 L2338.27 724.738 L2318.36 724.738 L2318.36 720.803 Z" fill="#000000" fill-rule="evenodd" fill-opacity="1" /><path clip-path="url(#clip130)" d="M2357.71 693.257 Q2354.1 693.257 2352.27 696.821 Q2350.47 700.363 2350.47 707.493 Q2350.47 714.599 2352.27 718.164 Q2354.1 721.705 2357.71 721.705 Q2361.35 721.705 2363.15 718.164 Q2364.98 714.599 2364.98 707.493 Q2364.98 700.363 2363.15 696.821 Q2361.35 693.257 2357.71 693.257 M2357.71 689.553 Q2363.52 689.553 2366.58 694.159 Q2369.66 698.743 2369.66 707.493 Q2369.66 716.219 2366.58 720.826 Q2363.52 725.409 2357.71 725.409 Q2351.9 725.409 2348.82 720.826 Q2345.77 716.219 2345.77 707.493 Q2345.77 698.743 2348.82 694.159 Q2351.9 689.553 2357.71 689.553 Z" fill="#000000" fill-rule="evenodd" fill-opacity="1" /><path clip-path="url(#clip130)" d="M2370.84 669.247 L2385.75 669.247 L2385.75 672.445 L2374.32 672.445 L2374.32 679.328 Q2375.15 679.046 2375.97 678.915 Q2376.8 678.764 2377.63 678.764 Q2382.33 678.764 2385.08 681.341 Q2387.82 683.918 2387.82 688.319 Q2387.82 692.851 2385 695.371 Q2382.18 697.873 2377.05 697.873 Q2375.28 697.873 2373.44 697.572 Q2371.61 697.271 2369.66 696.669 L2369.66 692.851 Q2371.35 693.773 2373.15 694.224 Q2374.96 694.676 2376.97 694.676 Q2380.23 694.676 2382.12 692.964 Q2384.02 691.253 2384.02 688.319 Q2384.02 685.385 2382.12 683.673 Q2380.23 681.962 2376.97 681.962 Q2375.45 681.962 2373.92 682.3 Q2372.42 682.639 2370.84 683.353 L2370.84 669.247 Z" fill="#000000" fill-rule="evenodd" fill-opacity="1" /><path clip-path="url(#clip130)" d="M1317.65 760.05 L1317.65 770.172 L1329.71 770.172 L1329.71 774.723 L1317.65 774.723 L1317.65 794.075 Q1317.65 798.435 1318.83 799.677 Q1320.04 800.918 1323.7 800.918 L1329.71 800.918 L1329.71 805.819 L1323.7 805.819 Q1316.92 805.819 1314.34 803.305 Q1311.76 800.759 1311.76 794.075 L1311.76 774.723 L1307.46 774.723 L1307.46 770.172 L1311.76 770.172 L1311.76 760.05 L1317.65 760.05 Z" fill="#000000" fill-rule="evenodd" fill-opacity="1" /><polyline clip-path="url(#clip132)" style="stroke:#000000; stroke-linecap:butt; stroke-linejoin:round; stroke-width:2; stroke-opacity:0.1; fill:none" points="
  284.422,625.541 2352.76,625.541 
  "/>
<polyline clip-path="url(#clip132)" style="stroke:#000000; stroke-linecap:butt; stroke-linejoin:round; stroke-width:2; stroke-opacity:0.1; fill:none" points="
  284.422,482.629 2352.76,482.629 
  "/>
<polyline clip-path="url(#clip132)" style="stroke:#000000; stroke-linecap:butt; stroke-linejoin:round; stroke-width:2; stroke-opacity:0.1; fill:none" points="
  284.422,339.717 2352.76,339.717 
  "/>
<polyline clip-path="url(#clip132)" style="stroke:#000000; stroke-linecap:butt; stroke-linejoin:round; stroke-width:2; stroke-opacity:0.1; fill:none" points="
  284.422,196.805 2352.76,196.805 
  "/>
<polyline clip-path="url(#clip132)" style="stroke:#000000; stroke-linecap:butt; stroke-linejoin:round; stroke-width:2; stroke-opacity:0.1; fill:none" points="
  284.422,53.893 2352.76,53.893 
  "/>
<polyline clip-path="url(#clip130)" style="stroke:#000000; stroke-linecap:butt; stroke-linejoin:round; stroke-width:4; stroke-opacity:1; fill:none" points="
  284.422,642.531 284.422,47.2441 
  "/>
<polyline clip-path="url(#clip130)" style="stroke:#000000; stroke-linecap:butt; stroke-linejoin:round; stroke-width:4; stroke-opacity:1; fill:none" points="
  284.422,625.541 303.319,625.541 
  "/>
<polyline clip-path="url(#clip130)" style="stroke:#000000; stroke-linecap:butt; stroke-linejoin:round; stroke-width:4; stroke-opacity:1; fill:none" points="
  284.422,482.629 303.319,482.629 
  "/>
<polyline clip-path="url(#clip130)" style="stroke:#000000; stroke-linecap:butt; stroke-linejoin:round; stroke-width:4; stroke-opacity:1; fill:none" points="
  284.422,339.717 303.319,339.717 
  "/>
<polyline clip-path="url(#clip130)" style="stroke:#000000; stroke-linecap:butt; stroke-linejoin:round; stroke-width:4; stroke-opacity:1; fill:none" points="
  284.422,196.805 303.319,196.805 
  "/>
<polyline clip-path="url(#clip130)" style="stroke:#000000; stroke-linecap:butt; stroke-linejoin:round; stroke-width:4; stroke-opacity:1; fill:none" points="
  284.422,53.893 303.319,53.893 
  "/>
<path clip-path="url(#clip130)" d="M161.084 611.339 Q157.473 611.339 155.644 614.904 Q153.839 618.446 153.839 625.575 Q153.839 632.682 155.644 636.247 Q157.473 639.788 161.084 639.788 Q164.718 639.788 166.524 636.247 Q168.353 632.682 168.353 625.575 Q168.353 618.446 166.524 614.904 Q164.718 611.339 161.084 611.339 M161.084 607.636 Q166.894 607.636 169.95 612.242 Q173.029 616.825 173.029 625.575 Q173.029 634.302 169.95 638.909 Q166.894 643.492 161.084 643.492 Q155.274 643.492 152.195 638.909 Q149.14 634.302 149.14 625.575 Q149.14 616.825 152.195 612.242 Q155.274 607.636 161.084 607.636 Z" fill="#000000" fill-rule="evenodd" fill-opacity="1" /><path clip-path="url(#clip130)" d="M181.246 636.941 L186.13 636.941 L186.13 642.821 L181.246 642.821 L181.246 636.941 Z" fill="#000000" fill-rule="evenodd" fill-opacity="1" /><path clip-path="url(#clip130)" d="M206.315 611.339 Q202.704 611.339 200.876 614.904 Q199.07 618.446 199.07 625.575 Q199.07 632.682 200.876 636.247 Q202.704 639.788 206.315 639.788 Q209.95 639.788 211.755 636.247 Q213.584 632.682 213.584 625.575 Q213.584 618.446 211.755 614.904 Q209.95 611.339 206.315 611.339 M206.315 607.636 Q212.126 607.636 215.181 612.242 Q218.26 616.825 218.26 625.575 Q218.26 634.302 215.181 638.909 Q212.126 643.492 206.315 643.492 Q200.505 643.492 197.427 638.909 Q194.371 634.302 194.371 625.575 Q194.371 616.825 197.427 612.242 Q200.505 607.636 206.315 607.636 Z" fill="#000000" fill-rule="evenodd" fill-opacity="1" /><path clip-path="url(#clip130)" d="M236.477 611.339 Q232.866 611.339 231.037 614.904 Q229.232 618.446 229.232 625.575 Q229.232 632.682 231.037 636.247 Q232.866 639.788 236.477 639.788 Q240.111 639.788 241.917 636.247 Q243.746 632.682 243.746 625.575 Q243.746 618.446 241.917 614.904 Q240.111 611.339 236.477 611.339 M236.477 607.636 Q242.287 607.636 245.343 612.242 Q248.422 616.825 248.422 625.575 Q248.422 634.302 245.343 638.909 Q242.287 643.492 236.477 643.492 Q230.667 643.492 227.588 638.909 Q224.533 634.302 224.533 625.575 Q224.533 616.825 227.588 612.242 Q230.667 607.636 236.477 607.636 Z" fill="#000000" fill-rule="evenodd" fill-opacity="1" /><path clip-path="url(#clip130)" d="M162.079 468.427 Q158.468 468.427 156.64 471.992 Q154.834 475.534 154.834 482.663 Q154.834 489.77 156.64 493.335 Q158.468 496.876 162.079 496.876 Q165.714 496.876 167.519 493.335 Q169.348 489.77 169.348 482.663 Q169.348 475.534 167.519 471.992 Q165.714 468.427 162.079 468.427 M162.079 464.724 Q167.89 464.724 170.945 469.33 Q174.024 473.913 174.024 482.663 Q174.024 491.39 170.945 495.997 Q167.89 500.58 162.079 500.58 Q156.269 500.58 153.191 495.997 Q150.135 491.39 150.135 482.663 Q150.135 473.913 153.191 469.33 Q156.269 464.724 162.079 464.724 Z" fill="#000000" fill-rule="evenodd" fill-opacity="1" /><path clip-path="url(#clip130)" d="M182.241 494.029 L187.126 494.029 L187.126 499.909 L182.241 499.909 L182.241 494.029 Z" fill="#000000" fill-rule="evenodd" fill-opacity="1" /><path clip-path="url(#clip130)" d="M201.339 495.974 L217.658 495.974 L217.658 499.909 L195.714 499.909 L195.714 495.974 Q198.376 493.219 202.959 488.589 Q207.565 483.937 208.746 482.594 Q210.991 480.071 211.871 478.335 Q212.774 476.575 212.774 474.886 Q212.774 472.131 210.829 470.395 Q208.908 468.659 205.806 468.659 Q203.607 468.659 201.153 469.423 Q198.723 470.187 195.945 471.738 L195.945 467.015 Q198.769 465.881 201.223 465.302 Q203.676 464.724 205.714 464.724 Q211.084 464.724 214.278 467.409 Q217.473 470.094 217.473 474.585 Q217.473 476.714 216.663 478.636 Q215.876 480.534 213.769 483.126 Q213.19 483.798 210.088 487.015 Q206.987 490.21 201.339 495.974 Z" fill="#000000" fill-rule="evenodd" fill-opacity="1" /><path clip-path="url(#clip130)" d="M227.519 465.349 L245.875 465.349 L245.875 469.284 L231.801 469.284 L231.801 477.756 Q232.82 477.409 233.838 477.247 Q234.857 477.062 235.875 477.062 Q241.662 477.062 245.042 480.233 Q248.422 483.404 248.422 488.821 Q248.422 494.399 244.949 497.501 Q241.477 500.58 235.158 500.58 Q232.982 500.58 230.713 500.21 Q228.468 499.839 226.061 499.099 L226.061 494.399 Q228.144 495.534 230.366 496.089 Q232.588 496.645 235.065 496.645 Q239.07 496.645 241.408 494.538 Q243.746 492.432 243.746 488.821 Q243.746 485.21 241.408 483.103 Q239.07 480.997 235.065 480.997 Q233.19 480.997 231.315 481.413 Q229.463 481.83 227.519 482.71 L227.519 465.349 Z" fill="#000000" fill-rule="evenodd" fill-opacity="1" /><path clip-path="url(#clip130)" d="M161.084 325.515 Q157.473 325.515 155.644 329.08 Q153.839 332.622 153.839 339.752 Q153.839 346.858 155.644 350.423 Q157.473 353.964 161.084 353.964 Q164.718 353.964 166.524 350.423 Q168.353 346.858 168.353 339.752 Q168.353 332.622 166.524 329.08 Q164.718 325.515 161.084 325.515 M161.084 321.812 Q166.894 321.812 169.95 326.418 Q173.029 331.002 173.029 339.752 Q173.029 348.478 169.95 353.085 Q166.894 357.668 161.084 357.668 Q155.274 357.668 152.195 353.085 Q149.14 348.478 149.14 339.752 Q149.14 331.002 152.195 326.418 Q155.274 321.812 161.084 321.812 Z" fill="#000000" fill-rule="evenodd" fill-opacity="1" /><path clip-path="url(#clip130)" d="M181.246 351.117 L186.13 351.117 L186.13 356.997 L181.246 356.997 L181.246 351.117 Z" fill="#000000" fill-rule="evenodd" fill-opacity="1" /><path clip-path="url(#clip130)" d="M196.362 322.437 L214.718 322.437 L214.718 326.372 L200.644 326.372 L200.644 334.844 Q201.663 334.497 202.681 334.335 Q203.7 334.15 204.718 334.15 Q210.505 334.15 213.885 337.321 Q217.264 340.492 217.264 345.909 Q217.264 351.488 213.792 354.589 Q210.32 357.668 204.001 357.668 Q201.825 357.668 199.556 357.298 Q197.311 356.927 194.903 356.187 L194.903 351.488 Q196.987 352.622 199.209 353.177 Q201.431 353.733 203.908 353.733 Q207.913 353.733 210.251 351.626 Q212.588 349.52 212.588 345.909 Q212.588 342.298 210.251 340.191 Q207.913 338.085 203.908 338.085 Q202.033 338.085 200.158 338.502 Q198.306 338.918 196.362 339.798 L196.362 322.437 Z" fill="#000000" fill-rule="evenodd" fill-opacity="1" /><path clip-path="url(#clip130)" d="M236.477 325.515 Q232.866 325.515 231.037 329.08 Q229.232 332.622 229.232 339.752 Q229.232 346.858 231.037 350.423 Q232.866 353.964 236.477 353.964 Q240.111 353.964 241.917 350.423 Q243.746 346.858 243.746 339.752 Q243.746 332.622 241.917 329.08 Q240.111 325.515 236.477 325.515 M236.477 321.812 Q242.287 321.812 245.343 326.418 Q248.422 331.002 248.422 339.752 Q248.422 348.478 245.343 353.085 Q242.287 357.668 236.477 357.668 Q230.667 357.668 227.588 353.085 Q224.533 348.478 224.533 339.752 Q224.533 331.002 227.588 326.418 Q230.667 321.812 236.477 321.812 Z" fill="#000000" fill-rule="evenodd" fill-opacity="1" /><path clip-path="url(#clip130)" d="M162.079 182.604 Q158.468 182.604 156.64 186.168 Q154.834 189.71 154.834 196.84 Q154.834 203.946 156.64 207.511 Q158.468 211.053 162.079 211.053 Q165.714 211.053 167.519 207.511 Q169.348 203.946 169.348 196.84 Q169.348 189.71 167.519 186.168 Q165.714 182.604 162.079 182.604 M162.079 178.9 Q167.89 178.9 170.945 183.506 Q174.024 188.09 174.024 196.84 Q174.024 205.566 170.945 210.173 Q167.89 214.756 162.079 214.756 Q156.269 214.756 153.191 210.173 Q150.135 205.566 150.135 196.84 Q150.135 188.09 153.191 183.506 Q156.269 178.9 162.079 178.9 Z" fill="#000000" fill-rule="evenodd" fill-opacity="1" /><path clip-path="url(#clip130)" d="M182.241 208.205 L187.126 208.205 L187.126 214.085 L182.241 214.085 L182.241 208.205 Z" fill="#000000" fill-rule="evenodd" fill-opacity="1" /><path clip-path="url(#clip130)" d="M196.13 179.525 L218.352 179.525 L218.352 181.516 L205.806 214.085 L200.922 214.085 L212.727 183.46 L196.13 183.46 L196.13 179.525 Z" fill="#000000" fill-rule="evenodd" fill-opacity="1" /><path clip-path="url(#clip130)" d="M227.519 179.525 L245.875 179.525 L245.875 183.46 L231.801 183.46 L231.801 191.932 Q232.82 191.585 233.838 191.423 Q234.857 191.238 235.875 191.238 Q241.662 191.238 245.042 194.409 Q248.422 197.58 248.422 202.997 Q248.422 208.576 244.949 211.678 Q241.477 214.756 235.158 214.756 Q232.982 214.756 230.713 214.386 Q228.468 214.015 226.061 213.275 L226.061 208.576 Q228.144 209.71 230.366 210.265 Q232.588 210.821 235.065 210.821 Q239.07 210.821 241.408 208.715 Q243.746 206.608 243.746 202.997 Q243.746 199.386 241.408 197.279 Q239.07 195.173 235.065 195.173 Q233.19 195.173 231.315 195.59 Q229.463 196.006 227.519 196.886 L227.519 179.525 Z" fill="#000000" fill-rule="evenodd" fill-opacity="1" /><path clip-path="url(#clip130)" d="M151.894 67.2378 L159.533 67.2378 L159.533 40.8722 L151.223 42.5389 L151.223 38.2797 L159.487 36.613 L164.163 36.613 L164.163 67.2378 L171.802 67.2378 L171.802 71.173 L151.894 71.173 L151.894 67.2378 Z" fill="#000000" fill-rule="evenodd" fill-opacity="1" /><path clip-path="url(#clip130)" d="M181.246 65.2934 L186.13 65.2934 L186.13 71.173 L181.246 71.173 L181.246 65.2934 Z" fill="#000000" fill-rule="evenodd" fill-opacity="1" /><path clip-path="url(#clip130)" d="M206.315 39.6917 Q202.704 39.6917 200.876 43.2565 Q199.07 46.7981 199.07 53.9277 Q199.07 61.0342 200.876 64.599 Q202.704 68.1406 206.315 68.1406 Q209.95 68.1406 211.755 64.599 Q213.584 61.0342 213.584 53.9277 Q213.584 46.7981 211.755 43.2565 Q209.95 39.6917 206.315 39.6917 M206.315 35.988 Q212.126 35.988 215.181 40.5945 Q218.26 45.1778 218.26 53.9277 Q218.26 62.6545 215.181 67.261 Q212.126 71.8443 206.315 71.8443 Q200.505 71.8443 197.427 67.261 Q194.371 62.6545 194.371 53.9277 Q194.371 45.1778 197.427 40.5945 Q200.505 35.988 206.315 35.988 Z" fill="#000000" fill-rule="evenodd" fill-opacity="1" /><path clip-path="url(#clip130)" d="M236.477 39.6917 Q232.866 39.6917 231.037 43.2565 Q229.232 46.7981 229.232 53.9277 Q229.232 61.0342 231.037 64.599 Q232.866 68.1406 236.477 68.1406 Q240.111 68.1406 241.917 64.599 Q243.746 61.0342 243.746 53.9277 Q243.746 46.7981 241.917 43.2565 Q240.111 39.6917 236.477 39.6917 M236.477 35.988 Q242.287 35.988 245.343 40.5945 Q248.422 45.1778 248.422 53.9277 Q248.422 62.6545 245.343 67.261 Q242.287 71.8443 236.477 71.8443 Q230.667 71.8443 227.588 67.261 Q224.533 62.6545 224.533 53.9277 Q224.533 45.1778 227.588 40.5945 Q230.667 35.988 236.477 35.988 Z" fill="#000000" fill-rule="evenodd" fill-opacity="1" /><polyline clip-path="url(#clip132)" style="stroke:#009af9; stroke-linecap:butt; stroke-linejoin:round; stroke-width:4; stroke-opacity:1; fill:none" points="
  284.422,291.8 349.057,291.746 413.693,291.693 478.328,291.644 542.963,291.602 607.599,291.572 672.234,291.557 736.87,291.555 801.505,291.556 866.141,291.558 
  930.776,291.561 995.412,291.568 1060.05,291.583 1124.68,291.612 1189.32,291.673 1253.95,291.798 1318.59,292.055 1383.22,292.578 1447.86,293.641 1512.5,295.778 
  1577.13,299.98 1641.77,307.926 1706.4,321.981 1771.04,344.481 1835.67,376.299 1900.31,415.775 1964.94,459.141 2029.58,501.833 2094.21,539.741 2158.85,570.136 
  2223.49,592.151 2288.12,606.619 2352.76,615.342 
  "/>
<polyline clip-path="url(#clip132)" style="stroke:#e26f46; stroke-linecap:butt; stroke-linejoin:round; stroke-width:4; stroke-opacity:1; fill:none" points="
  284.422,623.712 349.057,624.661 413.693,625.13 478.328,625.358 542.963,625.468 607.599,625.517 672.234,625.535 736.87,625.537 801.505,625.537 866.141,625.537 
  930.776,625.537 995.412,625.537 1060.05,625.537 1124.68,625.537 1189.32,625.537 1253.95,625.537 1318.59,625.537 1383.22,625.538 1447.86,625.538 1512.5,625.538 
  1577.13,625.538 1641.77,625.538 1706.4,625.538 1771.04,625.538 1835.67,625.539 1900.31,625.539 1964.94,625.54 2029.58,625.54 2094.21,625.54 2158.85,625.54 
  2223.49,625.54 2288.12,625.54 2352.76,625.541 
  "/>
<polyline clip-path="url(#clip132)" style="stroke:#3da44d; stroke-linecap:butt; stroke-linejoin:round; stroke-width:4; stroke-opacity:1; fill:none" points="
  284.422,389.462 349.057,388.567 413.693,388.151 478.328,387.972 542.963,387.905 607.599,387.886 672.234,387.882 736.87,387.882 801.505,387.881 866.141,387.879 
  930.776,387.876 995.412,387.869 1060.05,387.854 1124.68,387.824 1189.32,387.763 1253.95,387.638 1318.59,387.382 1383.22,386.859 1447.86,385.795 1512.5,383.659 
  1577.13,379.456 1641.77,371.511 1706.4,357.455 1771.04,334.955 1835.67,303.136 1900.31,263.66 1964.94,220.294 2029.58,177.601 2094.21,139.693 2158.85,109.298 
  2223.49,87.2828 2288.12,72.8143 2352.76,64.0918 
  "/>
<polyline clip-path="url(#clip132)" style="stroke:#c271d2; stroke-linecap:butt; stroke-linejoin:round; stroke-width:8; stroke-opacity:1; fill:none" stroke-dasharray="32, 20" points="
  284.422,291.804 349.057,291.751 413.693,291.7 478.328,291.651 542.963,291.61 607.599,291.581 672.234,291.567 736.87,291.565 801.505,291.566 866.141,291.567 
  930.776,291.57 995.412,291.576 1060.05,291.589 1124.68,291.616 1189.32,291.67 1253.95,291.782 1318.59,292.011 1383.22,292.479 1447.86,293.431 1512.5,295.349 
  1577.13,299.135 1641.77,306.351 1706.4,319.271 1771.04,340.316 1835.67,370.687 1900.31,409.13 1964.94,452.15 2029.58,495.225 2094.21,534.111 2158.85,565.812 
  2223.49,589.152 2288.12,604.727 2352.76,614.24 
  "/>
<polyline clip-path="url(#clip132)" style="stroke:#ac8d18; stroke-linecap:butt; stroke-linejoin:round; stroke-width:8; stroke-opacity:1; fill:none" stroke-dasharray="32, 20" points="
  284.422,623.771 349.057,624.69 413.693,625.143 478.328,625.365 542.963,625.47 607.599,625.518 672.234,625.535 736.87,625.538 801.505,625.538 866.141,625.538 
  930.776,625.538 995.412,625.538 1060.05,625.538 1124.68,625.538 1189.32,625.538 1253.95,625.538 1318.59,625.538 1383.22,625.538 1447.86,625.538 1512.5,625.538 
  1577.13,625.538 1641.77,625.538 1706.4,625.538 1771.04,625.539 1835.67,625.539 1900.31,625.539 1964.94,625.54 2029.58,625.54 2094.21,625.54 2158.85,625.54 
  2223.49,625.54 2288.12,625.54 2352.76,625.541 
  "/>
<polyline clip-path="url(#clip132)" style="stroke:#00a9ad; stroke-linecap:butt; stroke-linejoin:round; stroke-width:8; stroke-opacity:1; fill:none" stroke-dasharray="32, 20" points="
  284.422,389.399 349.057,388.533 413.693,388.132 478.328,387.958 542.963,387.894 607.599,387.875 672.234,387.872 736.87,387.872 801.505,387.871 866.141,387.869 
  930.776,387.866 995.412,387.86 1060.05,387.847 1124.68,387.82 1189.32,387.766 1253.95,387.654 1318.59,387.425 1383.22,386.957 1447.86,386.005 1512.5,384.088 
  1577.13,380.301 1641.77,373.085 1706.4,360.165 1771.04,339.12 1835.67,308.749 1900.31,270.305 1964.94,227.285 2029.58,184.209 2094.21,145.323 2158.85,113.622 
  2223.49,90.2816 2288.12,74.7064 2352.76,65.1932 
  "/>
<polyline clip-path="url(#clip132)" style="stroke:#ed5d92; stroke-linecap:butt; stroke-linejoin:round; stroke-width:12; stroke-opacity:1; fill:none" stroke-dasharray="6, 12" points="
  284.422,291.693 349.057,291.693 413.693,291.693 478.328,291.693 542.963,291.693 607.599,291.693 672.234,291.694 736.87,291.694 801.505,291.696 866.141,291.699 
  930.776,291.705 995.412,291.717 1060.05,291.742 1124.68,291.794 1189.32,291.899 1253.95,292.099 1318.59,292.347 1383.22,292.24 1447.86,293.568 1512.5,295.33 
  1577.13,299.014 1641.77,306.025 1706.4,318.616 1771.04,339.218 1835.67,369.117 1900.31,407.188 1964.94,450.037 2029.58,493.181 2094.21,532.34 2158.85,564.443 
  2223.49,588.213 2288.12,604.163 2352.76,613.952 
  "/>
<polyline clip-path="url(#clip132)" style="stroke:#c68125; stroke-linecap:butt; stroke-linejoin:round; stroke-width:12; stroke-opacity:1; fill:none" stroke-dasharray="6, 12" points="
  284.422,625.246 349.057,625.246 413.693,625.246 478.328,625.246 542.963,625.247 607.599,625.247 672.234,625.249 736.87,625.252 801.505,625.259 866.141,625.273 
  930.776,625.301 995.412,625.353 1060.05,625.447 1124.68,625.586 1189.32,625.683 1253.95,625.481 1318.59,625.547 1383.22,625.54 1447.86,625.54 1512.5,625.54 
  1577.13,625.54 1641.77,625.54 1706.4,625.541 1771.04,625.541 1835.67,625.541 1900.31,625.542 1964.94,625.542 2029.58,625.542 2094.21,625.542 2158.85,625.543 
  2223.49,625.543 2288.12,625.543 2352.76,625.543 
  "/>
<polyline clip-path="url(#clip132)" style="stroke:#00a98d; stroke-linecap:butt; stroke-linejoin:round; stroke-width:12; stroke-opacity:1; fill:none" stroke-dasharray="6, 12" points="
  284.422,388.114 349.057,388.114 413.693,388.114 478.328,388.114 542.963,388.114 607.599,388.114 672.234,388.114 736.87,388.113 801.505,388.113 866.141,388.112 
  930.776,388.11 995.412,388.106 1060.05,388.097 1124.68,388.08 1189.32,388.042 1253.95,387.953 1318.59,387.66 1383.22,386.715 1447.86,386.293 1512.5,384.256 
  1577.13,380.62 1641.77,373.603 1706.4,361.012 1771.04,340.41 1835.67,310.51 1900.31,272.438 1964.94,229.589 2029.58,186.445 2094.21,147.285 2158.85,115.183 
  2223.49,91.412 2288.12,75.4627 2352.76,65.6732 
  "/>
<path clip-path="url(#clip130)" d="
M1946.31 585.487 L2283.81 585.487 L2283.81 67.087 L1946.31 67.087  Z
  " fill="#ffffff" fill-rule="evenodd" fill-opacity="1"/>
<polyline clip-path="url(#clip130)" style="stroke:#000000; stroke-linecap:butt; stroke-linejoin:round; stroke-width:4; stroke-opacity:1; fill:none" points="
  1946.31,585.487 2283.81,585.487 2283.81,67.087 1946.31,67.087 1946.31,585.487 
  "/>
<polyline clip-path="url(#clip130)" style="stroke:#009af9; stroke-linecap:butt; stroke-linejoin:round; stroke-width:4; stroke-opacity:1; fill:none" points="
  1969.29,118.927 2107.18,118.927 
  "/>
<path clip-path="url(#clip130)" d="M2130.16 125.976 L2130.16 110.281 L2134.42 110.281 L2134.42 125.814 Q2134.42 129.494 2135.86 131.346 Q2137.29 133.175 2140.16 133.175 Q2143.61 133.175 2145.6 130.976 Q2147.62 128.776 2147.62 124.98 L2147.62 110.281 L2151.88 110.281 L2151.88 136.207 L2147.62 136.207 L2147.62 132.226 Q2146.07 134.587 2144.01 135.744 Q2141.97 136.878 2139.26 136.878 Q2134.79 136.878 2132.48 134.101 Q2130.16 131.323 2130.16 125.976 M2140.88 109.656 L2140.88 109.656 Z" fill="#000000" fill-rule="evenodd" fill-opacity="1" /><path clip-path="url(#clip130)" d="M2162.06 132.272 L2169.7 132.272 L2169.7 105.906 L2161.39 107.573 L2161.39 103.314 L2169.65 101.647 L2174.33 101.647 L2174.33 132.272 L2181.97 132.272 L2181.97 136.207 L2162.06 136.207 L2162.06 132.272 Z" fill="#000000" fill-rule="evenodd" fill-opacity="1" /><path clip-path="url(#clip130)" d="M2201.04 100.235 Q2197.94 105.559 2196.44 110.767 Q2194.93 115.976 2194.93 121.323 Q2194.93 126.67 2196.44 131.925 Q2197.96 137.156 2201.04 142.457 L2197.34 142.457 Q2193.87 137.017 2192.13 131.763 Q2190.42 126.508 2190.42 121.323 Q2190.42 116.161 2192.13 110.929 Q2193.84 105.698 2197.34 100.235 L2201.04 100.235 Z" fill="#000000" fill-rule="evenodd" fill-opacity="1" /><path clip-path="url(#clip130)" d="M2213.52 102.92 L2213.52 110.281 L2222.29 110.281 L2222.29 113.591 L2213.52 113.591 L2213.52 127.665 Q2213.52 130.837 2214.38 131.739 Q2215.26 132.642 2217.92 132.642 L2222.29 132.642 L2222.29 136.207 L2217.92 136.207 Q2212.99 136.207 2211.11 134.378 Q2209.24 132.526 2209.24 127.665 L2209.24 113.591 L2206.11 113.591 L2206.11 110.281 L2209.24 110.281 L2209.24 102.92 L2213.52 102.92 Z" fill="#000000" fill-rule="evenodd" fill-opacity="1" /><path clip-path="url(#clip130)" d="M2227.22 100.235 L2230.93 100.235 Q2234.4 105.698 2236.11 110.929 Q2237.85 116.161 2237.85 121.323 Q2237.85 126.508 2236.11 131.763 Q2234.4 137.017 2230.93 142.457 L2227.22 142.457 Q2230.3 137.156 2231.81 131.925 Q2233.33 126.67 2233.33 121.323 Q2233.33 115.976 2231.81 110.767 Q2230.3 105.559 2227.22 100.235 Z" fill="#000000" fill-rule="evenodd" fill-opacity="1" /><polyline clip-path="url(#clip130)" style="stroke:#e26f46; stroke-linecap:butt; stroke-linejoin:round; stroke-width:4; stroke-opacity:1; fill:none" points="
  1969.29,170.767 2107.18,170.767 
  "/>
<path clip-path="url(#clip130)" d="M2130.16 177.816 L2130.16 162.121 L2134.42 162.121 L2134.42 177.654 Q2134.42 181.334 2135.86 183.186 Q2137.29 185.015 2140.16 185.015 Q2143.61 185.015 2145.6 182.816 Q2147.62 180.616 2147.62 176.82 L2147.62 162.121 L2151.88 162.121 L2151.88 188.047 L2147.62 188.047 L2147.62 184.066 Q2146.07 186.427 2144.01 187.584 Q2141.97 188.718 2139.26 188.718 Q2134.79 188.718 2132.48 185.941 Q2130.16 183.163 2130.16 177.816 M2140.88 161.496 L2140.88 161.496 Z" fill="#000000" fill-rule="evenodd" fill-opacity="1" /><path clip-path="url(#clip130)" d="M2165.28 184.112 L2181.6 184.112 L2181.6 188.047 L2159.65 188.047 L2159.65 184.112 Q2162.32 181.357 2166.9 176.728 Q2171.51 172.075 2172.69 170.732 Q2174.93 168.209 2175.81 166.473 Q2176.71 164.714 2176.71 163.024 Q2176.71 160.269 2174.77 158.533 Q2172.85 156.797 2169.75 156.797 Q2167.55 156.797 2165.09 157.561 Q2162.66 158.325 2159.89 159.876 L2159.89 155.154 Q2162.71 154.019 2165.16 153.441 Q2167.62 152.862 2169.65 152.862 Q2175.02 152.862 2178.22 155.547 Q2181.41 158.232 2181.41 162.723 Q2181.41 164.853 2180.6 166.774 Q2179.82 168.672 2177.71 171.265 Q2177.13 171.936 2174.03 175.154 Q2170.93 178.348 2165.28 184.112 Z" fill="#000000" fill-rule="evenodd" fill-opacity="1" /><path clip-path="url(#clip130)" d="M2201.04 152.075 Q2197.94 157.399 2196.44 162.607 Q2194.93 167.816 2194.93 173.163 Q2194.93 178.51 2196.44 183.765 Q2197.96 188.996 2201.04 194.297 L2197.34 194.297 Q2193.87 188.857 2192.13 183.603 Q2190.42 178.348 2190.42 173.163 Q2190.42 168.001 2192.13 162.769 Q2193.84 157.538 2197.34 152.075 L2201.04 152.075 Z" fill="#000000" fill-rule="evenodd" fill-opacity="1" /><path clip-path="url(#clip130)" d="M2213.52 154.76 L2213.52 162.121 L2222.29 162.121 L2222.29 165.431 L2213.52 165.431 L2213.52 179.505 Q2213.52 182.677 2214.38 183.579 Q2215.26 184.482 2217.92 184.482 L2222.29 184.482 L2222.29 188.047 L2217.92 188.047 Q2212.99 188.047 2211.11 186.218 Q2209.24 184.366 2209.24 179.505 L2209.24 165.431 L2206.11 165.431 L2206.11 162.121 L2209.24 162.121 L2209.24 154.76 L2213.52 154.76 Z" fill="#000000" fill-rule="evenodd" fill-opacity="1" /><path clip-path="url(#clip130)" d="M2227.22 152.075 L2230.93 152.075 Q2234.4 157.538 2236.11 162.769 Q2237.85 168.001 2237.85 173.163 Q2237.85 178.348 2236.11 183.603 Q2234.4 188.857 2230.93 194.297 L2227.22 194.297 Q2230.3 188.996 2231.81 183.765 Q2233.33 178.51 2233.33 173.163 Q2233.33 167.816 2231.81 162.607 Q2230.3 157.399 2227.22 152.075 Z" fill="#000000" fill-rule="evenodd" fill-opacity="1" /><polyline clip-path="url(#clip130)" style="stroke:#3da44d; stroke-linecap:butt; stroke-linejoin:round; stroke-width:4; stroke-opacity:1; fill:none" points="
  1969.29,222.607 2107.18,222.607 
  "/>
<path clip-path="url(#clip130)" d="M2130.16 229.656 L2130.16 213.961 L2134.42 213.961 L2134.42 229.494 Q2134.42 233.174 2135.86 235.026 Q2137.29 236.855 2140.16 236.855 Q2143.61 236.855 2145.6 234.656 Q2147.62 232.456 2147.62 228.66 L2147.62 213.961 L2151.88 213.961 L2151.88 239.887 L2147.62 239.887 L2147.62 235.906 Q2146.07 238.267 2144.01 239.424 Q2141.97 240.558 2139.26 240.558 Q2134.79 240.558 2132.48 237.781 Q2130.16 235.003 2130.16 229.656 M2140.88 213.336 L2140.88 213.336 Z" fill="#000000" fill-rule="evenodd" fill-opacity="1" /><path clip-path="url(#clip130)" d="M2175.42 221.253 Q2178.77 221.97 2180.65 224.239 Q2182.55 226.507 2182.55 229.841 Q2182.55 234.956 2179.03 237.757 Q2175.51 240.558 2169.03 240.558 Q2166.85 240.558 2164.54 240.118 Q2162.25 239.702 2159.79 238.845 L2159.79 234.331 Q2161.74 235.466 2164.05 236.044 Q2166.37 236.623 2168.89 236.623 Q2173.29 236.623 2175.58 234.887 Q2177.9 233.151 2177.9 229.841 Q2177.9 226.785 2175.74 225.072 Q2173.61 223.336 2169.79 223.336 L2165.77 223.336 L2165.77 219.494 L2169.98 219.494 Q2173.43 219.494 2175.26 218.128 Q2177.08 216.739 2177.08 214.146 Q2177.08 211.484 2175.19 210.072 Q2173.31 208.637 2169.79 208.637 Q2167.87 208.637 2165.67 209.054 Q2163.47 209.47 2160.83 210.35 L2160.83 206.183 Q2163.5 205.443 2165.81 205.072 Q2168.15 204.702 2170.21 204.702 Q2175.53 204.702 2178.64 207.133 Q2181.74 209.54 2181.74 213.66 Q2181.74 216.531 2180.09 218.521 Q2178.45 220.489 2175.42 221.253 Z" fill="#000000" fill-rule="evenodd" fill-opacity="1" /><path clip-path="url(#clip130)" d="M2201.04 203.915 Q2197.94 209.239 2196.44 214.447 Q2194.93 219.656 2194.93 225.003 Q2194.93 230.35 2196.44 235.605 Q2197.96 240.836 2201.04 246.137 L2197.34 246.137 Q2193.87 240.697 2192.13 235.443 Q2190.42 230.188 2190.42 225.003 Q2190.42 219.841 2192.13 214.609 Q2193.84 209.378 2197.34 203.915 L2201.04 203.915 Z" fill="#000000" fill-rule="evenodd" fill-opacity="1" /><path clip-path="url(#clip130)" d="M2213.52 206.6 L2213.52 213.961 L2222.29 213.961 L2222.29 217.271 L2213.52 217.271 L2213.52 231.345 Q2213.52 234.517 2214.38 235.419 Q2215.26 236.322 2217.92 236.322 L2222.29 236.322 L2222.29 239.887 L2217.92 239.887 Q2212.99 239.887 2211.11 238.058 Q2209.24 236.206 2209.24 231.345 L2209.24 217.271 L2206.11 217.271 L2206.11 213.961 L2209.24 213.961 L2209.24 206.6 L2213.52 206.6 Z" fill="#000000" fill-rule="evenodd" fill-opacity="1" /><path clip-path="url(#clip130)" d="M2227.22 203.915 L2230.93 203.915 Q2234.4 209.378 2236.11 214.609 Q2237.85 219.841 2237.85 225.003 Q2237.85 230.188 2236.11 235.443 Q2234.4 240.697 2230.93 246.137 L2227.22 246.137 Q2230.3 240.836 2231.81 235.605 Q2233.33 230.35 2233.33 225.003 Q2233.33 219.656 2231.81 214.447 Q2230.3 209.239 2227.22 203.915 Z" fill="#000000" fill-rule="evenodd" fill-opacity="1" /><polyline clip-path="url(#clip130)" style="stroke:#c271d2; stroke-linecap:butt; stroke-linejoin:round; stroke-width:4; stroke-opacity:1; fill:none" stroke-dasharray="16, 10" points="
  1969.29,274.447 2107.18,274.447 
  "/>
<path clip-path="url(#clip130)" d="M2130.16 281.496 L2130.16 265.801 L2134.42 265.801 L2134.42 281.334 Q2134.42 285.014 2135.86 286.866 Q2137.29 288.695 2140.16 288.695 Q2143.61 288.695 2145.6 286.496 Q2147.62 284.296 2147.62 280.5 L2147.62 265.801 L2151.88 265.801 L2151.88 291.727 L2147.62 291.727 L2147.62 287.746 Q2146.07 290.107 2144.01 291.264 Q2141.97 292.398 2139.26 292.398 Q2134.79 292.398 2132.48 289.621 Q2130.16 286.843 2130.16 281.496 M2140.88 265.176 L2140.88 265.176 Z" fill="#000000" fill-rule="evenodd" fill-opacity="1" /><path clip-path="url(#clip130)" d="M2162.06 287.792 L2169.7 287.792 L2169.7 261.426 L2161.39 263.093 L2161.39 258.834 L2169.65 257.167 L2174.33 257.167 L2174.33 287.792 L2181.97 287.792 L2181.97 291.727 L2162.06 291.727 L2162.06 287.792 Z" fill="#000000" fill-rule="evenodd" fill-opacity="1" /><path clip-path="url(#clip130)" d="M2201.04 255.755 Q2197.94 261.079 2196.44 266.287 Q2194.93 271.496 2194.93 276.843 Q2194.93 282.19 2196.44 287.445 Q2197.96 292.676 2201.04 297.977 L2197.34 297.977 Q2193.87 292.537 2192.13 287.283 Q2190.42 282.028 2190.42 276.843 Q2190.42 271.681 2192.13 266.449 Q2193.84 261.218 2197.34 255.755 L2201.04 255.755 Z" fill="#000000" fill-rule="evenodd" fill-opacity="1" /><path clip-path="url(#clip130)" d="M2213.52 258.44 L2213.52 265.801 L2222.29 265.801 L2222.29 269.111 L2213.52 269.111 L2213.52 283.185 Q2213.52 286.357 2214.38 287.259 Q2215.26 288.162 2217.92 288.162 L2222.29 288.162 L2222.29 291.727 L2217.92 291.727 Q2212.99 291.727 2211.11 289.898 Q2209.24 288.046 2209.24 283.185 L2209.24 269.111 L2206.11 269.111 L2206.11 265.801 L2209.24 265.801 L2209.24 258.44 L2213.52 258.44 Z" fill="#000000" fill-rule="evenodd" fill-opacity="1" /><path clip-path="url(#clip130)" d="M2227.22 255.755 L2230.93 255.755 Q2234.4 261.218 2236.11 266.449 Q2237.85 271.681 2237.85 276.843 Q2237.85 282.028 2236.11 287.283 Q2234.4 292.537 2230.93 297.977 L2227.22 297.977 Q2230.3 292.676 2231.81 287.445 Q2233.33 282.19 2233.33 276.843 Q2233.33 271.496 2231.81 266.287 Q2230.3 261.079 2227.22 255.755 Z" fill="#000000" fill-rule="evenodd" fill-opacity="1" /><polyline clip-path="url(#clip130)" style="stroke:#ac8d18; stroke-linecap:butt; stroke-linejoin:round; stroke-width:4; stroke-opacity:1; fill:none" stroke-dasharray="16, 10" points="
  1969.29,326.287 2107.18,326.287 
  "/>
<path clip-path="url(#clip130)" d="M2130.16 333.336 L2130.16 317.641 L2134.42 317.641 L2134.42 333.174 Q2134.42 336.854 2135.86 338.706 Q2137.29 340.535 2140.16 340.535 Q2143.61 340.535 2145.6 338.336 Q2147.62 336.136 2147.62 332.34 L2147.62 317.641 L2151.88 317.641 L2151.88 343.567 L2147.62 343.567 L2147.62 339.586 Q2146.07 341.947 2144.01 343.104 Q2141.97 344.238 2139.26 344.238 Q2134.79 344.238 2132.48 341.461 Q2130.16 338.683 2130.16 333.336 M2140.88 317.016 L2140.88 317.016 Z" fill="#000000" fill-rule="evenodd" fill-opacity="1" /><path clip-path="url(#clip130)" d="M2165.28 339.632 L2181.6 339.632 L2181.6 343.567 L2159.65 343.567 L2159.65 339.632 Q2162.32 336.877 2166.9 332.248 Q2171.51 327.595 2172.69 326.252 Q2174.93 323.729 2175.81 321.993 Q2176.71 320.234 2176.71 318.544 Q2176.71 315.789 2174.77 314.053 Q2172.85 312.317 2169.75 312.317 Q2167.55 312.317 2165.09 313.081 Q2162.66 313.845 2159.89 315.396 L2159.89 310.674 Q2162.71 309.539 2165.16 308.961 Q2167.62 308.382 2169.65 308.382 Q2175.02 308.382 2178.22 311.067 Q2181.41 313.752 2181.41 318.243 Q2181.41 320.373 2180.6 322.294 Q2179.82 324.192 2177.71 326.785 Q2177.13 327.456 2174.03 330.674 Q2170.93 333.868 2165.28 339.632 Z" fill="#000000" fill-rule="evenodd" fill-opacity="1" /><path clip-path="url(#clip130)" d="M2201.04 307.595 Q2197.94 312.919 2196.44 318.127 Q2194.93 323.336 2194.93 328.683 Q2194.93 334.03 2196.44 339.285 Q2197.96 344.516 2201.04 349.817 L2197.34 349.817 Q2193.87 344.377 2192.13 339.123 Q2190.42 333.868 2190.42 328.683 Q2190.42 323.521 2192.13 318.289 Q2193.84 313.058 2197.34 307.595 L2201.04 307.595 Z" fill="#000000" fill-rule="evenodd" fill-opacity="1" /><path clip-path="url(#clip130)" d="M2213.52 310.28 L2213.52 317.641 L2222.29 317.641 L2222.29 320.951 L2213.52 320.951 L2213.52 335.025 Q2213.52 338.197 2214.38 339.099 Q2215.26 340.002 2217.92 340.002 L2222.29 340.002 L2222.29 343.567 L2217.92 343.567 Q2212.99 343.567 2211.11 341.738 Q2209.24 339.886 2209.24 335.025 L2209.24 320.951 L2206.11 320.951 L2206.11 317.641 L2209.24 317.641 L2209.24 310.28 L2213.52 310.28 Z" fill="#000000" fill-rule="evenodd" fill-opacity="1" /><path clip-path="url(#clip130)" d="M2227.22 307.595 L2230.93 307.595 Q2234.4 313.058 2236.11 318.289 Q2237.85 323.521 2237.85 328.683 Q2237.85 333.868 2236.11 339.123 Q2234.4 344.377 2230.93 349.817 L2227.22 349.817 Q2230.3 344.516 2231.81 339.285 Q2233.33 334.03 2233.33 328.683 Q2233.33 323.336 2231.81 318.127 Q2230.3 312.919 2227.22 307.595 Z" fill="#000000" fill-rule="evenodd" fill-opacity="1" /><polyline clip-path="url(#clip130)" style="stroke:#00a9ad; stroke-linecap:butt; stroke-linejoin:round; stroke-width:4; stroke-opacity:1; fill:none" stroke-dasharray="16, 10" points="
  1969.29,378.127 2107.18,378.127 
  "/>
<path clip-path="url(#clip130)" d="M2130.16 385.176 L2130.16 369.481 L2134.42 369.481 L2134.42 385.014 Q2134.42 388.694 2135.86 390.546 Q2137.29 392.375 2140.16 392.375 Q2143.61 392.375 2145.6 390.176 Q2147.62 387.976 2147.62 384.18 L2147.62 369.481 L2151.88 369.481 L2151.88 395.407 L2147.62 395.407 L2147.62 391.426 Q2146.07 393.787 2144.01 394.944 Q2141.97 396.078 2139.26 396.078 Q2134.79 396.078 2132.48 393.301 Q2130.16 390.523 2130.16 385.176 M2140.88 368.856 L2140.88 368.856 Z" fill="#000000" fill-rule="evenodd" fill-opacity="1" /><path clip-path="url(#clip130)" d="M2175.42 376.773 Q2178.77 377.49 2180.65 379.759 Q2182.55 382.027 2182.55 385.361 Q2182.55 390.476 2179.03 393.277 Q2175.51 396.078 2169.03 396.078 Q2166.85 396.078 2164.54 395.638 Q2162.25 395.222 2159.79 394.365 L2159.79 389.851 Q2161.74 390.986 2164.05 391.564 Q2166.37 392.143 2168.89 392.143 Q2173.29 392.143 2175.58 390.407 Q2177.9 388.671 2177.9 385.361 Q2177.9 382.305 2175.74 380.592 Q2173.61 378.856 2169.79 378.856 L2165.77 378.856 L2165.77 375.014 L2169.98 375.014 Q2173.43 375.014 2175.26 373.648 Q2177.08 372.259 2177.08 369.666 Q2177.08 367.004 2175.19 365.592 Q2173.31 364.157 2169.79 364.157 Q2167.87 364.157 2165.67 364.574 Q2163.47 364.99 2160.83 365.87 L2160.83 361.703 Q2163.5 360.963 2165.81 360.592 Q2168.15 360.222 2170.21 360.222 Q2175.53 360.222 2178.64 362.653 Q2181.74 365.06 2181.74 369.18 Q2181.74 372.051 2180.09 374.041 Q2178.45 376.009 2175.42 376.773 Z" fill="#000000" fill-rule="evenodd" fill-opacity="1" /><path clip-path="url(#clip130)" d="M2201.04 359.435 Q2197.94 364.759 2196.44 369.967 Q2194.93 375.176 2194.93 380.523 Q2194.93 385.87 2196.44 391.125 Q2197.96 396.356 2201.04 401.657 L2197.34 401.657 Q2193.87 396.217 2192.13 390.963 Q2190.42 385.708 2190.42 380.523 Q2190.42 375.361 2192.13 370.129 Q2193.84 364.898 2197.34 359.435 L2201.04 359.435 Z" fill="#000000" fill-rule="evenodd" fill-opacity="1" /><path clip-path="url(#clip130)" d="M2213.52 362.12 L2213.52 369.481 L2222.29 369.481 L2222.29 372.791 L2213.52 372.791 L2213.52 386.865 Q2213.52 390.037 2214.38 390.939 Q2215.26 391.842 2217.92 391.842 L2222.29 391.842 L2222.29 395.407 L2217.92 395.407 Q2212.99 395.407 2211.11 393.578 Q2209.24 391.726 2209.24 386.865 L2209.24 372.791 L2206.11 372.791 L2206.11 369.481 L2209.24 369.481 L2209.24 362.12 L2213.52 362.12 Z" fill="#000000" fill-rule="evenodd" fill-opacity="1" /><path clip-path="url(#clip130)" d="M2227.22 359.435 L2230.93 359.435 Q2234.4 364.898 2236.11 370.129 Q2237.85 375.361 2237.85 380.523 Q2237.85 385.708 2236.11 390.963 Q2234.4 396.217 2230.93 401.657 L2227.22 401.657 Q2230.3 396.356 2231.81 391.125 Q2233.33 385.87 2233.33 380.523 Q2233.33 375.176 2231.81 369.967 Q2230.3 364.759 2227.22 359.435 Z" fill="#000000" fill-rule="evenodd" fill-opacity="1" /><polyline clip-path="url(#clip130)" style="stroke:#ed5d92; stroke-linecap:butt; stroke-linejoin:round; stroke-width:4; stroke-opacity:1; fill:none" stroke-dasharray="2, 4" points="
  1969.29,429.967 2107.18,429.967 
  "/>
<path clip-path="url(#clip130)" d="M2144.01 449.654 Q2142.2 454.284 2140.49 455.696 Q2138.77 457.108 2135.9 457.108 L2132.5 457.108 L2132.5 453.543 L2135 453.543 Q2136.76 453.543 2137.73 452.71 Q2138.71 451.877 2139.89 448.775 L2140.65 446.83 L2130.16 421.321 L2134.68 421.321 L2142.78 441.599 L2150.88 421.321 L2155.4 421.321 L2144.01 449.654 Z" fill="#000000" fill-rule="evenodd" fill-opacity="1" /><path clip-path="url(#clip130)" d="M2160.7 412.687 L2182.92 412.687 L2182.92 414.678 L2170.37 447.247 L2165.49 447.247 L2177.29 416.622 L2160.7 416.622 L2160.7 412.687 Z" fill="#000000" fill-rule="evenodd" fill-opacity="1" /><polyline clip-path="url(#clip130)" style="stroke:#c68125; stroke-linecap:butt; stroke-linejoin:round; stroke-width:4; stroke-opacity:1; fill:none" stroke-dasharray="2, 4" points="
  1969.29,481.807 2107.18,481.807 
  "/>
<path clip-path="url(#clip130)" d="M2144.01 501.494 Q2142.2 506.124 2140.49 507.536 Q2138.77 508.948 2135.9 508.948 L2132.5 508.948 L2132.5 505.383 L2135 505.383 Q2136.76 505.383 2137.73 504.55 Q2138.71 503.717 2139.89 500.615 L2140.65 498.67 L2130.16 473.161 L2134.68 473.161 L2142.78 493.439 L2150.88 473.161 L2155.4 473.161 L2144.01 501.494 Z" fill="#000000" fill-rule="evenodd" fill-opacity="1" /><path clip-path="url(#clip130)" d="M2171.88 482.675 Q2168.54 482.675 2166.62 484.457 Q2164.72 486.24 2164.72 489.365 Q2164.72 492.49 2166.62 494.272 Q2168.54 496.055 2171.88 496.055 Q2175.21 496.055 2177.13 494.272 Q2179.05 492.467 2179.05 489.365 Q2179.05 486.24 2177.13 484.457 Q2175.23 482.675 2171.88 482.675 M2167.2 480.684 Q2164.19 479.944 2162.5 477.883 Q2160.83 475.823 2160.83 472.86 Q2160.83 468.717 2163.77 466.309 Q2166.74 463.902 2171.88 463.902 Q2177.04 463.902 2179.98 466.309 Q2182.92 468.717 2182.92 472.86 Q2182.92 475.823 2181.23 477.883 Q2179.56 479.944 2176.58 480.684 Q2179.96 481.471 2181.83 483.763 Q2183.73 486.055 2183.73 489.365 Q2183.73 494.388 2180.65 497.073 Q2177.59 499.758 2171.88 499.758 Q2166.16 499.758 2163.08 497.073 Q2160.02 494.388 2160.02 489.365 Q2160.02 486.055 2161.92 483.763 Q2163.82 481.471 2167.2 480.684 M2165.49 473.3 Q2165.49 475.985 2167.15 477.49 Q2168.84 478.994 2171.88 478.994 Q2174.89 478.994 2176.58 477.49 Q2178.29 475.985 2178.29 473.3 Q2178.29 470.615 2176.58 469.11 Q2174.89 467.606 2171.88 467.606 Q2168.84 467.606 2167.15 469.11 Q2165.49 470.615 2165.49 473.3 Z" fill="#000000" fill-rule="evenodd" fill-opacity="1" /><polyline clip-path="url(#clip130)" style="stroke:#00a98d; stroke-linecap:butt; stroke-linejoin:round; stroke-width:4; stroke-opacity:1; fill:none" stroke-dasharray="2, 4" points="
  1969.29,533.647 2107.18,533.647 
  "/>
<path clip-path="url(#clip130)" d="M2144.01 553.334 Q2142.2 557.964 2140.49 559.376 Q2138.77 560.788 2135.9 560.788 L2132.5 560.788 L2132.5 557.223 L2135 557.223 Q2136.76 557.223 2137.73 556.39 Q2138.71 555.557 2139.89 552.455 L2140.65 550.51 L2130.16 525.001 L2134.68 525.001 L2142.78 545.279 L2150.88 525.001 L2155.4 525.001 L2144.01 553.334 Z" fill="#000000" fill-rule="evenodd" fill-opacity="1" /><path clip-path="url(#clip130)" d="M2162.02 550.209 L2162.02 545.95 Q2163.77 546.783 2165.58 547.223 Q2167.39 547.663 2169.12 547.663 Q2173.75 547.663 2176.18 544.561 Q2178.64 541.436 2178.98 535.094 Q2177.64 537.084 2175.58 538.149 Q2173.52 539.214 2171.02 539.214 Q2165.83 539.214 2162.8 536.089 Q2159.79 532.941 2159.79 527.501 Q2159.79 522.177 2162.94 518.96 Q2166.09 515.742 2171.32 515.742 Q2177.32 515.742 2180.46 520.348 Q2183.64 524.932 2183.64 533.682 Q2183.64 541.853 2179.75 546.737 Q2175.88 551.598 2169.33 551.598 Q2167.57 551.598 2165.77 551.251 Q2163.96 550.904 2162.02 550.209 M2171.32 535.557 Q2174.47 535.557 2176.3 533.404 Q2178.15 531.251 2178.15 527.501 Q2178.15 523.774 2176.3 521.622 Q2174.47 519.446 2171.32 519.446 Q2168.17 519.446 2166.32 521.622 Q2164.49 523.774 2164.49 527.501 Q2164.49 531.251 2166.32 533.404 Q2168.17 535.557 2171.32 535.557 Z" fill="#000000" fill-rule="evenodd" fill-opacity="1" /><path clip-path="url(#clip130)" d="
M284.422 1474.16 L2352.76 1474.16 L2352.76 878.878 L284.422 878.878  Z
  " fill="#ffffff" fill-rule="evenodd" fill-opacity="1"/>
<defs>
  <clipPath id="clip133">
    <rect x="284" y="878" width="2069" height="596"/>
  </clipPath>
</defs>
<polyline clip-path="url(#clip133)" style="stroke:#000000; stroke-linecap:butt; stroke-linejoin:round; stroke-width:2; stroke-opacity:0.1; fill:none" points="
  538.085,1474.16 538.085,878.878 
  "/>
<polyline clip-path="url(#clip133)" style="stroke:#000000; stroke-linecap:butt; stroke-linejoin:round; stroke-width:2; stroke-opacity:0.1; fill:none" points="
  928.337,1474.16 928.337,878.878 
  "/>
<polyline clip-path="url(#clip133)" style="stroke:#000000; stroke-linecap:butt; stroke-linejoin:round; stroke-width:2; stroke-opacity:0.1; fill:none" points="
  1318.59,1474.16 1318.59,878.878 
  "/>
<polyline clip-path="url(#clip133)" style="stroke:#000000; stroke-linecap:butt; stroke-linejoin:round; stroke-width:2; stroke-opacity:0.1; fill:none" points="
  1708.84,1474.16 1708.84,878.878 
  "/>
<polyline clip-path="url(#clip133)" style="stroke:#000000; stroke-linecap:butt; stroke-linejoin:round; stroke-width:2; stroke-opacity:0.1; fill:none" points="
  2099.09,1474.16 2099.09,878.878 
  "/>
<polyline clip-path="url(#clip130)" style="stroke:#000000; stroke-linecap:butt; stroke-linejoin:round; stroke-width:4; stroke-opacity:1; fill:none" points="
  284.422,1474.16 2352.76,1474.16 
  "/>
<polyline clip-path="url(#clip130)" style="stroke:#000000; stroke-linecap:butt; stroke-linejoin:round; stroke-width:4; stroke-opacity:1; fill:none" points="
  538.085,1474.16 538.085,1455.27 
  "/>
<polyline clip-path="url(#clip130)" style="stroke:#000000; stroke-linecap:butt; stroke-linejoin:round; stroke-width:4; stroke-opacity:1; fill:none" points="
  928.337,1474.16 928.337,1455.27 
  "/>
<polyline clip-path="url(#clip130)" style="stroke:#000000; stroke-linecap:butt; stroke-linejoin:round; stroke-width:4; stroke-opacity:1; fill:none" points="
  1318.59,1474.16 1318.59,1455.27 
  "/>
<polyline clip-path="url(#clip130)" style="stroke:#000000; stroke-linecap:butt; stroke-linejoin:round; stroke-width:4; stroke-opacity:1; fill:none" points="
  1708.84,1474.16 1708.84,1455.27 
  "/>
<polyline clip-path="url(#clip130)" style="stroke:#000000; stroke-linecap:butt; stroke-linejoin:round; stroke-width:4; stroke-opacity:1; fill:none" points="
  2099.09,1474.16 2099.09,1455.27 
  "/>
<path clip-path="url(#clip130)" d="M487.505 1552.44 L495.144 1552.44 L495.144 1526.07 L486.833 1527.74 L486.833 1523.48 L495.097 1521.81 L499.773 1521.81 L499.773 1552.44 L507.412 1552.44 L507.412 1556.37 L487.505 1556.37 L487.505 1552.44 Z" fill="#000000" fill-rule="evenodd" fill-opacity="1" /><path clip-path="url(#clip130)" d="M526.856 1524.89 Q523.245 1524.89 521.417 1528.46 Q519.611 1532 519.611 1539.13 Q519.611 1546.23 521.417 1549.8 Q523.245 1553.34 526.856 1553.34 Q530.491 1553.34 532.296 1549.8 Q534.125 1546.23 534.125 1539.13 Q534.125 1532 532.296 1528.46 Q530.491 1524.89 526.856 1524.89 M526.856 1521.19 Q532.666 1521.19 535.722 1525.79 Q538.801 1530.38 538.801 1539.13 Q538.801 1547.85 535.722 1552.46 Q532.666 1557.04 526.856 1557.04 Q521.046 1557.04 517.967 1552.46 Q514.912 1547.85 514.912 1539.13 Q514.912 1530.38 517.967 1525.79 Q521.046 1521.19 526.856 1521.19 Z" fill="#000000" fill-rule="evenodd" fill-opacity="1" /><path clip-path="url(#clip130)" d="M538.801 1515.29 L562.912 1515.29 L562.912 1518.49 L538.801 1518.49 L538.801 1515.29 Z" fill="#000000" fill-rule="evenodd" fill-opacity="1" /><path clip-path="url(#clip130)" d="M581.551 1504.19 L571.959 1519.18 L581.551 1519.18 L581.551 1504.19 M580.554 1500.88 L585.331 1500.88 L585.331 1519.18 L589.337 1519.18 L589.337 1522.34 L585.331 1522.34 L585.331 1528.96 L581.551 1528.96 L581.551 1522.34 L568.874 1522.34 L568.874 1518.67 L580.554 1500.88 Z" fill="#000000" fill-rule="evenodd" fill-opacity="1" /><path clip-path="url(#clip130)" d="M878.603 1552.44 L886.242 1552.44 L886.242 1526.07 L877.931 1527.74 L877.931 1523.48 L886.195 1521.81 L890.871 1521.81 L890.871 1552.44 L898.51 1552.44 L898.51 1556.37 L878.603 1556.37 L878.603 1552.44 Z" fill="#000000" fill-rule="evenodd" fill-opacity="1" /><path clip-path="url(#clip130)" d="M917.954 1524.89 Q914.343 1524.89 912.515 1528.46 Q910.709 1532 910.709 1539.13 Q910.709 1546.23 912.515 1549.8 Q914.343 1553.34 917.954 1553.34 Q921.589 1553.34 923.394 1549.8 Q925.223 1546.23 925.223 1539.13 Q925.223 1532 923.394 1528.46 Q921.589 1524.89 917.954 1524.89 M917.954 1521.19 Q923.765 1521.19 926.82 1525.79 Q929.899 1530.38 929.899 1539.13 Q929.899 1547.85 926.82 1552.46 Q923.765 1557.04 917.954 1557.04 Q912.144 1557.04 909.066 1552.46 Q906.01 1547.85 906.01 1539.13 Q906.01 1530.38 909.066 1525.79 Q912.144 1521.19 917.954 1521.19 Z" fill="#000000" fill-rule="evenodd" fill-opacity="1" /><path clip-path="url(#clip130)" d="M929.899 1515.29 L954.01 1515.29 L954.01 1518.49 L929.899 1518.49 L929.899 1515.29 Z" fill="#000000" fill-rule="evenodd" fill-opacity="1" /><path clip-path="url(#clip130)" d="M965.483 1525.76 L978.743 1525.76 L978.743 1528.96 L960.913 1528.96 L960.913 1525.76 Q963.076 1523.53 966.8 1519.76 Q970.542 1515.98 971.502 1514.89 Q973.326 1512.84 974.041 1511.43 Q974.774 1510 974.774 1508.63 Q974.774 1506.39 973.194 1504.98 Q971.633 1503.57 969.113 1503.57 Q967.326 1503.57 965.333 1504.19 Q963.358 1504.81 961.101 1506.07 L961.101 1502.24 Q963.395 1501.31 965.389 1500.84 Q967.383 1500.37 969.038 1500.37 Q973.401 1500.37 975.997 1502.56 Q978.592 1504.74 978.592 1508.39 Q978.592 1510.12 977.934 1511.68 Q977.294 1513.22 975.583 1515.33 Q975.113 1515.87 972.592 1518.49 Q970.072 1521.08 965.483 1525.76 Z" fill="#000000" fill-rule="evenodd" fill-opacity="1" /><path clip-path="url(#clip130)" d="M1283.57 1552.44 L1291.21 1552.44 L1291.21 1526.07 L1282.9 1527.74 L1282.9 1523.48 L1291.16 1521.81 L1295.84 1521.81 L1295.84 1552.44 L1303.48 1552.44 L1303.48 1556.37 L1283.57 1556.37 L1283.57 1552.44 Z" fill="#000000" fill-rule="evenodd" fill-opacity="1" /><path clip-path="url(#clip130)" d="M1322.92 1524.89 Q1319.31 1524.89 1317.48 1528.46 Q1315.68 1532 1315.68 1539.13 Q1315.68 1546.23 1317.48 1549.8 Q1319.31 1553.34 1322.92 1553.34 Q1326.56 1553.34 1328.36 1549.8 Q1330.19 1546.23 1330.19 1539.13 Q1330.19 1532 1328.36 1528.46 Q1326.56 1524.89 1322.92 1524.89 M1322.92 1521.19 Q1328.73 1521.19 1331.79 1525.79 Q1334.87 1530.38 1334.87 1539.13 Q1334.87 1547.85 1331.79 1552.46 Q1328.73 1557.04 1322.92 1557.04 Q1317.11 1557.04 1314.03 1552.46 Q1310.98 1547.85 1310.98 1539.13 Q1310.98 1530.38 1314.03 1525.79 Q1317.11 1521.19 1322.92 1521.19 Z" fill="#000000" fill-rule="evenodd" fill-opacity="1" /><path clip-path="url(#clip130)" d="M1344.57 1503.38 Q1341.64 1503.38 1340.15 1506.28 Q1338.69 1509.16 1338.69 1514.95 Q1338.69 1520.72 1340.15 1523.62 Q1341.64 1526.5 1344.57 1526.5 Q1347.53 1526.5 1348.99 1523.62 Q1350.48 1520.72 1350.48 1514.95 Q1350.48 1509.16 1348.99 1506.28 Q1347.53 1503.38 1344.57 1503.38 M1344.57 1500.37 Q1349.29 1500.37 1351.78 1504.12 Q1354.28 1507.84 1354.28 1514.95 Q1354.28 1522.04 1351.78 1525.78 Q1349.29 1529.51 1344.57 1529.51 Q1339.85 1529.51 1337.35 1525.78 Q1334.87 1522.04 1334.87 1514.95 Q1334.87 1507.84 1337.35 1504.12 Q1339.85 1500.37 1344.57 1500.37 Z" fill="#000000" fill-rule="evenodd" fill-opacity="1" /><path clip-path="url(#clip130)" d="M1674.61 1552.44 L1682.25 1552.44 L1682.25 1526.07 L1673.94 1527.74 L1673.94 1523.48 L1682.21 1521.81 L1686.88 1521.81 L1686.88 1552.44 L1694.52 1552.44 L1694.52 1556.37 L1674.61 1556.37 L1674.61 1552.44 Z" fill="#000000" fill-rule="evenodd" fill-opacity="1" /><path clip-path="url(#clip130)" d="M1713.96 1524.89 Q1710.35 1524.89 1708.53 1528.46 Q1706.72 1532 1706.72 1539.13 Q1706.72 1546.23 1708.53 1549.8 Q1710.35 1553.34 1713.96 1553.34 Q1717.6 1553.34 1719.4 1549.8 Q1721.23 1546.23 1721.23 1539.13 Q1721.23 1532 1719.4 1528.46 Q1717.6 1524.89 1713.96 1524.89 M1713.96 1521.19 Q1719.78 1521.19 1722.83 1525.79 Q1725.91 1530.38 1725.91 1539.13 Q1725.91 1547.85 1722.83 1552.46 Q1719.78 1557.04 1713.96 1557.04 Q1708.15 1557.04 1705.08 1552.46 Q1702.02 1547.85 1702.02 1539.13 Q1702.02 1530.38 1705.08 1525.79 Q1708.15 1521.19 1713.96 1521.19 Z" fill="#000000" fill-rule="evenodd" fill-opacity="1" /><path clip-path="url(#clip130)" d="M1730.48 1525.76 L1743.74 1525.76 L1743.74 1528.96 L1725.91 1528.96 L1725.91 1525.76 Q1728.07 1523.53 1731.8 1519.76 Q1735.54 1515.98 1736.5 1514.89 Q1738.32 1512.84 1739.04 1511.43 Q1739.77 1510 1739.77 1508.63 Q1739.77 1506.39 1738.19 1504.98 Q1736.63 1503.57 1734.11 1503.57 Q1732.32 1503.57 1730.33 1504.19 Q1728.35 1504.81 1726.1 1506.07 L1726.1 1502.24 Q1728.39 1501.31 1730.39 1500.84 Q1732.38 1500.37 1734.03 1500.37 Q1738.4 1500.37 1740.99 1502.56 Q1743.59 1504.74 1743.59 1508.39 Q1743.59 1510.12 1742.93 1511.68 Q1742.29 1513.22 1740.58 1515.33 Q1740.11 1515.87 1737.59 1518.49 Q1735.07 1521.08 1730.48 1525.76 Z" fill="#000000" fill-rule="evenodd" fill-opacity="1" /><path clip-path="url(#clip130)" d="M2063.55 1552.44 L2071.19 1552.44 L2071.19 1526.07 L2062.88 1527.74 L2062.88 1523.48 L2071.14 1521.81 L2075.82 1521.81 L2075.82 1552.44 L2083.46 1552.44 L2083.46 1556.37 L2063.55 1556.37 L2063.55 1552.44 Z" fill="#000000" fill-rule="evenodd" fill-opacity="1" /><path clip-path="url(#clip130)" d="M2102.9 1524.89 Q2099.29 1524.89 2097.46 1528.46 Q2095.65 1532 2095.65 1539.13 Q2095.65 1546.23 2097.46 1549.8 Q2099.29 1553.34 2102.9 1553.34 Q2106.53 1553.34 2108.34 1549.8 Q2110.17 1546.23 2110.17 1539.13 Q2110.17 1532 2108.34 1528.46 Q2106.53 1524.89 2102.9 1524.89 M2102.9 1521.19 Q2108.71 1521.19 2111.77 1525.79 Q2114.84 1530.38 2114.84 1539.13 Q2114.84 1547.85 2111.77 1552.46 Q2108.71 1557.04 2102.9 1557.04 Q2097.09 1557.04 2094.01 1552.46 Q2090.96 1547.85 2090.96 1539.13 Q2090.96 1530.38 2094.01 1525.79 Q2097.09 1521.19 2102.9 1521.19 Z" fill="#000000" fill-rule="evenodd" fill-opacity="1" /><path clip-path="url(#clip130)" d="M2127.52 1504.19 L2117.93 1519.18 L2127.52 1519.18 L2127.52 1504.19 M2126.52 1500.88 L2131.3 1500.88 L2131.3 1519.18 L2135.31 1519.18 L2135.31 1522.34 L2131.3 1522.34 L2131.3 1528.96 L2127.52 1528.96 L2127.52 1522.34 L2114.84 1522.34 L2114.84 1518.67 L2126.52 1500.88 Z" fill="#000000" fill-rule="evenodd" fill-opacity="1" /><polyline clip-path="url(#clip133)" style="stroke:#000000; stroke-linecap:butt; stroke-linejoin:round; stroke-width:2; stroke-opacity:0.1; fill:none" points="
  284.422,1418.18 2352.76,1418.18 
  "/>
<polyline clip-path="url(#clip133)" style="stroke:#000000; stroke-linecap:butt; stroke-linejoin:round; stroke-width:2; stroke-opacity:0.1; fill:none" points="
  284.422,1276.2 2352.76,1276.2 
  "/>
<polyline clip-path="url(#clip133)" style="stroke:#000000; stroke-linecap:butt; stroke-linejoin:round; stroke-width:2; stroke-opacity:0.1; fill:none" points="
  284.422,1134.23 2352.76,1134.23 
  "/>
<polyline clip-path="url(#clip133)" style="stroke:#000000; stroke-linecap:butt; stroke-linejoin:round; stroke-width:2; stroke-opacity:0.1; fill:none" points="
  284.422,992.26 2352.76,992.26 
  "/>
<polyline clip-path="url(#clip130)" style="stroke:#000000; stroke-linecap:butt; stroke-linejoin:round; stroke-width:4; stroke-opacity:1; fill:none" points="
  284.422,1474.16 284.422,878.878 
  "/>
<polyline clip-path="url(#clip130)" style="stroke:#000000; stroke-linecap:butt; stroke-linejoin:round; stroke-width:4; stroke-opacity:1; fill:none" points="
  284.422,1418.18 303.319,1418.18 
  "/>
<polyline clip-path="url(#clip130)" style="stroke:#000000; stroke-linecap:butt; stroke-linejoin:round; stroke-width:4; stroke-opacity:1; fill:none" points="
  284.422,1276.2 303.319,1276.2 
  "/>
<polyline clip-path="url(#clip130)" style="stroke:#000000; stroke-linecap:butt; stroke-linejoin:round; stroke-width:4; stroke-opacity:1; fill:none" points="
  284.422,1134.23 303.319,1134.23 
  "/>
<polyline clip-path="url(#clip130)" style="stroke:#000000; stroke-linecap:butt; stroke-linejoin:round; stroke-width:4; stroke-opacity:1; fill:none" points="
  284.422,992.26 303.319,992.26 
  "/>
<path clip-path="url(#clip130)" d="M50.9921 1418.63 L80.6679 1418.63 L80.6679 1422.56 L50.9921 1422.56 L50.9921 1418.63 Z" fill="#000000" fill-rule="evenodd" fill-opacity="1" /><path clip-path="url(#clip130)" d="M100.76 1403.97 Q97.1493 1403.97 95.3206 1407.54 Q93.515 1411.08 93.515 1418.21 Q93.515 1425.32 95.3206 1428.88 Q97.1493 1432.42 100.76 1432.42 Q104.395 1432.42 106.2 1428.88 Q108.029 1425.32 108.029 1418.21 Q108.029 1411.08 106.2 1407.54 Q104.395 1403.97 100.76 1403.97 M100.76 1400.27 Q106.571 1400.27 109.626 1404.88 Q112.705 1409.46 112.705 1418.21 Q112.705 1426.94 109.626 1431.54 Q106.571 1436.13 100.76 1436.13 Q94.9502 1436.13 91.8715 1431.54 Q88.816 1426.94 88.816 1418.21 Q88.816 1409.46 91.8715 1404.88 Q94.9502 1400.27 100.76 1400.27 Z" fill="#000000" fill-rule="evenodd" fill-opacity="1" /><path clip-path="url(#clip130)" d="M120.922 1429.58 L125.807 1429.58 L125.807 1435.46 L120.922 1435.46 L120.922 1429.58 Z" fill="#000000" fill-rule="evenodd" fill-opacity="1" /><path clip-path="url(#clip130)" d="M145.992 1403.97 Q142.381 1403.97 140.552 1407.54 Q138.746 1411.08 138.746 1418.21 Q138.746 1425.32 140.552 1428.88 Q142.381 1432.42 145.992 1432.42 Q149.626 1432.42 151.431 1428.88 Q153.26 1425.32 153.26 1418.21 Q153.26 1411.08 151.431 1407.54 Q149.626 1403.97 145.992 1403.97 M145.992 1400.27 Q151.802 1400.27 154.857 1404.88 Q157.936 1409.46 157.936 1418.21 Q157.936 1426.94 154.857 1431.54 Q151.802 1436.13 145.992 1436.13 Q140.181 1436.13 137.103 1431.54 Q134.047 1426.94 134.047 1418.21 Q134.047 1409.46 137.103 1404.88 Q140.181 1400.27 145.992 1400.27 Z" fill="#000000" fill-rule="evenodd" fill-opacity="1" /><path clip-path="url(#clip130)" d="M176.153 1403.97 Q172.542 1403.97 170.714 1407.54 Q168.908 1411.08 168.908 1418.21 Q168.908 1425.32 170.714 1428.88 Q172.542 1432.42 176.153 1432.42 Q179.788 1432.42 181.593 1428.88 Q183.422 1425.32 183.422 1418.21 Q183.422 1411.08 181.593 1407.54 Q179.788 1403.97 176.153 1403.97 M176.153 1400.27 Q181.964 1400.27 185.019 1404.88 Q188.098 1409.46 188.098 1418.21 Q188.098 1426.94 185.019 1431.54 Q181.964 1436.13 176.153 1436.13 Q170.343 1436.13 167.265 1431.54 Q164.209 1426.94 164.209 1418.21 Q164.209 1409.46 167.265 1404.88 Q170.343 1400.27 176.153 1400.27 Z" fill="#000000" fill-rule="evenodd" fill-opacity="1" /><path clip-path="url(#clip130)" d="M197.126 1431.52 L204.764 1431.52 L204.764 1405.15 L196.454 1406.82 L196.454 1402.56 L204.718 1400.9 L209.394 1400.9 L209.394 1431.52 L217.033 1431.52 L217.033 1435.46 L197.126 1435.46 L197.126 1431.52 Z" fill="#000000" fill-rule="evenodd" fill-opacity="1" /><path clip-path="url(#clip130)" d="M236.477 1403.97 Q232.866 1403.97 231.037 1407.54 Q229.232 1411.08 229.232 1418.21 Q229.232 1425.32 231.037 1428.88 Q232.866 1432.42 236.477 1432.42 Q240.111 1432.42 241.917 1428.88 Q243.746 1425.32 243.746 1418.21 Q243.746 1411.08 241.917 1407.54 Q240.111 1403.97 236.477 1403.97 M236.477 1400.27 Q242.287 1400.27 245.343 1404.88 Q248.422 1409.46 248.422 1418.21 Q248.422 1426.94 245.343 1431.54 Q242.287 1436.13 236.477 1436.13 Q230.667 1436.13 227.588 1431.54 Q224.533 1426.94 224.533 1418.21 Q224.533 1409.46 227.588 1404.88 Q230.667 1400.27 236.477 1400.27 Z" fill="#000000" fill-rule="evenodd" fill-opacity="1" /><path clip-path="url(#clip130)" d="M51.9875 1276.66 L81.6633 1276.66 L81.6633 1280.59 L51.9875 1280.59 L51.9875 1276.66 Z" fill="#000000" fill-rule="evenodd" fill-opacity="1" /><path clip-path="url(#clip130)" d="M101.756 1262 Q98.1447 1262 96.316 1265.57 Q94.5104 1269.11 94.5104 1276.24 Q94.5104 1283.34 96.316 1286.91 Q98.1447 1290.45 101.756 1290.45 Q105.39 1290.45 107.196 1286.91 Q109.024 1283.34 109.024 1276.24 Q109.024 1269.11 107.196 1265.57 Q105.39 1262 101.756 1262 M101.756 1258.3 Q107.566 1258.3 110.621 1262.91 Q113.7 1267.49 113.7 1276.24 Q113.7 1284.97 110.621 1289.57 Q107.566 1294.16 101.756 1294.16 Q95.9456 1294.16 92.8669 1289.57 Q89.8114 1284.97 89.8114 1276.24 Q89.8114 1267.49 92.8669 1262.91 Q95.9456 1258.3 101.756 1258.3 Z" fill="#000000" fill-rule="evenodd" fill-opacity="1" /><path clip-path="url(#clip130)" d="M121.918 1287.6 L126.802 1287.6 L126.802 1293.48 L121.918 1293.48 L121.918 1287.6 Z" fill="#000000" fill-rule="evenodd" fill-opacity="1" /><path clip-path="url(#clip130)" d="M146.987 1262 Q143.376 1262 141.547 1265.57 Q139.742 1269.11 139.742 1276.24 Q139.742 1283.34 141.547 1286.91 Q143.376 1290.45 146.987 1290.45 Q150.621 1290.45 152.427 1286.91 Q154.255 1283.34 154.255 1276.24 Q154.255 1269.11 152.427 1265.57 Q150.621 1262 146.987 1262 M146.987 1258.3 Q152.797 1258.3 155.853 1262.91 Q158.931 1267.49 158.931 1276.24 Q158.931 1284.97 155.853 1289.57 Q152.797 1294.16 146.987 1294.16 Q141.177 1294.16 138.098 1289.57 Q135.043 1284.97 135.043 1276.24 Q135.043 1267.49 138.098 1262.91 Q141.177 1258.3 146.987 1258.3 Z" fill="#000000" fill-rule="evenodd" fill-opacity="1" /><path clip-path="url(#clip130)" d="M177.149 1262 Q173.538 1262 171.709 1265.57 Q169.904 1269.11 169.904 1276.24 Q169.904 1283.34 171.709 1286.91 Q173.538 1290.45 177.149 1290.45 Q180.783 1290.45 182.589 1286.91 Q184.417 1283.34 184.417 1276.24 Q184.417 1269.11 182.589 1265.57 Q180.783 1262 177.149 1262 M177.149 1258.3 Q182.959 1258.3 186.015 1262.91 Q189.093 1267.49 189.093 1276.24 Q189.093 1284.97 186.015 1289.57 Q182.959 1294.16 177.149 1294.16 Q171.339 1294.16 168.26 1289.57 Q165.204 1284.97 165.204 1276.24 Q165.204 1267.49 168.26 1262.91 Q171.339 1258.3 177.149 1258.3 Z" fill="#000000" fill-rule="evenodd" fill-opacity="1" /><path clip-path="url(#clip130)" d="M207.311 1262 Q203.7 1262 201.871 1265.57 Q200.065 1269.11 200.065 1276.24 Q200.065 1283.34 201.871 1286.91 Q203.7 1290.45 207.311 1290.45 Q210.945 1290.45 212.751 1286.91 Q214.579 1283.34 214.579 1276.24 Q214.579 1269.11 212.751 1265.57 Q210.945 1262 207.311 1262 M207.311 1258.3 Q213.121 1258.3 216.176 1262.91 Q219.255 1267.49 219.255 1276.24 Q219.255 1284.97 216.176 1289.57 Q213.121 1294.16 207.311 1294.16 Q201.501 1294.16 198.422 1289.57 Q195.366 1284.97 195.366 1276.24 Q195.366 1267.49 198.422 1262.91 Q201.501 1258.3 207.311 1258.3 Z" fill="#000000" fill-rule="evenodd" fill-opacity="1" /><path clip-path="url(#clip130)" d="M227.519 1258.92 L245.875 1258.92 L245.875 1262.86 L231.801 1262.86 L231.801 1271.33 Q232.82 1270.98 233.838 1270.82 Q234.857 1270.64 235.875 1270.64 Q241.662 1270.64 245.042 1273.81 Q248.422 1276.98 248.422 1282.4 Q248.422 1287.97 244.949 1291.08 Q241.477 1294.16 235.158 1294.16 Q232.982 1294.16 230.713 1293.78 Q228.468 1293.41 226.061 1292.67 L226.061 1287.97 Q228.144 1289.11 230.366 1289.66 Q232.588 1290.22 235.065 1290.22 Q239.07 1290.22 241.408 1288.11 Q243.746 1286.01 243.746 1282.4 Q243.746 1278.78 241.408 1276.68 Q239.07 1274.57 235.065 1274.57 Q233.19 1274.57 231.315 1274.99 Q229.463 1275.41 227.519 1276.28 L227.519 1258.92 Z" fill="#000000" fill-rule="evenodd" fill-opacity="1" /><path clip-path="url(#clip130)" d="M100.76 1120.03 Q97.1493 1120.03 95.3206 1123.6 Q93.515 1127.14 93.515 1134.27 Q93.515 1141.37 95.3206 1144.94 Q97.1493 1148.48 100.76 1148.48 Q104.395 1148.48 106.2 1144.94 Q108.029 1141.37 108.029 1134.27 Q108.029 1127.14 106.2 1123.6 Q104.395 1120.03 100.76 1120.03 M100.76 1116.33 Q106.571 1116.33 109.626 1120.93 Q112.705 1125.52 112.705 1134.27 Q112.705 1142.99 109.626 1147.6 Q106.571 1152.18 100.76 1152.18 Q94.9502 1152.18 91.8715 1147.6 Q88.816 1142.99 88.816 1134.27 Q88.816 1125.52 91.8715 1120.93 Q94.9502 1116.33 100.76 1116.33 Z" fill="#000000" fill-rule="evenodd" fill-opacity="1" /><path clip-path="url(#clip130)" d="M120.922 1145.63 L125.807 1145.63 L125.807 1151.51 L120.922 1151.51 L120.922 1145.63 Z" fill="#000000" fill-rule="evenodd" fill-opacity="1" /><path clip-path="url(#clip130)" d="M145.992 1120.03 Q142.381 1120.03 140.552 1123.6 Q138.746 1127.14 138.746 1134.27 Q138.746 1141.37 140.552 1144.94 Q142.381 1148.48 145.992 1148.48 Q149.626 1148.48 151.431 1144.94 Q153.26 1141.37 153.26 1134.27 Q153.26 1127.14 151.431 1123.6 Q149.626 1120.03 145.992 1120.03 M145.992 1116.33 Q151.802 1116.33 154.857 1120.93 Q157.936 1125.52 157.936 1134.27 Q157.936 1142.99 154.857 1147.6 Q151.802 1152.18 145.992 1152.18 Q140.181 1152.18 137.103 1147.6 Q134.047 1142.99 134.047 1134.27 Q134.047 1125.52 137.103 1120.93 Q140.181 1116.33 145.992 1116.33 Z" fill="#000000" fill-rule="evenodd" fill-opacity="1" /><path clip-path="url(#clip130)" d="M176.153 1120.03 Q172.542 1120.03 170.714 1123.6 Q168.908 1127.14 168.908 1134.27 Q168.908 1141.37 170.714 1144.94 Q172.542 1148.48 176.153 1148.48 Q179.788 1148.48 181.593 1144.94 Q183.422 1141.37 183.422 1134.27 Q183.422 1127.14 181.593 1123.6 Q179.788 1120.03 176.153 1120.03 M176.153 1116.33 Q181.964 1116.33 185.019 1120.93 Q188.098 1125.52 188.098 1134.27 Q188.098 1142.99 185.019 1147.6 Q181.964 1152.18 176.153 1152.18 Q170.343 1152.18 167.265 1147.6 Q164.209 1142.99 164.209 1134.27 Q164.209 1125.52 167.265 1120.93 Q170.343 1116.33 176.153 1116.33 Z" fill="#000000" fill-rule="evenodd" fill-opacity="1" /><path clip-path="url(#clip130)" d="M206.315 1120.03 Q202.704 1120.03 200.876 1123.6 Q199.07 1127.14 199.07 1134.27 Q199.07 1141.37 200.876 1144.94 Q202.704 1148.48 206.315 1148.48 Q209.95 1148.48 211.755 1144.94 Q213.584 1141.37 213.584 1134.27 Q213.584 1127.14 211.755 1123.6 Q209.95 1120.03 206.315 1120.03 M206.315 1116.33 Q212.126 1116.33 215.181 1120.93 Q218.26 1125.52 218.26 1134.27 Q218.26 1142.99 215.181 1147.6 Q212.126 1152.18 206.315 1152.18 Q200.505 1152.18 197.427 1147.6 Q194.371 1142.99 194.371 1134.27 Q194.371 1125.52 197.427 1120.93 Q200.505 1116.33 206.315 1116.33 Z" fill="#000000" fill-rule="evenodd" fill-opacity="1" /><path clip-path="url(#clip130)" d="M236.477 1120.03 Q232.866 1120.03 231.037 1123.6 Q229.232 1127.14 229.232 1134.27 Q229.232 1141.37 231.037 1144.94 Q232.866 1148.48 236.477 1148.48 Q240.111 1148.48 241.917 1144.94 Q243.746 1141.37 243.746 1134.27 Q243.746 1127.14 241.917 1123.6 Q240.111 1120.03 236.477 1120.03 M236.477 1116.33 Q242.287 1116.33 245.343 1120.93 Q248.422 1125.52 248.422 1134.27 Q248.422 1142.99 245.343 1147.6 Q242.287 1152.18 236.477 1152.18 Q230.667 1152.18 227.588 1147.6 Q224.533 1142.99 224.533 1134.27 Q224.533 1125.52 227.588 1120.93 Q230.667 1116.33 236.477 1116.33 Z" fill="#000000" fill-rule="evenodd" fill-opacity="1" /><path clip-path="url(#clip130)" d="M101.756 978.059 Q98.1447 978.059 96.316 981.623 Q94.5104 985.165 94.5104 992.295 Q94.5104 999.401 96.316 1002.97 Q98.1447 1006.51 101.756 1006.51 Q105.39 1006.51 107.196 1002.97 Q109.024 999.401 109.024 992.295 Q109.024 985.165 107.196 981.623 Q105.39 978.059 101.756 978.059 M101.756 974.355 Q107.566 974.355 110.621 978.961 Q113.7 983.545 113.7 992.295 Q113.7 1001.02 110.621 1005.63 Q107.566 1010.21 101.756 1010.21 Q95.9456 1010.21 92.8669 1005.63 Q89.8114 1001.02 89.8114 992.295 Q89.8114 983.545 92.8669 978.961 Q95.9456 974.355 101.756 974.355 Z" fill="#000000" fill-rule="evenodd" fill-opacity="1" /><path clip-path="url(#clip130)" d="M121.918 1003.66 L126.802 1003.66 L126.802 1009.54 L121.918 1009.54 L121.918 1003.66 Z" fill="#000000" fill-rule="evenodd" fill-opacity="1" /><path clip-path="url(#clip130)" d="M146.987 978.059 Q143.376 978.059 141.547 981.623 Q139.742 985.165 139.742 992.295 Q139.742 999.401 141.547 1002.97 Q143.376 1006.51 146.987 1006.51 Q150.621 1006.51 152.427 1002.97 Q154.255 999.401 154.255 992.295 Q154.255 985.165 152.427 981.623 Q150.621 978.059 146.987 978.059 M146.987 974.355 Q152.797 974.355 155.853 978.961 Q158.931 983.545 158.931 992.295 Q158.931 1001.02 155.853 1005.63 Q152.797 1010.21 146.987 1010.21 Q141.177 1010.21 138.098 1005.63 Q135.043 1001.02 135.043 992.295 Q135.043 983.545 138.098 978.961 Q141.177 974.355 146.987 974.355 Z" fill="#000000" fill-rule="evenodd" fill-opacity="1" /><path clip-path="url(#clip130)" d="M177.149 978.059 Q173.538 978.059 171.709 981.623 Q169.904 985.165 169.904 992.295 Q169.904 999.401 171.709 1002.97 Q173.538 1006.51 177.149 1006.51 Q180.783 1006.51 182.589 1002.97 Q184.417 999.401 184.417 992.295 Q184.417 985.165 182.589 981.623 Q180.783 978.059 177.149 978.059 M177.149 974.355 Q182.959 974.355 186.015 978.961 Q189.093 983.545 189.093 992.295 Q189.093 1001.02 186.015 1005.63 Q182.959 1010.21 177.149 1010.21 Q171.339 1010.21 168.26 1005.63 Q165.204 1001.02 165.204 992.295 Q165.204 983.545 168.26 978.961 Q171.339 974.355 177.149 974.355 Z" fill="#000000" fill-rule="evenodd" fill-opacity="1" /><path clip-path="url(#clip130)" d="M207.311 978.059 Q203.7 978.059 201.871 981.623 Q200.065 985.165 200.065 992.295 Q200.065 999.401 201.871 1002.97 Q203.7 1006.51 207.311 1006.51 Q210.945 1006.51 212.751 1002.97 Q214.579 999.401 214.579 992.295 Q214.579 985.165 212.751 981.623 Q210.945 978.059 207.311 978.059 M207.311 974.355 Q213.121 974.355 216.176 978.961 Q219.255 983.545 219.255 992.295 Q219.255 1001.02 216.176 1005.63 Q213.121 1010.21 207.311 1010.21 Q201.501 1010.21 198.422 1005.63 Q195.366 1001.02 195.366 992.295 Q195.366 983.545 198.422 978.961 Q201.501 974.355 207.311 974.355 Z" fill="#000000" fill-rule="evenodd" fill-opacity="1" /><path clip-path="url(#clip130)" d="M227.519 974.98 L245.875 974.98 L245.875 978.915 L231.801 978.915 L231.801 987.387 Q232.82 987.04 233.838 986.878 Q234.857 986.693 235.875 986.693 Q241.662 986.693 245.042 989.864 Q248.422 993.035 248.422 998.452 Q248.422 1004.03 244.949 1007.13 Q241.477 1010.21 235.158 1010.21 Q232.982 1010.21 230.713 1009.84 Q228.468 1009.47 226.061 1008.73 L226.061 1004.03 Q228.144 1005.16 230.366 1005.72 Q232.588 1006.28 235.065 1006.28 Q239.07 1006.28 241.408 1004.17 Q243.746 1002.06 243.746 998.452 Q243.746 994.841 241.408 992.734 Q239.07 990.628 235.065 990.628 Q233.19 990.628 231.315 991.045 Q229.463 991.461 227.519 992.341 L227.519 974.98 Z" fill="#000000" fill-rule="evenodd" fill-opacity="1" /><polyline clip-path="url(#clip133)" style="stroke:#009af9; stroke-linecap:butt; stroke-linejoin:round; stroke-width:4; stroke-opacity:1; fill:none" points="
  342.959,1134.23 403.936,1134.23 464.913,1134.23 525.89,1134.23 586.867,1134.23 647.844,1134.23 708.82,1134.23 769.797,1134.23 830.774,1134.23 891.751,1134.23 
  952.728,1134.23 1013.7,1134.23 1074.68,1134.23 1135.66,1134.23 1196.64,1134.23 1257.61,1134.23 1318.59,1134.23 1379.57,1134.23 1440.54,1134.23 1501.52,1134.23 
  1562.5,1134.23 1623.47,1134.23 1684.45,1134.23 1745.43,1134.23 1806.4,1134.23 1867.38,1134.23 1928.36,1134.23 1989.33,1134.23 2050.31,1134.23 2111.29,1134.23 
  2172.26,1134.23 2233.24,1134.23 2294.22,1134.23 
  "/>
<polyline clip-path="url(#clip133)" style="stroke:#e26f46; stroke-linecap:butt; stroke-linejoin:round; stroke-width:8; stroke-opacity:1; fill:none" stroke-dasharray="32, 20" points="
  342.959,1134.23 403.936,1134.23 464.913,1134.23 525.89,1134.23 586.867,1134.23 647.844,1134.23 708.82,1134.23 769.797,1134.23 830.774,1134.23 891.751,1134.23 
  952.728,1134.23 1013.7,1134.23 1074.68,1134.23 1135.66,1134.23 1196.64,1134.23 1257.61,1134.23 1318.59,1134.23 1379.57,1134.23 1440.54,1134.23 1501.52,1134.23 
  1562.5,1134.23 1623.47,1134.23 1684.45,1134.23 1745.43,1134.23 1806.4,1134.23 1867.38,1134.23 1928.36,1134.23 1989.33,1134.23 2050.31,1134.23 2111.29,1134.23 
  2172.26,1134.23 2233.24,1134.23 2294.22,1134.23 
  "/>
<polyline clip-path="url(#clip133)" style="stroke:#3da44d; stroke-linecap:butt; stroke-linejoin:round; stroke-width:12; stroke-opacity:1; fill:none" stroke-dasharray="6, 12" points="
  342.959,1173.29 403.936,1173.31 464.913,1173.36 525.89,1173.47 586.867,1173.69 647.844,1174.14 708.82,1175.06 769.797,1176.95 830.774,1180.8 891.751,1188.61 
  952.728,1204.22 1013.7,1234.51 1074.68,1289.58 1135.66,1375.19 1196.64,1457.32 1257.61,1412.12 1318.59,1422.64 1379.57,895.726 1440.54,1346.56 1501.52,1209.88 
  1562.5,1233.58 1623.47,1230.41 1684.45,1230.67 1745.43,1230.72 1806.4,1230.43 1867.38,1230.69 1928.36,1230.59 1989.33,1230.61 2050.31,1230.59 2111.29,1230.58 
  2172.26,1230.59 2233.24,1230.64 2294.22,1230.6 
  "/>
<path clip-path="url(#clip130)" d="
M2000.99 1106.08 L2283.81 1106.08 L2283.81 898.721 L2000.99 898.721  Z
  " fill="#ffffff" fill-rule="evenodd" fill-opacity="1"/>
<polyline clip-path="url(#clip130)" style="stroke:#000000; stroke-linecap:butt; stroke-linejoin:round; stroke-width:4; stroke-opacity:1; fill:none" points="
  2000.99,1106.08 2283.81,1106.08 2283.81,898.721 2000.99,898.721 2000.99,1106.08 
  "/>
<polyline clip-path="url(#clip130)" style="stroke:#009af9; stroke-linecap:butt; stroke-linejoin:round; stroke-width:4; stroke-opacity:1; fill:none" points="
  2023.97,950.561 2161.86,950.561 
  "/>
<path clip-path="url(#clip130)" d="M2198.68 970.248 Q2196.88 974.878 2195.16 976.29 Q2193.45 977.702 2190.58 977.702 L2187.18 977.702 L2187.18 974.137 L2189.68 974.137 Q2191.44 974.137 2192.41 973.304 Q2193.38 972.471 2194.56 969.369 L2195.33 967.424 L2184.84 941.915 L2189.35 941.915 L2197.46 962.193 L2205.56 941.915 L2210.07 941.915 L2198.68 970.248 Z" fill="#000000" fill-rule="evenodd" fill-opacity="1" /><path clip-path="url(#clip130)" d="M2217.36 963.906 L2225 963.906 L2225 937.54 L2216.69 939.207 L2216.69 934.948 L2224.95 933.281 L2229.63 933.281 L2229.63 963.906 L2237.27 963.906 L2237.27 967.841 L2217.36 967.841 L2217.36 963.906 Z" fill="#000000" fill-rule="evenodd" fill-opacity="1" /><polyline clip-path="url(#clip130)" style="stroke:#e26f46; stroke-linecap:butt; stroke-linejoin:round; stroke-width:4; stroke-opacity:1; fill:none" stroke-dasharray="16, 10" points="
  2023.97,1002.4 2161.86,1002.4 
  "/>
<path clip-path="url(#clip130)" d="M2198.68 1022.09 Q2196.88 1026.72 2195.16 1028.13 Q2193.45 1029.54 2190.58 1029.54 L2187.18 1029.54 L2187.18 1025.98 L2189.68 1025.98 Q2191.44 1025.98 2192.41 1025.14 Q2193.38 1024.31 2194.56 1021.21 L2195.33 1019.26 L2184.84 993.755 L2189.35 993.755 L2197.46 1014.03 L2205.56 993.755 L2210.07 993.755 L2198.68 1022.09 Z" fill="#000000" fill-rule="evenodd" fill-opacity="1" /><path clip-path="url(#clip130)" d="M2220.58 1015.75 L2236.9 1015.75 L2236.9 1019.68 L2214.96 1019.68 L2214.96 1015.75 Q2217.62 1012.99 2222.2 1008.36 Q2226.81 1003.71 2227.99 1002.37 Q2230.23 999.843 2231.11 998.107 Q2232.02 996.348 2232.02 994.658 Q2232.02 991.903 2230.07 990.167 Q2228.15 988.431 2225.05 988.431 Q2222.85 988.431 2220.39 989.195 Q2217.96 989.959 2215.19 991.51 L2215.19 986.788 Q2218.01 985.653 2220.46 985.075 Q2222.92 984.496 2224.95 984.496 Q2230.33 984.496 2233.52 987.181 Q2236.71 989.866 2236.71 994.357 Q2236.71 996.487 2235.9 998.408 Q2235.12 1000.31 2233.01 1002.9 Q2232.43 1003.57 2229.33 1006.79 Q2226.23 1009.98 2220.58 1015.75 Z" fill="#000000" fill-rule="evenodd" fill-opacity="1" /><polyline clip-path="url(#clip130)" style="stroke:#3da44d; stroke-linecap:butt; stroke-linejoin:round; stroke-width:4; stroke-opacity:1; fill:none" stroke-dasharray="2, 4" points="
  2023.97,1054.24 2161.86,1054.24 
  "/>
<path clip-path="url(#clip130)" d="M2198.68 1073.93 Q2196.88 1078.56 2195.16 1079.97 Q2193.45 1081.38 2190.58 1081.38 L2187.18 1081.38 L2187.18 1077.82 L2189.68 1077.82 Q2191.44 1077.82 2192.41 1076.98 Q2193.38 1076.15 2194.56 1073.05 L2195.33 1071.1 L2184.84 1045.6 L2189.35 1045.6 L2197.46 1065.87 L2205.56 1045.6 L2210.07 1045.6 L2198.68 1073.93 Z" fill="#000000" fill-rule="evenodd" fill-opacity="1" /><path clip-path="url(#clip130)" d="M2230.72 1052.89 Q2234.08 1053.6 2235.95 1055.87 Q2237.85 1058.14 2237.85 1061.47 Q2237.85 1066.59 2234.33 1069.39 Q2230.81 1072.19 2224.33 1072.19 Q2222.15 1072.19 2219.84 1071.75 Q2217.55 1071.34 2215.09 1070.48 L2215.09 1065.97 Q2217.04 1067.1 2219.35 1067.68 Q2221.67 1068.26 2224.19 1068.26 Q2228.59 1068.26 2230.88 1066.52 Q2233.2 1064.78 2233.2 1061.47 Q2233.2 1058.42 2231.04 1056.71 Q2228.91 1054.97 2225.09 1054.97 L2221.07 1054.97 L2221.07 1051.13 L2225.28 1051.13 Q2228.73 1051.13 2230.56 1049.76 Q2232.39 1048.37 2232.39 1045.78 Q2232.39 1043.12 2230.49 1041.71 Q2228.61 1040.27 2225.09 1040.27 Q2223.17 1040.27 2220.97 1040.69 Q2218.77 1041.1 2216.14 1041.98 L2216.14 1037.82 Q2218.8 1037.08 2221.11 1036.71 Q2223.45 1036.34 2225.51 1036.34 Q2230.83 1036.34 2233.94 1038.77 Q2237.04 1041.17 2237.04 1045.29 Q2237.04 1048.16 2235.39 1050.16 Q2233.75 1052.12 2230.72 1052.89 Z" fill="#000000" fill-rule="evenodd" fill-opacity="1" /></svg>
