<?xml version="1.0" encoding="utf-8"?>
<svg xmlns="http://www.w3.org/2000/svg" xmlns:xlink="http://www.w3.org/1999/xlink" width="600" height="400" viewBox="0 0 2400 1600">
<defs>
  <clipPath id="clip770">
    <rect x="0" y="0" width="2400" height="1600"/>
  </clipPath>
</defs>
<path clip-path="url(#clip770)" d="
M0 1600 L2400 1600 L2400 0 L0 0  Z
  " fill="#ffffff" fill-rule="evenodd" fill-opacity="1"/>
<defs>
  <clipPath id="clip771">
    <rect x="480" y="0" width="1681" height="1600"/>
  </clipPath>
</defs>
<path clip-path="url(#clip770)" d="
M283.426 642.531 L2352.76 642.531 L2352.76 47.2441 L283.426 47.2441  Z
  " fill="#ffffff" fill-rule="evenodd" fill-opacity="1"/>
<defs>
  <clipPath id="clip772">
    <rect x="283" y="47" width="2070" height="596"/>
  </clipPath>
</defs>
<polyline clip-path="url(#clip772)" style="stroke:#000000; stroke-linecap:butt; stroke-linejoin:round; stroke-width:2; stroke-opacity:0.1; fill:none" points="
  283.426,642.531 283.426,47.2441 
  "/>
<polyline clip-path="url(#clip772)" style="stroke:#000000; stroke-linecap:butt; stroke-linejoin:round; stroke-width:2; stroke-opacity:0.1; fill:none" points="
  1318.09,642.531 1318.09,47.2441 
  "/>
<polyline clip-path="url(#clip772)" style="stroke:#000000; stroke-linecap:butt; stroke-linejoin:round; stroke-width:2; stroke-opacity:0.1; fill:none" points="
  2352.76,642.531 2352.76,47.2441 
  "/>
<polyline clip-path="url(#clip770)" style="stroke:#000000; stroke-linecap:butt; stroke-linejoin:round; stroke-width:4; stroke-opacity:1; fill:none" points="
  283.426,642.531 2352.76,642.531 
  "/>
<polyline clip-path="url(#clip770)" style="stroke:#000000; stroke-linecap:butt; stroke-linejoin:round; stroke-width:4; stroke-opacity:1; fill:none" points="
  283.426,642.531 283.426,623.633 
  "/>
<polyline clip-path="url(#clip770)" style="stroke:#000000; stroke-linecap:butt; stroke-linejoin:round; stroke-width:4; stroke-opacity:1; fill:none" points="
  1318.09,642.531 1318.09,623.633 
  "/>
<polyline clip-path="url(#clip770)" style="stroke:#000000; stroke-linecap:butt; stroke-linejoin:round; stroke-width:4; stroke-opacity:1; fill:none" points="
  2352.76,642.531 2352.76,623.633 
  "/>
<path clip-path="url(#clip770)" d="M233.448 720.803 L241.086 720.803 L241.086 694.437 L232.776 696.104 L232.776 691.845 L241.04 690.178 L245.716 690.178 L245.716 720.803 L253.355 720.803 L253.355 724.738 L233.448 724.738 L233.448 720.803 Z" fill="#000000" fill-rule="evenodd" fill-opacity="1" /><path clip-path="url(#clip770)" d="M272.799 693.257 Q269.188 693.257 267.359 696.821 Q265.554 700.363 265.554 707.493 Q265.554 714.599 267.359 718.164 Q269.188 721.705 272.799 721.705 Q276.433 721.705 278.239 718.164 Q280.068 714.599 280.068 707.493 Q280.068 700.363 278.239 696.821 Q276.433 693.257 272.799 693.257 M272.799 689.553 Q278.609 689.553 281.665 694.159 Q284.744 698.743 284.744 707.493 Q284.744 716.219 281.665 720.826 Q278.609 725.409 272.799 725.409 Q266.989 725.409 263.91 720.826 Q260.855 716.219 260.855 707.493 Q260.855 698.743 263.91 694.159 Q266.989 689.553 272.799 689.553 Z" fill="#000000" fill-rule="evenodd" fill-opacity="1" /><path clip-path="url(#clip770)" d="M284.744 683.654 L308.855 683.654 L308.855 686.852 L284.744 686.852 L284.744 683.654 Z" fill="#000000" fill-rule="evenodd" fill-opacity="1" /><path clip-path="url(#clip770)" d="M317.093 669.247 L332.007 669.247 L332.007 672.445 L320.572 672.445 L320.572 679.328 Q321.4 679.046 322.227 678.915 Q323.055 678.764 323.882 678.764 Q328.584 678.764 331.33 681.341 Q334.076 683.918 334.076 688.319 Q334.076 692.851 331.255 695.371 Q328.434 697.873 323.299 697.873 Q321.532 697.873 319.688 697.572 Q317.864 697.271 315.908 696.669 L315.908 692.851 Q317.601 693.773 319.406 694.224 Q321.212 694.676 323.224 694.676 Q326.478 694.676 328.378 692.964 Q330.277 691.253 330.277 688.319 Q330.277 685.385 328.378 683.673 Q326.478 681.962 323.224 681.962 Q321.701 681.962 320.177 682.3 Q318.673 682.639 317.093 683.353 L317.093 669.247 Z" fill="#000000" fill-rule="evenodd" fill-opacity="1" /><path clip-path="url(#clip770)" d="M1283.07 720.803 L1290.71 720.803 L1290.71 694.437 L1282.4 696.104 L1282.4 691.845 L1290.67 690.178 L1295.34 690.178 L1295.34 720.803 L1302.98 720.803 L1302.98 724.738 L1283.07 724.738 L1283.07 720.803 Z" fill="#000000" fill-rule="evenodd" fill-opacity="1" /><path clip-path="url(#clip770)" d="M1322.43 693.257 Q1318.81 693.257 1316.99 696.821 Q1315.18 700.363 1315.18 707.493 Q1315.18 714.599 1316.99 718.164 Q1318.81 721.705 1322.43 721.705 Q1326.06 721.705 1327.87 718.164 Q1329.69 714.599 1329.69 707.493 Q1329.69 700.363 1327.87 696.821 Q1326.06 693.257 1322.43 693.257 M1322.43 689.553 Q1328.24 689.553 1331.29 694.159 Q1334.37 698.743 1334.37 707.493 Q1334.37 716.219 1331.29 720.826 Q1328.24 725.409 1322.43 725.409 Q1316.62 725.409 1313.54 720.826 Q1310.48 716.219 1310.48 707.493 Q1310.48 698.743 1313.54 694.159 Q1316.62 689.553 1322.43 689.553 Z" fill="#000000" fill-rule="evenodd" fill-opacity="1" /><path clip-path="url(#clip770)" d="M1344.07 671.749 Q1341.14 671.749 1339.65 674.645 Q1338.19 677.523 1338.19 683.316 Q1338.19 689.09 1339.65 691.986 Q1341.14 694.864 1344.07 694.864 Q1347.03 694.864 1348.49 691.986 Q1349.98 689.09 1349.98 683.316 Q1349.98 677.523 1348.49 674.645 Q1347.03 671.749 1344.07 671.749 M1344.07 668.74 Q1348.8 668.74 1351.28 672.482 Q1353.78 676.206 1353.78 683.316 Q1353.78 690.406 1351.28 694.149 Q1348.8 697.873 1344.07 697.873 Q1339.35 697.873 1336.85 694.149 Q1334.37 690.406 1334.37 683.316 Q1334.37 676.206 1336.85 672.482 Q1339.35 668.74 1344.07 668.74 Z" fill="#000000" fill-rule="evenodd" fill-opacity="1" /><path clip-path="url(#clip770)" d="M2318.36 720.803 L2326 720.803 L2326 694.437 L2317.69 696.104 L2317.69 691.845 L2325.95 690.178 L2330.63 690.178 L2330.63 720.803 L2338.27 720.803 L2338.27 724.738 L2318.36 724.738 L2318.36 720.803 Z" fill="#000000" fill-rule="evenodd" fill-opacity="1" /><path clip-path="url(#clip770)" d="M2357.71 693.257 Q2354.1 693.257 2352.27 696.821 Q2350.47 700.363 2350.47 707.493 Q2350.47 714.599 2352.27 718.164 Q2354.1 721.705 2357.71 721.705 Q2361.35 721.705 2363.15 718.164 Q2364.98 714.599 2364.98 707.493 Q2364.98 700.363 2363.15 696.821 Q2361.35 693.257 2357.71 693.257 M2357.71 689.553 Q2363.52 689.553 2366.58 694.159 Q2369.66 698.743 2369.66 707.493 Q2369.66 716.219 2366.58 720.826 Q2363.52 725.409 2357.71 725.409 Q2351.9 725.409 2348.82 720.826 Q2345.77 716.219 2345.77 707.493 Q2345.77 698.743 2348.82 694.159 Q2351.9 689.553 2357.71 689.553 Z" fill="#000000" fill-rule="evenodd" fill-opacity="1" /><path clip-path="url(#clip770)" d="M2370.84 669.247 L2385.75 669.247 L2385.75 672.445 L2374.32 672.445 L2374.32 679.328 Q2375.15 679.046 2375.97 678.915 Q2376.8 678.764 2377.63 678.764 Q2382.33 678.764 2385.08 681.341 Q2387.82 683.918 2387.82 688.319 Q2387.82 692.851 2385 695.371 Q2382.18 697.873 2377.05 697.873 Q2375.28 697.873 2373.44 697.572 Q2371.61 697.271 2369.66 696.669 L2369.66 692.851 Q2371.35 693.773 2373.15 694.224 Q2374.96 694.676 2376.97 694.676 Q2380.23 694.676 2382.12 692.964 Q2384.02 691.253 2384.02 688.319 Q2384.02 685.385 2382.12 683.673 Q2380.23 681.962 2376.97 681.962 Q2375.45 681.962 2373.92 682.3 Q2372.42 682.639 2370.84 683.353 L2370.84 669.247 Z" fill="#000000" fill-rule="evenodd" fill-opacity="1" /><path clip-path="url(#clip770)" d="M1317.15 760.05 L1317.15 770.172 L1329.22 770.172 L1329.22 774.723 L1317.15 774.723 L1317.15 794.075 Q1317.15 798.435 1318.33 799.677 Q1319.54 800.918 1323.2 800.918 L1329.22 800.918 L1329.22 805.819 L1323.2 805.819 Q1316.42 805.819 1313.84 803.305 Q1311.26 800.759 1311.26 794.075 L1311.26 774.723 L1306.97 774.723 L1306.97 770.172 L1311.26 770.172 L1311.26 760.05 L1317.15 760.05 Z" fill="#000000" fill-rule="evenodd" fill-opacity="1" /><polyline clip-path="url(#clip772)" style="stroke:#000000; stroke-linecap:butt; stroke-linejoin:round; stroke-width:2; stroke-opacity:0.1; fill:none" points="
  283.426,625.552 2352.76,625.552 
  "/>
<polyline clip-path="url(#clip772)" style="stroke:#000000; stroke-linecap:butt; stroke-linejoin:round; stroke-width:2; stroke-opacity:0.1; fill:none" points="
  283.426,482.635 2352.76,482.635 
  "/>
<polyline clip-path="url(#clip772)" style="stroke:#000000; stroke-linecap:butt; stroke-linejoin:round; stroke-width:2; stroke-opacity:0.1; fill:none" points="
  283.426,339.718 2352.76,339.718 
  "/>
<polyline clip-path="url(#clip772)" style="stroke:#000000; stroke-linecap:butt; stroke-linejoin:round; stroke-width:2; stroke-opacity:0.1; fill:none" points="
  283.426,196.801 2352.76,196.801 
  "/>
<polyline clip-path="url(#clip772)" style="stroke:#000000; stroke-linecap:butt; stroke-linejoin:round; stroke-width:2; stroke-opacity:0.1; fill:none" points="
  283.426,53.8844 2352.76,53.8844 
  "/>
<polyline clip-path="url(#clip770)" style="stroke:#000000; stroke-linecap:butt; stroke-linejoin:round; stroke-width:4; stroke-opacity:1; fill:none" points="
  283.426,642.531 283.426,47.2441 
  "/>
<polyline clip-path="url(#clip770)" style="stroke:#000000; stroke-linecap:butt; stroke-linejoin:round; stroke-width:4; stroke-opacity:1; fill:none" points="
  283.426,625.552 302.324,625.552 
  "/>
<polyline clip-path="url(#clip770)" style="stroke:#000000; stroke-linecap:butt; stroke-linejoin:round; stroke-width:4; stroke-opacity:1; fill:none" points="
  283.426,482.635 302.324,482.635 
  "/>
<polyline clip-path="url(#clip770)" style="stroke:#000000; stroke-linecap:butt; stroke-linejoin:round; stroke-width:4; stroke-opacity:1; fill:none" points="
  283.426,339.718 302.324,339.718 
  "/>
<polyline clip-path="url(#clip770)" style="stroke:#000000; stroke-linecap:butt; stroke-linejoin:round; stroke-width:4; stroke-opacity:1; fill:none" points="
  283.426,196.801 302.324,196.801 
  "/>
<polyline clip-path="url(#clip770)" style="stroke:#000000; stroke-linecap:butt; stroke-linejoin:round; stroke-width:4; stroke-opacity:1; fill:none" points="
  283.426,53.8844 302.324,53.8844 
  "/>
<path clip-path="url(#clip770)" d="M160.089 611.35 Q156.478 611.35 154.649 614.915 Q152.843 618.457 152.843 625.586 Q152.843 632.693 154.649 636.258 Q156.478 639.799 160.089 639.799 Q163.723 639.799 165.529 636.258 Q167.357 632.693 167.357 625.586 Q167.357 618.457 165.529 614.915 Q163.723 611.35 160.089 611.35 M160.089 607.647 Q165.899 607.647 168.954 612.253 Q172.033 616.836 172.033 625.586 Q172.033 634.313 168.954 638.92 Q165.899 643.503 160.089 643.503 Q154.279 643.503 151.2 638.92 Q148.144 634.313 148.144 625.586 Q148.144 616.836 151.2 612.253 Q154.279 607.647 160.089 607.647 Z" fill="#000000" fill-rule="evenodd" fill-opacity="1" /><path clip-path="url(#clip770)" d="M180.251 636.952 L185.135 636.952 L185.135 642.832 L180.251 642.832 L180.251 636.952 Z" fill="#000000" fill-rule="evenodd" fill-opacity="1" /><path clip-path="url(#clip770)" d="M205.32 611.35 Q201.709 611.35 199.88 614.915 Q198.075 618.457 198.075 625.586 Q198.075 632.693 199.88 636.258 Q201.709 639.799 205.32 639.799 Q208.954 639.799 210.76 636.258 Q212.588 632.693 212.588 625.586 Q212.588 618.457 210.76 614.915 Q208.954 611.35 205.32 611.35 M205.32 607.647 Q211.13 607.647 214.186 612.253 Q217.264 616.836 217.264 625.586 Q217.264 634.313 214.186 638.92 Q211.13 643.503 205.32 643.503 Q199.51 643.503 196.431 638.92 Q193.376 634.313 193.376 625.586 Q193.376 616.836 196.431 612.253 Q199.51 607.647 205.32 607.647 Z" fill="#000000" fill-rule="evenodd" fill-opacity="1" /><path clip-path="url(#clip770)" d="M235.482 611.35 Q231.871 611.35 230.042 614.915 Q228.237 618.457 228.237 625.586 Q228.237 632.693 230.042 636.258 Q231.871 639.799 235.482 639.799 Q239.116 639.799 240.922 636.258 Q242.75 632.693 242.75 625.586 Q242.75 618.457 240.922 614.915 Q239.116 611.35 235.482 611.35 M235.482 607.647 Q241.292 607.647 244.348 612.253 Q247.426 616.836 247.426 625.586 Q247.426 634.313 244.348 638.92 Q241.292 643.503 235.482 643.503 Q229.672 643.503 226.593 638.92 Q223.537 634.313 223.537 625.586 Q223.537 616.836 226.593 612.253 Q229.672 607.647 235.482 607.647 Z" fill="#000000" fill-rule="evenodd" fill-opacity="1" /><path clip-path="url(#clip770)" d="M161.084 468.434 Q157.473 468.434 155.644 471.998 Q153.839 475.54 153.839 482.67 Q153.839 489.776 155.644 493.341 Q157.473 496.882 161.084 496.882 Q164.718 496.882 166.524 493.341 Q168.353 489.776 168.353 482.67 Q168.353 475.54 166.524 471.998 Q164.718 468.434 161.084 468.434 M161.084 464.73 Q166.894 464.73 169.95 469.336 Q173.029 473.92 173.029 482.67 Q173.029 491.396 169.95 496.003 Q166.894 500.586 161.084 500.586 Q155.274 500.586 152.195 496.003 Q149.14 491.396 149.14 482.67 Q149.14 473.92 152.195 469.336 Q155.274 464.73 161.084 464.73 Z" fill="#000000" fill-rule="evenodd" fill-opacity="1" /><path clip-path="url(#clip770)" d="M181.246 494.035 L186.13 494.035 L186.13 499.915 L181.246 499.915 L181.246 494.035 Z" fill="#000000" fill-rule="evenodd" fill-opacity="1" /><path clip-path="url(#clip770)" d="M200.343 495.98 L216.663 495.98 L216.663 499.915 L194.718 499.915 L194.718 495.98 Q197.38 493.225 201.964 488.595 Q206.57 483.943 207.751 482.6 Q209.996 480.077 210.876 478.341 Q211.778 476.582 211.778 474.892 Q211.778 472.137 209.834 470.401 Q207.913 468.665 204.811 468.665 Q202.612 468.665 200.158 469.429 Q197.727 470.193 194.95 471.744 L194.95 467.021 Q197.774 465.887 200.227 465.309 Q202.681 464.73 204.718 464.73 Q210.088 464.73 213.283 467.415 Q216.477 470.1 216.477 474.591 Q216.477 476.72 215.667 478.642 Q214.88 480.54 212.774 483.133 Q212.195 483.804 209.093 487.021 Q205.991 490.216 200.343 495.98 Z" fill="#000000" fill-rule="evenodd" fill-opacity="1" /><path clip-path="url(#clip770)" d="M226.524 465.355 L244.88 465.355 L244.88 469.29 L230.806 469.29 L230.806 477.762 Q231.824 477.415 232.843 477.253 Q233.862 477.068 234.88 477.068 Q240.667 477.068 244.047 480.239 Q247.426 483.41 247.426 488.827 Q247.426 494.406 243.954 497.507 Q240.482 500.586 234.162 500.586 Q231.987 500.586 229.718 500.216 Q227.473 499.845 225.065 499.105 L225.065 494.406 Q227.149 495.54 229.371 496.095 Q231.593 496.651 234.07 496.651 Q238.074 496.651 240.412 494.544 Q242.75 492.438 242.75 488.827 Q242.75 485.216 240.412 483.109 Q238.074 481.003 234.07 481.003 Q232.195 481.003 230.32 481.42 Q228.468 481.836 226.524 482.716 L226.524 465.355 Z" fill="#000000" fill-rule="evenodd" fill-opacity="1" /><path clip-path="url(#clip770)" d="M160.089 325.517 Q156.478 325.517 154.649 329.081 Q152.843 332.623 152.843 339.753 Q152.843 346.859 154.649 350.424 Q156.478 353.966 160.089 353.966 Q163.723 353.966 165.529 350.424 Q167.357 346.859 167.357 339.753 Q167.357 332.623 165.529 329.081 Q163.723 325.517 160.089 325.517 M160.089 321.813 Q165.899 321.813 168.954 326.419 Q172.033 331.003 172.033 339.753 Q172.033 348.48 168.954 353.086 Q165.899 357.669 160.089 357.669 Q154.279 357.669 151.2 353.086 Q148.144 348.48 148.144 339.753 Q148.144 331.003 151.2 326.419 Q154.279 321.813 160.089 321.813 Z" fill="#000000" fill-rule="evenodd" fill-opacity="1" /><path clip-path="url(#clip770)" d="M180.251 351.118 L185.135 351.118 L185.135 356.998 L180.251 356.998 L180.251 351.118 Z" fill="#000000" fill-rule="evenodd" fill-opacity="1" /><path clip-path="url(#clip770)" d="M195.366 322.438 L213.723 322.438 L213.723 326.373 L199.649 326.373 L199.649 334.845 Q200.667 334.498 201.686 334.336 Q202.704 334.151 203.723 334.151 Q209.51 334.151 212.889 337.322 Q216.269 340.493 216.269 345.91 Q216.269 351.489 212.797 354.591 Q209.325 357.669 203.005 357.669 Q200.829 357.669 198.561 357.299 Q196.315 356.929 193.908 356.188 L193.908 351.489 Q195.991 352.623 198.214 353.179 Q200.436 353.734 202.913 353.734 Q206.917 353.734 209.255 351.628 Q211.593 349.521 211.593 345.91 Q211.593 342.299 209.255 340.193 Q206.917 338.086 202.913 338.086 Q201.038 338.086 199.163 338.503 Q197.311 338.919 195.366 339.799 L195.366 322.438 Z" fill="#000000" fill-rule="evenodd" fill-opacity="1" /><path clip-path="url(#clip770)" d="M235.482 325.517 Q231.871 325.517 230.042 329.081 Q228.237 332.623 228.237 339.753 Q228.237 346.859 230.042 350.424 Q231.871 353.966 235.482 353.966 Q239.116 353.966 240.922 350.424 Q242.75 346.859 242.75 339.753 Q242.75 332.623 240.922 329.081 Q239.116 325.517 235.482 325.517 M235.482 321.813 Q241.292 321.813 244.348 326.419 Q247.426 331.003 247.426 339.753 Q247.426 348.48 244.348 353.086 Q241.292 357.669 235.482 357.669 Q229.672 357.669 226.593 353.086 Q223.537 348.48 223.537 339.753 Q223.537 331.003 226.593 326.419 Q229.672 321.813 235.482 321.813 Z" fill="#000000" fill-rule="evenodd" fill-opacity="1" /><path clip-path="url(#clip770)" d="M161.084 182.6 Q157.473 182.6 155.644 186.165 Q153.839 189.706 153.839 196.836 Q153.839 203.942 155.644 207.507 Q157.473 211.049 161.084 211.049 Q164.718 211.049 166.524 207.507 Q168.353 203.942 168.353 196.836 Q168.353 189.706 166.524 186.165 Q164.718 182.6 161.084 182.6 M161.084 178.896 Q166.894 178.896 169.95 183.503 Q173.029 188.086 173.029 196.836 Q173.029 205.563 169.95 210.169 Q166.894 214.752 161.084 214.752 Q155.274 214.752 152.195 210.169 Q149.14 205.563 149.14 196.836 Q149.14 188.086 152.195 183.503 Q155.274 178.896 161.084 178.896 Z" fill="#000000" fill-rule="evenodd" fill-opacity="1" /><path clip-path="url(#clip770)" d="M181.246 208.202 L186.13 208.202 L186.13 214.081 L181.246 214.081 L181.246 208.202 Z" fill="#000000" fill-rule="evenodd" fill-opacity="1" /><path clip-path="url(#clip770)" d="M195.135 179.521 L217.357 179.521 L217.357 181.512 L204.811 214.081 L199.927 214.081 L211.732 183.456 L195.135 183.456 L195.135 179.521 Z" fill="#000000" fill-rule="evenodd" fill-opacity="1" /><path clip-path="url(#clip770)" d="M226.524 179.521 L244.88 179.521 L244.88 183.456 L230.806 183.456 L230.806 191.929 Q231.824 191.581 232.843 191.419 Q233.862 191.234 234.88 191.234 Q240.667 191.234 244.047 194.405 Q247.426 197.577 247.426 202.993 Q247.426 208.572 243.954 211.674 Q240.482 214.752 234.162 214.752 Q231.987 214.752 229.718 214.382 Q227.473 214.012 225.065 213.271 L225.065 208.572 Q227.149 209.706 229.371 210.262 Q231.593 210.817 234.07 210.817 Q238.074 210.817 240.412 208.711 Q242.75 206.604 242.75 202.993 Q242.75 199.382 240.412 197.276 Q238.074 195.169 234.07 195.169 Q232.195 195.169 230.32 195.586 Q228.468 196.003 226.524 196.882 L226.524 179.521 Z" fill="#000000" fill-rule="evenodd" fill-opacity="1" /><path clip-path="url(#clip770)" d="M150.899 67.2292 L158.538 67.2292 L158.538 40.8636 L150.228 42.5303 L150.228 38.271 L158.492 36.6044 L163.167 36.6044 L163.167 67.2292 L170.806 67.2292 L170.806 71.1644 L150.899 71.1644 L150.899 67.2292 Z" fill="#000000" fill-rule="evenodd" fill-opacity="1" /><path clip-path="url(#clip770)" d="M180.251 65.2848 L185.135 65.2848 L185.135 71.1644 L180.251 71.1644 L180.251 65.2848 Z" fill="#000000" fill-rule="evenodd" fill-opacity="1" /><path clip-path="url(#clip770)" d="M205.32 39.6831 Q201.709 39.6831 199.88 43.2478 Q198.075 46.7895 198.075 53.9191 Q198.075 61.0255 199.88 64.5903 Q201.709 68.132 205.32 68.132 Q208.954 68.132 210.76 64.5903 Q212.588 61.0255 212.588 53.9191 Q212.588 46.7895 210.76 43.2478 Q208.954 39.6831 205.32 39.6831 M205.32 35.9794 Q211.13 35.9794 214.186 40.5858 Q217.264 45.1691 217.264 53.9191 Q217.264 62.6459 214.186 67.2523 Q211.13 71.8357 205.32 71.8357 Q199.51 71.8357 196.431 67.2523 Q193.376 62.6459 193.376 53.9191 Q193.376 45.1691 196.431 40.5858 Q199.51 35.9794 205.32 35.9794 Z" fill="#000000" fill-rule="evenodd" fill-opacity="1" /><path clip-path="url(#clip770)" d="M235.482 39.6831 Q231.871 39.6831 230.042 43.2478 Q228.237 46.7895 228.237 53.9191 Q228.237 61.0255 230.042 64.5903 Q231.871 68.132 235.482 68.132 Q239.116 68.132 240.922 64.5903 Q242.75 61.0255 242.75 53.9191 Q242.75 46.7895 240.922 43.2478 Q239.116 39.6831 235.482 39.6831 M235.482 35.9794 Q241.292 35.9794 244.348 40.5858 Q247.426 45.1691 247.426 53.9191 Q247.426 62.6459 244.348 67.2523 Q241.292 71.8357 235.482 71.8357 Q229.672 71.8357 226.593 67.2523 Q223.537 62.6459 223.537 53.9191 Q223.537 45.1691 226.593 40.5858 Q229.672 35.9794 235.482 35.9794 Z" fill="#000000" fill-rule="evenodd" fill-opacity="1" /><polyline clip-path="url(#clip772)" style="stroke:#009af9; stroke-linecap:butt; stroke-linejoin:round; stroke-width:4; stroke-opacity:1; fill:none" points="
  283.426,218.54 348.093,218.505 412.759,218.47 477.426,218.435 542.092,218.404 606.759,218.38 671.426,218.367 736.092,218.364 800.759,218.366 865.425,218.371 
  930.092,218.38 994.758,218.4 1059.42,218.44 1124.09,218.523 1188.76,218.694 1253.42,219.042 1318.09,219.751 1382.76,221.186 1447.42,224.039 1512.09,229.552 
  1576.76,239.657 1641.42,256.729 1706.09,282.642 1770.76,317.63 1835.42,360.04 1900.09,406.953 1964.76,454.809 2029.42,499.899 2094.09,538.96 2158.76,569.855 
  2223.42,592.064 2288.09,606.6 2352.76,615.344 
  "/>
<polyline clip-path="url(#clip772)" style="stroke:#e26f46; stroke-linecap:butt; stroke-linejoin:round; stroke-width:4; stroke-opacity:1; fill:none" points="
  283.426,623.914 348.093,624.712 412.759,625.142 477.426,625.361 542.092,625.47 606.759,625.521 671.426,625.541 736.092,625.546 800.759,625.546 865.425,625.546 
  930.092,625.546 994.758,625.546 1059.42,625.546 1124.09,625.546 1188.76,625.546 1253.42,625.546 1318.09,625.547 1382.76,625.547 1447.42,625.547 1512.09,625.547 
  1576.76,625.547 1641.42,625.548 1706.09,625.548 1770.76,625.549 1835.42,625.55 1900.09,625.55 1964.76,625.551 2029.42,625.551 2094.09,625.551 2158.76,625.551 
  2223.42,625.551 2288.09,625.552 2352.76,625.552 
  "/>
<polyline clip-path="url(#clip772)" style="stroke:#3da44d; stroke-linecap:butt; stroke-linejoin:round; stroke-width:4; stroke-opacity:1; fill:none" points="
  283.426,462.534 348.093,461.77 412.759,461.376 477.426,461.191 542.092,461.114 606.759,461.087 671.426,461.08 736.092,461.078 800.759,461.075 865.425,461.071 
  930.092,461.061 994.758,461.041 1059.42,461.001 1124.09,460.918 1188.76,460.748 1253.42,460.399 1318.09,459.69 1382.76,458.255 1447.42,455.402 1512.09,449.889 
  1576.76,439.784 1641.42,422.711 1706.09,396.797 1770.76,361.809 1835.42,319.398 1900.09,272.485 1964.76,224.628 2029.42,179.538 2094.09,140.476 2158.76,109.581 
  2223.42,87.3725 2288.09,72.836 2352.76,64.0918 
  "/>
<polyline clip-path="url(#clip772)" style="stroke:#c271d2; stroke-linecap:butt; stroke-linejoin:round; stroke-width:8; stroke-opacity:1; fill:none" stroke-dasharray="32, 20" points="
  283.426,218.541 348.093,218.507 412.759,218.472 477.426,218.438 542.092,218.408 606.759,218.385 671.426,218.371 736.092,218.368 800.759,218.37 865.425,218.374 
  930.092,218.383 994.758,218.401 1059.42,218.437 1124.09,218.512 1188.76,218.664 1253.42,218.977 1318.09,219.615 1382.76,220.906 1447.42,223.482 1512.09,228.484 
  1576.76,237.74 1641.42,253.594 1706.09,278.058 1770.76,311.658 1835.42,353.015 1900.09,399.383 1964.76,447.287 2029.42,493.02 2094.09,533.206 2158.76,565.479 
  2223.42,589.046 2288.09,604.702 2352.76,614.241 
  "/>
<polyline clip-path="url(#clip772)" style="stroke:#ac8d18; stroke-linecap:butt; stroke-linejoin:round; stroke-width:8; stroke-opacity:1; fill:none" stroke-dasharray="32, 20" points="
  283.426,623.961 348.093,624.738 412.759,625.155 477.426,625.368 542.092,625.473 606.759,625.522 671.426,625.542 736.092,625.547 800.759,625.547 865.425,625.547 
  930.092,625.547 994.758,625.547 1059.42,625.547 1124.09,625.547 1188.76,625.547 1253.42,625.547 1318.09,625.547 1382.76,625.547 1447.42,625.547 1512.09,625.547 
  1576.76,625.547 1641.42,625.548 1706.09,625.548 1770.76,625.549 1835.42,625.55 1900.09,625.55 1964.76,625.551 2029.42,625.551 2094.09,625.551 2158.76,625.551 
  2223.42,625.551 2288.09,625.552 2352.76,625.552 
  "/>
<polyline clip-path="url(#clip772)" style="stroke:#00a9ad; stroke-linecap:butt; stroke-linejoin:round; stroke-width:8; stroke-opacity:1; fill:none" stroke-dasharray="32, 20" points="
  283.426,462.486 348.093,461.743 412.759,461.361 477.426,461.182 542.092,461.107 606.759,461.081 671.426,461.075 736.092,461.073 800.759,461.071 865.425,461.066 
  930.092,461.058 994.758,461.04 1059.42,461.004 1124.09,460.929 1188.76,460.776 1253.42,460.464 1318.09,459.826 1382.76,458.535 1447.42,455.959 1512.09,450.956 
  1576.76,441.7 1641.42,425.846 1706.09,401.381 1770.76,367.78 1835.42,326.423 1900.09,280.055 1964.76,232.15 2029.42,186.417 2094.09,146.231 2158.76,113.957 
  2223.42,90.3897 2288.09,74.7339 2352.76,65.1953 
  "/>
<polyline clip-path="url(#clip772)" style="stroke:#ed5d92; stroke-linecap:butt; stroke-linejoin:round; stroke-width:12; stroke-opacity:1; fill:none" stroke-dasharray="6, 12" points="
  283.426,218.579 348.093,218.579 412.759,218.579 477.426,218.579 542.092,218.579 606.759,218.579 671.426,218.579 736.092,218.58 800.759,218.58 865.425,218.581 
  930.092,218.583 994.758,218.587 1059.42,218.598 1124.09,218.625 1188.76,218.703 1253.42,218.948 1318.09,219.693 1382.76,221.621 1447.42,224.05 1512.09,229.658 
  1576.76,239.678 1641.42,256.637 1706.09,282.367 1770.76,317.135 1835.42,359.34 1900.09,406.09 1964.76,453.847 2029.42,498.928 2094.09,538.078 2158.76,569.144 
  2223.42,591.568 2288.09,606.312 2352.76,615.221 
  "/>
<polyline clip-path="url(#clip772)" style="stroke:#c68125; stroke-linecap:butt; stroke-linejoin:round; stroke-width:12; stroke-opacity:1; fill:none" stroke-dasharray="6, 12" points="
  283.426,625.273 348.093,625.273 412.759,625.273 477.426,625.273 542.092,625.274 606.759,625.275 671.426,625.276 736.092,625.279 800.759,625.286 865.425,625.299 
  930.092,625.324 994.758,625.374 1059.42,625.463 1124.09,625.592 1188.76,625.683 1253.42,625.493 1318.09,625.556 1382.76,625.549 1447.42,625.549 1512.09,625.55 
  1576.76,625.55 1641.42,625.55 1706.09,625.551 1770.76,625.552 1835.42,625.552 1900.09,625.553 1964.76,625.553 2029.42,625.554 2094.09,625.554 2158.76,625.554 
  2223.42,625.554 2288.09,625.554 2352.76,625.554 
  "/>
<polyline clip-path="url(#clip772)" style="stroke:#00a98d; stroke-linecap:butt; stroke-linejoin:round; stroke-width:12; stroke-opacity:1; fill:none" stroke-dasharray="6, 12" points="
  283.426,461.407 348.093,461.407 412.759,461.407 477.426,461.407 542.092,461.407 606.759,461.406 671.426,461.405 736.092,461.403 800.759,461.398 865.425,461.389 
  930.092,461.37 994.758,461.331 1059.42,461.251 1124.09,461.091 1188.76,460.775 1253.42,460.176 1318.09,459.144 1382.76,457.759 1447.42,455.838 1512.09,450.066 
  1576.76,439.869 1641.42,423.009 1706.09,397.254 1770.76,362.488 1835.42,320.283 1900.09,273.537 1964.76,225.775 2029.42,180.695 2094.09,141.545 2158.76,110.479 
  2223.42,88.055 2288.09,73.3109 2352.76,64.4019 
  "/>
<path clip-path="url(#clip770)" d="
M1946.17 585.487 L2283.78 585.487 L2283.78 67.087 L1946.17 67.087  Z
  " fill="#ffffff" fill-rule="evenodd" fill-opacity="1"/>
<polyline clip-path="url(#clip770)" style="stroke:#000000; stroke-linecap:butt; stroke-linejoin:round; stroke-width:4; stroke-opacity:1; fill:none" points="
  1946.17,585.487 2283.78,585.487 2283.78,67.087 1946.17,67.087 1946.17,585.487 
  "/>
<polyline clip-path="url(#clip770)" style="stroke:#009af9; stroke-linecap:butt; stroke-linejoin:round; stroke-width:4; stroke-opacity:1; fill:none" points="
  1969.16,118.927 2107.12,118.927 
  "/>
<path clip-path="url(#clip770)" d="M2130.11 125.976 L2130.11 110.281 L2134.37 110.281 L2134.37 125.814 Q2134.37 129.494 2135.8 131.346 Q2137.24 133.175 2140.11 133.175 Q2143.56 133.175 2145.55 130.976 Q2147.56 128.776 2147.56 124.98 L2147.56 110.281 L2151.82 110.281 L2151.82 136.207 L2147.56 136.207 L2147.56 132.226 Q2146.01 134.587 2143.95 135.744 Q2141.91 136.878 2139.21 136.878 Q2134.74 136.878 2132.42 134.101 Q2130.11 131.323 2130.11 125.976 M2140.83 109.656 L2140.83 109.656 Z" fill="#000000" fill-rule="evenodd" fill-opacity="1" /><path clip-path="url(#clip770)" d="M2162.01 132.272 L2169.65 132.272 L2169.65 105.906 L2161.34 107.573 L2161.34 103.314 L2169.6 101.647 L2174.27 101.647 L2174.27 132.272 L2181.91 132.272 L2181.91 136.207 L2162.01 136.207 L2162.01 132.272 Z" fill="#000000" fill-rule="evenodd" fill-opacity="1" /><path clip-path="url(#clip770)" d="M2200.99 100.235 Q2197.89 105.559 2196.38 110.767 Q2194.88 115.976 2194.88 121.323 Q2194.88 126.67 2196.38 131.925 Q2197.91 137.156 2200.99 142.457 L2197.28 142.457 Q2193.81 137.017 2192.08 131.763 Q2190.36 126.508 2190.36 121.323 Q2190.36 116.161 2192.08 110.929 Q2193.79 105.698 2197.28 100.235 L2200.99 100.235 Z" fill="#000000" fill-rule="evenodd" fill-opacity="1" /><path clip-path="url(#clip770)" d="M2213.46 102.92 L2213.46 110.281 L2222.24 110.281 L2222.24 113.591 L2213.46 113.591 L2213.46 127.665 Q2213.46 130.837 2214.32 131.739 Q2215.2 132.642 2217.86 132.642 L2222.24 132.642 L2222.24 136.207 L2217.86 136.207 Q2212.93 136.207 2211.06 134.378 Q2209.18 132.526 2209.18 127.665 L2209.18 113.591 L2206.06 113.591 L2206.06 110.281 L2209.18 110.281 L2209.18 102.92 L2213.46 102.92 Z" fill="#000000" fill-rule="evenodd" fill-opacity="1" /><path clip-path="url(#clip770)" d="M2227.17 100.235 L2230.87 100.235 Q2234.34 105.698 2236.06 110.929 Q2237.79 116.161 2237.79 121.323 Q2237.79 126.508 2236.06 131.763 Q2234.34 137.017 2230.87 142.457 L2227.17 142.457 Q2230.25 137.156 2231.75 131.925 Q2233.28 126.67 2233.28 121.323 Q2233.28 115.976 2231.75 110.767 Q2230.25 105.559 2227.17 100.235 Z" fill="#000000" fill-rule="evenodd" fill-opacity="1" /><polyline clip-path="url(#clip770)" style="stroke:#e26f46; stroke-linecap:butt; stroke-linejoin:round; stroke-width:4; stroke-opacity:1; fill:none" points="
  1969.16,170.767 2107.12,170.767 
  "/>
<path clip-path="url(#clip770)" d="M2130.11 177.816 L2130.11 162.121 L2134.37 162.121 L2134.37 177.654 Q2134.37 181.334 2135.8 183.186 Q2137.24 185.015 2140.11 185.015 Q2143.56 185.015 2145.55 182.816 Q2147.56 180.616 2147.56 176.82 L2147.56 162.121 L2151.82 162.121 L2151.82 188.047 L2147.56 188.047 L2147.56 184.066 Q2146.01 186.427 2143.95 187.584 Q2141.91 188.718 2139.21 188.718 Q2134.74 188.718 2132.42 185.941 Q2130.11 183.163 2130.11 177.816 M2140.83 161.496 L2140.83 161.496 Z" fill="#000000" fill-rule="evenodd" fill-opacity="1" /><path clip-path="url(#clip770)" d="M2165.22 184.112 L2181.54 184.112 L2181.54 188.047 L2159.6 188.047 L2159.6 184.112 Q2162.26 181.357 2166.84 176.728 Q2171.45 172.075 2172.63 170.732 Q2174.88 168.209 2175.76 166.473 Q2176.66 164.714 2176.66 163.024 Q2176.66 160.269 2174.71 158.533 Q2172.79 156.797 2169.69 156.797 Q2167.49 156.797 2165.04 157.561 Q2162.61 158.325 2159.83 159.876 L2159.83 155.154 Q2162.65 154.019 2165.11 153.441 Q2167.56 152.862 2169.6 152.862 Q2174.97 152.862 2178.16 155.547 Q2181.36 158.232 2181.36 162.723 Q2181.36 164.853 2180.55 166.774 Q2179.76 168.672 2177.65 171.265 Q2177.08 171.936 2173.97 175.154 Q2170.87 178.348 2165.22 184.112 Z" fill="#000000" fill-rule="evenodd" fill-opacity="1" /><path clip-path="url(#clip770)" d="M2200.99 152.075 Q2197.89 157.399 2196.38 162.607 Q2194.88 167.816 2194.88 173.163 Q2194.88 178.51 2196.38 183.765 Q2197.91 188.996 2200.99 194.297 L2197.28 194.297 Q2193.81 188.857 2192.08 183.603 Q2190.36 178.348 2190.36 173.163 Q2190.36 168.001 2192.08 162.769 Q2193.79 157.538 2197.28 152.075 L2200.99 152.075 Z" fill="#000000" fill-rule="evenodd" fill-opacity="1" /><path clip-path="url(#clip770)" d="M2213.46 154.76 L2213.46 162.121 L2222.24 162.121 L2222.24 165.431 L2213.46 165.431 L2213.46 179.505 Q2213.46 182.677 2214.32 183.579 Q2215.2 184.482 2217.86 184.482 L2222.24 184.482 L2222.24 188.047 L2217.86 188.047 Q2212.93 188.047 2211.06 186.218 Q2209.18 184.366 2209.18 179.505 L2209.18 165.431 L2206.06 165.431 L2206.06 162.121 L2209.18 162.121 L2209.18 154.76 L2213.46 154.76 Z" fill="#000000" fill-rule="evenodd" fill-opacity="1" /><path clip-path="url(#clip770)" d="M2227.17 152.075 L2230.87 152.075 Q2234.34 157.538 2236.06 162.769 Q2237.79 168.001 2237.79 173.163 Q2237.79 178.348 2236.06 183.603 Q2234.34 188.857 2230.87 194.297 L2227.17 194.297 Q2230.25 188.996 2231.75 183.765 Q2233.28 178.51 2233.28 173.163 Q2233.28 167.816 2231.75 162.607 Q2230.25 157.399 2227.17 152.075 Z" fill="#000000" fill-rule="evenodd" fill-opacity="1" /><polyline clip-path="url(#clip770)" style="stroke:#3da44d; stroke-linecap:butt; stroke-linejoin:round; stroke-width:4; stroke-opacity:1; fill:none" points="
  1969.16,222.607 2107.12,222.607 
  "/>
<path clip-path="url(#clip770)" d="M2130.11 229.656 L2130.11 213.961 L2134.37 213.961 L2134.37 229.494 Q2134.37 233.174 2135.8 235.026 Q2137.24 236.855 2140.11 236.855 Q2143.56 236.855 2145.55 234.656 Q2147.56 232.456 2147.56 228.66 L2147.56 213.961 L2151.82 213.961 L2151.82 239.887 L2147.56 239.887 L2147.56 235.906 Q2146.01 238.267 2143.95 239.424 Q2141.91 240.558 2139.21 240.558 Q2134.74 240.558 2132.42 237.781 Q2130.11 235.003 2130.11 229.656 M2140.83 213.336 L2140.83 213.336 Z" fill="#000000" fill-rule="evenodd" fill-opacity="1" /><path clip-path="url(#clip770)" d="M2175.36 221.253 Q2178.72 221.97 2180.59 224.239 Q2182.49 226.507 2182.49 229.841 Q2182.49 234.956 2178.97 237.757 Q2175.46 240.558 2168.97 240.558 Q2166.8 240.558 2164.48 240.118 Q2162.19 239.702 2159.74 238.845 L2159.74 234.331 Q2161.68 235.466 2164 236.044 Q2166.31 236.623 2168.84 236.623 Q2173.23 236.623 2175.52 234.887 Q2177.84 233.151 2177.84 229.841 Q2177.84 226.785 2175.69 225.072 Q2173.56 223.336 2169.74 223.336 L2165.71 223.336 L2165.71 219.494 L2169.92 219.494 Q2173.37 219.494 2175.2 218.128 Q2177.03 216.739 2177.03 214.146 Q2177.03 211.484 2175.13 210.072 Q2173.26 208.637 2169.74 208.637 Q2167.82 208.637 2165.62 209.054 Q2163.42 209.47 2160.78 210.35 L2160.78 206.183 Q2163.44 205.443 2165.76 205.072 Q2168.09 204.702 2170.15 204.702 Q2175.48 204.702 2178.58 207.133 Q2181.68 209.54 2181.68 213.66 Q2181.68 216.531 2180.04 218.521 Q2178.4 220.489 2175.36 221.253 Z" fill="#000000" fill-rule="evenodd" fill-opacity="1" /><path clip-path="url(#clip770)" d="M2200.99 203.915 Q2197.89 209.239 2196.38 214.447 Q2194.88 219.656 2194.88 225.003 Q2194.88 230.35 2196.38 235.605 Q2197.91 240.836 2200.99 246.137 L2197.28 246.137 Q2193.81 240.697 2192.08 235.443 Q2190.36 230.188 2190.36 225.003 Q2190.36 219.841 2192.08 214.609 Q2193.79 209.378 2197.28 203.915 L2200.99 203.915 Z" fill="#000000" fill-rule="evenodd" fill-opacity="1" /><path clip-path="url(#clip770)" d="M2213.46 206.6 L2213.46 213.961 L2222.24 213.961 L2222.24 217.271 L2213.46 217.271 L2213.46 231.345 Q2213.46 234.517 2214.32 235.419 Q2215.2 236.322 2217.86 236.322 L2222.24 236.322 L2222.24 239.887 L2217.86 239.887 Q2212.93 239.887 2211.06 238.058 Q2209.18 236.206 2209.18 231.345 L2209.18 217.271 L2206.06 217.271 L2206.06 213.961 L2209.18 213.961 L2209.18 206.6 L2213.46 206.6 Z" fill="#000000" fill-rule="evenodd" fill-opacity="1" /><path clip-path="url(#clip770)" d="M2227.17 203.915 L2230.87 203.915 Q2234.34 209.378 2236.06 214.609 Q2237.79 219.841 2237.79 225.003 Q2237.79 230.188 2236.06 235.443 Q2234.34 240.697 2230.87 246.137 L2227.17 246.137 Q2230.25 240.836 2231.75 235.605 Q2233.28 230.35 2233.28 225.003 Q2233.28 219.656 2231.75 214.447 Q2230.25 209.239 2227.17 203.915 Z" fill="#000000" fill-rule="evenodd" fill-opacity="1" /><polyline clip-path="url(#clip770)" style="stroke:#c271d2; stroke-linecap:butt; stroke-linejoin:round; stroke-width:4; stroke-opacity:1; fill:none" stroke-dasharray="16, 10" points="
  1969.16,274.447 2107.12,274.447 
  "/>
<path clip-path="url(#clip770)" d="M2130.11 281.496 L2130.11 265.801 L2134.37 265.801 L2134.37 281.334 Q2134.37 285.014 2135.8 286.866 Q2137.24 288.695 2140.11 288.695 Q2143.56 288.695 2145.55 286.496 Q2147.56 284.296 2147.56 280.5 L2147.56 265.801 L2151.82 265.801 L2151.82 291.727 L2147.56 291.727 L2147.56 287.746 Q2146.01 290.107 2143.95 291.264 Q2141.91 292.398 2139.21 292.398 Q2134.74 292.398 2132.42 289.621 Q2130.11 286.843 2130.11 281.496 M2140.83 265.176 L2140.83 265.176 Z" fill="#000000" fill-rule="evenodd" fill-opacity="1" /><path clip-path="url(#clip770)" d="M2162.01 287.792 L2169.65 287.792 L2169.65 261.426 L2161.34 263.093 L2161.34 258.834 L2169.6 257.167 L2174.27 257.167 L2174.27 287.792 L2181.91 287.792 L2181.91 291.727 L2162.01 291.727 L2162.01 287.792 Z" fill="#000000" fill-rule="evenodd" fill-opacity="1" /><path clip-path="url(#clip770)" d="M2200.99 255.755 Q2197.89 261.079 2196.38 266.287 Q2194.88 271.496 2194.88 276.843 Q2194.88 282.19 2196.38 287.445 Q2197.91 292.676 2200.99 297.977 L2197.28 297.977 Q2193.81 292.537 2192.08 287.283 Q2190.36 282.028 2190.36 276.843 Q2190.36 271.681 2192.08 266.449 Q2193.79 261.218 2197.28 255.755 L2200.99 255.755 Z" fill="#000000" fill-rule="evenodd" fill-opacity="1" /><path clip-path="url(#clip770)" d="M2213.46 258.44 L2213.46 265.801 L2222.24 265.801 L2222.24 269.111 L2213.46 269.111 L2213.46 283.185 Q2213.46 286.357 2214.32 287.259 Q2215.2 288.162 2217.86 288.162 L2222.24 288.162 L2222.24 291.727 L2217.86 291.727 Q2212.93 291.727 2211.06 289.898 Q2209.18 288.046 2209.18 283.185 L2209.18 269.111 L2206.06 269.111 L2206.06 265.801 L2209.18 265.801 L2209.18 258.44 L2213.46 258.44 Z" fill="#000000" fill-rule="evenodd" fill-opacity="1" /><path clip-path="url(#clip770)" d="M2227.17 255.755 L2230.87 255.755 Q2234.34 261.218 2236.06 266.449 Q2237.79 271.681 2237.79 276.843 Q2237.79 282.028 2236.06 287.283 Q2234.34 292.537 2230.87 297.977 L2227.17 297.977 Q2230.25 292.676 2231.75 287.445 Q2233.28 282.19 2233.28 276.843 Q2233.28 271.496 2231.75 266.287 Q2230.25 261.079 2227.17 255.755 Z" fill="#000000" fill-rule="evenodd" fill-opacity="1" /><polyline clip-path="url(#clip770)" style="stroke:#ac8d18; stroke-linecap:butt; stroke-linejoin:round; stroke-width:4; stroke-opacity:1; fill:none" stroke-dasharray="16, 10" points="
  1969.16,326.287 2107.12,326.287 
  "/>
<path clip-path="url(#clip770)" d="M2130.11 333.336 L2130.11 317.641 L2134.37 317.641 L2134.37 333.174 Q2134.37 336.854 2135.8 338.706 Q2137.24 340.535 2140.11 340.535 Q2143.56 340.535 2145.55 338.336 Q2147.56 336.136 2147.56 332.34 L2147.56 317.641 L2151.82 317.641 L2151.82 343.567 L2147.56 343.567 L2147.56 339.586 Q2146.01 341.947 2143.95 343.104 Q2141.91 344.238 2139.21 344.238 Q2134.74 344.238 2132.42 341.461 Q2130.11 338.683 2130.11 333.336 M2140.83 317.016 L2140.83 317.016 Z" fill="#000000" fill-rule="evenodd" fill-opacity="1" /><path clip-path="url(#clip770)" d="M2165.22 339.632 L2181.54 339.632 L2181.54 343.567 L2159.6 343.567 L2159.6 339.632 Q2162.26 336.877 2166.84 332.248 Q2171.45 327.595 2172.63 326.252 Q2174.88 323.729 2175.76 321.993 Q2176.66 320.234 2176.66 318.544 Q2176.66 315.789 2174.71 314.053 Q2172.79 312.317 2169.69 312.317 Q2167.49 312.317 2165.04 313.081 Q2162.61 313.845 2159.83 315.396 L2159.83 310.674 Q2162.65 309.539 2165.11 308.961 Q2167.56 308.382 2169.6 308.382 Q2174.97 308.382 2178.16 311.067 Q2181.36 313.752 2181.36 318.243 Q2181.36 320.373 2180.55 322.294 Q2179.76 324.192 2177.65 326.785 Q2177.08 327.456 2173.97 330.674 Q2170.87 333.868 2165.22 339.632 Z" fill="#000000" fill-rule="evenodd" fill-opacity="1" /><path clip-path="url(#clip770)" d="M2200.99 307.595 Q2197.89 312.919 2196.38 318.127 Q2194.88 323.336 2194.88 328.683 Q2194.88 334.03 2196.38 339.285 Q2197.91 344.516 2200.99 349.817 L2197.28 349.817 Q2193.81 344.377 2192.08 339.123 Q2190.36 333.868 2190.36 328.683 Q2190.36 323.521 2192.08 318.289 Q2193.79 313.058 2197.28 307.595 L2200.99 307.595 Z" fill="#000000" fill-rule="evenodd" fill-opacity="1" /><path clip-path="url(#clip770)" d="M2213.46 310.28 L2213.46 317.641 L2222.24 317.641 L2222.24 320.951 L2213.46 320.951 L2213.46 335.025 Q2213.46 338.197 2214.32 339.099 Q2215.2 340.002 2217.86 340.002 L2222.24 340.002 L2222.24 343.567 L2217.86 343.567 Q2212.93 343.567 2211.06 341.738 Q2209.18 339.886 2209.18 335.025 L2209.18 320.951 L2206.06 320.951 L2206.06 317.641 L2209.18 317.641 L2209.18 310.28 L2213.46 310.28 Z" fill="#000000" fill-rule="evenodd" fill-opacity="1" /><path clip-path="url(#clip770)" d="M2227.17 307.595 L2230.87 307.595 Q2234.34 313.058 2236.06 318.289 Q2237.79 323.521 2237.79 328.683 Q2237.79 333.868 2236.06 339.123 Q2234.34 344.377 2230.87 349.817 L2227.17 349.817 Q2230.25 344.516 2231.75 339.285 Q2233.28 334.03 2233.28 328.683 Q2233.28 323.336 2231.75 318.127 Q2230.25 312.919 2227.17 307.595 Z" fill="#000000" fill-rule="evenodd" fill-opacity="1" /><polyline clip-path="url(#clip770)" style="stroke:#00a9ad; stroke-linecap:butt; stroke-linejoin:round; stroke-width:4; stroke-opacity:1; fill:none" stroke-dasharray="16, 10" points="
  1969.16,378.127 2107.12,378.127 
  "/>
<path clip-path="url(#clip770)" d="M2130.11 385.176 L2130.11 369.481 L2134.37 369.481 L2134.37 385.014 Q2134.37 388.694 2135.8 390.546 Q2137.24 392.375 2140.11 392.375 Q2143.56 392.375 2145.55 390.176 Q2147.56 387.976 2147.56 384.18 L2147.56 369.481 L2151.82 369.481 L2151.82 395.407 L2147.56 395.407 L2147.56 391.426 Q2146.01 393.787 2143.95 394.944 Q2141.91 396.078 2139.21 396.078 Q2134.74 396.078 2132.42 393.301 Q2130.11 390.523 2130.11 385.176 M2140.83 368.856 L2140.83 368.856 Z" fill="#000000" fill-rule="evenodd" fill-opacity="1" /><path clip-path="url(#clip770)" d="M2175.36 376.773 Q2178.72 377.49 2180.59 379.759 Q2182.49 382.027 2182.49 385.361 Q2182.49 390.476 2178.97 393.277 Q2175.46 396.078 2168.97 396.078 Q2166.8 396.078 2164.48 395.638 Q2162.19 395.222 2159.74 394.365 L2159.74 389.851 Q2161.68 390.986 2164 391.564 Q2166.31 392.143 2168.84 392.143 Q2173.23 392.143 2175.52 390.407 Q2177.84 388.671 2177.84 385.361 Q2177.84 382.305 2175.69 380.592 Q2173.56 378.856 2169.74 378.856 L2165.71 378.856 L2165.71 375.014 L2169.92 375.014 Q2173.37 375.014 2175.2 373.648 Q2177.03 372.259 2177.03 369.666 Q2177.03 367.004 2175.13 365.592 Q2173.26 364.157 2169.74 364.157 Q2167.82 364.157 2165.62 364.574 Q2163.42 364.99 2160.78 365.87 L2160.78 361.703 Q2163.44 360.963 2165.76 360.592 Q2168.09 360.222 2170.15 360.222 Q2175.48 360.222 2178.58 362.653 Q2181.68 365.06 2181.68 369.18 Q2181.68 372.051 2180.04 374.041 Q2178.4 376.009 2175.36 376.773 Z" fill="#000000" fill-rule="evenodd" fill-opacity="1" /><path clip-path="url(#clip770)" d="M2200.99 359.435 Q2197.89 364.759 2196.38 369.967 Q2194.88 375.176 2194.88 380.523 Q2194.88 385.87 2196.38 391.125 Q2197.91 396.356 2200.99 401.657 L2197.28 401.657 Q2193.81 396.217 2192.08 390.963 Q2190.36 385.708 2190.36 380.523 Q2190.36 375.361 2192.08 370.129 Q2193.79 364.898 2197.28 359.435 L2200.99 359.435 Z" fill="#000000" fill-rule="evenodd" fill-opacity="1" /><path clip-path="url(#clip770)" d="M2213.46 362.12 L2213.46 369.481 L2222.24 369.481 L2222.24 372.791 L2213.46 372.791 L2213.46 386.865 Q2213.46 390.037 2214.32 390.939 Q2215.2 391.842 2217.86 391.842 L2222.24 391.842 L2222.24 395.407 L2217.86 395.407 Q2212.93 395.407 2211.06 393.578 Q2209.18 391.726 2209.18 386.865 L2209.18 372.791 L2206.06 372.791 L2206.06 369.481 L2209.18 369.481 L2209.18 362.12 L2213.46 362.12 Z" fill="#000000" fill-rule="evenodd" fill-opacity="1" /><path clip-path="url(#clip770)" d="M2227.17 359.435 L2230.87 359.435 Q2234.34 364.898 2236.06 370.129 Q2237.79 375.361 2237.79 380.523 Q2237.79 385.708 2236.06 390.963 Q2234.34 396.217 2230.87 401.657 L2227.17 401.657 Q2230.25 396.356 2231.75 391.125 Q2233.28 385.87 2233.28 380.523 Q2233.28 375.176 2231.75 369.967 Q2230.25 364.759 2227.17 359.435 Z" fill="#000000" fill-rule="evenodd" fill-opacity="1" /><polyline clip-path="url(#clip770)" style="stroke:#ed5d92; stroke-linecap:butt; stroke-linejoin:round; stroke-width:4; stroke-opacity:1; fill:none" stroke-dasharray="2, 4" points="
  1969.16,429.967 2107.12,429.967 
  "/>
<path clip-path="url(#clip770)" d="M2143.95 449.654 Q2142.15 454.284 2140.43 455.696 Q2138.72 457.108 2135.85 457.108 L2132.45 457.108 L2132.45 453.543 L2134.95 453.543 Q2136.71 453.543 2137.68 452.71 Q2138.65 451.877 2139.83 448.775 L2140.59 446.83 L2130.11 421.321 L2134.62 421.321 L2142.72 441.599 L2150.83 421.321 L2155.34 421.321 L2143.95 449.654 Z" fill="#000000" fill-rule="evenodd" fill-opacity="1" /><path clip-path="url(#clip770)" d="M2160.64 412.687 L2182.86 412.687 L2182.86 414.678 L2170.32 447.247 L2165.43 447.247 L2177.24 416.622 L2160.64 416.622 L2160.64 412.687 Z" fill="#000000" fill-rule="evenodd" fill-opacity="1" /><polyline clip-path="url(#clip770)" style="stroke:#c68125; stroke-linecap:butt; stroke-linejoin:round; stroke-width:4; stroke-opacity:1; fill:none" stroke-dasharray="2, 4" points="
  1969.16,481.807 2107.12,481.807 
  "/>
<path clip-path="url(#clip770)" d="M2143.95 501.494 Q2142.15 506.124 2140.43 507.536 Q2138.72 508.948 2135.85 508.948 L2132.45 508.948 L2132.45 505.383 L2134.95 505.383 Q2136.71 505.383 2137.68 504.55 Q2138.65 503.717 2139.83 500.615 L2140.59 498.67 L2130.11 473.161 L2134.62 473.161 L2142.72 493.439 L2150.83 473.161 L2155.34 473.161 L2143.95 501.494 Z" fill="#000000" fill-rule="evenodd" fill-opacity="1" /><path clip-path="url(#clip770)" d="M2171.82 482.675 Q2168.49 482.675 2166.57 484.457 Q2164.67 486.24 2164.67 489.365 Q2164.67 492.49 2166.57 494.272 Q2168.49 496.055 2171.82 496.055 Q2175.15 496.055 2177.08 494.272 Q2179 492.467 2179 489.365 Q2179 486.24 2177.08 484.457 Q2175.18 482.675 2171.82 482.675 M2167.15 480.684 Q2164.14 479.944 2162.45 477.883 Q2160.78 475.823 2160.78 472.86 Q2160.78 468.717 2163.72 466.309 Q2166.68 463.902 2171.82 463.902 Q2176.98 463.902 2179.92 466.309 Q2182.86 468.717 2182.86 472.86 Q2182.86 475.823 2181.17 477.883 Q2179.51 479.944 2176.52 480.684 Q2179.9 481.471 2181.77 483.763 Q2183.67 486.055 2183.67 489.365 Q2183.67 494.388 2180.59 497.073 Q2177.54 499.758 2171.82 499.758 Q2166.1 499.758 2163.03 497.073 Q2159.97 494.388 2159.97 489.365 Q2159.97 486.055 2161.87 483.763 Q2163.77 481.471 2167.15 480.684 M2165.43 473.3 Q2165.43 475.985 2167.1 477.49 Q2168.79 478.994 2171.82 478.994 Q2174.83 478.994 2176.52 477.49 Q2178.23 475.985 2178.23 473.3 Q2178.23 470.615 2176.52 469.11 Q2174.83 467.606 2171.82 467.606 Q2168.79 467.606 2167.1 469.11 Q2165.43 470.615 2165.43 473.3 Z" fill="#000000" fill-rule="evenodd" fill-opacity="1" /><polyline clip-path="url(#clip770)" style="stroke:#00a98d; stroke-linecap:butt; stroke-linejoin:round; stroke-width:4; stroke-opacity:1; fill:none" stroke-dasharray="2, 4" points="
  1969.16,533.647 2107.12,533.647 
  "/>
<path clip-path="url(#clip770)" d="M2143.95 553.334 Q2142.15 557.964 2140.43 559.376 Q2138.72 560.788 2135.85 560.788 L2132.45 560.788 L2132.45 557.223 L2134.95 557.223 Q2136.71 557.223 2137.68 556.39 Q2138.65 555.557 2139.83 552.455 L2140.59 550.51 L2130.11 525.001 L2134.62 525.001 L2142.72 545.279 L2150.83 525.001 L2155.34 525.001 L2143.95 553.334 Z" fill="#000000" fill-rule="evenodd" fill-opacity="1" /><path clip-path="url(#clip770)" d="M2161.96 550.209 L2161.96 545.95 Q2163.72 546.783 2165.53 547.223 Q2167.33 547.663 2169.07 547.663 Q2173.7 547.663 2176.13 544.561 Q2178.58 541.436 2178.93 535.094 Q2177.59 537.084 2175.52 538.149 Q2173.46 539.214 2170.96 539.214 Q2165.78 539.214 2162.75 536.089 Q2159.74 532.941 2159.74 527.501 Q2159.74 522.177 2162.89 518.96 Q2166.03 515.742 2171.27 515.742 Q2177.26 515.742 2180.41 520.348 Q2183.58 524.932 2183.58 533.682 Q2183.58 541.853 2179.69 546.737 Q2175.83 551.598 2169.27 551.598 Q2167.52 551.598 2165.71 551.251 Q2163.9 550.904 2161.96 550.209 M2171.27 535.557 Q2174.41 535.557 2176.24 533.404 Q2178.09 531.251 2178.09 527.501 Q2178.09 523.774 2176.24 521.622 Q2174.41 519.446 2171.27 519.446 Q2168.12 519.446 2166.27 521.622 Q2164.44 523.774 2164.44 527.501 Q2164.44 531.251 2166.27 533.404 Q2168.12 535.557 2171.27 535.557 Z" fill="#000000" fill-rule="evenodd" fill-opacity="1" /><path clip-path="url(#clip770)" d="
M283.426 1474.16 L2352.76 1474.16 L2352.76 878.878 L283.426 878.878  Z
  " fill="#ffffff" fill-rule="evenodd" fill-opacity="1"/>
<defs>
  <clipPath id="clip773">
    <rect x="283" y="878" width="2070" height="596"/>
  </clipPath>
</defs>
<polyline clip-path="url(#clip773)" style="stroke:#000000; stroke-linecap:butt; stroke-linejoin:round; stroke-width:2; stroke-opacity:0.1; fill:none" points="
  537.212,1474.16 537.212,878.878 
  "/>
<polyline clip-path="url(#clip773)" style="stroke:#000000; stroke-linecap:butt; stroke-linejoin:round; stroke-width:2; stroke-opacity:0.1; fill:none" points="
  927.652,1474.16 927.652,878.878 
  "/>
<polyline clip-path="url(#clip773)" style="stroke:#000000; stroke-linecap:butt; stroke-linejoin:round; stroke-width:2; stroke-opacity:0.1; fill:none" points="
  1318.09,1474.16 1318.09,878.878 
  "/>
<polyline clip-path="url(#clip773)" style="stroke:#000000; stroke-linecap:butt; stroke-linejoin:round; stroke-width:2; stroke-opacity:0.1; fill:none" points="
  1708.53,1474.16 1708.53,878.878 
  "/>
<polyline clip-path="url(#clip773)" style="stroke:#000000; stroke-linecap:butt; stroke-linejoin:round; stroke-width:2; stroke-opacity:0.1; fill:none" points="
  2098.97,1474.16 2098.97,878.878 
  "/>
<polyline clip-path="url(#clip770)" style="stroke:#000000; stroke-linecap:butt; stroke-linejoin:round; stroke-width:4; stroke-opacity:1; fill:none" points="
  283.426,1474.16 2352.76,1474.16 
  "/>
<polyline clip-path="url(#clip770)" style="stroke:#000000; stroke-linecap:butt; stroke-linejoin:round; stroke-width:4; stroke-opacity:1; fill:none" points="
  537.212,1474.16 537.212,1455.27 
  "/>
<polyline clip-path="url(#clip770)" style="stroke:#000000; stroke-linecap:butt; stroke-linejoin:round; stroke-width:4; stroke-opacity:1; fill:none" points="
  927.652,1474.16 927.652,1455.27 
  "/>
<polyline clip-path="url(#clip770)" style="stroke:#000000; stroke-linecap:butt; stroke-linejoin:round; stroke-width:4; stroke-opacity:1; fill:none" points="
  1318.09,1474.16 1318.09,1455.27 
  "/>
<polyline clip-path="url(#clip770)" style="stroke:#000000; stroke-linecap:butt; stroke-linejoin:round; stroke-width:4; stroke-opacity:1; fill:none" points="
  1708.53,1474.16 1708.53,1455.27 
  "/>
<polyline clip-path="url(#clip770)" style="stroke:#000000; stroke-linecap:butt; stroke-linejoin:round; stroke-width:4; stroke-opacity:1; fill:none" points="
  2098.97,1474.16 2098.97,1455.27 
  "/>
<path clip-path="url(#clip770)" d="M486.631 1552.44 L494.27 1552.44 L494.27 1526.07 L485.96 1527.74 L485.96 1523.48 L494.224 1521.81 L498.9 1521.81 L498.9 1552.44 L506.539 1552.44 L506.539 1556.37 L486.631 1556.37 L486.631 1552.44 Z" fill="#000000" fill-rule="evenodd" fill-opacity="1" /><path clip-path="url(#clip770)" d="M525.983 1524.89 Q522.372 1524.89 520.543 1528.46 Q518.738 1532 518.738 1539.13 Q518.738 1546.23 520.543 1549.8 Q522.372 1553.34 525.983 1553.34 Q529.617 1553.34 531.423 1549.8 Q533.251 1546.23 533.251 1539.13 Q533.251 1532 531.423 1528.46 Q529.617 1524.89 525.983 1524.89 M525.983 1521.19 Q531.793 1521.19 534.849 1525.79 Q537.927 1530.38 537.927 1539.13 Q537.927 1547.85 534.849 1552.46 Q531.793 1557.04 525.983 1557.04 Q520.173 1557.04 517.094 1552.46 Q514.039 1547.85 514.039 1539.13 Q514.039 1530.38 517.094 1525.79 Q520.173 1521.19 525.983 1521.19 Z" fill="#000000" fill-rule="evenodd" fill-opacity="1" /><path clip-path="url(#clip770)" d="M537.927 1515.29 L562.039 1515.29 L562.039 1518.49 L537.927 1518.49 L537.927 1515.29 Z" fill="#000000" fill-rule="evenodd" fill-opacity="1" /><path clip-path="url(#clip770)" d="M580.677 1504.19 L571.085 1519.18 L580.677 1519.18 L580.677 1504.19 M579.681 1500.88 L584.458 1500.88 L584.458 1519.18 L588.464 1519.18 L588.464 1522.34 L584.458 1522.34 L584.458 1528.96 L580.677 1528.96 L580.677 1522.34 L568.001 1522.34 L568.001 1518.67 L579.681 1500.88 Z" fill="#000000" fill-rule="evenodd" fill-opacity="1" /><path clip-path="url(#clip770)" d="M877.917 1552.44 L885.556 1552.44 L885.556 1526.07 L877.246 1527.74 L877.246 1523.48 L885.51 1521.81 L890.186 1521.81 L890.186 1552.44 L897.825 1552.44 L897.825 1556.37 L877.917 1556.37 L877.917 1552.44 Z" fill="#000000" fill-rule="evenodd" fill-opacity="1" /><path clip-path="url(#clip770)" d="M917.269 1524.89 Q913.658 1524.89 911.829 1528.46 Q910.024 1532 910.024 1539.13 Q910.024 1546.23 911.829 1549.8 Q913.658 1553.34 917.269 1553.34 Q920.903 1553.34 922.709 1549.8 Q924.537 1546.23 924.537 1539.13 Q924.537 1532 922.709 1528.46 Q920.903 1524.89 917.269 1524.89 M917.269 1521.19 Q923.079 1521.19 926.135 1525.79 Q929.213 1530.38 929.213 1539.13 Q929.213 1547.85 926.135 1552.46 Q923.079 1557.04 917.269 1557.04 Q911.459 1557.04 908.38 1552.46 Q905.325 1547.85 905.325 1539.13 Q905.325 1530.38 908.38 1525.79 Q911.459 1521.19 917.269 1521.19 Z" fill="#000000" fill-rule="evenodd" fill-opacity="1" /><path clip-path="url(#clip770)" d="M929.213 1515.29 L953.325 1515.29 L953.325 1518.49 L929.213 1518.49 L929.213 1515.29 Z" fill="#000000" fill-rule="evenodd" fill-opacity="1" /><path clip-path="url(#clip770)" d="M964.798 1525.76 L978.057 1525.76 L978.057 1528.96 L960.227 1528.96 L960.227 1525.76 Q962.39 1523.53 966.114 1519.76 Q969.857 1515.98 970.816 1514.89 Q972.64 1512.84 973.355 1511.43 Q974.089 1510 974.089 1508.63 Q974.089 1506.39 972.509 1504.98 Q970.948 1503.57 968.427 1503.57 Q966.641 1503.57 964.647 1504.19 Q962.672 1504.81 960.415 1506.07 L960.415 1502.24 Q962.71 1501.31 964.704 1500.84 Q966.697 1500.37 968.352 1500.37 Q972.716 1500.37 975.311 1502.56 Q977.907 1504.74 977.907 1508.39 Q977.907 1510.12 977.248 1511.68 Q976.609 1513.22 974.897 1515.33 Q974.427 1515.87 971.907 1518.49 Q969.387 1521.08 964.798 1525.76 Z" fill="#000000" fill-rule="evenodd" fill-opacity="1" /><path clip-path="url(#clip770)" d="M1283.07 1552.44 L1290.71 1552.44 L1290.71 1526.07 L1282.4 1527.74 L1282.4 1523.48 L1290.67 1521.81 L1295.34 1521.81 L1295.34 1552.44 L1302.98 1552.44 L1302.98 1556.37 L1283.07 1556.37 L1283.07 1552.44 Z" fill="#000000" fill-rule="evenodd" fill-opacity="1" /><path clip-path="url(#clip770)" d="M1322.43 1524.89 Q1318.81 1524.89 1316.99 1528.46 Q1315.18 1532 1315.18 1539.13 Q1315.18 1546.23 1316.99 1549.8 Q1318.81 1553.34 1322.43 1553.34 Q1326.06 1553.34 1327.87 1549.8 Q1329.69 1546.23 1329.69 1539.13 Q1329.69 1532 1327.87 1528.46 Q1326.06 1524.89 1322.43 1524.89 M1322.43 1521.19 Q1328.24 1521.19 1331.29 1525.79 Q1334.37 1530.38 1334.37 1539.13 Q1334.37 1547.85 1331.29 1552.46 Q1328.24 1557.04 1322.43 1557.04 Q1316.62 1557.04 1313.54 1552.46 Q1310.48 1547.85 1310.48 1539.13 Q1310.48 1530.38 1313.54 1525.79 Q1316.62 1521.19 1322.43 1521.19 Z" fill="#000000" fill-rule="evenodd" fill-opacity="1" /><path clip-path="url(#clip770)" d="M1344.07 1503.38 Q1341.14 1503.38 1339.65 1506.28 Q1338.19 1509.16 1338.19 1514.95 Q1338.19 1520.72 1339.65 1523.62 Q1341.14 1526.5 1344.07 1526.5 Q1347.03 1526.5 1348.49 1523.62 Q1349.98 1520.72 1349.98 1514.95 Q1349.98 1509.16 1348.49 1506.28 Q1347.03 1503.38 1344.07 1503.38 M1344.07 1500.37 Q1348.8 1500.37 1351.28 1504.12 Q1353.78 1507.84 1353.78 1514.95 Q1353.78 1522.04 1351.28 1525.78 Q1348.8 1529.51 1344.07 1529.51 Q1339.35 1529.51 1336.85 1525.78 Q1334.37 1522.04 1334.37 1514.95 Q1334.37 1507.84 1336.85 1504.12 Q1339.35 1500.37 1344.07 1500.37 Z" fill="#000000" fill-rule="evenodd" fill-opacity="1" /><path clip-path="url(#clip770)" d="M1674.3 1552.44 L1681.94 1552.44 L1681.94 1526.07 L1673.63 1527.74 L1673.63 1523.48 L1681.9 1521.81 L1686.57 1521.81 L1686.57 1552.44 L1694.21 1552.44 L1694.21 1556.37 L1674.3 1556.37 L1674.3 1552.44 Z" fill="#000000" fill-rule="evenodd" fill-opacity="1" /><path clip-path="url(#clip770)" d="M1713.66 1524.89 Q1710.04 1524.89 1708.22 1528.46 Q1706.41 1532 1706.41 1539.13 Q1706.41 1546.23 1708.22 1549.8 Q1710.04 1553.34 1713.66 1553.34 Q1717.29 1553.34 1719.09 1549.8 Q1720.92 1546.23 1720.92 1539.13 Q1720.92 1532 1719.09 1528.46 Q1717.29 1524.89 1713.66 1524.89 M1713.66 1521.19 Q1719.47 1521.19 1722.52 1525.79 Q1725.6 1530.38 1725.6 1539.13 Q1725.6 1547.85 1722.52 1552.46 Q1719.47 1557.04 1713.66 1557.04 Q1707.84 1557.04 1704.77 1552.46 Q1701.71 1547.85 1701.71 1539.13 Q1701.71 1530.38 1704.77 1525.79 Q1707.84 1521.19 1713.66 1521.19 Z" fill="#000000" fill-rule="evenodd" fill-opacity="1" /><path clip-path="url(#clip770)" d="M1730.17 1525.76 L1743.43 1525.76 L1743.43 1528.96 L1725.6 1528.96 L1725.6 1525.76 Q1727.76 1523.53 1731.49 1519.76 Q1735.23 1515.98 1736.19 1514.89 Q1738.01 1512.84 1738.73 1511.43 Q1739.46 1510 1739.46 1508.63 Q1739.46 1506.39 1737.88 1504.98 Q1736.32 1503.57 1733.8 1503.57 Q1732.01 1503.57 1730.02 1504.19 Q1728.04 1504.81 1725.79 1506.07 L1725.79 1502.24 Q1728.08 1501.31 1730.08 1500.84 Q1732.07 1500.37 1733.72 1500.37 Q1738.09 1500.37 1740.68 1502.56 Q1743.28 1504.74 1743.28 1508.39 Q1743.28 1510.12 1742.62 1511.68 Q1741.98 1513.22 1740.27 1515.33 Q1739.8 1515.87 1737.28 1518.49 Q1734.76 1521.08 1730.17 1525.76 Z" fill="#000000" fill-rule="evenodd" fill-opacity="1" /><path clip-path="url(#clip770)" d="M2063.43 1552.44 L2071.07 1552.44 L2071.07 1526.07 L2062.76 1527.74 L2062.76 1523.48 L2071.02 1521.81 L2075.69 1521.81 L2075.69 1552.44 L2083.33 1552.44 L2083.33 1556.37 L2063.43 1556.37 L2063.43 1552.44 Z" fill="#000000" fill-rule="evenodd" fill-opacity="1" /><path clip-path="url(#clip770)" d="M2102.78 1524.89 Q2099.17 1524.89 2097.34 1528.46 Q2095.53 1532 2095.53 1539.13 Q2095.53 1546.23 2097.34 1549.8 Q2099.17 1553.34 2102.78 1553.34 Q2106.41 1553.34 2108.22 1549.8 Q2110.05 1546.23 2110.05 1539.13 Q2110.05 1532 2108.22 1528.46 Q2106.41 1524.89 2102.78 1524.89 M2102.78 1521.19 Q2108.59 1521.19 2111.64 1525.79 Q2114.72 1530.38 2114.72 1539.13 Q2114.72 1547.85 2111.64 1552.46 Q2108.59 1557.04 2102.78 1557.04 Q2096.97 1557.04 2093.89 1552.46 Q2090.83 1547.85 2090.83 1539.13 Q2090.83 1530.38 2093.89 1525.79 Q2096.97 1521.19 2102.78 1521.19 Z" fill="#000000" fill-rule="evenodd" fill-opacity="1" /><path clip-path="url(#clip770)" d="M2127.4 1504.19 L2117.81 1519.18 L2127.4 1519.18 L2127.4 1504.19 M2126.4 1500.88 L2131.18 1500.88 L2131.18 1519.18 L2135.19 1519.18 L2135.19 1522.34 L2131.18 1522.34 L2131.18 1528.96 L2127.4 1528.96 L2127.4 1522.34 L2114.72 1522.34 L2114.72 1518.67 L2126.4 1500.88 Z" fill="#000000" fill-rule="evenodd" fill-opacity="1" /><polyline clip-path="url(#clip773)" style="stroke:#000000; stroke-linecap:butt; stroke-linejoin:round; stroke-width:2; stroke-opacity:0.1; fill:none" points="
  283.426,1369.08 2352.76,1369.08 
  "/>
<polyline clip-path="url(#clip773)" style="stroke:#000000; stroke-linecap:butt; stroke-linejoin:round; stroke-width:2; stroke-opacity:0.1; fill:none" points="
  283.426,1215.31 2352.76,1215.31 
  "/>
<polyline clip-path="url(#clip773)" style="stroke:#000000; stroke-linecap:butt; stroke-linejoin:round; stroke-width:2; stroke-opacity:0.1; fill:none" points="
  283.426,1061.53 2352.76,1061.53 
  "/>
<polyline clip-path="url(#clip773)" style="stroke:#000000; stroke-linecap:butt; stroke-linejoin:round; stroke-width:2; stroke-opacity:0.1; fill:none" points="
  283.426,907.759 2352.76,907.759 
  "/>
<polyline clip-path="url(#clip770)" style="stroke:#000000; stroke-linecap:butt; stroke-linejoin:round; stroke-width:4; stroke-opacity:1; fill:none" points="
  283.426,1474.16 283.426,878.878 
  "/>
<polyline clip-path="url(#clip770)" style="stroke:#000000; stroke-linecap:butt; stroke-linejoin:round; stroke-width:4; stroke-opacity:1; fill:none" points="
  283.426,1369.08 302.324,1369.08 
  "/>
<polyline clip-path="url(#clip770)" style="stroke:#000000; stroke-linecap:butt; stroke-linejoin:round; stroke-width:4; stroke-opacity:1; fill:none" points="
  283.426,1215.31 302.324,1215.31 
  "/>
<polyline clip-path="url(#clip770)" style="stroke:#000000; stroke-linecap:butt; stroke-linejoin:round; stroke-width:4; stroke-opacity:1; fill:none" points="
  283.426,1061.53 302.324,1061.53 
  "/>
<polyline clip-path="url(#clip770)" style="stroke:#000000; stroke-linecap:butt; stroke-linejoin:round; stroke-width:4; stroke-opacity:1; fill:none" points="
  283.426,907.759 302.324,907.759 
  "/>
<path clip-path="url(#clip770)" d="M50.9921 1369.54 L80.6679 1369.54 L80.6679 1373.47 L50.9921 1373.47 L50.9921 1369.54 Z" fill="#000000" fill-rule="evenodd" fill-opacity="1" /><path clip-path="url(#clip770)" d="M100.76 1354.88 Q97.1493 1354.88 95.3206 1358.45 Q93.515 1361.99 93.515 1369.12 Q93.515 1376.23 95.3206 1379.79 Q97.1493 1383.33 100.76 1383.33 Q104.395 1383.33 106.2 1379.79 Q108.029 1376.23 108.029 1369.12 Q108.029 1361.99 106.2 1358.45 Q104.395 1354.88 100.76 1354.88 M100.76 1351.18 Q106.571 1351.18 109.626 1355.79 Q112.705 1360.37 112.705 1369.12 Q112.705 1377.85 109.626 1382.45 Q106.571 1387.04 100.76 1387.04 Q94.9502 1387.04 91.8715 1382.45 Q88.816 1377.85 88.816 1369.12 Q88.816 1360.37 91.8715 1355.79 Q94.9502 1351.18 100.76 1351.18 Z" fill="#000000" fill-rule="evenodd" fill-opacity="1" /><path clip-path="url(#clip770)" d="M120.922 1380.48 L125.807 1380.48 L125.807 1386.36 L120.922 1386.36 L120.922 1380.48 Z" fill="#000000" fill-rule="evenodd" fill-opacity="1" /><path clip-path="url(#clip770)" d="M145.992 1354.88 Q142.381 1354.88 140.552 1358.45 Q138.746 1361.99 138.746 1369.12 Q138.746 1376.23 140.552 1379.79 Q142.381 1383.33 145.992 1383.33 Q149.626 1383.33 151.431 1379.79 Q153.26 1376.23 153.26 1369.12 Q153.26 1361.99 151.431 1358.45 Q149.626 1354.88 145.992 1354.88 M145.992 1351.18 Q151.802 1351.18 154.857 1355.79 Q157.936 1360.37 157.936 1369.12 Q157.936 1377.85 154.857 1382.45 Q151.802 1387.04 145.992 1387.04 Q140.181 1387.04 137.103 1382.45 Q134.047 1377.85 134.047 1369.12 Q134.047 1360.37 137.103 1355.79 Q140.181 1351.18 145.992 1351.18 Z" fill="#000000" fill-rule="evenodd" fill-opacity="1" /><path clip-path="url(#clip770)" d="M176.153 1354.88 Q172.542 1354.88 170.714 1358.45 Q168.908 1361.99 168.908 1369.12 Q168.908 1376.23 170.714 1379.79 Q172.542 1383.33 176.153 1383.33 Q179.788 1383.33 181.593 1379.79 Q183.422 1376.23 183.422 1369.12 Q183.422 1361.99 181.593 1358.45 Q179.788 1354.88 176.153 1354.88 M176.153 1351.18 Q181.964 1351.18 185.019 1355.79 Q188.098 1360.37 188.098 1369.12 Q188.098 1377.85 185.019 1382.45 Q181.964 1387.04 176.153 1387.04 Q170.343 1387.04 167.265 1382.45 Q164.209 1377.85 164.209 1369.12 Q164.209 1360.37 167.265 1355.79 Q170.343 1351.18 176.153 1351.18 Z" fill="#000000" fill-rule="evenodd" fill-opacity="1" /><path clip-path="url(#clip770)" d="M206.315 1354.88 Q202.704 1354.88 200.876 1358.45 Q199.07 1361.99 199.07 1369.12 Q199.07 1376.23 200.876 1379.79 Q202.704 1383.33 206.315 1383.33 Q209.95 1383.33 211.755 1379.79 Q213.584 1376.23 213.584 1369.12 Q213.584 1361.99 211.755 1358.45 Q209.95 1354.88 206.315 1354.88 M206.315 1351.18 Q212.126 1351.18 215.181 1355.79 Q218.26 1360.37 218.26 1369.12 Q218.26 1377.85 215.181 1382.45 Q212.126 1387.04 206.315 1387.04 Q200.505 1387.04 197.427 1382.45 Q194.371 1377.85 194.371 1369.12 Q194.371 1360.37 197.427 1355.79 Q200.505 1351.18 206.315 1351.18 Z" fill="#000000" fill-rule="evenodd" fill-opacity="1" /><path clip-path="url(#clip770)" d="M226.524 1351.8 L244.88 1351.8 L244.88 1355.74 L230.806 1355.74 L230.806 1364.21 Q231.824 1363.86 232.843 1363.7 Q233.862 1363.52 234.88 1363.52 Q240.667 1363.52 244.047 1366.69 Q247.426 1369.86 247.426 1375.28 Q247.426 1380.85 243.954 1383.96 Q240.482 1387.04 234.162 1387.04 Q231.987 1387.04 229.718 1386.66 Q227.473 1386.29 225.065 1385.55 L225.065 1380.85 Q227.149 1381.99 229.371 1382.54 Q231.593 1383.1 234.07 1383.1 Q238.074 1383.1 240.412 1380.99 Q242.75 1378.89 242.75 1375.28 Q242.75 1371.66 240.412 1369.56 Q238.074 1367.45 234.07 1367.45 Q232.195 1367.45 230.32 1367.87 Q228.468 1368.29 226.524 1369.16 L226.524 1351.8 Z" fill="#000000" fill-rule="evenodd" fill-opacity="1" /><path clip-path="url(#clip770)" d="M99.765 1201.11 Q96.1539 1201.11 94.3252 1204.67 Q92.5197 1208.21 92.5197 1215.34 Q92.5197 1222.45 94.3252 1226.01 Q96.1539 1229.56 99.765 1229.56 Q103.399 1229.56 105.205 1226.01 Q107.033 1222.45 107.033 1215.34 Q107.033 1208.21 105.205 1204.67 Q103.399 1201.11 99.765 1201.11 M99.765 1197.4 Q105.575 1197.4 108.631 1202.01 Q111.709 1206.59 111.709 1215.34 Q111.709 1224.07 108.631 1228.68 Q105.575 1233.26 99.765 1233.26 Q93.9549 1233.26 90.8762 1228.68 Q87.8206 1224.07 87.8206 1215.34 Q87.8206 1206.59 90.8762 1202.01 Q93.9549 1197.4 99.765 1197.4 Z" fill="#000000" fill-rule="evenodd" fill-opacity="1" /><path clip-path="url(#clip770)" d="M119.927 1226.71 L124.811 1226.71 L124.811 1232.59 L119.927 1232.59 L119.927 1226.71 Z" fill="#000000" fill-rule="evenodd" fill-opacity="1" /><path clip-path="url(#clip770)" d="M144.996 1201.11 Q141.385 1201.11 139.556 1204.67 Q137.751 1208.21 137.751 1215.34 Q137.751 1222.45 139.556 1226.01 Q141.385 1229.56 144.996 1229.56 Q148.63 1229.56 150.436 1226.01 Q152.265 1222.45 152.265 1215.34 Q152.265 1208.21 150.436 1204.67 Q148.63 1201.11 144.996 1201.11 M144.996 1197.4 Q150.806 1197.4 153.862 1202.01 Q156.941 1206.59 156.941 1215.34 Q156.941 1224.07 153.862 1228.68 Q150.806 1233.26 144.996 1233.26 Q139.186 1233.26 136.107 1228.68 Q133.052 1224.07 133.052 1215.34 Q133.052 1206.59 136.107 1202.01 Q139.186 1197.4 144.996 1197.4 Z" fill="#000000" fill-rule="evenodd" fill-opacity="1" /><path clip-path="url(#clip770)" d="M175.158 1201.11 Q171.547 1201.11 169.718 1204.67 Q167.913 1208.21 167.913 1215.34 Q167.913 1222.45 169.718 1226.01 Q171.547 1229.56 175.158 1229.56 Q178.792 1229.56 180.598 1226.01 Q182.427 1222.45 182.427 1215.34 Q182.427 1208.21 180.598 1204.67 Q178.792 1201.11 175.158 1201.11 M175.158 1197.4 Q180.968 1197.4 184.024 1202.01 Q187.103 1206.59 187.103 1215.34 Q187.103 1224.07 184.024 1228.68 Q180.968 1233.26 175.158 1233.26 Q169.348 1233.26 166.269 1228.68 Q163.214 1224.07 163.214 1215.34 Q163.214 1206.59 166.269 1202.01 Q169.348 1197.4 175.158 1197.4 Z" fill="#000000" fill-rule="evenodd" fill-opacity="1" /><path clip-path="url(#clip770)" d="M205.32 1201.11 Q201.709 1201.11 199.88 1204.67 Q198.075 1208.21 198.075 1215.34 Q198.075 1222.45 199.88 1226.01 Q201.709 1229.56 205.32 1229.56 Q208.954 1229.56 210.76 1226.01 Q212.588 1222.45 212.588 1215.34 Q212.588 1208.21 210.76 1204.67 Q208.954 1201.11 205.32 1201.11 M205.32 1197.4 Q211.13 1197.4 214.186 1202.01 Q217.264 1206.59 217.264 1215.34 Q217.264 1224.07 214.186 1228.68 Q211.13 1233.26 205.32 1233.26 Q199.51 1233.26 196.431 1228.68 Q193.376 1224.07 193.376 1215.34 Q193.376 1206.59 196.431 1202.01 Q199.51 1197.4 205.32 1197.4 Z" fill="#000000" fill-rule="evenodd" fill-opacity="1" /><path clip-path="url(#clip770)" d="M235.482 1201.11 Q231.871 1201.11 230.042 1204.67 Q228.237 1208.21 228.237 1215.34 Q228.237 1222.45 230.042 1226.01 Q231.871 1229.56 235.482 1229.56 Q239.116 1229.56 240.922 1226.01 Q242.75 1222.45 242.75 1215.34 Q242.75 1208.21 240.922 1204.67 Q239.116 1201.11 235.482 1201.11 M235.482 1197.4 Q241.292 1197.4 244.348 1202.01 Q247.426 1206.59 247.426 1215.34 Q247.426 1224.07 244.348 1228.68 Q241.292 1233.26 235.482 1233.26 Q229.672 1233.26 226.593 1228.68 Q223.537 1224.07 223.537 1215.34 Q223.537 1206.59 226.593 1202.01 Q229.672 1197.4 235.482 1197.4 Z" fill="#000000" fill-rule="evenodd" fill-opacity="1" /><path clip-path="url(#clip770)" d="M100.76 1047.33 Q97.1493 1047.33 95.3206 1050.9 Q93.515 1054.44 93.515 1061.57 Q93.515 1068.67 95.3206 1072.24 Q97.1493 1075.78 100.76 1075.78 Q104.395 1075.78 106.2 1072.24 Q108.029 1068.67 108.029 1061.57 Q108.029 1054.44 106.2 1050.9 Q104.395 1047.33 100.76 1047.33 M100.76 1043.63 Q106.571 1043.63 109.626 1048.24 Q112.705 1052.82 112.705 1061.57 Q112.705 1070.3 109.626 1074.9 Q106.571 1079.49 100.76 1079.49 Q94.9502 1079.49 91.8715 1074.9 Q88.816 1070.3 88.816 1061.57 Q88.816 1052.82 91.8715 1048.24 Q94.9502 1043.63 100.76 1043.63 Z" fill="#000000" fill-rule="evenodd" fill-opacity="1" /><path clip-path="url(#clip770)" d="M120.922 1072.93 L125.807 1072.93 L125.807 1078.81 L120.922 1078.81 L120.922 1072.93 Z" fill="#000000" fill-rule="evenodd" fill-opacity="1" /><path clip-path="url(#clip770)" d="M145.992 1047.33 Q142.381 1047.33 140.552 1050.9 Q138.746 1054.44 138.746 1061.57 Q138.746 1068.67 140.552 1072.24 Q142.381 1075.78 145.992 1075.78 Q149.626 1075.78 151.431 1072.24 Q153.26 1068.67 153.26 1061.57 Q153.26 1054.44 151.431 1050.9 Q149.626 1047.33 145.992 1047.33 M145.992 1043.63 Q151.802 1043.63 154.857 1048.24 Q157.936 1052.82 157.936 1061.57 Q157.936 1070.3 154.857 1074.9 Q151.802 1079.49 145.992 1079.49 Q140.181 1079.49 137.103 1074.9 Q134.047 1070.3 134.047 1061.57 Q134.047 1052.82 137.103 1048.24 Q140.181 1043.63 145.992 1043.63 Z" fill="#000000" fill-rule="evenodd" fill-opacity="1" /><path clip-path="url(#clip770)" d="M176.153 1047.33 Q172.542 1047.33 170.714 1050.9 Q168.908 1054.44 168.908 1061.57 Q168.908 1068.67 170.714 1072.24 Q172.542 1075.78 176.153 1075.78 Q179.788 1075.78 181.593 1072.24 Q183.422 1068.67 183.422 1061.57 Q183.422 1054.44 181.593 1050.9 Q179.788 1047.33 176.153 1047.33 M176.153 1043.63 Q181.964 1043.63 185.019 1048.24 Q188.098 1052.82 188.098 1061.57 Q188.098 1070.3 185.019 1074.9 Q181.964 1079.49 176.153 1079.49 Q170.343 1079.49 167.265 1074.9 Q164.209 1070.3 164.209 1061.57 Q164.209 1052.82 167.265 1048.24 Q170.343 1043.63 176.153 1043.63 Z" fill="#000000" fill-rule="evenodd" fill-opacity="1" /><path clip-path="url(#clip770)" d="M206.315 1047.33 Q202.704 1047.33 200.876 1050.9 Q199.07 1054.44 199.07 1061.57 Q199.07 1068.67 200.876 1072.24 Q202.704 1075.78 206.315 1075.78 Q209.95 1075.78 211.755 1072.24 Q213.584 1068.67 213.584 1061.57 Q213.584 1054.44 211.755 1050.9 Q209.95 1047.33 206.315 1047.33 M206.315 1043.63 Q212.126 1043.63 215.181 1048.24 Q218.26 1052.82 218.26 1061.57 Q218.26 1070.3 215.181 1074.9 Q212.126 1079.49 206.315 1079.49 Q200.505 1079.49 197.427 1074.9 Q194.371 1070.3 194.371 1061.57 Q194.371 1052.82 197.427 1048.24 Q200.505 1043.63 206.315 1043.63 Z" fill="#000000" fill-rule="evenodd" fill-opacity="1" /><path clip-path="url(#clip770)" d="M226.524 1044.25 L244.88 1044.25 L244.88 1048.19 L230.806 1048.19 L230.806 1056.66 Q231.824 1056.31 232.843 1056.15 Q233.862 1055.97 234.88 1055.97 Q240.667 1055.97 244.047 1059.14 Q247.426 1062.31 247.426 1067.73 Q247.426 1073.3 243.954 1076.41 Q240.482 1079.49 234.162 1079.49 Q231.987 1079.49 229.718 1079.11 Q227.473 1078.74 225.065 1078 L225.065 1073.3 Q227.149 1074.44 229.371 1074.99 Q231.593 1075.55 234.07 1075.55 Q238.074 1075.55 240.412 1073.44 Q242.75 1071.34 242.75 1067.73 Q242.75 1064.11 240.412 1062.01 Q238.074 1059.9 234.07 1059.9 Q232.195 1059.9 230.32 1060.32 Q228.468 1060.74 226.524 1061.61 L226.524 1044.25 Z" fill="#000000" fill-rule="evenodd" fill-opacity="1" /><path clip-path="url(#clip770)" d="M99.765 893.557 Q96.1539 893.557 94.3252 897.122 Q92.5197 900.664 92.5197 907.793 Q92.5197 914.9 94.3252 918.465 Q96.1539 922.006 99.765 922.006 Q103.399 922.006 105.205 918.465 Q107.033 914.9 107.033 907.793 Q107.033 900.664 105.205 897.122 Q103.399 893.557 99.765 893.557 M99.765 889.854 Q105.575 889.854 108.631 894.46 Q111.709 899.043 111.709 907.793 Q111.709 916.52 108.631 921.127 Q105.575 925.71 99.765 925.71 Q93.9549 925.71 90.8762 921.127 Q87.8206 916.52 87.8206 907.793 Q87.8206 899.043 90.8762 894.46 Q93.9549 889.854 99.765 889.854 Z" fill="#000000" fill-rule="evenodd" fill-opacity="1" /><path clip-path="url(#clip770)" d="M119.927 919.159 L124.811 919.159 L124.811 925.039 L119.927 925.039 L119.927 919.159 Z" fill="#000000" fill-rule="evenodd" fill-opacity="1" /><path clip-path="url(#clip770)" d="M144.996 893.557 Q141.385 893.557 139.556 897.122 Q137.751 900.664 137.751 907.793 Q137.751 914.9 139.556 918.465 Q141.385 922.006 144.996 922.006 Q148.63 922.006 150.436 918.465 Q152.265 914.9 152.265 907.793 Q152.265 900.664 150.436 897.122 Q148.63 893.557 144.996 893.557 M144.996 889.854 Q150.806 889.854 153.862 894.46 Q156.941 899.043 156.941 907.793 Q156.941 916.52 153.862 921.127 Q150.806 925.71 144.996 925.71 Q139.186 925.71 136.107 921.127 Q133.052 916.52 133.052 907.793 Q133.052 899.043 136.107 894.46 Q139.186 889.854 144.996 889.854 Z" fill="#000000" fill-rule="evenodd" fill-opacity="1" /><path clip-path="url(#clip770)" d="M175.158 893.557 Q171.547 893.557 169.718 897.122 Q167.913 900.664 167.913 907.793 Q167.913 914.9 169.718 918.465 Q171.547 922.006 175.158 922.006 Q178.792 922.006 180.598 918.465 Q182.427 914.9 182.427 907.793 Q182.427 900.664 180.598 897.122 Q178.792 893.557 175.158 893.557 M175.158 889.854 Q180.968 889.854 184.024 894.46 Q187.103 899.043 187.103 907.793 Q187.103 916.52 184.024 921.127 Q180.968 925.71 175.158 925.71 Q169.348 925.71 166.269 921.127 Q163.214 916.52 163.214 907.793 Q163.214 899.043 166.269 894.46 Q169.348 889.854 175.158 889.854 Z" fill="#000000" fill-rule="evenodd" fill-opacity="1" /><path clip-path="url(#clip770)" d="M196.13 921.104 L203.769 921.104 L203.769 894.738 L195.459 896.405 L195.459 892.145 L203.723 890.479 L208.399 890.479 L208.399 921.104 L216.038 921.104 L216.038 925.039 L196.13 925.039 L196.13 921.104 Z" fill="#000000" fill-rule="evenodd" fill-opacity="1" /><path clip-path="url(#clip770)" d="M235.482 893.557 Q231.871 893.557 230.042 897.122 Q228.237 900.664 228.237 907.793 Q228.237 914.9 230.042 918.465 Q231.871 922.006 235.482 922.006 Q239.116 922.006 240.922 918.465 Q242.75 914.9 242.75 907.793 Q242.75 900.664 240.922 897.122 Q239.116 893.557 235.482 893.557 M235.482 889.854 Q241.292 889.854 244.348 894.46 Q247.426 899.043 247.426 907.793 Q247.426 916.52 244.348 921.127 Q241.292 925.71 235.482 925.71 Q229.672 925.71 226.593 921.127 Q223.537 916.52 223.537 907.793 Q223.537 899.043 226.593 894.46 Q229.672 889.854 235.482 889.854 Z" fill="#000000" fill-rule="evenodd" fill-opacity="1" /><polyline clip-path="url(#clip773)" style="stroke:#009af9; stroke-linecap:butt; stroke-linejoin:round; stroke-width:4; stroke-opacity:1; fill:none" points="
  341.992,1215.31 402.998,1215.31 464.005,1215.31 525.011,1215.31 586.017,1215.31 647.023,1215.31 708.029,1215.31 769.035,1215.31 830.042,1215.31 891.048,1215.31 
  952.054,1215.31 1013.06,1215.31 1074.07,1215.31 1135.07,1215.31 1196.08,1215.31 1257.08,1215.31 1318.09,1215.31 1379.1,1215.31 1440.1,1215.31 1501.11,1215.31 
  1562.12,1215.31 1623.12,1215.31 1684.13,1215.31 1745.13,1215.31 1806.14,1215.31 1867.15,1215.31 1928.15,1215.31 1989.16,1215.31 2050.17,1215.31 2111.17,1215.31 
  2172.18,1215.31 2233.18,1215.31 2294.19,1215.31 
  "/>
<polyline clip-path="url(#clip773)" style="stroke:#e26f46; stroke-linecap:butt; stroke-linejoin:round; stroke-width:8; stroke-opacity:1; fill:none" stroke-dasharray="32, 20" points="
  341.992,1215.31 402.998,1215.31 464.005,1215.31 525.011,1215.31 586.017,1215.31 647.023,1215.31 708.029,1215.31 769.035,1215.31 830.042,1215.31 891.048,1215.31 
  952.054,1215.31 1013.06,1215.31 1074.07,1215.31 1135.07,1215.31 1196.08,1215.31 1257.08,1215.31 1318.09,1215.31 1379.1,1215.31 1440.1,1215.31 1501.11,1215.31 
  1562.12,1215.31 1623.12,1215.31 1684.13,1215.31 1745.13,1215.31 1806.14,1215.31 1867.15,1215.31 1928.15,1215.31 1989.16,1215.31 2050.17,1215.31 2111.17,1215.31 
  2172.18,1215.31 2233.18,1215.31 2294.19,1215.31 
  "/>
<polyline clip-path="url(#clip773)" style="stroke:#3da44d; stroke-linecap:butt; stroke-linejoin:round; stroke-width:12; stroke-opacity:1; fill:none" stroke-dasharray="6, 12" points="
  341.992,1361.5 402.998,1361.51 464.005,1361.53 525.011,1361.56 586.017,1361.64 647.023,1361.78 708.029,1362.09 769.035,1362.71 830.042,1363.95 891.048,1366.43 
  952.054,1371.13 1013.06,1379.25 1074.07,1389.71 1135.07,1387.72 1196.08,1308.11 1257.08,1016.03 1318.09,895.726 1379.1,1183.8 1440.1,1457.32 1501.11,1368.93 
  1562.12,1273.95 1623.12,1327.88 1684.13,1314.27 1745.13,1316.29 1806.14,1316.47 1867.15,1318.66 1928.15,1316.37 1989.16,1317.3 2050.17,1317.09 2111.17,1317.17 
  2172.18,1317.12 2233.18,1317.14 2294.19,1317.13 
  "/>
<path clip-path="url(#clip770)" d="
M2000.84 1106.08 L2283.78 1106.08 L2283.78 898.721 L2000.84 898.721  Z
  " fill="#ffffff" fill-rule="evenodd" fill-opacity="1"/>
<polyline clip-path="url(#clip770)" style="stroke:#000000; stroke-linecap:butt; stroke-linejoin:round; stroke-width:4; stroke-opacity:1; fill:none" points="
  2000.84,1106.08 2283.78,1106.08 2283.78,898.721 2000.84,898.721 2000.84,1106.08 
  "/>
<polyline clip-path="url(#clip770)" style="stroke:#009af9; stroke-linecap:butt; stroke-linejoin:round; stroke-width:4; stroke-opacity:1; fill:none" points="
  2023.84,950.561 2161.79,950.561 
  "/>
<path clip-path="url(#clip770)" d="M2198.63 970.248 Q2196.82 974.878 2195.11 976.29 Q2193.4 977.702 2190.52 977.702 L2187.12 977.702 L2187.12 974.137 L2189.62 974.137 Q2191.38 974.137 2192.35 973.304 Q2193.33 972.471 2194.51 969.369 L2195.27 967.424 L2184.78 941.915 L2189.3 941.915 L2197.4 962.193 L2205.5 941.915 L2210.02 941.915 L2198.63 970.248 Z" fill="#000000" fill-rule="evenodd" fill-opacity="1" /><path clip-path="url(#clip770)" d="M2217.31 963.906 L2224.95 963.906 L2224.95 937.54 L2216.64 939.207 L2216.64 934.948 L2224.9 933.281 L2229.58 933.281 L2229.58 963.906 L2237.21 963.906 L2237.21 967.841 L2217.31 967.841 L2217.31 963.906 Z" fill="#000000" fill-rule="evenodd" fill-opacity="1" /><polyline clip-path="url(#clip770)" style="stroke:#e26f46; stroke-linecap:butt; stroke-linejoin:round; stroke-width:4; stroke-opacity:1; fill:none" stroke-dasharray="16, 10" points="
  2023.84,1002.4 2161.79,1002.4 
  "/>
<path clip-path="url(#clip770)" d="M2198.63 1022.09 Q2196.82 1026.72 2195.11 1028.13 Q2193.4 1029.54 2190.52 1029.54 L2187.12 1029.54 L2187.12 1025.98 L2189.62 1025.98 Q2191.38 1025.98 2192.35 1025.14 Q2193.33 1024.31 2194.51 1021.21 L2195.27 1019.26 L2184.78 993.755 L2189.3 993.755 L2197.4 1014.03 L2205.5 993.755 L2210.02 993.755 L2198.63 1022.09 Z" fill="#000000" fill-rule="evenodd" fill-opacity="1" /><path clip-path="url(#clip770)" d="M2220.52 1015.75 L2236.84 1015.75 L2236.84 1019.68 L2214.9 1019.68 L2214.9 1015.75 Q2217.56 1012.99 2222.15 1008.36 Q2226.75 1003.71 2227.93 1002.37 Q2230.18 999.843 2231.06 998.107 Q2231.96 996.348 2231.96 994.658 Q2231.96 991.903 2230.02 990.167 Q2228.09 988.431 2224.99 988.431 Q2222.79 988.431 2220.34 989.195 Q2217.91 989.959 2215.13 991.51 L2215.13 986.788 Q2217.96 985.653 2220.41 985.075 Q2222.86 984.496 2224.9 984.496 Q2230.27 984.496 2233.46 987.181 Q2236.66 989.866 2236.66 994.357 Q2236.66 996.487 2235.85 998.408 Q2235.06 1000.31 2232.96 1002.9 Q2232.38 1003.57 2229.27 1006.79 Q2226.17 1009.98 2220.52 1015.75 Z" fill="#000000" fill-rule="evenodd" fill-opacity="1" /><polyline clip-path="url(#clip770)" style="stroke:#3da44d; stroke-linecap:butt; stroke-linejoin:round; stroke-width:4; stroke-opacity:1; fill:none" stroke-dasharray="2, 4" points="
  2023.84,1054.24 2161.79,1054.24 
  "/>
<path clip-path="url(#clip770)" d="M2198.63 1073.93 Q2196.82 1078.56 2195.11 1079.97 Q2193.4 1081.38 2190.52 1081.38 L2187.12 1081.38 L2187.12 1077.82 L2189.62 1077.82 Q2191.38 1077.82 2192.35 1076.98 Q2193.33 1076.15 2194.51 1073.05 L2195.27 1071.1 L2184.78 1045.6 L2189.3 1045.6 L2197.4 1065.87 L2205.5 1045.6 L2210.02 1045.6 L2198.63 1073.93 Z" fill="#000000" fill-rule="evenodd" fill-opacity="1" /><path clip-path="url(#clip770)" d="M2230.66 1052.89 Q2234.02 1053.6 2235.9 1055.87 Q2237.79 1058.14 2237.79 1061.47 Q2237.79 1066.59 2234.27 1069.39 Q2230.76 1072.19 2224.27 1072.19 Q2222.1 1072.19 2219.78 1071.75 Q2217.49 1071.34 2215.04 1070.48 L2215.04 1065.97 Q2216.98 1067.1 2219.3 1067.68 Q2221.61 1068.26 2224.14 1068.26 Q2228.53 1068.26 2230.83 1066.52 Q2233.14 1064.78 2233.14 1061.47 Q2233.14 1058.42 2230.99 1056.71 Q2228.86 1054.97 2225.04 1054.97 L2221.01 1054.97 L2221.01 1051.13 L2225.22 1051.13 Q2228.67 1051.13 2230.5 1049.76 Q2232.33 1048.37 2232.33 1045.78 Q2232.33 1043.12 2230.43 1041.71 Q2228.56 1040.27 2225.04 1040.27 Q2223.12 1040.27 2220.92 1040.69 Q2218.72 1041.1 2216.08 1041.98 L2216.08 1037.82 Q2218.74 1037.08 2221.06 1036.71 Q2223.4 1036.34 2225.46 1036.34 Q2230.78 1036.34 2233.88 1038.77 Q2236.98 1041.17 2236.98 1045.29 Q2236.98 1048.16 2235.34 1050.16 Q2233.7 1052.12 2230.66 1052.89 Z" fill="#000000" fill-rule="evenodd" fill-opacity="1" /></svg>
