<?xml version="1.0" encoding="utf-8"?>
<svg xmlns="http://www.w3.org/2000/svg" xmlns:xlink="http://www.w3.org/1999/xlink" width="600" height="400" viewBox="0 0 2400 1600">
<defs>
  <clipPath id="clip070">
    <rect x="0" y="0" width="2400" height="1600"/>
  </clipPath>
</defs>
<path clip-path="url(#clip070)" d="
M0 1600 L2400 1600 L2400 0 L0 0  Z
  " fill="#ffffff" fill-rule="evenodd" fill-opacity="1"/>
<defs>
  <clipPath id="clip071">
    <rect x="480" y="0" width="1681" height="1600"/>
  </clipPath>
</defs>
<path clip-path="url(#clip070)" d="
M224.098 642.531 L2352.76 642.531 L2352.76 47.2441 L224.098 47.2441  Z
  " fill="#ffffff" fill-rule="evenodd" fill-opacity="1"/>
<defs>
  <clipPath id="clip072">
    <rect x="224" y="47" width="2130" height="596"/>
  </clipPath>
</defs>
<polyline clip-path="url(#clip072)" style="stroke:#000000; stroke-linecap:butt; stroke-linejoin:round; stroke-width:2; stroke-opacity:0.1; fill:none" points="
  528.192,642.531 528.192,47.2441 
  "/>
<polyline clip-path="url(#clip072)" style="stroke:#000000; stroke-linecap:butt; stroke-linejoin:round; stroke-width:2; stroke-opacity:0.1; fill:none" points="
  1288.43,642.531 1288.43,47.2441 
  "/>
<polyline clip-path="url(#clip072)" style="stroke:#000000; stroke-linecap:butt; stroke-linejoin:round; stroke-width:2; stroke-opacity:0.1; fill:none" points="
  2048.66,642.531 2048.66,47.2441 
  "/>
<polyline clip-path="url(#clip070)" style="stroke:#000000; stroke-linecap:butt; stroke-linejoin:round; stroke-width:4; stroke-opacity:1; fill:none" points="
  224.098,642.531 2352.76,642.531 
  "/>
<polyline clip-path="url(#clip070)" style="stroke:#000000; stroke-linecap:butt; stroke-linejoin:round; stroke-width:4; stroke-opacity:1; fill:none" points="
  528.192,642.531 528.192,623.633 
  "/>
<polyline clip-path="url(#clip070)" style="stroke:#000000; stroke-linecap:butt; stroke-linejoin:round; stroke-width:4; stroke-opacity:1; fill:none" points="
  1288.43,642.531 1288.43,623.633 
  "/>
<polyline clip-path="url(#clip070)" style="stroke:#000000; stroke-linecap:butt; stroke-linejoin:round; stroke-width:4; stroke-opacity:1; fill:none" points="
  2048.66,642.531 2048.66,623.633 
  "/>
<path clip-path="url(#clip070)" d="M478.213 720.803 L485.852 720.803 L485.852 694.437 L477.542 696.104 L477.542 691.845 L485.806 690.178 L490.482 690.178 L490.482 720.803 L498.12 720.803 L498.12 724.738 L478.213 724.738 L478.213 720.803 Z" fill="#000000" fill-rule="evenodd" fill-opacity="1" /><path clip-path="url(#clip070)" d="M517.565 693.257 Q513.954 693.257 512.125 696.821 Q510.319 700.363 510.319 707.493 Q510.319 714.599 512.125 718.164 Q513.954 721.705 517.565 721.705 Q521.199 721.705 523.005 718.164 Q524.833 714.599 524.833 707.493 Q524.833 700.363 523.005 696.821 Q521.199 693.257 517.565 693.257 M517.565 689.553 Q523.375 689.553 526.43 694.159 Q529.509 698.743 529.509 707.493 Q529.509 716.219 526.43 720.826 Q523.375 725.409 517.565 725.409 Q511.755 725.409 508.676 720.826 Q505.62 716.219 505.62 707.493 Q505.62 698.743 508.676 694.159 Q511.755 689.553 517.565 689.553 Z" fill="#000000" fill-rule="evenodd" fill-opacity="1" /><path clip-path="url(#clip070)" d="M529.509 683.654 L553.621 683.654 L553.621 686.852 L529.509 686.852 L529.509 683.654 Z" fill="#000000" fill-rule="evenodd" fill-opacity="1" /><path clip-path="url(#clip070)" d="M561.859 669.247 L576.773 669.247 L576.773 672.445 L565.338 672.445 L565.338 679.328 Q566.165 679.046 566.993 678.915 Q567.821 678.764 568.648 678.764 Q573.35 678.764 576.096 681.341 Q578.842 683.918 578.842 688.319 Q578.842 692.851 576.021 695.371 Q573.2 697.873 568.065 697.873 Q566.297 697.873 564.454 697.572 Q562.63 697.271 560.674 696.669 L560.674 692.851 Q562.366 693.773 564.172 694.224 Q565.977 694.676 567.99 694.676 Q571.244 694.676 573.143 692.964 Q575.043 691.253 575.043 688.319 Q575.043 685.385 573.143 683.673 Q571.244 681.962 567.99 681.962 Q566.466 681.962 564.943 682.3 Q563.438 682.639 561.859 683.353 L561.859 669.247 Z" fill="#000000" fill-rule="evenodd" fill-opacity="1" /><path clip-path="url(#clip070)" d="M1253.41 720.803 L1261.05 720.803 L1261.05 694.437 L1252.74 696.104 L1252.74 691.845 L1261 690.178 L1265.68 690.178 L1265.68 720.803 L1273.32 720.803 L1273.32 724.738 L1253.41 724.738 L1253.41 720.803 Z" fill="#000000" fill-rule="evenodd" fill-opacity="1" /><path clip-path="url(#clip070)" d="M1292.76 693.257 Q1289.15 693.257 1287.32 696.821 Q1285.52 700.363 1285.52 707.493 Q1285.52 714.599 1287.32 718.164 Q1289.15 721.705 1292.76 721.705 Q1296.4 721.705 1298.2 718.164 Q1300.03 714.599 1300.03 707.493 Q1300.03 700.363 1298.2 696.821 Q1296.4 693.257 1292.76 693.257 M1292.76 689.553 Q1298.57 689.553 1301.63 694.159 Q1304.71 698.743 1304.71 707.493 Q1304.71 716.219 1301.63 720.826 Q1298.57 725.409 1292.76 725.409 Q1286.95 725.409 1283.87 720.826 Q1280.82 716.219 1280.82 707.493 Q1280.82 698.743 1283.87 694.159 Q1286.95 689.553 1292.76 689.553 Z" fill="#000000" fill-rule="evenodd" fill-opacity="1" /><path clip-path="url(#clip070)" d="M1314.41 671.749 Q1311.48 671.749 1309.99 674.645 Q1308.52 677.523 1308.52 683.316 Q1308.52 689.09 1309.99 691.986 Q1311.48 694.864 1314.41 694.864 Q1317.36 694.864 1318.83 691.986 Q1320.32 689.09 1320.32 683.316 Q1320.32 677.523 1318.83 674.645 Q1317.36 671.749 1314.41 671.749 M1314.41 668.74 Q1319.13 668.74 1321.61 672.482 Q1324.12 676.206 1324.12 683.316 Q1324.12 690.406 1321.61 694.149 Q1319.13 697.873 1314.41 697.873 Q1309.69 697.873 1307.19 694.149 Q1304.71 690.406 1304.71 683.316 Q1304.71 676.206 1307.19 672.482 Q1309.69 668.74 1314.41 668.74 Z" fill="#000000" fill-rule="evenodd" fill-opacity="1" /><path clip-path="url(#clip070)" d="M2014.27 720.803 L2021.9 720.803 L2021.9 694.437 L2013.59 696.104 L2013.59 691.845 L2021.86 690.178 L2026.53 690.178 L2026.53 720.803 L2034.17 720.803 L2034.17 724.738 L2014.27 724.738 L2014.27 720.803 Z" fill="#000000" fill-rule="evenodd" fill-opacity="1" /><path clip-path="url(#clip070)" d="M2053.62 693.257 Q2050.01 693.257 2048.18 696.821 Q2046.37 700.363 2046.37 707.493 Q2046.37 714.599 2048.18 718.164 Q2050.01 721.705 2053.62 721.705 Q2057.25 721.705 2059.06 718.164 Q2060.89 714.599 2060.89 707.493 Q2060.89 700.363 2059.06 696.821 Q2057.25 693.257 2053.62 693.257 M2053.62 689.553 Q2059.43 689.553 2062.48 694.159 Q2065.56 698.743 2065.56 707.493 Q2065.56 716.219 2062.48 720.826 Q2059.43 725.409 2053.62 725.409 Q2047.81 725.409 2044.73 720.826 Q2041.67 716.219 2041.67 707.493 Q2041.67 698.743 2044.73 694.159 Q2047.81 689.553 2053.62 689.553 Z" fill="#000000" fill-rule="evenodd" fill-opacity="1" /><path clip-path="url(#clip070)" d="M2066.75 669.247 L2081.66 669.247 L2081.66 672.445 L2070.23 672.445 L2070.23 679.328 Q2071.05 679.046 2071.88 678.915 Q2072.71 678.764 2073.54 678.764 Q2078.24 678.764 2080.98 681.341 Q2083.73 683.918 2083.73 688.319 Q2083.73 692.851 2080.91 695.371 Q2078.09 697.873 2072.95 697.873 Q2071.18 697.873 2069.34 697.572 Q2067.52 697.271 2065.56 696.669 L2065.56 692.851 Q2067.25 693.773 2069.06 694.224 Q2070.87 694.676 2072.88 694.676 Q2076.13 694.676 2078.03 692.964 Q2079.93 691.253 2079.93 688.319 Q2079.93 685.385 2078.03 683.673 Q2076.13 681.962 2072.88 681.962 Q2071.35 681.962 2069.83 682.3 Q2068.33 682.639 2066.75 683.353 L2066.75 669.247 Z" fill="#000000" fill-rule="evenodd" fill-opacity="1" /><path clip-path="url(#clip070)" d="M1287.49 760.05 L1287.49 770.172 L1299.55 770.172 L1299.55 774.723 L1287.49 774.723 L1287.49 794.075 Q1287.49 798.435 1288.67 799.677 Q1289.88 800.918 1293.54 800.918 L1299.55 800.918 L1299.55 805.819 L1293.54 805.819 Q1286.76 805.819 1284.18 803.305 Q1281.6 800.759 1281.6 794.075 L1281.6 774.723 L1277.3 774.723 L1277.3 770.172 L1281.6 770.172 L1281.6 760.05 L1287.49 760.05 Z" fill="#000000" fill-rule="evenodd" fill-opacity="1" /><polyline clip-path="url(#clip072)" style="stroke:#000000; stroke-linecap:butt; stroke-linejoin:round; stroke-width:2; stroke-opacity:0.1; fill:none" points="
  224.098,605.085 2352.76,605.085 
  "/>
<polyline clip-path="url(#clip072)" style="stroke:#000000; stroke-linecap:butt; stroke-linejoin:round; stroke-width:2; stroke-opacity:0.1; fill:none" points="
  224.098,475.224 2352.76,475.224 
  "/>
<polyline clip-path="url(#clip072)" style="stroke:#000000; stroke-linecap:butt; stroke-linejoin:round; stroke-width:2; stroke-opacity:0.1; fill:none" points="
  224.098,345.364 2352.76,345.364 
  "/>
<polyline clip-path="url(#clip072)" style="stroke:#000000; stroke-linecap:butt; stroke-linejoin:round; stroke-width:2; stroke-opacity:0.1; fill:none" points="
  224.098,215.504 2352.76,215.504 
  "/>
<polyline clip-path="url(#clip072)" style="stroke:#000000; stroke-linecap:butt; stroke-linejoin:round; stroke-width:2; stroke-opacity:0.1; fill:none" points="
  224.098,85.6438 2352.76,85.6438 
  "/>
<polyline clip-path="url(#clip070)" style="stroke:#000000; stroke-linecap:butt; stroke-linejoin:round; stroke-width:4; stroke-opacity:1; fill:none" points="
  224.098,642.531 224.098,47.2441 
  "/>
<polyline clip-path="url(#clip070)" style="stroke:#000000; stroke-linecap:butt; stroke-linejoin:round; stroke-width:4; stroke-opacity:1; fill:none" points="
  224.098,605.085 242.996,605.085 
  "/>
<polyline clip-path="url(#clip070)" style="stroke:#000000; stroke-linecap:butt; stroke-linejoin:round; stroke-width:4; stroke-opacity:1; fill:none" points="
  224.098,475.224 242.996,475.224 
  "/>
<polyline clip-path="url(#clip070)" style="stroke:#000000; stroke-linecap:butt; stroke-linejoin:round; stroke-width:4; stroke-opacity:1; fill:none" points="
  224.098,345.364 242.996,345.364 
  "/>
<polyline clip-path="url(#clip070)" style="stroke:#000000; stroke-linecap:butt; stroke-linejoin:round; stroke-width:4; stroke-opacity:1; fill:none" points="
  224.098,215.504 242.996,215.504 
  "/>
<polyline clip-path="url(#clip070)" style="stroke:#000000; stroke-linecap:butt; stroke-linejoin:round; stroke-width:4; stroke-opacity:1; fill:none" points="
  224.098,85.6438 242.996,85.6438 
  "/>
<path clip-path="url(#clip070)" d="M100.76 590.883 Q97.1493 590.883 95.3206 594.448 Q93.515 597.99 93.515 605.119 Q93.515 612.226 95.3206 615.791 Q97.1493 619.332 100.76 619.332 Q104.395 619.332 106.2 615.791 Q108.029 612.226 108.029 605.119 Q108.029 597.99 106.2 594.448 Q104.395 590.883 100.76 590.883 M100.76 587.18 Q106.571 587.18 109.626 591.786 Q112.705 596.369 112.705 605.119 Q112.705 613.846 109.626 618.453 Q106.571 623.036 100.76 623.036 Q94.9502 623.036 91.8715 618.453 Q88.816 613.846 88.816 605.119 Q88.816 596.369 91.8715 591.786 Q94.9502 587.18 100.76 587.18 Z" fill="#000000" fill-rule="evenodd" fill-opacity="1" /><path clip-path="url(#clip070)" d="M120.922 616.485 L125.807 616.485 L125.807 622.365 L120.922 622.365 L120.922 616.485 Z" fill="#000000" fill-rule="evenodd" fill-opacity="1" /><path clip-path="url(#clip070)" d="M145.992 590.883 Q142.381 590.883 140.552 594.448 Q138.746 597.99 138.746 605.119 Q138.746 612.226 140.552 615.791 Q142.381 619.332 145.992 619.332 Q149.626 619.332 151.431 615.791 Q153.26 612.226 153.26 605.119 Q153.26 597.99 151.431 594.448 Q149.626 590.883 145.992 590.883 M145.992 587.18 Q151.802 587.18 154.857 591.786 Q157.936 596.369 157.936 605.119 Q157.936 613.846 154.857 618.453 Q151.802 623.036 145.992 623.036 Q140.181 623.036 137.103 618.453 Q134.047 613.846 134.047 605.119 Q134.047 596.369 137.103 591.786 Q140.181 587.18 145.992 587.18 Z" fill="#000000" fill-rule="evenodd" fill-opacity="1" /><path clip-path="url(#clip070)" d="M176.153 590.883 Q172.542 590.883 170.714 594.448 Q168.908 597.99 168.908 605.119 Q168.908 612.226 170.714 615.791 Q172.542 619.332 176.153 619.332 Q179.788 619.332 181.593 615.791 Q183.422 612.226 183.422 605.119 Q183.422 597.99 181.593 594.448 Q179.788 590.883 176.153 590.883 M176.153 587.18 Q181.964 587.18 185.019 591.786 Q188.098 596.369 188.098 605.119 Q188.098 613.846 185.019 618.453 Q181.964 623.036 176.153 623.036 Q170.343 623.036 167.265 618.453 Q164.209 613.846 164.209 605.119 Q164.209 596.369 167.265 591.786 Q170.343 587.18 176.153 587.18 Z" fill="#000000" fill-rule="evenodd" fill-opacity="1" /><path clip-path="url(#clip070)" d="M101.756 461.023 Q98.1447 461.023 96.316 464.588 Q94.5104 468.13 94.5104 475.259 Q94.5104 482.366 96.316 485.93 Q98.1447 489.472 101.756 489.472 Q105.39 489.472 107.196 485.93 Q109.024 482.366 109.024 475.259 Q109.024 468.13 107.196 464.588 Q105.39 461.023 101.756 461.023 M101.756 457.319 Q107.566 457.319 110.621 461.926 Q113.7 466.509 113.7 475.259 Q113.7 483.986 110.621 488.592 Q107.566 493.176 101.756 493.176 Q95.9456 493.176 92.8669 488.592 Q89.8114 483.986 89.8114 475.259 Q89.8114 466.509 92.8669 461.926 Q95.9456 457.319 101.756 457.319 Z" fill="#000000" fill-rule="evenodd" fill-opacity="1" /><path clip-path="url(#clip070)" d="M121.918 486.625 L126.802 486.625 L126.802 492.504 L121.918 492.504 L121.918 486.625 Z" fill="#000000" fill-rule="evenodd" fill-opacity="1" /><path clip-path="url(#clip070)" d="M141.015 488.569 L157.334 488.569 L157.334 492.504 L135.39 492.504 L135.39 488.569 Q138.052 485.815 142.635 481.185 Q147.242 476.532 148.422 475.19 Q150.668 472.667 151.547 470.93 Q152.45 469.171 152.45 467.481 Q152.45 464.727 150.505 462.991 Q148.584 461.255 145.482 461.255 Q143.283 461.255 140.83 462.018 Q138.399 462.782 135.621 464.333 L135.621 459.611 Q138.445 458.477 140.899 457.898 Q143.353 457.319 145.39 457.319 Q150.76 457.319 153.955 460.005 Q157.149 462.69 157.149 467.18 Q157.149 469.31 156.339 471.231 Q155.552 473.13 153.445 475.722 Q152.867 476.393 149.765 479.611 Q146.663 482.805 141.015 488.569 Z" fill="#000000" fill-rule="evenodd" fill-opacity="1" /><path clip-path="url(#clip070)" d="M167.195 457.944 L185.552 457.944 L185.552 461.88 L171.478 461.88 L171.478 470.352 Q172.496 470.005 173.515 469.842 Q174.533 469.657 175.552 469.657 Q181.339 469.657 184.718 472.829 Q188.098 476 188.098 481.417 Q188.098 486.995 184.626 490.097 Q181.153 493.176 174.834 493.176 Q172.658 493.176 170.39 492.805 Q168.144 492.435 165.737 491.694 L165.737 486.995 Q167.82 488.129 170.042 488.685 Q172.265 489.241 174.741 489.241 Q178.746 489.241 181.084 487.134 Q183.422 485.028 183.422 481.417 Q183.422 477.805 181.084 475.699 Q178.746 473.592 174.741 473.592 Q172.866 473.592 170.991 474.009 Q169.14 474.426 167.195 475.305 L167.195 457.944 Z" fill="#000000" fill-rule="evenodd" fill-opacity="1" /><path clip-path="url(#clip070)" d="M100.76 331.163 Q97.1493 331.163 95.3206 334.728 Q93.515 338.269 93.515 345.399 Q93.515 352.505 95.3206 356.07 Q97.1493 359.612 100.76 359.612 Q104.395 359.612 106.2 356.07 Q108.029 352.505 108.029 345.399 Q108.029 338.269 106.2 334.728 Q104.395 331.163 100.76 331.163 M100.76 327.459 Q106.571 327.459 109.626 332.066 Q112.705 336.649 112.705 345.399 Q112.705 354.126 109.626 358.732 Q106.571 363.316 100.76 363.316 Q94.9502 363.316 91.8715 358.732 Q88.816 354.126 88.816 345.399 Q88.816 336.649 91.8715 332.066 Q94.9502 327.459 100.76 327.459 Z" fill="#000000" fill-rule="evenodd" fill-opacity="1" /><path clip-path="url(#clip070)" d="M120.922 356.765 L125.807 356.765 L125.807 362.644 L120.922 362.644 L120.922 356.765 Z" fill="#000000" fill-rule="evenodd" fill-opacity="1" /><path clip-path="url(#clip070)" d="M136.038 328.084 L154.394 328.084 L154.394 332.019 L140.32 332.019 L140.32 340.492 Q141.339 340.144 142.357 339.982 Q143.376 339.797 144.394 339.797 Q150.181 339.797 153.561 342.968 Q156.941 346.14 156.941 351.556 Q156.941 357.135 153.468 360.237 Q149.996 363.316 143.677 363.316 Q141.501 363.316 139.232 362.945 Q136.987 362.575 134.58 361.834 L134.58 357.135 Q136.663 358.269 138.885 358.825 Q141.107 359.38 143.584 359.38 Q147.589 359.38 149.927 357.274 Q152.265 355.167 152.265 351.556 Q152.265 347.945 149.927 345.839 Q147.589 343.732 143.584 343.732 Q141.709 343.732 139.834 344.149 Q137.982 344.566 136.038 345.445 L136.038 328.084 Z" fill="#000000" fill-rule="evenodd" fill-opacity="1" /><path clip-path="url(#clip070)" d="M176.153 331.163 Q172.542 331.163 170.714 334.728 Q168.908 338.269 168.908 345.399 Q168.908 352.505 170.714 356.07 Q172.542 359.612 176.153 359.612 Q179.788 359.612 181.593 356.07 Q183.422 352.505 183.422 345.399 Q183.422 338.269 181.593 334.728 Q179.788 331.163 176.153 331.163 M176.153 327.459 Q181.964 327.459 185.019 332.066 Q188.098 336.649 188.098 345.399 Q188.098 354.126 185.019 358.732 Q181.964 363.316 176.153 363.316 Q170.343 363.316 167.265 358.732 Q164.209 354.126 164.209 345.399 Q164.209 336.649 167.265 332.066 Q170.343 327.459 176.153 327.459 Z" fill="#000000" fill-rule="evenodd" fill-opacity="1" /><path clip-path="url(#clip070)" d="M101.756 201.303 Q98.1447 201.303 96.316 204.867 Q94.5104 208.409 94.5104 215.539 Q94.5104 222.645 96.316 226.21 Q98.1447 229.752 101.756 229.752 Q105.39 229.752 107.196 226.21 Q109.024 222.645 109.024 215.539 Q109.024 208.409 107.196 204.867 Q105.39 201.303 101.756 201.303 M101.756 197.599 Q107.566 197.599 110.621 202.205 Q113.7 206.789 113.7 215.539 Q113.7 224.266 110.621 228.872 Q107.566 233.455 101.756 233.455 Q95.9456 233.455 92.8669 228.872 Q89.8114 224.266 89.8114 215.539 Q89.8114 206.789 92.8669 202.205 Q95.9456 197.599 101.756 197.599 Z" fill="#000000" fill-rule="evenodd" fill-opacity="1" /><path clip-path="url(#clip070)" d="M121.918 226.904 L126.802 226.904 L126.802 232.784 L121.918 232.784 L121.918 226.904 Z" fill="#000000" fill-rule="evenodd" fill-opacity="1" /><path clip-path="url(#clip070)" d="M135.806 198.224 L158.029 198.224 L158.029 200.215 L145.482 232.784 L140.598 232.784 L152.404 202.159 L135.806 202.159 L135.806 198.224 Z" fill="#000000" fill-rule="evenodd" fill-opacity="1" /><path clip-path="url(#clip070)" d="M167.195 198.224 L185.552 198.224 L185.552 202.159 L171.478 202.159 L171.478 210.631 Q172.496 210.284 173.515 210.122 Q174.533 209.937 175.552 209.937 Q181.339 209.937 184.718 213.108 Q188.098 216.279 188.098 221.696 Q188.098 227.275 184.626 230.377 Q181.153 233.455 174.834 233.455 Q172.658 233.455 170.39 233.085 Q168.144 232.715 165.737 231.974 L165.737 227.275 Q167.82 228.409 170.042 228.965 Q172.265 229.52 174.741 229.52 Q178.746 229.52 181.084 227.414 Q183.422 225.307 183.422 221.696 Q183.422 218.085 181.084 215.979 Q178.746 213.872 174.741 213.872 Q172.866 213.872 170.991 214.289 Q169.14 214.705 167.195 215.585 L167.195 198.224 Z" fill="#000000" fill-rule="evenodd" fill-opacity="1" /><path clip-path="url(#clip070)" d="M91.5706 98.9886 L99.2095 98.9886 L99.2095 72.6231 L90.8993 74.2897 L90.8993 70.0305 L99.1632 68.3638 L103.839 68.3638 L103.839 98.9886 L111.478 98.9886 L111.478 102.924 L91.5706 102.924 L91.5706 98.9886 Z" fill="#000000" fill-rule="evenodd" fill-opacity="1" /><path clip-path="url(#clip070)" d="M120.922 97.0442 L125.807 97.0442 L125.807 102.924 L120.922 102.924 L120.922 97.0442 Z" fill="#000000" fill-rule="evenodd" fill-opacity="1" /><path clip-path="url(#clip070)" d="M145.992 71.4425 Q142.381 71.4425 140.552 75.0073 Q138.746 78.5489 138.746 85.6785 Q138.746 92.785 140.552 96.3498 Q142.381 99.8914 145.992 99.8914 Q149.626 99.8914 151.431 96.3498 Q153.26 92.785 153.26 85.6785 Q153.26 78.5489 151.431 75.0073 Q149.626 71.4425 145.992 71.4425 M145.992 67.7388 Q151.802 67.7388 154.857 72.3453 Q157.936 76.9286 157.936 85.6785 Q157.936 94.4053 154.857 99.0118 Q151.802 103.595 145.992 103.595 Q140.181 103.595 137.103 99.0118 Q134.047 94.4053 134.047 85.6785 Q134.047 76.9286 137.103 72.3453 Q140.181 67.7388 145.992 67.7388 Z" fill="#000000" fill-rule="evenodd" fill-opacity="1" /><path clip-path="url(#clip070)" d="M176.153 71.4425 Q172.542 71.4425 170.714 75.0073 Q168.908 78.5489 168.908 85.6785 Q168.908 92.785 170.714 96.3498 Q172.542 99.8914 176.153 99.8914 Q179.788 99.8914 181.593 96.3498 Q183.422 92.785 183.422 85.6785 Q183.422 78.5489 181.593 75.0073 Q179.788 71.4425 176.153 71.4425 M176.153 67.7388 Q181.964 67.7388 185.019 72.3453 Q188.098 76.9286 188.098 85.6785 Q188.098 94.4053 185.019 99.0118 Q181.964 103.595 176.153 103.595 Q170.343 103.595 167.265 99.0118 Q164.209 94.4053 164.209 85.6785 Q164.209 76.9286 167.265 72.3453 Q170.343 67.7388 176.153 67.7388 Z" fill="#000000" fill-rule="evenodd" fill-opacity="1" /><polyline clip-path="url(#clip072)" style="stroke:#009af9; stroke-linecap:butt; stroke-linejoin:round; stroke-width:4; stroke-opacity:1; fill:none" points="
  224.098,345.123 240.728,345.116 257.358,345.107 273.988,345.097 290.618,345.086 307.249,345.073 323.879,345.059 340.509,345.044 357.139,345.028 373.769,345.01 
  390.399,344.992 407.029,344.973 423.66,344.954 440.29,344.934 456.92,344.914 473.55,344.894 490.18,344.873 506.81,344.852 523.44,344.831 540.071,344.811 
  556.701,344.79 573.331,344.769 589.961,344.749 606.591,344.729 623.221,344.71 639.851,344.69 656.482,344.672 673.112,344.655 689.742,344.638 706.372,344.623 
  723.002,344.61 739.632,344.598 756.262,344.588 772.893,344.581 789.523,344.576 806.153,344.573 822.783,344.571 839.413,344.57 856.043,344.57 872.673,344.57 
  889.304,344.571 905.934,344.571 922.564,344.571 939.194,344.571 955.824,344.572 972.454,344.572 989.084,344.573 1005.71,344.573 1022.34,344.574 1038.97,344.576 
  1055.6,344.577 1072.24,344.579 1088.87,344.582 1105.5,344.585 1122.13,344.589 1138.76,344.595 1155.39,344.602 1172.02,344.611 1188.65,344.623 1205.28,344.638 
  1221.91,344.658 1238.54,344.683 1255.17,344.715 1271.8,344.757 1288.43,344.81 1305.06,344.879 1321.69,344.967 1338.32,345.081 1354.95,345.226 1371.58,345.413 
  1388.21,345.653 1404.84,345.96 1421.47,346.352 1438.1,346.854 1454.73,347.494 1471.36,348.309 1487.99,349.343 1504.62,350.648 1521.25,352.293 1537.88,354.351 
  1554.51,356.907 1571.14,360.056 1587.77,363.905 1604.4,368.546 1621.03,374.073 1637.66,380.562 1654.29,388.058 1670.92,396.57 1687.55,406.072 1704.18,416.489 
  1720.81,427.704 1737.44,439.567 1754.07,451.903 1770.7,464.517 1787.33,477.21 1803.96,489.787 1820.59,502.061 1837.22,513.867 1853.85,525.059 1870.48,535.52 
  1887.11,545.164 1903.74,553.935 1920.37,561.805 1937,568.775 1953.63,574.87 1970.26,580.136 1986.89,584.634 2003.52,588.433 2020.15,591.609 2036.78,594.241 
  2053.41,596.402 2070.04,598.163 2086.67,599.589 2103.3,600.735 2119.93,601.653 2136.56,602.384 2153.19,602.963 2169.82,603.422 2186.45,603.783 2203.08,604.067 
  2219.71,604.29 2236.34,604.465 2252.98,604.601 2269.61,604.708 2286.24,604.791 2302.87,604.856 2319.5,604.907 2336.13,604.946 2352.76,604.977 
  "/>
<polyline clip-path="url(#clip072)" style="stroke:#e26f46; stroke-linecap:butt; stroke-linejoin:round; stroke-width:4; stroke-opacity:1; fill:none" points="
  224.098,534.05 240.728,541.526 257.358,549.106 273.988,556.553 290.618,563.646 307.249,570.207 323.879,576.11 340.509,581.293 357.139,585.747 373.769,589.503 
  390.399,592.621 407.029,595.176 423.66,597.247 440.29,598.911 456.92,600.239 473.55,601.293 490.18,602.125 506.81,602.781 523.44,603.295 540.071,603.699 
  556.701,604.014 573.331,604.26 589.961,604.452 606.591,604.601 623.221,604.717 639.851,604.808 656.482,604.878 673.112,604.932 689.742,604.974 706.372,605.006 
  723.002,605.03 739.632,605.048 756.262,605.061 772.893,605.07 789.523,605.076 806.153,605.08 822.783,605.082 839.413,605.082 856.043,605.083 872.673,605.083 
  889.304,605.083 905.934,605.083 922.564,605.083 939.194,605.083 955.824,605.083 972.454,605.083 989.084,605.083 1005.71,605.083 1022.34,605.083 1038.97,605.083 
  1055.6,605.083 1072.24,605.083 1088.87,605.083 1105.5,605.083 1122.13,605.083 1138.76,605.083 1155.39,605.083 1172.02,605.083 1188.65,605.083 1205.28,605.083 
  1221.91,605.083 1238.54,605.083 1255.17,605.083 1271.8,605.083 1288.43,605.083 1305.06,605.083 1321.69,605.083 1338.32,605.083 1354.95,605.083 1371.58,605.083 
  1388.21,605.083 1404.84,605.083 1421.47,605.083 1438.1,605.083 1454.73,605.083 1471.36,605.083 1487.99,605.083 1504.62,605.083 1521.25,605.083 1537.88,605.083 
  1554.51,605.083 1571.14,605.083 1587.77,605.083 1604.4,605.083 1621.03,605.083 1637.66,605.083 1654.29,605.083 1670.92,605.083 1687.55,605.083 1704.18,605.083 
  1720.81,605.084 1737.44,605.084 1754.07,605.084 1770.7,605.084 1787.33,605.084 1803.96,605.084 1820.59,605.084 1837.22,605.084 1853.85,605.084 1870.48,605.084 
  1887.11,605.084 1903.74,605.084 1920.37,605.084 1937,605.084 1953.63,605.084 1970.26,605.085 1986.89,605.085 2003.52,605.085 2020.15,605.085 2036.78,605.085 
  2053.41,605.085 2070.04,605.085 2086.67,605.085 2103.3,605.085 2119.93,605.085 2136.56,605.085 2153.19,605.085 2169.82,605.085 2186.45,605.085 2203.08,605.085 
  2219.71,605.085 2236.34,605.085 2252.98,605.085 2269.61,605.085 2286.24,605.085 2302.87,605.085 2319.5,605.085 2336.13,605.085 2352.76,605.085 
  "/>
<polyline clip-path="url(#clip072)" style="stroke:#3da44d; stroke-linecap:butt; stroke-linejoin:round; stroke-width:4; stroke-opacity:1; fill:none" points="
  224.098,416.64 240.728,409.171 257.358,401.6 273.988,394.163 290.618,387.081 307.249,380.533 323.879,374.644 340.509,369.476 357.139,365.038 373.769,361.3 
  390.399,358.2 407.029,355.664 423.66,353.612 440.29,351.968 456.92,350.66 473.55,349.627 490.18,348.815 506.81,348.18 523.44,347.686 540.071,347.304 
  556.701,347.009 573.331,346.784 589.961,346.612 606.591,346.483 623.221,346.386 639.851,346.315 656.482,346.263 673.112,346.226 689.742,346.201 706.372,346.184 
  723.002,346.173 739.632,346.167 756.262,346.163 772.893,346.162 789.523,346.161 806.153,346.16 822.783,346.16 839.413,346.16 856.043,346.16 872.673,346.16 
  889.304,346.16 905.934,346.16 922.564,346.16 939.194,346.159 955.824,346.159 972.454,346.158 989.084,346.158 1005.71,346.157 1022.34,346.156 1038.97,346.155 
  1055.6,346.153 1072.24,346.151 1088.87,346.149 1105.5,346.145 1122.13,346.141 1138.76,346.136 1155.39,346.128 1172.02,346.119 1188.65,346.107 1205.28,346.092 
  1221.91,346.073 1238.54,346.047 1255.17,346.015 1271.8,345.973 1288.43,345.92 1305.06,345.851 1321.69,345.763 1338.32,345.65 1354.95,345.504 1371.58,345.317 
  1388.21,345.078 1404.84,344.771 1421.47,344.378 1438.1,343.876 1454.73,343.236 1471.36,342.421 1487.99,341.388 1504.62,340.082 1521.25,338.438 1537.88,336.379 
  1554.51,333.823 1571.14,330.674 1587.77,326.825 1604.4,322.184 1621.03,316.657 1637.66,310.168 1654.29,302.672 1670.92,294.16 1687.55,284.658 1704.18,274.241 
  1720.81,263.026 1737.44,251.162 1754.07,238.826 1770.7,226.212 1787.33,213.519 1803.96,200.942 1820.59,188.668 1837.22,176.862 1853.85,165.67 1870.48,155.209 
  1887.11,145.564 1903.74,136.794 1920.37,128.924 1937,121.954 1953.63,115.859 1970.26,110.592 1986.89,106.095 2003.52,102.296 2020.15,99.1192 2036.78,96.4876 
  2053.41,94.3267 2070.04,92.5652 2086.67,91.1397 2103.3,89.993 2119.93,89.0756 2136.56,88.3448 2153.19,87.765 2169.82,87.3066 2186.45,86.9456 2203.08,86.6615 
  2219.71,86.4386 2236.34,86.2639 2252.98,86.1272 2269.61,86.0205 2286.24,85.9372 2302.87,85.8722 2319.5,85.8216 2336.13,85.7821 2352.76,85.7513 
  "/>
<polyline clip-path="url(#clip072)" style="stroke:#c271d2; stroke-linecap:butt; stroke-linejoin:round; stroke-width:8; stroke-opacity:1; fill:none" stroke-dasharray="32, 20" points="
  224.098,345.123 240.728,345.115 257.358,345.107 273.988,345.097 290.618,345.086 307.249,345.073 323.879,345.06 340.509,345.044 357.139,345.028 373.769,345.011 
  390.399,344.993 407.029,344.975 423.66,344.956 440.29,344.936 456.92,344.917 473.55,344.897 490.18,344.877 506.81,344.856 523.44,344.836 540.071,344.816 
  556.701,344.795 573.331,344.775 589.961,344.756 606.591,344.736 623.221,344.717 639.851,344.698 656.482,344.68 673.112,344.663 689.742,344.647 706.372,344.632 
  723.002,344.619 739.632,344.608 756.262,344.599 772.893,344.591 789.523,344.587 806.153,344.584 822.783,344.582 839.413,344.581 856.043,344.581 872.673,344.581 
  889.304,344.582 905.934,344.582 922.564,344.582 939.194,344.582 955.824,344.582 972.454,344.583 989.084,344.583 1005.71,344.584 1022.34,344.585 1038.97,344.586 
  1055.6,344.587 1072.24,344.589 1088.87,344.591 1105.5,344.594 1122.13,344.598 1138.76,344.603 1155.39,344.61 1172.02,344.618 1188.65,344.628 1205.28,344.642 
  1221.91,344.659 1238.54,344.682 1255.17,344.711 1271.8,344.748 1288.43,344.796 1305.06,344.857 1321.69,344.936 1338.32,345.037 1354.95,345.167 1371.58,345.334 
  1388.21,345.548 1404.84,345.822 1421.47,346.173 1438.1,346.622 1454.73,347.196 1471.36,347.927 1487.99,348.855 1504.62,350.03 1521.25,351.512 1537.88,353.369 
  1554.51,355.69 1571.14,358.561 1587.77,362.076 1604.4,366.344 1621.03,371.459 1637.66,377.501 1654.29,384.53 1670.92,392.583 1687.55,401.639 1704.18,411.646 
  1720.81,422.509 1737.44,434.091 1754.07,446.227 1770.7,458.731 1787.33,471.408 1803.96,484.056 1820.59,496.486 1837.22,508.521 1853.85,520.007 1870.48,530.813 
  1887.11,540.839 1903.74,550.013 1920.37,558.297 1937,565.678 1953.63,572.17 1970.26,577.81 1986.89,582.653 2003.52,586.764 2020.15,590.218 2036.78,593.091 
  2053.41,595.459 2070.04,597.397 2086.67,598.969 2103.3,600.238 2119.93,601.256 2136.56,602.067 2153.19,602.713 2169.82,603.224 2186.45,603.627 2203.08,603.944 
  2219.71,604.194 2236.34,604.389 2252.98,604.542 2269.61,604.662 2286.24,604.755 2302.87,604.828 2319.5,604.885 2336.13,604.929 2352.76,604.964 
  "/>
<polyline clip-path="url(#clip072)" style="stroke:#ac8d18; stroke-linecap:butt; stroke-linejoin:round; stroke-width:8; stroke-opacity:1; fill:none" stroke-dasharray="32, 20" points="
  224.098,535.009 240.728,542.512 257.358,550.087 273.988,557.501 290.618,564.534 307.249,571.014 323.879,576.826 340.509,581.914 357.139,586.274 373.769,589.943 
  390.399,592.983 407.029,595.47 423.66,597.484 440.29,599.101 456.92,600.39 473.55,601.412 490.18,602.219 506.81,602.854 523.44,603.353 540.071,603.743 
  556.701,604.048 573.331,604.287 589.961,604.472 606.591,604.617 623.221,604.73 639.851,604.817 656.482,604.885 673.112,604.937 689.742,604.978 706.372,605.009 
  723.002,605.032 739.632,605.05 756.262,605.062 772.893,605.071 789.523,605.077 806.153,605.08 822.783,605.082 839.413,605.083 856.043,605.083 872.673,605.083 
  889.304,605.083 905.934,605.083 922.564,605.083 939.194,605.083 955.824,605.083 972.454,605.083 989.084,605.083 1005.71,605.083 1022.34,605.083 1038.97,605.083 
  1055.6,605.083 1072.24,605.083 1088.87,605.083 1105.5,605.083 1122.13,605.083 1138.76,605.083 1155.39,605.083 1172.02,605.083 1188.65,605.083 1205.28,605.083 
  1221.91,605.083 1238.54,605.083 1255.17,605.083 1271.8,605.083 1288.43,605.083 1305.06,605.083 1321.69,605.083 1338.32,605.083 1354.95,605.083 1371.58,605.083 
  1388.21,605.083 1404.84,605.083 1421.47,605.083 1438.1,605.083 1454.73,605.083 1471.36,605.083 1487.99,605.083 1504.62,605.083 1521.25,605.083 1537.88,605.083 
  1554.51,605.083 1571.14,605.083 1587.77,605.083 1604.4,605.083 1621.03,605.083 1637.66,605.083 1654.29,605.083 1670.92,605.083 1687.55,605.083 1704.18,605.083 
  1720.81,605.084 1737.44,605.084 1754.07,605.084 1770.7,605.084 1787.33,605.084 1803.96,605.084 1820.59,605.084 1837.22,605.084 1853.85,605.084 1870.48,605.084 
  1887.11,605.084 1903.74,605.084 1920.37,605.084 1937,605.084 1953.63,605.084 1970.26,605.085 1986.89,605.085 2003.52,605.085 2020.15,605.085 2036.78,605.085 
  2053.41,605.085 2070.04,605.085 2086.67,605.085 2103.3,605.085 2119.93,605.085 2136.56,605.085 2153.19,605.085 2169.82,605.085 2186.45,605.085 2203.08,605.085 
  2219.71,605.085 2236.34,605.085 2252.98,605.085 2269.61,605.085 2286.24,605.085 2302.87,605.085 2319.5,605.085 2336.13,605.085 2352.76,605.085 
  "/>
<polyline clip-path="url(#clip072)" style="stroke:#00a9ad; stroke-linecap:butt; stroke-linejoin:round; stroke-width:8; stroke-opacity:1; fill:none" stroke-dasharray="32, 20" points="
  224.098,415.681 240.728,408.186 257.358,400.619 273.988,393.215 290.618,386.194 307.249,379.726 323.879,373.928 340.509,368.855 357.139,364.511 373.769,360.859 
  390.399,357.837 407.029,355.368 423.66,353.373 440.29,351.776 456.92,350.506 473.55,349.504 490.18,348.717 506.81,348.103 523.44,347.624 540.071,347.254 
  556.701,346.969 573.331,346.751 589.961,346.585 606.591,346.46 623.221,346.367 639.851,346.298 656.482,346.248 673.112,346.213 689.742,346.188 706.372,346.172 
  723.002,346.162 739.632,346.155 756.262,346.152 772.893,346.15 789.523,346.15 806.153,346.149 822.783,346.149 839.413,346.149 856.043,346.149 872.673,346.149 
  889.304,346.149 905.934,346.149 922.564,346.148 939.194,346.148 955.824,346.148 972.454,346.148 989.084,346.147 1005.71,346.146 1022.34,346.145 1038.97,346.144 
  1055.6,346.143 1072.24,346.141 1088.87,346.139 1105.5,346.136 1122.13,346.132 1138.76,346.127 1155.39,346.121 1172.02,346.112 1188.65,346.102 1205.28,346.088 
  1221.91,346.071 1238.54,346.048 1255.17,346.02 1271.8,345.982 1288.43,345.935 1305.06,345.873 1321.69,345.795 1338.32,345.693 1354.95,345.563 1371.58,345.397 
  1388.21,345.182 1404.84,344.908 1421.47,344.557 1438.1,344.108 1454.73,343.535 1471.36,342.804 1487.99,341.875 1504.62,340.7 1521.25,339.218 1537.88,337.361 
  1554.51,335.041 1571.14,332.169 1587.77,328.654 1604.4,324.386 1621.03,319.271 1637.66,313.229 1654.29,306.2 1670.92,298.147 1687.55,289.091 1704.18,279.083 
  1720.81,268.221 1737.44,256.638 1754.07,244.502 1770.7,231.998 1787.33,219.322 1803.96,206.673 1820.59,194.243 1837.22,182.208 1853.85,170.722 1870.48,159.916 
  1887.11,149.89 1903.74,140.715 1920.37,132.432 1937,125.051 1953.63,118.559 1970.26,112.918 1986.89,108.075 2003.52,103.964 2020.15,100.511 2036.78,97.6379 
  2053.41,95.269 2070.04,93.3317 2086.67,91.7592 2103.3,90.4906 2119.93,89.4729 2136.56,88.661 2153.19,88.0158 2169.82,87.5047 2186.45,87.1013 2203.08,86.784 
  2219.71,86.5347 2236.34,86.3391 2252.98,86.186 2269.61,86.0665 2286.24,85.9731 2302.87,85.9001 2319.5,85.8434 2336.13,85.7991 2352.76,85.7646 
  "/>
<polyline clip-path="url(#clip072)" style="stroke:#ed5d92; stroke-linecap:butt; stroke-linejoin:round; stroke-width:12; stroke-opacity:1; fill:none" stroke-dasharray="6, 12" points="
  224.098,601.249 240.728,601.249 257.358,601.249 273.988,601.249 290.618,601.249 307.249,601.249 323.879,601.249 340.509,601.249 357.139,601.249 373.769,601.249 
  390.399,601.249 407.029,601.249 423.66,601.249 440.29,601.249 456.92,601.249 473.55,601.249 490.18,601.249 506.81,601.249 523.44,601.249 540.071,601.249 
  556.701,601.249 573.331,601.249 589.961,601.249 606.591,601.249 623.221,601.249 639.851,601.249 656.482,601.249 673.112,601.248 689.742,601.248 706.372,601.248 
  723.002,601.248 739.632,601.248 756.262,601.248 772.893,601.248 789.523,601.248 806.153,601.248 822.783,601.248 839.413,601.247 856.043,601.247 872.673,601.247 
  889.304,601.246 905.934,601.245 922.564,601.244 939.194,601.243 955.824,601.242 972.454,601.24 989.084,601.237 1005.71,601.234 1022.34,601.23 1038.97,601.225 
  1055.6,601.218 1072.24,601.209 1088.87,601.197 1105.5,601.182 1122.13,601.162 1138.76,601.136 1155.39,601.102 1172.02,601.058 1188.65,600.999 1205.28,600.92 
  1221.91,600.814 1238.54,600.669 1255.17,600.469 1271.8,600.188 1288.43,599.787 1305.06,599.205 1321.69,598.349 1338.32,597.077 1354.95,595.179 1371.58,592.366 
  1388.21,588.261 1404.84,582.398 1421.47,574.242 1438.1,563.232 1454.73,548.758 1471.36,530.14 1487.99,506.736 1504.62,478.21 1521.25,444.513 1537.88,406.338 
  1554.51,365.727 1571.14,326.032 1587.77,291.833 1604.4,268.664 1621.03,262.46 1637.66,278.86 1654.29,318.759 1670.92,374.457 1687.55,442.721 1704.18,493.204 
  1720.81,514.404 1737.44,488.766 1754.07,422.132 1770.7,378.304 1787.33,402.526 1803.96,484.427 1820.59,584.588 1837.22,547.72 1853.85,476.954 1870.48,461.689 
  1887.11,604.204 1903.74,585.64 1920.37,478.48 1937,625.683 1953.63,543.617 1970.26,590.78 1986.89,578.572 2003.52,588.812 2020.15,589.052 2036.78,590.87 
  2053.41,595.191 2070.04,599.106 2086.67,599.988 2103.3,598.118 2119.93,599.516 2136.56,603.323 2153.19,604.432 2169.82,598.848 2186.45,605.875 2203.08,603.389 
  2219.71,604.307 2236.34,605.635 2252.98,601.666 2269.61,603.591 2286.24,604.489 2302.87,604.688 2319.5,601.131 2336.13,603.76 2352.76,601.765 
  "/>
<polyline clip-path="url(#clip072)" style="stroke:#c68125; stroke-linecap:butt; stroke-linejoin:round; stroke-width:12; stroke-opacity:1; fill:none" stroke-dasharray="6, 12" points="
  224.098,600.477 240.728,600.477 257.358,600.477 273.988,600.477 290.618,600.477 307.249,600.477 323.879,600.477 340.509,600.477 357.139,600.477 373.769,600.477 
  390.399,600.477 407.029,600.477 423.66,600.477 440.29,600.477 456.92,600.477 473.55,600.477 490.18,600.477 506.81,600.477 523.44,600.477 540.071,600.477 
  556.701,600.477 573.331,600.477 589.961,600.477 606.591,600.477 623.221,600.477 639.851,600.477 656.482,600.477 673.112,600.477 689.742,600.477 706.372,600.477 
  723.002,600.477 739.632,600.477 756.262,600.477 772.893,600.477 789.523,600.477 806.153,600.477 822.783,600.477 839.413,600.477 856.043,600.477 872.673,600.477 
  889.304,600.477 905.934,600.477 922.564,600.477 939.194,600.477 955.824,600.477 972.454,600.477 989.084,600.477 1005.71,600.477 1022.34,600.477 1038.97,600.477 
  1055.6,600.477 1072.24,600.477 1088.87,600.478 1105.5,600.478 1122.13,600.478 1138.76,600.478 1155.39,600.478 1172.02,600.478 1188.65,600.478 1205.28,600.477 
  1221.91,600.477 1238.54,600.476 1255.17,600.474 1271.8,600.471 1288.43,600.466 1305.06,600.459 1321.69,600.447 1338.32,600.432 1354.95,600.416 1371.58,600.406 
  1388.21,600.398 1404.84,600.372 1421.47,600.302 1438.1,600.185 1454.73,600.083 1471.36,599.993 1487.99,599.87 1504.62,599.707 1521.25,599.752 1537.88,599.999 
  1554.51,600.321 1571.14,601.061 1587.77,602.143 1604.4,603.741 1621.03,606.816 1637.66,609.299 1654.29,610.246 1670.92,608.366 1687.55,605.263 1704.18,601.802 
  1720.81,605.964 1737.44,610.214 1754.07,606.467 1770.7,601.444 1787.33,604.689 1803.96,598.231 1820.59,611.985 1837.22,601.801 1853.85,609.445 1870.48,600.376 
  1887.11,608.845 1903.74,603.36 1920.37,604.012 1937,607.538 1953.63,602.97 1970.26,606.458 1986.89,604.486 2003.52,605.261 2020.15,604.953 2036.78,605.11 
  2053.41,605.15 2070.04,605.072 2086.67,605.012 2103.3,605.17 2119.93,605.042 2136.56,605.115 2153.19,605.084 2169.82,605.085 2186.45,605.079 2203.08,605.084 
  2219.71,605.081 2236.34,605.098 2252.98,605.083 2269.61,605.082 2286.24,605.095 2302.87,605.077 2319.5,605.088 2336.13,605.089 2352.76,605.085 
  "/>
<polyline clip-path="url(#clip072)" style="stroke:#00a98d; stroke-linecap:butt; stroke-linejoin:round; stroke-width:12; stroke-opacity:1; fill:none" stroke-dasharray="6, 12" points="
  224.098,601.597 240.728,601.597 257.358,601.597 273.988,601.597 290.618,601.597 307.249,601.597 323.879,601.597 340.509,601.597 357.139,601.597 373.769,601.597 
  390.399,601.597 407.029,601.597 423.66,601.597 440.29,601.597 456.92,601.597 473.55,601.597 490.18,601.597 506.81,601.597 523.44,601.597 540.071,601.597 
  556.701,601.597 573.331,601.597 589.961,601.597 606.591,601.597 623.221,601.597 639.851,601.597 656.482,601.597 673.112,601.597 689.742,601.597 706.372,601.597 
  723.002,601.597 739.632,601.597 756.262,601.597 772.893,601.597 789.523,601.597 806.153,601.597 822.783,601.596 839.413,601.596 856.043,601.596 872.673,601.595 
  889.304,601.595 905.934,601.594 922.564,601.593 939.194,601.592 955.824,601.591 972.454,601.589 989.084,601.586 1005.71,601.583 1022.34,601.579 1038.97,601.574 
  1055.6,601.567 1072.24,601.559 1088.87,601.548 1105.5,601.533 1122.13,601.514 1138.76,601.489 1155.39,601.457 1172.02,601.414 1188.65,601.358 1205.28,601.282 
  1221.91,601.18 1238.54,601.04 1255.17,600.847 1271.8,600.575 1288.43,600.187 1305.06,599.622 1321.69,598.789 1338.32,597.548 1354.95,595.689 1371.58,592.921 
  1388.21,588.866 1404.84,583.05 1421.47,574.92 1438.1,563.878 1454.73,549.257 1471.36,530.306 1487.99,506.291 1504.62,476.708 1521.25,441.258 1537.88,400.366 
  1554.51,355.707 1571.14,310.093 1587.77,267.684 1604.4,233.561 1621.03,213.374 1637.66,213.029 1654.29,234.319 1670.92,270.533 1687.55,319.637 1704.18,353.089 
  1720.81,358.331 1737.44,315.634 1754.07,227.962 1770.7,156.457 1787.33,144.806 1803.96,193.27 1820.59,269.942 1837.22,218.62 1853.85,130.337 1870.48,85.8802 
  1887.11,204.553 1903.74,180.984 1920.37,64.0918 1937,190.616 1953.63,101.64 1970.26,123.05 1986.89,92.3447 2003.52,89.8101 2020.15,97.9531 2036.78,108.933 
  2053.41,94.4826 2070.04,87.069 2086.67,115.305 2103.3,77.0551 2119.93,84.5739 2136.56,86.6208 2153.19,95.1152 2169.82,83.0289 2186.45,92.2414 2203.08,80.3807 
  2219.71,92.4033 2236.34,81.3522 2252.98,87.5261 2269.61,85.7024 2286.24,85.3428 2302.87,85.739 2319.5,84.5955 2336.13,85.1733 2352.76,84.1117 
  "/>
<path clip-path="url(#clip070)" d="
M1937.6 585.487 L2281.8 585.487 L2281.8 67.087 L1937.6 67.087  Z
  " fill="#ffffff" fill-rule="evenodd" fill-opacity="1"/>
<polyline clip-path="url(#clip070)" style="stroke:#000000; stroke-linecap:butt; stroke-linejoin:round; stroke-width:4; stroke-opacity:1; fill:none" points="
  1937.6,585.487 2281.8,585.487 2281.8,67.087 1937.6,67.087 1937.6,585.487 
  "/>
<polyline clip-path="url(#clip070)" style="stroke:#009af9; stroke-linecap:butt; stroke-linejoin:round; stroke-width:4; stroke-opacity:1; fill:none" points="
  1961.25,118.927 2103.16,118.927 
  "/>
<path clip-path="url(#clip070)" d="M2126.81 125.976 L2126.81 110.281 L2131.07 110.281 L2131.07 125.814 Q2131.07 129.494 2132.51 131.346 Q2133.94 133.175 2136.81 133.175 Q2140.26 133.175 2142.25 130.976 Q2144.27 128.776 2144.27 124.98 L2144.27 110.281 L2148.53 110.281 L2148.53 136.207 L2144.27 136.207 L2144.27 132.226 Q2142.72 134.587 2140.66 135.744 Q2138.62 136.878 2135.91 136.878 Q2131.44 136.878 2129.13 134.101 Q2126.81 131.323 2126.81 125.976 M2137.53 109.656 L2137.53 109.656 Z" fill="#000000" fill-rule="evenodd" fill-opacity="1" /><path clip-path="url(#clip070)" d="M2158.71 132.272 L2166.35 132.272 L2166.35 105.906 L2158.04 107.573 L2158.04 103.314 L2166.3 101.647 L2170.98 101.647 L2170.98 132.272 L2178.62 132.272 L2178.62 136.207 L2158.71 136.207 L2158.71 132.272 Z" fill="#000000" fill-rule="evenodd" fill-opacity="1" /><path clip-path="url(#clip070)" d="M2197.69 100.235 Q2194.59 105.559 2193.09 110.767 Q2191.58 115.976 2191.58 121.323 Q2191.58 126.67 2193.09 131.925 Q2194.61 137.156 2197.69 142.457 L2193.99 142.457 Q2190.52 137.017 2188.78 131.763 Q2187.07 126.508 2187.07 121.323 Q2187.07 116.161 2188.78 110.929 Q2190.49 105.698 2193.99 100.235 L2197.69 100.235 Z" fill="#000000" fill-rule="evenodd" fill-opacity="1" /><path clip-path="url(#clip070)" d="M2210.17 102.92 L2210.17 110.281 L2218.94 110.281 L2218.94 113.591 L2210.17 113.591 L2210.17 127.665 Q2210.17 130.837 2211.03 131.739 Q2211.9 132.642 2214.57 132.642 L2218.94 132.642 L2218.94 136.207 L2214.57 136.207 Q2209.64 136.207 2207.76 134.378 Q2205.89 132.526 2205.89 127.665 L2205.89 113.591 L2202.76 113.591 L2202.76 110.281 L2205.89 110.281 L2205.89 102.92 L2210.17 102.92 Z" fill="#000000" fill-rule="evenodd" fill-opacity="1" /><path clip-path="url(#clip070)" d="M2223.87 100.235 L2227.58 100.235 Q2231.05 105.698 2232.76 110.929 Q2234.5 116.161 2234.5 121.323 Q2234.5 126.508 2232.76 131.763 Q2231.05 137.017 2227.58 142.457 L2223.87 142.457 Q2226.95 137.156 2228.46 131.925 Q2229.98 126.67 2229.98 121.323 Q2229.98 115.976 2228.46 110.767 Q2226.95 105.559 2223.87 100.235 Z" fill="#000000" fill-rule="evenodd" fill-opacity="1" /><polyline clip-path="url(#clip070)" style="stroke:#e26f46; stroke-linecap:butt; stroke-linejoin:round; stroke-width:4; stroke-opacity:1; fill:none" points="
  1961.25,170.767 2103.16,170.767 
  "/>
<path clip-path="url(#clip070)" d="M2126.81 177.816 L2126.81 162.121 L2131.07 162.121 L2131.07 177.654 Q2131.07 181.334 2132.51 183.186 Q2133.94 185.015 2136.81 185.015 Q2140.26 185.015 2142.25 182.816 Q2144.27 180.616 2144.27 176.82 L2144.27 162.121 L2148.53 162.121 L2148.53 188.047 L2144.27 188.047 L2144.27 184.066 Q2142.72 186.427 2140.66 187.584 Q2138.62 188.718 2135.91 188.718 Q2131.44 188.718 2129.13 185.941 Q2126.81 183.163 2126.81 177.816 M2137.53 161.496 L2137.53 161.496 Z" fill="#000000" fill-rule="evenodd" fill-opacity="1" /><path clip-path="url(#clip070)" d="M2161.93 184.112 L2178.25 184.112 L2178.25 188.047 L2156.3 188.047 L2156.3 184.112 Q2158.97 181.357 2163.55 176.728 Q2168.15 172.075 2169.34 170.732 Q2171.58 168.209 2172.46 166.473 Q2173.36 164.714 2173.36 163.024 Q2173.36 160.269 2171.42 158.533 Q2169.5 156.797 2166.4 156.797 Q2164.2 156.797 2161.74 157.561 Q2159.31 158.325 2156.53 159.876 L2156.53 155.154 Q2159.36 154.019 2161.81 153.441 Q2164.27 152.862 2166.3 152.862 Q2171.67 152.862 2174.87 155.547 Q2178.06 158.232 2178.06 162.723 Q2178.06 164.853 2177.25 166.774 Q2176.47 168.672 2174.36 171.265 Q2173.78 171.936 2170.68 175.154 Q2167.58 178.348 2161.93 184.112 Z" fill="#000000" fill-rule="evenodd" fill-opacity="1" /><path clip-path="url(#clip070)" d="M2197.69 152.075 Q2194.59 157.399 2193.09 162.607 Q2191.58 167.816 2191.58 173.163 Q2191.58 178.51 2193.09 183.765 Q2194.61 188.996 2197.69 194.297 L2193.99 194.297 Q2190.52 188.857 2188.78 183.603 Q2187.07 178.348 2187.07 173.163 Q2187.07 168.001 2188.78 162.769 Q2190.49 157.538 2193.99 152.075 L2197.69 152.075 Z" fill="#000000" fill-rule="evenodd" fill-opacity="1" /><path clip-path="url(#clip070)" d="M2210.17 154.76 L2210.17 162.121 L2218.94 162.121 L2218.94 165.431 L2210.17 165.431 L2210.17 179.505 Q2210.17 182.677 2211.03 183.579 Q2211.9 184.482 2214.57 184.482 L2218.94 184.482 L2218.94 188.047 L2214.57 188.047 Q2209.64 188.047 2207.76 186.218 Q2205.89 184.366 2205.89 179.505 L2205.89 165.431 L2202.76 165.431 L2202.76 162.121 L2205.89 162.121 L2205.89 154.76 L2210.17 154.76 Z" fill="#000000" fill-rule="evenodd" fill-opacity="1" /><path clip-path="url(#clip070)" d="M2223.87 152.075 L2227.58 152.075 Q2231.05 157.538 2232.76 162.769 Q2234.5 168.001 2234.5 173.163 Q2234.5 178.348 2232.76 183.603 Q2231.05 188.857 2227.58 194.297 L2223.87 194.297 Q2226.95 188.996 2228.46 183.765 Q2229.98 178.51 2229.98 173.163 Q2229.98 167.816 2228.46 162.607 Q2226.95 157.399 2223.87 152.075 Z" fill="#000000" fill-rule="evenodd" fill-opacity="1" /><polyline clip-path="url(#clip070)" style="stroke:#3da44d; stroke-linecap:butt; stroke-linejoin:round; stroke-width:4; stroke-opacity:1; fill:none" points="
  1961.25,222.607 2103.16,222.607 
  "/>
<path clip-path="url(#clip070)" d="M2126.81 229.656 L2126.81 213.961 L2131.07 213.961 L2131.07 229.494 Q2131.07 233.174 2132.51 235.026 Q2133.94 236.855 2136.81 236.855 Q2140.26 236.855 2142.25 234.656 Q2144.27 232.456 2144.27 228.66 L2144.27 213.961 L2148.53 213.961 L2148.53 239.887 L2144.27 239.887 L2144.27 235.906 Q2142.72 238.267 2140.66 239.424 Q2138.62 240.558 2135.91 240.558 Q2131.44 240.558 2129.13 237.781 Q2126.81 235.003 2126.81 229.656 M2137.53 213.336 L2137.53 213.336 Z" fill="#000000" fill-rule="evenodd" fill-opacity="1" /><path clip-path="url(#clip070)" d="M2172.07 221.253 Q2175.42 221.97 2177.3 224.239 Q2179.2 226.507 2179.2 229.841 Q2179.2 234.956 2175.68 237.757 Q2172.16 240.558 2165.68 240.558 Q2163.5 240.558 2161.19 240.118 Q2158.9 239.702 2156.44 238.845 L2156.44 234.331 Q2158.39 235.466 2160.7 236.044 Q2163.02 236.623 2165.54 236.623 Q2169.94 236.623 2172.23 234.887 Q2174.54 233.151 2174.54 229.841 Q2174.54 226.785 2172.39 225.072 Q2170.26 223.336 2166.44 223.336 L2162.41 223.336 L2162.41 219.494 L2166.63 219.494 Q2170.08 219.494 2171.9 218.128 Q2173.73 216.739 2173.73 214.146 Q2173.73 211.484 2171.84 210.072 Q2169.96 208.637 2166.44 208.637 Q2164.52 208.637 2162.32 209.054 Q2160.12 209.47 2157.48 210.35 L2157.48 206.183 Q2160.15 205.443 2162.46 205.072 Q2164.8 204.702 2166.86 204.702 Q2172.18 204.702 2175.28 207.133 Q2178.39 209.54 2178.39 213.66 Q2178.39 216.531 2176.74 218.521 Q2175.1 220.489 2172.07 221.253 Z" fill="#000000" fill-rule="evenodd" fill-opacity="1" /><path clip-path="url(#clip070)" d="M2197.69 203.915 Q2194.59 209.239 2193.09 214.447 Q2191.58 219.656 2191.58 225.003 Q2191.58 230.35 2193.09 235.605 Q2194.61 240.836 2197.69 246.137 L2193.99 246.137 Q2190.52 240.697 2188.78 235.443 Q2187.07 230.188 2187.07 225.003 Q2187.07 219.841 2188.78 214.609 Q2190.49 209.378 2193.99 203.915 L2197.69 203.915 Z" fill="#000000" fill-rule="evenodd" fill-opacity="1" /><path clip-path="url(#clip070)" d="M2210.17 206.6 L2210.17 213.961 L2218.94 213.961 L2218.94 217.271 L2210.17 217.271 L2210.17 231.345 Q2210.17 234.517 2211.03 235.419 Q2211.9 236.322 2214.57 236.322 L2218.94 236.322 L2218.94 239.887 L2214.57 239.887 Q2209.64 239.887 2207.76 238.058 Q2205.89 236.206 2205.89 231.345 L2205.89 217.271 L2202.76 217.271 L2202.76 213.961 L2205.89 213.961 L2205.89 206.6 L2210.17 206.6 Z" fill="#000000" fill-rule="evenodd" fill-opacity="1" /><path clip-path="url(#clip070)" d="M2223.87 203.915 L2227.58 203.915 Q2231.05 209.378 2232.76 214.609 Q2234.5 219.841 2234.5 225.003 Q2234.5 230.188 2232.76 235.443 Q2231.05 240.697 2227.58 246.137 L2223.87 246.137 Q2226.95 240.836 2228.46 235.605 Q2229.98 230.35 2229.98 225.003 Q2229.98 219.656 2228.46 214.447 Q2226.95 209.239 2223.87 203.915 Z" fill="#000000" fill-rule="evenodd" fill-opacity="1" /><polyline clip-path="url(#clip070)" style="stroke:#c271d2; stroke-linecap:butt; stroke-linejoin:round; stroke-width:4; stroke-opacity:1; fill:none" stroke-dasharray="16, 10" points="
  1961.25,274.447 2103.16,274.447 
  "/>
<path clip-path="url(#clip070)" d="M2126.81 281.496 L2126.81 265.801 L2131.07 265.801 L2131.07 281.334 Q2131.07 285.014 2132.51 286.866 Q2133.94 288.695 2136.81 288.695 Q2140.26 288.695 2142.25 286.496 Q2144.27 284.296 2144.27 280.5 L2144.27 265.801 L2148.53 265.801 L2148.53 291.727 L2144.27 291.727 L2144.27 287.746 Q2142.72 290.107 2140.66 291.264 Q2138.62 292.398 2135.91 292.398 Q2131.44 292.398 2129.13 289.621 Q2126.81 286.843 2126.81 281.496 M2137.53 265.176 L2137.53 265.176 Z" fill="#000000" fill-rule="evenodd" fill-opacity="1" /><path clip-path="url(#clip070)" d="M2158.71 287.792 L2166.35 287.792 L2166.35 261.426 L2158.04 263.093 L2158.04 258.834 L2166.3 257.167 L2170.98 257.167 L2170.98 287.792 L2178.62 287.792 L2178.62 291.727 L2158.71 291.727 L2158.71 287.792 Z" fill="#000000" fill-rule="evenodd" fill-opacity="1" /><path clip-path="url(#clip070)" d="M2197.69 255.755 Q2194.59 261.079 2193.09 266.287 Q2191.58 271.496 2191.58 276.843 Q2191.58 282.19 2193.09 287.445 Q2194.61 292.676 2197.69 297.977 L2193.99 297.977 Q2190.52 292.537 2188.78 287.283 Q2187.07 282.028 2187.07 276.843 Q2187.07 271.681 2188.78 266.449 Q2190.49 261.218 2193.99 255.755 L2197.69 255.755 Z" fill="#000000" fill-rule="evenodd" fill-opacity="1" /><path clip-path="url(#clip070)" d="M2210.17 258.44 L2210.17 265.801 L2218.94 265.801 L2218.94 269.111 L2210.17 269.111 L2210.17 283.185 Q2210.17 286.357 2211.03 287.259 Q2211.9 288.162 2214.57 288.162 L2218.94 288.162 L2218.94 291.727 L2214.57 291.727 Q2209.64 291.727 2207.76 289.898 Q2205.89 288.046 2205.89 283.185 L2205.89 269.111 L2202.76 269.111 L2202.76 265.801 L2205.89 265.801 L2205.89 258.44 L2210.17 258.44 Z" fill="#000000" fill-rule="evenodd" fill-opacity="1" /><path clip-path="url(#clip070)" d="M2223.87 255.755 L2227.58 255.755 Q2231.05 261.218 2232.76 266.449 Q2234.5 271.681 2234.5 276.843 Q2234.5 282.028 2232.76 287.283 Q2231.05 292.537 2227.58 297.977 L2223.87 297.977 Q2226.95 292.676 2228.46 287.445 Q2229.98 282.19 2229.98 276.843 Q2229.98 271.496 2228.46 266.287 Q2226.95 261.079 2223.87 255.755 Z" fill="#000000" fill-rule="evenodd" fill-opacity="1" /><polyline clip-path="url(#clip070)" style="stroke:#ac8d18; stroke-linecap:butt; stroke-linejoin:round; stroke-width:4; stroke-opacity:1; fill:none" stroke-dasharray="16, 10" points="
  1961.25,326.287 2103.16,326.287 
  "/>
<path clip-path="url(#clip070)" d="M2126.81 333.336 L2126.81 317.641 L2131.07 317.641 L2131.07 333.174 Q2131.07 336.854 2132.51 338.706 Q2133.94 340.535 2136.81 340.535 Q2140.26 340.535 2142.25 338.336 Q2144.27 336.136 2144.27 332.34 L2144.27 317.641 L2148.53 317.641 L2148.53 343.567 L2144.27 343.567 L2144.27 339.586 Q2142.72 341.947 2140.66 343.104 Q2138.62 344.238 2135.91 344.238 Q2131.44 344.238 2129.13 341.461 Q2126.81 338.683 2126.81 333.336 M2137.53 317.016 L2137.53 317.016 Z" fill="#000000" fill-rule="evenodd" fill-opacity="1" /><path clip-path="url(#clip070)" d="M2161.93 339.632 L2178.25 339.632 L2178.25 343.567 L2156.3 343.567 L2156.3 339.632 Q2158.97 336.877 2163.55 332.248 Q2168.15 327.595 2169.34 326.252 Q2171.58 323.729 2172.46 321.993 Q2173.36 320.234 2173.36 318.544 Q2173.36 315.789 2171.42 314.053 Q2169.5 312.317 2166.4 312.317 Q2164.2 312.317 2161.74 313.081 Q2159.31 313.845 2156.53 315.396 L2156.53 310.674 Q2159.36 309.539 2161.81 308.961 Q2164.27 308.382 2166.3 308.382 Q2171.67 308.382 2174.87 311.067 Q2178.06 313.752 2178.06 318.243 Q2178.06 320.373 2177.25 322.294 Q2176.47 324.192 2174.36 326.785 Q2173.78 327.456 2170.68 330.674 Q2167.58 333.868 2161.93 339.632 Z" fill="#000000" fill-rule="evenodd" fill-opacity="1" /><path clip-path="url(#clip070)" d="M2197.69 307.595 Q2194.59 312.919 2193.09 318.127 Q2191.58 323.336 2191.58 328.683 Q2191.58 334.03 2193.09 339.285 Q2194.61 344.516 2197.69 349.817 L2193.99 349.817 Q2190.52 344.377 2188.78 339.123 Q2187.07 333.868 2187.07 328.683 Q2187.07 323.521 2188.78 318.289 Q2190.49 313.058 2193.99 307.595 L2197.69 307.595 Z" fill="#000000" fill-rule="evenodd" fill-opacity="1" /><path clip-path="url(#clip070)" d="M2210.17 310.28 L2210.17 317.641 L2218.94 317.641 L2218.94 320.951 L2210.17 320.951 L2210.17 335.025 Q2210.17 338.197 2211.03 339.099 Q2211.9 340.002 2214.57 340.002 L2218.94 340.002 L2218.94 343.567 L2214.57 343.567 Q2209.64 343.567 2207.76 341.738 Q2205.89 339.886 2205.89 335.025 L2205.89 320.951 L2202.76 320.951 L2202.76 317.641 L2205.89 317.641 L2205.89 310.28 L2210.17 310.28 Z" fill="#000000" fill-rule="evenodd" fill-opacity="1" /><path clip-path="url(#clip070)" d="M2223.87 307.595 L2227.58 307.595 Q2231.05 313.058 2232.76 318.289 Q2234.5 323.521 2234.5 328.683 Q2234.5 333.868 2232.76 339.123 Q2231.05 344.377 2227.58 349.817 L2223.87 349.817 Q2226.95 344.516 2228.46 339.285 Q2229.98 334.03 2229.98 328.683 Q2229.98 323.336 2228.46 318.127 Q2226.95 312.919 2223.87 307.595 Z" fill="#000000" fill-rule="evenodd" fill-opacity="1" /><polyline clip-path="url(#clip070)" style="stroke:#00a9ad; stroke-linecap:butt; stroke-linejoin:round; stroke-width:4; stroke-opacity:1; fill:none" stroke-dasharray="16, 10" points="
  1961.25,378.127 2103.16,378.127 
  "/>
<path clip-path="url(#clip070)" d="M2126.81 385.176 L2126.81 369.481 L2131.07 369.481 L2131.07 385.014 Q2131.07 388.694 2132.51 390.546 Q2133.94 392.375 2136.81 392.375 Q2140.26 392.375 2142.25 390.176 Q2144.27 387.976 2144.27 384.18 L2144.27 369.481 L2148.53 369.481 L2148.53 395.407 L2144.27 395.407 L2144.27 391.426 Q2142.72 393.787 2140.66 394.944 Q2138.62 396.078 2135.91 396.078 Q2131.44 396.078 2129.13 393.301 Q2126.81 390.523 2126.81 385.176 M2137.53 368.856 L2137.53 368.856 Z" fill="#000000" fill-rule="evenodd" fill-opacity="1" /><path clip-path="url(#clip070)" d="M2172.07 376.773 Q2175.42 377.49 2177.3 379.759 Q2179.2 382.027 2179.2 385.361 Q2179.2 390.476 2175.68 393.277 Q2172.16 396.078 2165.68 396.078 Q2163.5 396.078 2161.19 395.638 Q2158.9 395.222 2156.44 394.365 L2156.44 389.851 Q2158.39 390.986 2160.7 391.564 Q2163.02 392.143 2165.54 392.143 Q2169.94 392.143 2172.23 390.407 Q2174.54 388.671 2174.54 385.361 Q2174.54 382.305 2172.39 380.592 Q2170.26 378.856 2166.44 378.856 L2162.41 378.856 L2162.41 375.014 L2166.63 375.014 Q2170.08 375.014 2171.9 373.648 Q2173.73 372.259 2173.73 369.666 Q2173.73 367.004 2171.84 365.592 Q2169.96 364.157 2166.44 364.157 Q2164.52 364.157 2162.32 364.574 Q2160.12 364.99 2157.48 365.87 L2157.48 361.703 Q2160.15 360.963 2162.46 360.592 Q2164.8 360.222 2166.86 360.222 Q2172.18 360.222 2175.28 362.653 Q2178.39 365.06 2178.39 369.18 Q2178.39 372.051 2176.74 374.041 Q2175.1 376.009 2172.07 376.773 Z" fill="#000000" fill-rule="evenodd" fill-opacity="1" /><path clip-path="url(#clip070)" d="M2197.69 359.435 Q2194.59 364.759 2193.09 369.967 Q2191.58 375.176 2191.58 380.523 Q2191.58 385.87 2193.09 391.125 Q2194.61 396.356 2197.69 401.657 L2193.99 401.657 Q2190.52 396.217 2188.78 390.963 Q2187.07 385.708 2187.07 380.523 Q2187.07 375.361 2188.78 370.129 Q2190.49 364.898 2193.99 359.435 L2197.69 359.435 Z" fill="#000000" fill-rule="evenodd" fill-opacity="1" /><path clip-path="url(#clip070)" d="M2210.17 362.12 L2210.17 369.481 L2218.94 369.481 L2218.94 372.791 L2210.17 372.791 L2210.17 386.865 Q2210.17 390.037 2211.03 390.939 Q2211.9 391.842 2214.57 391.842 L2218.94 391.842 L2218.94 395.407 L2214.57 395.407 Q2209.64 395.407 2207.76 393.578 Q2205.89 391.726 2205.89 386.865 L2205.89 372.791 L2202.76 372.791 L2202.76 369.481 L2205.89 369.481 L2205.89 362.12 L2210.17 362.12 Z" fill="#000000" fill-rule="evenodd" fill-opacity="1" /><path clip-path="url(#clip070)" d="M2223.87 359.435 L2227.58 359.435 Q2231.05 364.898 2232.76 370.129 Q2234.5 375.361 2234.5 380.523 Q2234.5 385.708 2232.76 390.963 Q2231.05 396.217 2227.58 401.657 L2223.87 401.657 Q2226.95 396.356 2228.46 391.125 Q2229.98 385.87 2229.98 380.523 Q2229.98 375.176 2228.46 369.967 Q2226.95 364.759 2223.87 359.435 Z" fill="#000000" fill-rule="evenodd" fill-opacity="1" /><polyline clip-path="url(#clip070)" style="stroke:#ed5d92; stroke-linecap:butt; stroke-linejoin:round; stroke-width:4; stroke-opacity:1; fill:none" stroke-dasharray="2, 4" points="
  1961.25,429.967 2103.16,429.967 
  "/>
<path clip-path="url(#clip070)" d="M2140.66 449.654 Q2138.85 454.284 2137.14 455.696 Q2135.42 457.108 2132.55 457.108 L2129.15 457.108 L2129.15 453.543 L2131.65 453.543 Q2133.41 453.543 2134.38 452.71 Q2135.35 451.877 2136.53 448.775 L2137.3 446.83 L2126.81 421.321 L2131.33 421.321 L2139.43 441.599 L2147.53 421.321 L2152.04 421.321 L2140.66 449.654 Z" fill="#000000" fill-rule="evenodd" fill-opacity="1" /><path clip-path="url(#clip070)" d="M2157.34 412.687 L2179.57 412.687 L2179.57 414.678 L2167.02 447.247 L2162.14 447.247 L2173.94 416.622 L2157.34 416.622 L2157.34 412.687 Z" fill="#000000" fill-rule="evenodd" fill-opacity="1" /><polyline clip-path="url(#clip070)" style="stroke:#c68125; stroke-linecap:butt; stroke-linejoin:round; stroke-width:4; stroke-opacity:1; fill:none" stroke-dasharray="2, 4" points="
  1961.25,481.807 2103.16,481.807 
  "/>
<path clip-path="url(#clip070)" d="M2140.66 501.494 Q2138.85 506.124 2137.14 507.536 Q2135.42 508.948 2132.55 508.948 L2129.15 508.948 L2129.15 505.383 L2131.65 505.383 Q2133.41 505.383 2134.38 504.55 Q2135.35 503.717 2136.53 500.615 L2137.3 498.67 L2126.81 473.161 L2131.33 473.161 L2139.43 493.439 L2147.53 473.161 L2152.04 473.161 L2140.66 501.494 Z" fill="#000000" fill-rule="evenodd" fill-opacity="1" /><path clip-path="url(#clip070)" d="M2168.53 482.675 Q2165.19 482.675 2163.27 484.457 Q2161.37 486.24 2161.37 489.365 Q2161.37 492.49 2163.27 494.272 Q2165.19 496.055 2168.53 496.055 Q2171.86 496.055 2173.78 494.272 Q2175.7 492.467 2175.7 489.365 Q2175.7 486.24 2173.78 484.457 Q2171.88 482.675 2168.53 482.675 M2163.85 480.684 Q2160.84 479.944 2159.15 477.883 Q2157.48 475.823 2157.48 472.86 Q2157.48 468.717 2160.42 466.309 Q2163.39 463.902 2168.53 463.902 Q2173.69 463.902 2176.63 466.309 Q2179.57 468.717 2179.57 472.86 Q2179.57 475.823 2177.88 477.883 Q2176.21 479.944 2173.22 480.684 Q2176.6 481.471 2178.48 483.763 Q2180.38 486.055 2180.38 489.365 Q2180.38 494.388 2177.3 497.073 Q2174.24 499.758 2168.53 499.758 Q2162.81 499.758 2159.73 497.073 Q2156.67 494.388 2156.67 489.365 Q2156.67 486.055 2158.57 483.763 Q2160.47 481.471 2163.85 480.684 M2162.14 473.3 Q2162.14 475.985 2163.8 477.49 Q2165.49 478.994 2168.53 478.994 Q2171.53 478.994 2173.22 477.49 Q2174.94 475.985 2174.94 473.3 Q2174.94 470.615 2173.22 469.11 Q2171.53 467.606 2168.53 467.606 Q2165.49 467.606 2163.8 469.11 Q2162.14 470.615 2162.14 473.3 Z" fill="#000000" fill-rule="evenodd" fill-opacity="1" /><polyline clip-path="url(#clip070)" style="stroke:#00a98d; stroke-linecap:butt; stroke-linejoin:round; stroke-width:4; stroke-opacity:1; fill:none" stroke-dasharray="2, 4" points="
  1961.25,533.647 2103.16,533.647 
  "/>
<path clip-path="url(#clip070)" d="M2140.66 553.334 Q2138.85 557.964 2137.14 559.376 Q2135.42 560.788 2132.55 560.788 L2129.15 560.788 L2129.15 557.223 L2131.65 557.223 Q2133.41 557.223 2134.38 556.39 Q2135.35 555.557 2136.53 552.455 L2137.3 550.51 L2126.81 525.001 L2131.33 525.001 L2139.43 545.279 L2147.53 525.001 L2152.04 525.001 L2140.66 553.334 Z" fill="#000000" fill-rule="evenodd" fill-opacity="1" /><path clip-path="url(#clip070)" d="M2158.66 550.209 L2158.66 545.95 Q2160.42 546.783 2162.23 547.223 Q2164.03 547.663 2165.77 547.663 Q2170.4 547.663 2172.83 544.561 Q2175.28 541.436 2175.63 535.094 Q2174.29 537.084 2172.23 538.149 Q2170.17 539.214 2167.67 539.214 Q2162.48 539.214 2159.45 536.089 Q2156.44 532.941 2156.44 527.501 Q2156.44 522.177 2159.59 518.96 Q2162.74 515.742 2167.97 515.742 Q2173.97 515.742 2177.11 520.348 Q2180.28 524.932 2180.28 533.682 Q2180.28 541.853 2176.4 546.737 Q2172.53 551.598 2165.98 551.598 Q2164.22 551.598 2162.41 551.251 Q2160.61 550.904 2158.66 550.209 M2167.97 535.557 Q2171.12 535.557 2172.95 533.404 Q2174.8 531.251 2174.8 527.501 Q2174.8 523.774 2172.95 521.622 Q2171.12 519.446 2167.97 519.446 Q2164.82 519.446 2162.97 521.622 Q2161.14 523.774 2161.14 527.501 Q2161.14 531.251 2162.97 533.404 Q2164.82 535.557 2167.97 535.557 Z" fill="#000000" fill-rule="evenodd" fill-opacity="1" /><path clip-path="url(#clip070)" d="
M224.098 1474.16 L2352.76 1474.16 L2352.76 878.878 L224.098 878.878  Z
  " fill="#ffffff" fill-rule="evenodd" fill-opacity="1"/>
<defs>
  <clipPath id="clip073">
    <rect x="224" y="878" width="2130" height="596"/>
  </clipPath>
</defs>
<polyline clip-path="url(#clip073)" style="stroke:#000000; stroke-linecap:butt; stroke-linejoin:round; stroke-width:2; stroke-opacity:0.1; fill:none" points="
  571.224,1474.16 571.224,878.878 
  "/>
<polyline clip-path="url(#clip073)" style="stroke:#000000; stroke-linecap:butt; stroke-linejoin:round; stroke-width:2; stroke-opacity:0.1; fill:none" points="
  1288.43,1474.16 1288.43,878.878 
  "/>
<polyline clip-path="url(#clip073)" style="stroke:#000000; stroke-linecap:butt; stroke-linejoin:round; stroke-width:2; stroke-opacity:0.1; fill:none" points="
  2005.63,1474.16 2005.63,878.878 
  "/>
<polyline clip-path="url(#clip070)" style="stroke:#000000; stroke-linecap:butt; stroke-linejoin:round; stroke-width:4; stroke-opacity:1; fill:none" points="
  224.098,1474.16 2352.76,1474.16 
  "/>
<polyline clip-path="url(#clip070)" style="stroke:#000000; stroke-linecap:butt; stroke-linejoin:round; stroke-width:4; stroke-opacity:1; fill:none" points="
  571.224,1474.16 571.224,1455.27 
  "/>
<polyline clip-path="url(#clip070)" style="stroke:#000000; stroke-linecap:butt; stroke-linejoin:round; stroke-width:4; stroke-opacity:1; fill:none" points="
  1288.43,1474.16 1288.43,1455.27 
  "/>
<polyline clip-path="url(#clip070)" style="stroke:#000000; stroke-linecap:butt; stroke-linejoin:round; stroke-width:4; stroke-opacity:1; fill:none" points="
  2005.63,1474.16 2005.63,1455.27 
  "/>
<path clip-path="url(#clip070)" d="M521.245 1552.44 L528.884 1552.44 L528.884 1526.07 L520.574 1527.74 L520.574 1523.48 L528.838 1521.81 L533.514 1521.81 L533.514 1552.44 L541.153 1552.44 L541.153 1556.37 L521.245 1556.37 L521.245 1552.44 Z" fill="#000000" fill-rule="evenodd" fill-opacity="1" /><path clip-path="url(#clip070)" d="M560.597 1524.89 Q556.986 1524.89 555.157 1528.46 Q553.352 1532 553.352 1539.13 Q553.352 1546.23 555.157 1549.8 Q556.986 1553.34 560.597 1553.34 Q564.231 1553.34 566.037 1549.8 Q567.865 1546.23 567.865 1539.13 Q567.865 1532 566.037 1528.46 Q564.231 1524.89 560.597 1524.89 M560.597 1521.19 Q566.407 1521.19 569.463 1525.79 Q572.541 1530.38 572.541 1539.13 Q572.541 1547.85 569.463 1552.46 Q566.407 1557.04 560.597 1557.04 Q554.787 1557.04 551.708 1552.46 Q548.653 1547.85 548.653 1539.13 Q548.653 1530.38 551.708 1525.79 Q554.787 1521.19 560.597 1521.19 Z" fill="#000000" fill-rule="evenodd" fill-opacity="1" /><path clip-path="url(#clip070)" d="M572.541 1515.29 L596.653 1515.29 L596.653 1518.49 L572.541 1518.49 L572.541 1515.29 Z" fill="#000000" fill-rule="evenodd" fill-opacity="1" /><path clip-path="url(#clip070)" d="M604.891 1500.88 L619.805 1500.88 L619.805 1504.08 L608.37 1504.08 L608.37 1510.96 Q609.198 1510.68 610.025 1510.55 Q610.853 1510.4 611.68 1510.4 Q616.382 1510.4 619.128 1512.97 Q621.874 1515.55 621.874 1519.95 Q621.874 1524.49 619.053 1527.01 Q616.232 1529.51 611.097 1529.51 Q609.329 1529.51 607.486 1529.21 Q605.662 1528.91 603.706 1528.3 L603.706 1524.49 Q605.398 1525.41 607.204 1525.86 Q609.01 1526.31 611.022 1526.31 Q614.276 1526.31 616.175 1524.6 Q618.075 1522.89 618.075 1519.95 Q618.075 1517.02 616.175 1515.31 Q614.276 1513.6 611.022 1513.6 Q609.499 1513.6 607.975 1513.93 Q606.471 1514.27 604.891 1514.99 L604.891 1500.88 Z" fill="#000000" fill-rule="evenodd" fill-opacity="1" /><path clip-path="url(#clip070)" d="M1253.41 1552.44 L1261.05 1552.44 L1261.05 1526.07 L1252.74 1527.74 L1252.74 1523.48 L1261 1521.81 L1265.68 1521.81 L1265.68 1552.44 L1273.32 1552.44 L1273.32 1556.37 L1253.41 1556.37 L1253.41 1552.44 Z" fill="#000000" fill-rule="evenodd" fill-opacity="1" /><path clip-path="url(#clip070)" d="M1292.76 1524.89 Q1289.15 1524.89 1287.32 1528.46 Q1285.52 1532 1285.52 1539.13 Q1285.52 1546.23 1287.32 1549.8 Q1289.15 1553.34 1292.76 1553.34 Q1296.4 1553.34 1298.2 1549.8 Q1300.03 1546.23 1300.03 1539.13 Q1300.03 1532 1298.2 1528.46 Q1296.4 1524.89 1292.76 1524.89 M1292.76 1521.19 Q1298.57 1521.19 1301.63 1525.79 Q1304.71 1530.38 1304.71 1539.13 Q1304.71 1547.85 1301.63 1552.46 Q1298.57 1557.04 1292.76 1557.04 Q1286.95 1557.04 1283.87 1552.46 Q1280.82 1547.85 1280.82 1539.13 Q1280.82 1530.38 1283.87 1525.79 Q1286.95 1521.19 1292.76 1521.19 Z" fill="#000000" fill-rule="evenodd" fill-opacity="1" /><path clip-path="url(#clip070)" d="M1314.41 1503.38 Q1311.48 1503.38 1309.99 1506.28 Q1308.52 1509.16 1308.52 1514.95 Q1308.52 1520.72 1309.99 1523.62 Q1311.48 1526.5 1314.41 1526.5 Q1317.36 1526.5 1318.83 1523.62 Q1320.32 1520.72 1320.32 1514.95 Q1320.32 1509.16 1318.83 1506.28 Q1317.36 1503.38 1314.41 1503.38 M1314.41 1500.37 Q1319.13 1500.37 1321.61 1504.12 Q1324.12 1507.84 1324.12 1514.95 Q1324.12 1522.04 1321.61 1525.78 Q1319.13 1529.51 1314.41 1529.51 Q1309.69 1529.51 1307.19 1525.78 Q1304.71 1522.04 1304.71 1514.95 Q1304.71 1507.84 1307.19 1504.12 Q1309.69 1500.37 1314.41 1500.37 Z" fill="#000000" fill-rule="evenodd" fill-opacity="1" /><path clip-path="url(#clip070)" d="M1971.23 1552.44 L1978.87 1552.44 L1978.87 1526.07 L1970.56 1527.74 L1970.56 1523.48 L1978.83 1521.81 L1983.5 1521.81 L1983.5 1552.44 L1991.14 1552.44 L1991.14 1556.37 L1971.23 1556.37 L1971.23 1552.44 Z" fill="#000000" fill-rule="evenodd" fill-opacity="1" /><path clip-path="url(#clip070)" d="M2010.58 1524.89 Q2006.97 1524.89 2005.15 1528.46 Q2003.34 1532 2003.34 1539.13 Q2003.34 1546.23 2005.15 1549.8 Q2006.97 1553.34 2010.58 1553.34 Q2014.22 1553.34 2016.02 1549.8 Q2017.85 1546.23 2017.85 1539.13 Q2017.85 1532 2016.02 1528.46 Q2014.22 1524.89 2010.58 1524.89 M2010.58 1521.19 Q2016.4 1521.19 2019.45 1525.79 Q2022.53 1530.38 2022.53 1539.13 Q2022.53 1547.85 2019.45 1552.46 Q2016.4 1557.04 2010.58 1557.04 Q2004.77 1557.04 2001.7 1552.46 Q1998.64 1547.85 1998.64 1539.13 Q1998.64 1530.38 2001.7 1525.79 Q2004.77 1521.19 2010.58 1521.19 Z" fill="#000000" fill-rule="evenodd" fill-opacity="1" /><path clip-path="url(#clip070)" d="M2023.71 1500.88 L2038.63 1500.88 L2038.63 1504.08 L2027.19 1504.08 L2027.19 1510.96 Q2028.02 1510.68 2028.85 1510.55 Q2029.68 1510.4 2030.5 1510.4 Q2035.21 1510.4 2037.95 1512.97 Q2040.7 1515.55 2040.7 1519.95 Q2040.7 1524.49 2037.88 1527.01 Q2035.06 1529.51 2029.92 1529.51 Q2028.15 1529.51 2026.31 1529.21 Q2024.49 1528.91 2022.53 1528.3 L2022.53 1524.49 Q2024.22 1525.41 2026.03 1525.86 Q2027.83 1526.31 2029.85 1526.31 Q2033.1 1526.31 2035 1524.6 Q2036.9 1522.89 2036.9 1519.95 Q2036.9 1517.02 2035 1515.31 Q2033.1 1513.6 2029.85 1513.6 Q2028.32 1513.6 2026.8 1513.93 Q2025.29 1514.27 2023.71 1514.99 L2023.71 1500.88 Z" fill="#000000" fill-rule="evenodd" fill-opacity="1" /><polyline clip-path="url(#clip073)" style="stroke:#000000; stroke-linecap:butt; stroke-linejoin:round; stroke-width:2; stroke-opacity:0.1; fill:none" points="
  224.098,1466.61 2352.76,1466.61 
  "/>
<polyline clip-path="url(#clip073)" style="stroke:#000000; stroke-linecap:butt; stroke-linejoin:round; stroke-width:2; stroke-opacity:0.1; fill:none" points="
  224.098,1365.42 2352.76,1365.42 
  "/>
<polyline clip-path="url(#clip073)" style="stroke:#000000; stroke-linecap:butt; stroke-linejoin:round; stroke-width:2; stroke-opacity:0.1; fill:none" points="
  224.098,1264.22 2352.76,1264.22 
  "/>
<polyline clip-path="url(#clip073)" style="stroke:#000000; stroke-linecap:butt; stroke-linejoin:round; stroke-width:2; stroke-opacity:0.1; fill:none" points="
  224.098,1163.03 2352.76,1163.03 
  "/>
<polyline clip-path="url(#clip073)" style="stroke:#000000; stroke-linecap:butt; stroke-linejoin:round; stroke-width:2; stroke-opacity:0.1; fill:none" points="
  224.098,1061.84 2352.76,1061.84 
  "/>
<polyline clip-path="url(#clip073)" style="stroke:#000000; stroke-linecap:butt; stroke-linejoin:round; stroke-width:2; stroke-opacity:0.1; fill:none" points="
  224.098,960.64 2352.76,960.64 
  "/>
<polyline clip-path="url(#clip070)" style="stroke:#000000; stroke-linecap:butt; stroke-linejoin:round; stroke-width:4; stroke-opacity:1; fill:none" points="
  224.098,1474.16 224.098,878.878 
  "/>
<polyline clip-path="url(#clip070)" style="stroke:#000000; stroke-linecap:butt; stroke-linejoin:round; stroke-width:4; stroke-opacity:1; fill:none" points="
  224.098,1466.61 242.996,1466.61 
  "/>
<polyline clip-path="url(#clip070)" style="stroke:#000000; stroke-linecap:butt; stroke-linejoin:round; stroke-width:4; stroke-opacity:1; fill:none" points="
  224.098,1365.42 242.996,1365.42 
  "/>
<polyline clip-path="url(#clip070)" style="stroke:#000000; stroke-linecap:butt; stroke-linejoin:round; stroke-width:4; stroke-opacity:1; fill:none" points="
  224.098,1264.22 242.996,1264.22 
  "/>
<polyline clip-path="url(#clip070)" style="stroke:#000000; stroke-linecap:butt; stroke-linejoin:round; stroke-width:4; stroke-opacity:1; fill:none" points="
  224.098,1163.03 242.996,1163.03 
  "/>
<polyline clip-path="url(#clip070)" style="stroke:#000000; stroke-linecap:butt; stroke-linejoin:round; stroke-width:4; stroke-opacity:1; fill:none" points="
  224.098,1061.84 242.996,1061.84 
  "/>
<polyline clip-path="url(#clip070)" style="stroke:#000000; stroke-linecap:butt; stroke-linejoin:round; stroke-width:4; stroke-opacity:1; fill:none" points="
  224.098,960.64 242.996,960.64 
  "/>
<path clip-path="url(#clip070)" d="M50.9921 1467.07 L80.6679 1467.07 L80.6679 1471 L50.9921 1471 L50.9921 1467.07 Z" fill="#000000" fill-rule="evenodd" fill-opacity="1" /><path clip-path="url(#clip070)" d="M91.5706 1479.96 L99.2095 1479.96 L99.2095 1453.59 L90.8993 1455.26 L90.8993 1451 L99.1632 1449.33 L103.839 1449.33 L103.839 1479.96 L111.478 1479.96 L111.478 1483.89 L91.5706 1483.89 L91.5706 1479.96 Z" fill="#000000" fill-rule="evenodd" fill-opacity="1" /><path clip-path="url(#clip070)" d="M120.922 1478.01 L125.807 1478.01 L125.807 1483.89 L120.922 1483.89 L120.922 1478.01 Z" fill="#000000" fill-rule="evenodd" fill-opacity="1" /><path clip-path="url(#clip070)" d="M145.992 1452.41 Q142.381 1452.41 140.552 1455.98 Q138.746 1459.52 138.746 1466.65 Q138.746 1473.76 140.552 1477.32 Q142.381 1480.86 145.992 1480.86 Q149.626 1480.86 151.431 1477.32 Q153.26 1473.76 153.26 1466.65 Q153.26 1459.52 151.431 1455.98 Q149.626 1452.41 145.992 1452.41 M145.992 1448.71 Q151.802 1448.71 154.857 1453.32 Q157.936 1457.9 157.936 1466.65 Q157.936 1475.38 154.857 1479.98 Q151.802 1484.57 145.992 1484.57 Q140.181 1484.57 137.103 1479.98 Q134.047 1475.38 134.047 1466.65 Q134.047 1457.9 137.103 1453.32 Q140.181 1448.71 145.992 1448.71 Z" fill="#000000" fill-rule="evenodd" fill-opacity="1" /><path clip-path="url(#clip070)" d="M176.153 1452.41 Q172.542 1452.41 170.714 1455.98 Q168.908 1459.52 168.908 1466.65 Q168.908 1473.76 170.714 1477.32 Q172.542 1480.86 176.153 1480.86 Q179.788 1480.86 181.593 1477.32 Q183.422 1473.76 183.422 1466.65 Q183.422 1459.52 181.593 1455.98 Q179.788 1452.41 176.153 1452.41 M176.153 1448.71 Q181.964 1448.71 185.019 1453.32 Q188.098 1457.9 188.098 1466.65 Q188.098 1475.38 185.019 1479.98 Q181.964 1484.57 176.153 1484.57 Q170.343 1484.57 167.265 1479.98 Q164.209 1475.38 164.209 1466.65 Q164.209 1457.9 167.265 1453.32 Q170.343 1448.71 176.153 1448.71 Z" fill="#000000" fill-rule="evenodd" fill-opacity="1" /><path clip-path="url(#clip070)" d="M51.9875 1365.87 L81.6633 1365.87 L81.6633 1369.81 L51.9875 1369.81 L51.9875 1365.87 Z" fill="#000000" fill-rule="evenodd" fill-opacity="1" /><path clip-path="url(#clip070)" d="M101.756 1351.22 Q98.1447 1351.22 96.316 1354.78 Q94.5104 1358.32 94.5104 1365.45 Q94.5104 1372.56 96.316 1376.13 Q98.1447 1379.67 101.756 1379.67 Q105.39 1379.67 107.196 1376.13 Q109.024 1372.56 109.024 1365.45 Q109.024 1358.32 107.196 1354.78 Q105.39 1351.22 101.756 1351.22 M101.756 1347.51 Q107.566 1347.51 110.621 1352.12 Q113.7 1356.7 113.7 1365.45 Q113.7 1374.18 110.621 1378.79 Q107.566 1383.37 101.756 1383.37 Q95.9456 1383.37 92.8669 1378.79 Q89.8114 1374.18 89.8114 1365.45 Q89.8114 1356.7 92.8669 1352.12 Q95.9456 1347.51 101.756 1347.51 Z" fill="#000000" fill-rule="evenodd" fill-opacity="1" /><path clip-path="url(#clip070)" d="M121.918 1376.82 L126.802 1376.82 L126.802 1382.7 L121.918 1382.7 L121.918 1376.82 Z" fill="#000000" fill-rule="evenodd" fill-opacity="1" /><path clip-path="url(#clip070)" d="M135.806 1348.14 L158.029 1348.14 L158.029 1350.13 L145.482 1382.7 L140.598 1382.7 L152.404 1352.07 L135.806 1352.07 L135.806 1348.14 Z" fill="#000000" fill-rule="evenodd" fill-opacity="1" /><path clip-path="url(#clip070)" d="M167.195 1348.14 L185.552 1348.14 L185.552 1352.07 L171.478 1352.07 L171.478 1360.55 Q172.496 1360.2 173.515 1360.04 Q174.533 1359.85 175.552 1359.85 Q181.339 1359.85 184.718 1363.02 Q188.098 1366.19 188.098 1371.61 Q188.098 1377.19 184.626 1380.29 Q181.153 1383.37 174.834 1383.37 Q172.658 1383.37 170.39 1383 Q168.144 1382.63 165.737 1381.89 L165.737 1377.19 Q167.82 1378.32 170.042 1378.88 Q172.265 1379.44 174.741 1379.44 Q178.746 1379.44 181.084 1377.33 Q183.422 1375.22 183.422 1371.61 Q183.422 1368 181.084 1365.89 Q178.746 1363.79 174.741 1363.79 Q172.866 1363.79 170.991 1364.2 Q169.14 1364.62 167.195 1365.5 L167.195 1348.14 Z" fill="#000000" fill-rule="evenodd" fill-opacity="1" /><path clip-path="url(#clip070)" d="M50.9921 1264.68 L80.6679 1264.68 L80.6679 1268.61 L50.9921 1268.61 L50.9921 1264.68 Z" fill="#000000" fill-rule="evenodd" fill-opacity="1" /><path clip-path="url(#clip070)" d="M100.76 1250.02 Q97.1493 1250.02 95.3206 1253.59 Q93.515 1257.13 93.515 1264.26 Q93.515 1271.37 95.3206 1274.93 Q97.1493 1278.47 100.76 1278.47 Q104.395 1278.47 106.2 1274.93 Q108.029 1271.37 108.029 1264.26 Q108.029 1257.13 106.2 1253.59 Q104.395 1250.02 100.76 1250.02 M100.76 1246.32 Q106.571 1246.32 109.626 1250.93 Q112.705 1255.51 112.705 1264.26 Q112.705 1272.99 109.626 1277.59 Q106.571 1282.18 100.76 1282.18 Q94.9502 1282.18 91.8715 1277.59 Q88.816 1272.99 88.816 1264.26 Q88.816 1255.51 91.8715 1250.93 Q94.9502 1246.32 100.76 1246.32 Z" fill="#000000" fill-rule="evenodd" fill-opacity="1" /><path clip-path="url(#clip070)" d="M120.922 1275.62 L125.807 1275.62 L125.807 1281.5 L120.922 1281.5 L120.922 1275.62 Z" fill="#000000" fill-rule="evenodd" fill-opacity="1" /><path clip-path="url(#clip070)" d="M136.038 1246.94 L154.394 1246.94 L154.394 1250.88 L140.32 1250.88 L140.32 1259.35 Q141.339 1259 142.357 1258.84 Q143.376 1258.66 144.394 1258.66 Q150.181 1258.66 153.561 1261.83 Q156.941 1265 156.941 1270.42 Q156.941 1276 153.468 1279.1 Q149.996 1282.18 143.677 1282.18 Q141.501 1282.18 139.232 1281.81 Q136.987 1281.44 134.58 1280.69 L134.58 1276 Q136.663 1277.13 138.885 1277.69 Q141.107 1278.24 143.584 1278.24 Q147.589 1278.24 149.927 1276.13 Q152.265 1274.03 152.265 1270.42 Q152.265 1266.81 149.927 1264.7 Q147.589 1262.59 143.584 1262.59 Q141.709 1262.59 139.834 1263.01 Q137.982 1263.43 136.038 1264.31 L136.038 1246.94 Z" fill="#000000" fill-rule="evenodd" fill-opacity="1" /><path clip-path="url(#clip070)" d="M176.153 1250.02 Q172.542 1250.02 170.714 1253.59 Q168.908 1257.13 168.908 1264.26 Q168.908 1271.37 170.714 1274.93 Q172.542 1278.47 176.153 1278.47 Q179.788 1278.47 181.593 1274.93 Q183.422 1271.37 183.422 1264.26 Q183.422 1257.13 181.593 1253.59 Q179.788 1250.02 176.153 1250.02 M176.153 1246.32 Q181.964 1246.32 185.019 1250.93 Q188.098 1255.51 188.098 1264.26 Q188.098 1272.99 185.019 1277.59 Q181.964 1282.18 176.153 1282.18 Q170.343 1282.18 167.265 1277.59 Q164.209 1272.99 164.209 1264.26 Q164.209 1255.51 167.265 1250.93 Q170.343 1246.32 176.153 1246.32 Z" fill="#000000" fill-rule="evenodd" fill-opacity="1" /><path clip-path="url(#clip070)" d="M51.9875 1163.48 L81.6633 1163.48 L81.6633 1167.42 L51.9875 1167.42 L51.9875 1163.48 Z" fill="#000000" fill-rule="evenodd" fill-opacity="1" /><path clip-path="url(#clip070)" d="M101.756 1148.83 Q98.1447 1148.83 96.316 1152.39 Q94.5104 1155.93 94.5104 1163.06 Q94.5104 1170.17 96.316 1173.74 Q98.1447 1177.28 101.756 1177.28 Q105.39 1177.28 107.196 1173.74 Q109.024 1170.17 109.024 1163.06 Q109.024 1155.93 107.196 1152.39 Q105.39 1148.83 101.756 1148.83 M101.756 1145.12 Q107.566 1145.12 110.621 1149.73 Q113.7 1154.31 113.7 1163.06 Q113.7 1171.79 110.621 1176.4 Q107.566 1180.98 101.756 1180.98 Q95.9456 1180.98 92.8669 1176.4 Q89.8114 1171.79 89.8114 1163.06 Q89.8114 1154.31 92.8669 1149.73 Q95.9456 1145.12 101.756 1145.12 Z" fill="#000000" fill-rule="evenodd" fill-opacity="1" /><path clip-path="url(#clip070)" d="M121.918 1174.43 L126.802 1174.43 L126.802 1180.31 L121.918 1180.31 L121.918 1174.43 Z" fill="#000000" fill-rule="evenodd" fill-opacity="1" /><path clip-path="url(#clip070)" d="M141.015 1176.37 L157.334 1176.37 L157.334 1180.31 L135.39 1180.31 L135.39 1176.37 Q138.052 1173.62 142.635 1168.99 Q147.242 1164.34 148.422 1163 Q150.668 1160.47 151.547 1158.74 Q152.45 1156.98 152.45 1155.29 Q152.45 1152.53 150.505 1150.8 Q148.584 1149.06 145.482 1149.06 Q143.283 1149.06 140.83 1149.82 Q138.399 1150.59 135.621 1152.14 L135.621 1147.42 Q138.445 1146.28 140.899 1145.7 Q143.353 1145.12 145.39 1145.12 Q150.76 1145.12 153.955 1147.81 Q157.149 1150.5 157.149 1154.99 Q157.149 1157.12 156.339 1159.04 Q155.552 1160.93 153.445 1163.53 Q152.867 1164.2 149.765 1167.42 Q146.663 1170.61 141.015 1176.37 Z" fill="#000000" fill-rule="evenodd" fill-opacity="1" /><path clip-path="url(#clip070)" d="M167.195 1145.75 L185.552 1145.75 L185.552 1149.68 L171.478 1149.68 L171.478 1158.16 Q172.496 1157.81 173.515 1157.65 Q174.533 1157.46 175.552 1157.46 Q181.339 1157.46 184.718 1160.63 Q188.098 1163.81 188.098 1169.22 Q188.098 1174.8 184.626 1177.9 Q181.153 1180.98 174.834 1180.98 Q172.658 1180.98 170.39 1180.61 Q168.144 1180.24 165.737 1179.5 L165.737 1174.8 Q167.82 1175.93 170.042 1176.49 Q172.265 1177.05 174.741 1177.05 Q178.746 1177.05 181.084 1174.94 Q183.422 1172.83 183.422 1169.22 Q183.422 1165.61 181.084 1163.5 Q178.746 1161.4 174.741 1161.4 Q172.866 1161.4 170.991 1161.81 Q169.14 1162.23 167.195 1163.11 L167.195 1145.75 Z" fill="#000000" fill-rule="evenodd" fill-opacity="1" /><path clip-path="url(#clip070)" d="M100.76 1047.63 Q97.1493 1047.63 95.3206 1051.2 Q93.515 1054.74 93.515 1061.87 Q93.515 1068.98 95.3206 1072.54 Q97.1493 1076.08 100.76 1076.08 Q104.395 1076.08 106.2 1072.54 Q108.029 1068.98 108.029 1061.87 Q108.029 1054.74 106.2 1051.2 Q104.395 1047.63 100.76 1047.63 M100.76 1043.93 Q106.571 1043.93 109.626 1048.54 Q112.705 1053.12 112.705 1061.87 Q112.705 1070.6 109.626 1075.2 Q106.571 1079.79 100.76 1079.79 Q94.9502 1079.79 91.8715 1075.2 Q88.816 1070.6 88.816 1061.87 Q88.816 1053.12 91.8715 1048.54 Q94.9502 1043.93 100.76 1043.93 Z" fill="#000000" fill-rule="evenodd" fill-opacity="1" /><path clip-path="url(#clip070)" d="M120.922 1073.24 L125.807 1073.24 L125.807 1079.12 L120.922 1079.12 L120.922 1073.24 Z" fill="#000000" fill-rule="evenodd" fill-opacity="1" /><path clip-path="url(#clip070)" d="M145.992 1047.63 Q142.381 1047.63 140.552 1051.2 Q138.746 1054.74 138.746 1061.87 Q138.746 1068.98 140.552 1072.54 Q142.381 1076.08 145.992 1076.08 Q149.626 1076.08 151.431 1072.54 Q153.26 1068.98 153.26 1061.87 Q153.26 1054.74 151.431 1051.2 Q149.626 1047.63 145.992 1047.63 M145.992 1043.93 Q151.802 1043.93 154.857 1048.54 Q157.936 1053.12 157.936 1061.87 Q157.936 1070.6 154.857 1075.2 Q151.802 1079.79 145.992 1079.79 Q140.181 1079.79 137.103 1075.2 Q134.047 1070.6 134.047 1061.87 Q134.047 1053.12 137.103 1048.54 Q140.181 1043.93 145.992 1043.93 Z" fill="#000000" fill-rule="evenodd" fill-opacity="1" /><path clip-path="url(#clip070)" d="M176.153 1047.63 Q172.542 1047.63 170.714 1051.2 Q168.908 1054.74 168.908 1061.87 Q168.908 1068.98 170.714 1072.54 Q172.542 1076.08 176.153 1076.08 Q179.788 1076.08 181.593 1072.54 Q183.422 1068.98 183.422 1061.87 Q183.422 1054.74 181.593 1051.2 Q179.788 1047.63 176.153 1047.63 M176.153 1043.93 Q181.964 1043.93 185.019 1048.54 Q188.098 1053.12 188.098 1061.87 Q188.098 1070.6 185.019 1075.2 Q181.964 1079.79 176.153 1079.79 Q170.343 1079.79 167.265 1075.2 Q164.209 1070.6 164.209 1061.87 Q164.209 1053.12 167.265 1048.54 Q170.343 1043.93 176.153 1043.93 Z" fill="#000000" fill-rule="evenodd" fill-opacity="1" /><path clip-path="url(#clip070)" d="M101.756 946.439 Q98.1447 946.439 96.316 950.004 Q94.5104 953.545 94.5104 960.675 Q94.5104 967.782 96.316 971.346 Q98.1447 974.888 101.756 974.888 Q105.39 974.888 107.196 971.346 Q109.024 967.782 109.024 960.675 Q109.024 953.545 107.196 950.004 Q105.39 946.439 101.756 946.439 M101.756 942.735 Q107.566 942.735 110.621 947.342 Q113.7 951.925 113.7 960.675 Q113.7 969.402 110.621 974.008 Q107.566 978.592 101.756 978.592 Q95.9456 978.592 92.8669 974.008 Q89.8114 969.402 89.8114 960.675 Q89.8114 951.925 92.8669 947.342 Q95.9456 942.735 101.756 942.735 Z" fill="#000000" fill-rule="evenodd" fill-opacity="1" /><path clip-path="url(#clip070)" d="M121.918 972.041 L126.802 972.041 L126.802 977.92 L121.918 977.92 L121.918 972.041 Z" fill="#000000" fill-rule="evenodd" fill-opacity="1" /><path clip-path="url(#clip070)" d="M141.015 973.985 L157.334 973.985 L157.334 977.92 L135.39 977.92 L135.39 973.985 Q138.052 971.231 142.635 966.601 Q147.242 961.948 148.422 960.606 Q150.668 958.082 151.547 956.346 Q152.45 954.587 152.45 952.897 Q152.45 950.143 150.505 948.407 Q148.584 946.671 145.482 946.671 Q143.283 946.671 140.83 947.434 Q138.399 948.198 135.621 949.749 L135.621 945.027 Q138.445 943.893 140.899 943.314 Q143.353 942.735 145.39 942.735 Q150.76 942.735 153.955 945.421 Q157.149 948.106 157.149 952.596 Q157.149 954.726 156.339 956.647 Q155.552 958.545 153.445 961.138 Q152.867 961.809 149.765 965.027 Q146.663 968.221 141.015 973.985 Z" fill="#000000" fill-rule="evenodd" fill-opacity="1" /><path clip-path="url(#clip070)" d="M167.195 943.36 L185.552 943.36 L185.552 947.296 L171.478 947.296 L171.478 955.768 Q172.496 955.42 173.515 955.258 Q174.533 955.073 175.552 955.073 Q181.339 955.073 184.718 958.245 Q188.098 961.416 188.098 966.832 Q188.098 972.411 184.626 975.513 Q181.153 978.592 174.834 978.592 Q172.658 978.592 170.39 978.221 Q168.144 977.851 165.737 977.11 L165.737 972.411 Q167.82 973.545 170.042 974.101 Q172.265 974.656 174.741 974.656 Q178.746 974.656 181.084 972.55 Q183.422 970.444 183.422 966.832 Q183.422 963.221 181.084 961.115 Q178.746 959.008 174.741 959.008 Q172.866 959.008 170.991 959.425 Q169.14 959.842 167.195 960.721 L167.195 943.36 Z" fill="#000000" fill-rule="evenodd" fill-opacity="1" /><polyline clip-path="url(#clip073)" style="stroke:#009af9; stroke-linecap:butt; stroke-linejoin:round; stroke-width:4; stroke-opacity:1; fill:none" points="
  284.343,1061.84 300.032,1061.84 315.721,1061.84 331.409,1061.84 347.098,1061.84 362.787,1061.84 378.476,1061.84 394.165,1061.84 409.853,1061.84 425.542,1061.84 
  441.231,1061.84 456.92,1061.84 472.609,1061.84 488.297,1061.84 503.986,1061.84 519.675,1061.84 535.364,1061.84 551.053,1061.84 566.742,1061.84 582.43,1061.84 
  598.119,1061.84 613.808,1061.84 629.497,1061.84 645.186,1061.84 660.874,1061.84 676.563,1061.84 692.252,1061.84 707.941,1061.84 723.63,1061.84 739.318,1061.84 
  755.007,1061.84 770.696,1061.84 786.385,1061.84 802.074,1061.84 817.763,1061.84 833.451,1061.84 849.14,1061.84 864.829,1061.84 880.518,1061.84 896.207,1061.84 
  911.895,1061.84 927.584,1061.84 943.273,1061.84 958.962,1061.84 974.651,1061.84 990.339,1061.84 1006.03,1061.84 1021.72,1061.84 1037.41,1061.84 1053.09,1061.84 
  1068.78,1061.84 1084.47,1061.84 1100.16,1061.84 1115.85,1061.84 1131.54,1061.84 1147.23,1061.84 1162.92,1061.84 1178.61,1061.84 1194.29,1061.84 1209.98,1061.84 
  1225.67,1061.84 1241.36,1061.84 1257.05,1061.84 1272.74,1061.84 1288.43,1061.84 1304.12,1061.84 1319.8,1061.84 1335.49,1061.84 1351.18,1061.84 1366.87,1061.84 
  1382.56,1061.84 1398.25,1061.84 1413.94,1061.84 1429.63,1061.84 1445.32,1061.84 1461,1061.84 1476.69,1061.84 1492.38,1061.84 1508.07,1061.84 1523.76,1061.84 
  1539.45,1061.84 1555.14,1061.84 1570.83,1061.84 1586.51,1061.84 1602.2,1061.84 1617.89,1061.84 1633.58,1061.84 1649.27,1061.84 1664.96,1061.84 1680.65,1061.84 
  1696.34,1061.84 1712.02,1061.84 1727.71,1061.84 1743.4,1061.84 1759.09,1061.84 1774.78,1061.84 1790.47,1061.84 1806.16,1061.84 1821.85,1061.84 1837.54,1061.84 
  1853.22,1061.84 1868.91,1061.84 1884.6,1061.84 1900.29,1061.84 1915.98,1061.84 1931.67,1061.84 1947.36,1061.84 1963.05,1061.84 1978.73,1061.84 1994.42,1061.84 
  2010.11,1061.84 2025.8,1061.84 2041.49,1061.84 2057.18,1061.84 2072.87,1061.84 2088.56,1061.84 2104.25,1061.84 2119.93,1061.84 2135.62,1061.84 2151.31,1061.84 
  2167,1061.84 2182.69,1061.84 2198.38,1061.84 2214.07,1061.84 2229.76,1061.84 2245.44,1061.84 2261.13,1061.84 2276.82,1061.84 2292.51,1061.84 
  "/>
<polyline clip-path="url(#clip073)" style="stroke:#e26f46; stroke-linecap:butt; stroke-linejoin:round; stroke-width:8; stroke-opacity:1; fill:none" stroke-dasharray="32, 20" points="
  284.343,1061.84 300.032,1061.84 315.721,1061.84 331.409,1061.84 347.098,1061.84 362.787,1061.84 378.476,1061.84 394.165,1061.84 409.853,1061.84 425.542,1061.84 
  441.231,1061.84 456.92,1061.84 472.609,1061.84 488.297,1061.84 503.986,1061.84 519.675,1061.84 535.364,1061.84 551.053,1061.84 566.742,1061.84 582.43,1061.84 
  598.119,1061.84 613.808,1061.84 629.497,1061.84 645.186,1061.84 660.874,1061.84 676.563,1061.84 692.252,1061.84 707.941,1061.84 723.63,1061.84 739.318,1061.84 
  755.007,1061.84 770.696,1061.84 786.385,1061.84 802.074,1061.84 817.763,1061.84 833.451,1061.84 849.14,1061.84 864.829,1061.84 880.518,1061.84 896.207,1061.84 
  911.895,1061.84 927.584,1061.84 943.273,1061.84 958.962,1061.84 974.651,1061.84 990.339,1061.84 1006.03,1061.84 1021.72,1061.84 1037.41,1061.84 1053.09,1061.84 
  1068.78,1061.84 1084.47,1061.84 1100.16,1061.84 1115.85,1061.84 1131.54,1061.84 1147.23,1061.84 1162.92,1061.84 1178.61,1061.84 1194.29,1061.84 1209.98,1061.84 
  1225.67,1061.84 1241.36,1061.84 1257.05,1061.84 1272.74,1061.84 1288.43,1061.84 1304.12,1061.84 1319.8,1061.84 1335.49,1061.84 1351.18,1061.84 1366.87,1061.84 
  1382.56,1061.84 1398.25,1061.84 1413.94,1061.84 1429.63,1061.84 1445.32,1061.84 1461,1061.84 1476.69,1061.84 1492.38,1061.84 1508.07,1061.84 1523.76,1061.84 
  1539.45,1061.84 1555.14,1061.84 1570.83,1061.84 1586.51,1061.84 1602.2,1061.84 1617.89,1061.84 1633.58,1061.84 1649.27,1061.84 1664.96,1061.84 1680.65,1061.84 
  1696.34,1061.84 1712.02,1061.84 1727.71,1061.84 1743.4,1061.84 1759.09,1061.84 1774.78,1061.84 1790.47,1061.84 1806.16,1061.84 1821.85,1061.84 1837.54,1061.84 
  1853.22,1061.84 1868.91,1061.84 1884.6,1061.84 1900.29,1061.84 1915.98,1061.84 1931.67,1061.84 1947.36,1061.84 1963.05,1061.84 1978.73,1061.84 1994.42,1061.84 
  2010.11,1061.84 2025.8,1061.84 2041.49,1061.84 2057.18,1061.84 2072.87,1061.84 2088.56,1061.84 2104.25,1061.84 2119.93,1061.84 2135.62,1061.84 2151.31,1061.84 
  2167,1061.84 2182.69,1061.84 2198.38,1061.84 2214.07,1061.84 2229.76,1061.84 2245.44,1061.84 2261.13,1061.84 2276.82,1061.84 2292.51,1061.84 
  "/>
<polyline clip-path="url(#clip073)" style="stroke:#3da44d; stroke-linecap:butt; stroke-linejoin:round; stroke-width:12; stroke-opacity:1; fill:none" stroke-dasharray="6, 12" points="
  284.343,1457.32 300.032,1457.32 315.721,1457.32 331.409,1457.32 347.098,1457.32 362.787,1457.32 378.476,1457.32 394.165,1457.32 409.853,1457.32 425.542,1457.32 
  441.231,1457.32 456.92,1457.32 472.609,1457.32 488.297,1457.32 503.986,1457.32 519.675,1457.32 535.364,1457.32 551.053,1457.32 566.742,1457.32 582.43,1457.32 
  598.119,1457.32 613.808,1457.32 629.497,1457.32 645.186,1457.32 660.874,1457.32 676.563,1457.32 692.252,1457.32 707.941,1457.32 723.63,1457.32 739.318,1457.32 
  755.007,1457.32 770.696,1457.32 786.385,1457.32 802.074,1457.32 817.763,1457.32 833.451,1457.32 849.14,1457.32 864.829,1457.32 880.518,1457.31 896.207,1457.31 
  911.895,1457.31 927.584,1457.31 943.273,1457.31 958.962,1457.31 974.651,1457.31 990.339,1457.3 1006.03,1457.3 1021.72,1457.29 1037.41,1457.29 1053.09,1457.28 
  1068.78,1457.27 1084.47,1457.26 1100.16,1457.24 1115.85,1457.22 1131.54,1457.18 1147.23,1457.15 1162.92,1457.09 1178.61,1457.03 1194.29,1456.94 1209.98,1456.82 
  1225.67,1456.65 1241.36,1456.43 1257.05,1456.12 1272.74,1455.69 1288.43,1455.07 1304.12,1454.17 1319.8,1452.85 1335.49,1450.88 1351.18,1447.94 1366.87,1443.58 
  1382.56,1437.21 1398.25,1428.09 1413.94,1415.35 1429.63,1398.07 1445.32,1375.32 1461,1345.97 1476.69,1308.93 1492.38,1263.52 1508.07,1209.67 1523.76,1148.25 
  1539.45,1082.05 1555.14,1016.15 1570.83,957.295 1586.51,913.895 1602.2,895.726 1617.89,910.172 1633.58,958.591 1649.27,1028.75 1664.96,1117.79 1680.65,1180.5 
  1696.34,1204.35 1712.02,1154.41 1727.71,1031.25 1743.4,937.46 1759.09,949.784 1774.78,1046.34 1790.47,1194.86 1806.16,1118.2 1821.85,1000.21 1837.54,946.608 
  1853.22,1156.74 1868.91,1119.63 1884.6,945.547 1900.29,1161.6 1915.98,1024.75 1931.67,1080.91 1947.36,1045.93 1963.05,1052.54 1978.73,1058.83 1994.42,1068.93 
  2010.11,1061.06 2025.8,1058.28 2041.49,1080.92 2057.18,1049.78 2072.87,1056.63 2088.56,1061.25 2104.25,1068.71 2119.93,1054.94 2135.62,1067.59 2151.31,1056.41 
  2167,1066.49 2182.69,1058.93 2198.38,1060.64 2214.07,1060.71 2229.76,1061.14 2245.44,1061.59 2261.13,1057.94 2276.82,1060.44 2292.51,1058.05 
  "/>
<path clip-path="url(#clip070)" d="
M1992.27 1106.08 L2281.8 1106.08 L2281.8 898.721 L1992.27 898.721  Z
  " fill="#ffffff" fill-rule="evenodd" fill-opacity="1"/>
<polyline clip-path="url(#clip070)" style="stroke:#000000; stroke-linecap:butt; stroke-linejoin:round; stroke-width:4; stroke-opacity:1; fill:none" points="
  1992.27,1106.08 2281.8,1106.08 2281.8,898.721 1992.27,898.721 1992.27,1106.08 
  "/>
<polyline clip-path="url(#clip070)" style="stroke:#009af9; stroke-linecap:butt; stroke-linejoin:round; stroke-width:4; stroke-opacity:1; fill:none" points="
  2015.93,950.561 2157.84,950.561 
  "/>
<path clip-path="url(#clip070)" d="M2195.33 970.248 Q2193.53 974.878 2191.81 976.29 Q2190.1 977.702 2187.23 977.702 L2183.83 977.702 L2183.83 974.137 L2186.33 974.137 Q2188.09 974.137 2189.06 973.304 Q2190.03 972.471 2191.21 969.369 L2191.97 967.424 L2181.49 941.915 L2186 941.915 L2194.1 962.193 L2202.21 941.915 L2206.72 941.915 L2195.33 970.248 Z" fill="#000000" fill-rule="evenodd" fill-opacity="1" /><path clip-path="url(#clip070)" d="M2214.01 963.906 L2221.65 963.906 L2221.65 937.54 L2213.34 939.207 L2213.34 934.948 L2221.6 933.281 L2226.28 933.281 L2226.28 963.906 L2233.92 963.906 L2233.92 967.841 L2214.01 967.841 L2214.01 963.906 Z" fill="#000000" fill-rule="evenodd" fill-opacity="1" /><polyline clip-path="url(#clip070)" style="stroke:#e26f46; stroke-linecap:butt; stroke-linejoin:round; stroke-width:4; stroke-opacity:1; fill:none" stroke-dasharray="16, 10" points="
  2015.93,1002.4 2157.84,1002.4 
  "/>
<path clip-path="url(#clip070)" d="M2195.33 1022.09 Q2193.53 1026.72 2191.81 1028.13 Q2190.1 1029.54 2187.23 1029.54 L2183.83 1029.54 L2183.83 1025.98 L2186.33 1025.98 Q2188.09 1025.98 2189.06 1025.14 Q2190.03 1024.31 2191.21 1021.21 L2191.97 1019.26 L2181.49 993.755 L2186 993.755 L2194.1 1014.03 L2202.21 993.755 L2206.72 993.755 L2195.33 1022.09 Z" fill="#000000" fill-rule="evenodd" fill-opacity="1" /><path clip-path="url(#clip070)" d="M2217.23 1015.75 L2233.55 1015.75 L2233.55 1019.68 L2211.6 1019.68 L2211.6 1015.75 Q2214.27 1012.99 2218.85 1008.36 Q2223.46 1003.71 2224.64 1002.37 Q2226.88 999.843 2227.76 998.107 Q2228.66 996.348 2228.66 994.658 Q2228.66 991.903 2226.72 990.167 Q2224.8 988.431 2221.7 988.431 Q2219.5 988.431 2217.04 989.195 Q2214.61 989.959 2211.84 991.51 L2211.84 986.788 Q2214.66 985.653 2217.11 985.075 Q2219.57 984.496 2221.6 984.496 Q2226.97 984.496 2230.17 987.181 Q2233.36 989.866 2233.36 994.357 Q2233.36 996.487 2232.55 998.408 Q2231.77 1000.31 2229.66 1002.9 Q2229.08 1003.57 2225.98 1006.79 Q2222.88 1009.98 2217.23 1015.75 Z" fill="#000000" fill-rule="evenodd" fill-opacity="1" /><polyline clip-path="url(#clip070)" style="stroke:#3da44d; stroke-linecap:butt; stroke-linejoin:round; stroke-width:4; stroke-opacity:1; fill:none" stroke-dasharray="2, 4" points="
  2015.93,1054.24 2157.84,1054.24 
  "/>
<path clip-path="url(#clip070)" d="M2195.33 1073.93 Q2193.53 1078.56 2191.81 1079.97 Q2190.1 1081.38 2187.23 1081.38 L2183.83 1081.38 L2183.83 1077.82 L2186.33 1077.82 Q2188.09 1077.82 2189.06 1076.98 Q2190.03 1076.15 2191.21 1073.05 L2191.97 1071.1 L2181.49 1045.6 L2186 1045.6 L2194.1 1065.87 L2202.21 1045.6 L2206.72 1045.6 L2195.33 1073.93 Z" fill="#000000" fill-rule="evenodd" fill-opacity="1" /><path clip-path="url(#clip070)" d="M2227.37 1052.89 Q2230.72 1053.6 2232.6 1055.87 Q2234.5 1058.14 2234.5 1061.47 Q2234.5 1066.59 2230.98 1069.39 Q2227.46 1072.19 2220.98 1072.19 Q2218.8 1072.19 2216.49 1071.75 Q2214.2 1071.34 2211.74 1070.48 L2211.74 1065.97 Q2213.69 1067.1 2216 1067.68 Q2218.32 1068.26 2220.84 1068.26 Q2225.24 1068.26 2227.53 1066.52 Q2229.84 1064.78 2229.84 1061.47 Q2229.84 1058.42 2227.69 1056.71 Q2225.56 1054.97 2221.74 1054.97 L2217.71 1054.97 L2217.71 1051.13 L2221.93 1051.13 Q2225.38 1051.13 2227.21 1049.76 Q2229.03 1048.37 2229.03 1045.78 Q2229.03 1043.12 2227.14 1041.71 Q2225.26 1040.27 2221.74 1040.27 Q2219.82 1040.27 2217.62 1040.69 Q2215.42 1041.1 2212.78 1041.98 L2212.78 1037.82 Q2215.45 1037.08 2217.76 1036.71 Q2220.1 1036.34 2222.16 1036.34 Q2227.48 1036.34 2230.59 1038.77 Q2233.69 1041.17 2233.69 1045.29 Q2233.69 1048.16 2232.04 1050.16 Q2230.4 1052.12 2227.37 1052.89 Z" fill="#000000" fill-rule="evenodd" fill-opacity="1" /></svg>
