<?xml version="1.0" encoding="utf-8"?>
<svg xmlns="http://www.w3.org/2000/svg" xmlns:xlink="http://www.w3.org/1999/xlink" width="600" height="400" viewBox="0 0 2400 1600">
<defs>
  <clipPath id="clip850">
    <rect x="0" y="0" width="2400" height="1600"/>
  </clipPath>
</defs>
<path clip-path="url(#clip850)" d="
M0 1600 L2400 1600 L2400 0 L0 0  Z
  " fill="#ffffff" fill-rule="evenodd" fill-opacity="1"/>
<defs>
  <clipPath id="clip851">
    <rect x="480" y="0" width="1681" height="1600"/>
  </clipPath>
</defs>
<path clip-path="url(#clip850)" d="
M178.867 1423.18 L2352.76 1423.18 L2352.76 47.2441 L178.867 47.2441  Z
  " fill="#ffffff" fill-rule="evenodd" fill-opacity="1"/>
<defs>
  <clipPath id="clip852">
    <rect x="178" y="47" width="2175" height="1377"/>
  </clipPath>
</defs>
<polyline clip-path="url(#clip852)" style="stroke:#000000; stroke-linecap:butt; stroke-linejoin:round; stroke-width:2; stroke-opacity:0.1; fill:none" points="
  178.867,1423.18 178.867,47.2441 
  "/>
<polyline clip-path="url(#clip852)" style="stroke:#000000; stroke-linecap:butt; stroke-linejoin:round; stroke-width:2; stroke-opacity:0.1; fill:none" points="
  613.644,1423.18 613.644,47.2441 
  "/>
<polyline clip-path="url(#clip852)" style="stroke:#000000; stroke-linecap:butt; stroke-linejoin:round; stroke-width:2; stroke-opacity:0.1; fill:none" points="
  1048.42,1423.18 1048.42,47.2441 
  "/>
<polyline clip-path="url(#clip852)" style="stroke:#000000; stroke-linecap:butt; stroke-linejoin:round; stroke-width:2; stroke-opacity:0.1; fill:none" points="
  1483.2,1423.18 1483.2,47.2441 
  "/>
<polyline clip-path="url(#clip852)" style="stroke:#000000; stroke-linecap:butt; stroke-linejoin:round; stroke-width:2; stroke-opacity:0.1; fill:none" points="
  1917.98,1423.18 1917.98,47.2441 
  "/>
<polyline clip-path="url(#clip852)" style="stroke:#000000; stroke-linecap:butt; stroke-linejoin:round; stroke-width:2; stroke-opacity:0.1; fill:none" points="
  2352.76,1423.18 2352.76,47.2441 
  "/>
<polyline clip-path="url(#clip850)" style="stroke:#000000; stroke-linecap:butt; stroke-linejoin:round; stroke-width:4; stroke-opacity:1; fill:none" points="
  178.867,1423.18 2352.76,1423.18 
  "/>
<polyline clip-path="url(#clip850)" style="stroke:#000000; stroke-linecap:butt; stroke-linejoin:round; stroke-width:4; stroke-opacity:1; fill:none" points="
  178.867,1423.18 178.867,1404.28 
  "/>
<polyline clip-path="url(#clip850)" style="stroke:#000000; stroke-linecap:butt; stroke-linejoin:round; stroke-width:4; stroke-opacity:1; fill:none" points="
  613.644,1423.18 613.644,1404.28 
  "/>
<polyline clip-path="url(#clip850)" style="stroke:#000000; stroke-linecap:butt; stroke-linejoin:round; stroke-width:4; stroke-opacity:1; fill:none" points="
  1048.42,1423.18 1048.42,1404.28 
  "/>
<polyline clip-path="url(#clip850)" style="stroke:#000000; stroke-linecap:butt; stroke-linejoin:round; stroke-width:4; stroke-opacity:1; fill:none" points="
  1483.2,1423.18 1483.2,1404.28 
  "/>
<polyline clip-path="url(#clip850)" style="stroke:#000000; stroke-linecap:butt; stroke-linejoin:round; stroke-width:4; stroke-opacity:1; fill:none" points="
  1917.98,1423.18 1917.98,1404.28 
  "/>
<polyline clip-path="url(#clip850)" style="stroke:#000000; stroke-linecap:butt; stroke-linejoin:round; stroke-width:4; stroke-opacity:1; fill:none" points="
  2352.76,1423.18 2352.76,1404.28 
  "/>
<path clip-path="url(#clip850)" d="M178.867 1452.37 Q175.256 1452.37 173.427 1455.94 Q171.621 1459.48 171.621 1466.61 Q171.621 1473.71 173.427 1477.28 Q175.256 1480.82 178.867 1480.82 Q182.501 1480.82 184.306 1477.28 Q186.135 1473.71 186.135 1466.61 Q186.135 1459.48 184.306 1455.94 Q182.501 1452.37 178.867 1452.37 M178.867 1448.67 Q184.677 1448.67 187.732 1453.27 Q190.811 1457.86 190.811 1466.61 Q190.811 1475.33 187.732 1479.94 Q184.677 1484.52 178.867 1484.52 Q173.056 1484.52 169.978 1479.94 Q166.922 1475.33 166.922 1466.61 Q166.922 1457.86 169.978 1453.27 Q173.056 1448.67 178.867 1448.67 Z" fill="#000000" fill-rule="evenodd" fill-opacity="1" /><path clip-path="url(#clip850)" d="M577.337 1479.92 L593.656 1479.92 L593.656 1483.85 L571.712 1483.85 L571.712 1479.92 Q574.374 1477.16 578.957 1472.53 Q583.564 1467.88 584.744 1466.54 Q586.99 1464.01 587.869 1462.28 Q588.772 1460.52 588.772 1458.83 Q588.772 1456.07 586.828 1454.34 Q584.906 1452.6 581.804 1452.6 Q579.605 1452.6 577.152 1453.37 Q574.721 1454.13 571.943 1455.68 L571.943 1450.96 Q574.767 1449.82 577.221 1449.25 Q579.675 1448.67 581.712 1448.67 Q587.082 1448.67 590.277 1451.35 Q593.471 1454.04 593.471 1458.53 Q593.471 1460.66 592.661 1462.58 Q591.874 1464.48 589.767 1467.07 Q589.189 1467.74 586.087 1470.96 Q582.985 1474.15 577.337 1479.92 Z" fill="#000000" fill-rule="evenodd" fill-opacity="1" /><path clip-path="url(#clip850)" d="M613.471 1452.37 Q609.86 1452.37 608.031 1455.94 Q606.226 1459.48 606.226 1466.61 Q606.226 1473.71 608.031 1477.28 Q609.86 1480.82 613.471 1480.82 Q617.105 1480.82 618.911 1477.28 Q620.739 1473.71 620.739 1466.61 Q620.739 1459.48 618.911 1455.94 Q617.105 1452.37 613.471 1452.37 M613.471 1448.67 Q619.281 1448.67 622.337 1453.27 Q625.415 1457.86 625.415 1466.61 Q625.415 1475.33 622.337 1479.94 Q619.281 1484.52 613.471 1484.52 Q607.661 1484.52 604.582 1479.94 Q601.526 1475.33 601.526 1466.61 Q601.526 1457.86 604.582 1453.27 Q607.661 1448.67 613.471 1448.67 Z" fill="#000000" fill-rule="evenodd" fill-opacity="1" /><path clip-path="url(#clip850)" d="M643.633 1452.37 Q640.022 1452.37 638.193 1455.94 Q636.387 1459.48 636.387 1466.61 Q636.387 1473.71 638.193 1477.28 Q640.022 1480.82 643.633 1480.82 Q647.267 1480.82 649.073 1477.28 Q650.901 1473.71 650.901 1466.61 Q650.901 1459.48 649.073 1455.94 Q647.267 1452.37 643.633 1452.37 M643.633 1448.67 Q649.443 1448.67 652.498 1453.27 Q655.577 1457.86 655.577 1466.61 Q655.577 1475.33 652.498 1479.94 Q649.443 1484.52 643.633 1484.52 Q637.823 1484.52 634.744 1479.94 Q631.688 1475.33 631.688 1466.61 Q631.688 1457.86 634.744 1453.27 Q637.823 1448.67 643.633 1448.67 Z" fill="#000000" fill-rule="evenodd" fill-opacity="1" /><path clip-path="url(#clip850)" d="M1021.51 1453.37 L1009.71 1471.81 L1021.51 1471.81 L1021.51 1453.37 M1020.29 1449.29 L1026.17 1449.29 L1026.17 1471.81 L1031.1 1471.81 L1031.1 1475.7 L1026.17 1475.7 L1026.17 1483.85 L1021.51 1483.85 L1021.51 1475.7 L1005.91 1475.7 L1005.91 1471.19 L1020.29 1449.29 Z" fill="#000000" fill-rule="evenodd" fill-opacity="1" /><path clip-path="url(#clip850)" d="M1048.83 1452.37 Q1045.22 1452.37 1043.39 1455.94 Q1041.58 1459.48 1041.58 1466.61 Q1041.58 1473.71 1043.39 1477.28 Q1045.22 1480.82 1048.83 1480.82 Q1052.46 1480.82 1054.27 1477.28 Q1056.1 1473.71 1056.1 1466.61 Q1056.1 1459.48 1054.27 1455.94 Q1052.46 1452.37 1048.83 1452.37 M1048.83 1448.67 Q1054.64 1448.67 1057.69 1453.27 Q1060.77 1457.86 1060.77 1466.61 Q1060.77 1475.33 1057.69 1479.94 Q1054.64 1484.52 1048.83 1484.52 Q1043.02 1484.52 1039.94 1479.94 Q1036.88 1475.33 1036.88 1466.61 Q1036.88 1457.86 1039.94 1453.27 Q1043.02 1448.67 1048.83 1448.67 Z" fill="#000000" fill-rule="evenodd" fill-opacity="1" /><path clip-path="url(#clip850)" d="M1078.99 1452.37 Q1075.38 1452.37 1073.55 1455.94 Q1071.74 1459.48 1071.74 1466.61 Q1071.74 1473.71 1073.55 1477.28 Q1075.38 1480.82 1078.99 1480.82 Q1082.62 1480.82 1084.43 1477.28 Q1086.26 1473.71 1086.26 1466.61 Q1086.26 1459.48 1084.43 1455.94 Q1082.62 1452.37 1078.99 1452.37 M1078.99 1448.67 Q1084.8 1448.67 1087.86 1453.27 Q1090.93 1457.86 1090.93 1466.61 Q1090.93 1475.33 1087.86 1479.94 Q1084.8 1484.52 1078.99 1484.52 Q1073.18 1484.52 1070.1 1479.94 Q1067.04 1475.33 1067.04 1466.61 Q1067.04 1457.86 1070.1 1453.27 Q1073.18 1448.67 1078.99 1448.67 Z" fill="#000000" fill-rule="evenodd" fill-opacity="1" /><path clip-path="url(#clip850)" d="M1453.52 1464.71 Q1450.38 1464.71 1448.52 1466.86 Q1446.7 1469.01 1446.7 1472.76 Q1446.7 1476.49 1448.52 1478.67 Q1450.38 1480.82 1453.52 1480.82 Q1456.67 1480.82 1458.5 1478.67 Q1460.35 1476.49 1460.35 1472.76 Q1460.35 1469.01 1458.5 1466.86 Q1456.67 1464.71 1453.52 1464.71 M1462.81 1450.06 L1462.81 1454.31 Q1461.05 1453.48 1459.24 1453.04 Q1457.46 1452.6 1455.7 1452.6 Q1451.07 1452.6 1448.62 1455.73 Q1446.19 1458.85 1445.84 1465.17 Q1447.21 1463.16 1449.27 1462.09 Q1451.33 1461 1453.8 1461 Q1459.01 1461 1462.02 1464.18 Q1465.05 1467.32 1465.05 1472.76 Q1465.05 1478.09 1461.9 1481.31 Q1458.76 1484.52 1453.52 1484.52 Q1447.53 1484.52 1444.36 1479.94 Q1441.19 1475.33 1441.19 1466.61 Q1441.19 1458.41 1445.08 1453.55 Q1448.96 1448.67 1455.52 1448.67 Q1457.27 1448.67 1459.06 1449.01 Q1460.86 1449.36 1462.81 1450.06 Z" fill="#000000" fill-rule="evenodd" fill-opacity="1" /><path clip-path="url(#clip850)" d="M1483.11 1452.37 Q1479.5 1452.37 1477.67 1455.94 Q1475.86 1459.48 1475.86 1466.61 Q1475.86 1473.71 1477.67 1477.28 Q1479.5 1480.82 1483.11 1480.82 Q1486.74 1480.82 1488.55 1477.28 Q1490.38 1473.71 1490.38 1466.61 Q1490.38 1459.48 1488.55 1455.94 Q1486.74 1452.37 1483.11 1452.37 M1483.11 1448.67 Q1488.92 1448.67 1491.97 1453.27 Q1495.05 1457.86 1495.05 1466.61 Q1495.05 1475.33 1491.97 1479.94 Q1488.92 1484.52 1483.11 1484.52 Q1477.3 1484.52 1474.22 1479.94 Q1471.16 1475.33 1471.16 1466.61 Q1471.16 1457.86 1474.22 1453.27 Q1477.3 1448.67 1483.11 1448.67 Z" fill="#000000" fill-rule="evenodd" fill-opacity="1" /><path clip-path="url(#clip850)" d="M1513.27 1452.37 Q1509.66 1452.37 1507.83 1455.94 Q1506.02 1459.48 1506.02 1466.61 Q1506.02 1473.71 1507.83 1477.28 Q1509.66 1480.82 1513.27 1480.82 Q1516.9 1480.82 1518.71 1477.28 Q1520.54 1473.71 1520.54 1466.61 Q1520.54 1459.48 1518.71 1455.94 Q1516.9 1452.37 1513.27 1452.37 M1513.27 1448.67 Q1519.08 1448.67 1522.14 1453.27 Q1525.21 1457.86 1525.21 1466.61 Q1525.21 1475.33 1522.14 1479.94 Q1519.08 1484.52 1513.27 1484.52 Q1507.46 1484.52 1504.38 1479.94 Q1501.33 1475.33 1501.33 1466.61 Q1501.33 1457.86 1504.38 1453.27 Q1507.46 1448.67 1513.27 1448.67 Z" fill="#000000" fill-rule="evenodd" fill-opacity="1" /><path clip-path="url(#clip850)" d="M1887.77 1467.44 Q1884.44 1467.44 1882.52 1469.22 Q1880.62 1471 1880.62 1474.13 Q1880.62 1477.25 1882.52 1479.04 Q1884.44 1480.82 1887.77 1480.82 Q1891.1 1480.82 1893.02 1479.04 Q1894.95 1477.23 1894.95 1474.13 Q1894.95 1471 1893.02 1469.22 Q1891.13 1467.44 1887.77 1467.44 M1883.09 1465.45 Q1880.08 1464.71 1878.39 1462.65 Q1876.73 1460.59 1876.73 1457.63 Q1876.73 1453.48 1879.67 1451.07 Q1882.63 1448.67 1887.77 1448.67 Q1892.93 1448.67 1895.87 1451.07 Q1898.81 1453.48 1898.81 1457.63 Q1898.81 1460.59 1897.12 1462.65 Q1895.46 1464.71 1892.47 1465.45 Q1895.85 1466.24 1897.72 1468.53 Q1899.62 1470.82 1899.62 1474.13 Q1899.62 1479.15 1896.54 1481.84 Q1893.49 1484.52 1887.77 1484.52 Q1882.05 1484.52 1878.97 1481.84 Q1875.92 1479.15 1875.92 1474.13 Q1875.92 1470.82 1877.82 1468.53 Q1879.71 1466.24 1883.09 1465.45 M1881.38 1458.06 Q1881.38 1460.75 1883.05 1462.25 Q1884.74 1463.76 1887.77 1463.76 Q1890.78 1463.76 1892.47 1462.25 Q1894.18 1460.75 1894.18 1458.06 Q1894.18 1455.38 1892.47 1453.88 Q1890.78 1452.37 1887.77 1452.37 Q1884.74 1452.37 1883.05 1453.88 Q1881.38 1455.38 1881.38 1458.06 Z" fill="#000000" fill-rule="evenodd" fill-opacity="1" /><path clip-path="url(#clip850)" d="M1917.93 1452.37 Q1914.32 1452.37 1912.49 1455.94 Q1910.69 1459.48 1910.69 1466.61 Q1910.69 1473.71 1912.49 1477.28 Q1914.32 1480.82 1917.93 1480.82 Q1921.57 1480.82 1923.37 1477.28 Q1925.2 1473.71 1925.2 1466.61 Q1925.2 1459.48 1923.37 1455.94 Q1921.57 1452.37 1917.93 1452.37 M1917.93 1448.67 Q1923.74 1448.67 1926.8 1453.27 Q1929.88 1457.86 1929.88 1466.61 Q1929.88 1475.33 1926.8 1479.94 Q1923.74 1484.52 1917.93 1484.52 Q1912.12 1484.52 1909.04 1479.94 Q1905.99 1475.33 1905.99 1466.61 Q1905.99 1457.86 1909.04 1453.27 Q1912.12 1448.67 1917.93 1448.67 Z" fill="#000000" fill-rule="evenodd" fill-opacity="1" /><path clip-path="url(#clip850)" d="M1948.09 1452.37 Q1944.48 1452.37 1942.65 1455.94 Q1940.85 1459.48 1940.85 1466.61 Q1940.85 1473.71 1942.65 1477.28 Q1944.48 1480.82 1948.09 1480.82 Q1951.73 1480.82 1953.53 1477.28 Q1955.36 1473.71 1955.36 1466.61 Q1955.36 1459.48 1953.53 1455.94 Q1951.73 1452.37 1948.09 1452.37 M1948.09 1448.67 Q1953.9 1448.67 1956.96 1453.27 Q1960.04 1457.86 1960.04 1466.61 Q1960.04 1475.33 1956.96 1479.94 Q1953.9 1484.52 1948.09 1484.52 Q1942.28 1484.52 1939.2 1479.94 Q1936.15 1475.33 1936.15 1466.61 Q1936.15 1457.86 1939.2 1453.27 Q1942.28 1448.67 1948.09 1448.67 Z" fill="#000000" fill-rule="evenodd" fill-opacity="1" /><path clip-path="url(#clip850)" d="M2297.28 1479.92 L2304.92 1479.92 L2304.92 1453.55 L2296.61 1455.22 L2296.61 1450.96 L2304.87 1449.29 L2309.55 1449.29 L2309.55 1479.92 L2317.19 1479.92 L2317.19 1483.85 L2297.28 1483.85 L2297.28 1479.92 Z" fill="#000000" fill-rule="evenodd" fill-opacity="1" /><path clip-path="url(#clip850)" d="M2336.63 1452.37 Q2333.02 1452.37 2331.19 1455.94 Q2329.39 1459.48 2329.39 1466.61 Q2329.39 1473.71 2331.19 1477.28 Q2333.02 1480.82 2336.63 1480.82 Q2340.27 1480.82 2342.07 1477.28 Q2343.9 1473.71 2343.9 1466.61 Q2343.9 1459.48 2342.07 1455.94 Q2340.27 1452.37 2336.63 1452.37 M2336.63 1448.67 Q2342.44 1448.67 2345.5 1453.27 Q2348.58 1457.86 2348.58 1466.61 Q2348.58 1475.33 2345.5 1479.94 Q2342.44 1484.52 2336.63 1484.52 Q2330.82 1484.52 2327.74 1479.94 Q2324.69 1475.33 2324.69 1466.61 Q2324.69 1457.86 2327.74 1453.27 Q2330.82 1448.67 2336.63 1448.67 Z" fill="#000000" fill-rule="evenodd" fill-opacity="1" /><path clip-path="url(#clip850)" d="M2366.8 1452.37 Q2363.18 1452.37 2361.36 1455.94 Q2359.55 1459.48 2359.55 1466.61 Q2359.55 1473.71 2361.36 1477.28 Q2363.18 1480.82 2366.8 1480.82 Q2370.43 1480.82 2372.23 1477.28 Q2374.06 1473.71 2374.06 1466.61 Q2374.06 1459.48 2372.23 1455.94 Q2370.43 1452.37 2366.8 1452.37 M2366.8 1448.67 Q2372.61 1448.67 2375.66 1453.27 Q2378.74 1457.86 2378.74 1466.61 Q2378.74 1475.33 2375.66 1479.94 Q2372.61 1484.52 2366.8 1484.52 Q2360.99 1484.52 2357.91 1479.94 Q2354.85 1475.33 2354.85 1466.61 Q2354.85 1457.86 2357.91 1453.27 Q2360.99 1448.67 2366.8 1448.67 Z" fill="#000000" fill-rule="evenodd" fill-opacity="1" /><path clip-path="url(#clip850)" d="M2396.96 1452.37 Q2393.35 1452.37 2391.52 1455.94 Q2389.71 1459.48 2389.71 1466.61 Q2389.71 1473.71 2391.52 1477.28 Q2393.35 1480.82 2396.96 1480.82 Q2400.59 1480.82 2402.4 1477.28 Q2404.23 1473.71 2404.23 1466.61 Q2404.23 1459.48 2402.4 1455.94 Q2400.59 1452.37 2396.96 1452.37 M2396.96 1448.67 Q2402.77 1448.67 2405.82 1453.27 Q2408.9 1457.86 2408.9 1466.61 Q2408.9 1475.33 2405.82 1479.94 Q2402.77 1484.52 2396.96 1484.52 Q2391.15 1484.52 2388.07 1479.94 Q2385.01 1475.33 2385.01 1466.61 Q2385.01 1457.86 2388.07 1453.27 Q2391.15 1448.67 2396.96 1448.67 Z" fill="#000000" fill-rule="evenodd" fill-opacity="1" /><path clip-path="url(#clip850)" d="M1204.97 1522.27 L1204.97 1532.4 L1217.03 1532.4 L1217.03 1536.95 L1204.97 1536.95 L1204.97 1556.3 Q1204.97 1560.66 1206.15 1561.9 Q1207.36 1563.14 1211.02 1563.14 L1217.03 1563.14 L1217.03 1568.04 L1211.02 1568.04 Q1204.24 1568.04 1201.66 1565.53 Q1199.08 1562.98 1199.08 1556.3 L1199.08 1536.95 L1194.79 1536.95 L1194.79 1532.4 L1199.08 1532.4 L1199.08 1522.27 L1204.97 1522.27 Z" fill="#000000" fill-rule="evenodd" fill-opacity="1" /><path clip-path="url(#clip850)" d="M1224.74 1532.4 L1230.59 1532.4 L1230.59 1568.04 L1224.74 1568.04 L1224.74 1532.4 M1224.74 1518.52 L1230.59 1518.52 L1230.59 1525.93 L1224.74 1525.93 L1224.74 1518.52 Z" fill="#000000" fill-rule="evenodd" fill-opacity="1" /><path clip-path="url(#clip850)" d="M1270.6 1539.24 Q1272.8 1535.29 1275.85 1533.41 Q1278.91 1531.54 1283.05 1531.54 Q1288.62 1531.54 1291.64 1535.45 Q1294.66 1539.33 1294.66 1546.53 L1294.66 1568.04 L1288.78 1568.04 L1288.78 1546.72 Q1288.78 1541.59 1286.96 1539.11 Q1285.15 1536.63 1281.42 1536.63 Q1276.87 1536.63 1274.23 1539.65 Q1271.59 1542.68 1271.59 1547.9 L1271.59 1568.04 L1265.7 1568.04 L1265.7 1546.72 Q1265.7 1541.56 1263.89 1539.11 Q1262.07 1536.63 1258.28 1536.63 Q1253.8 1536.63 1251.15 1539.68 Q1248.51 1542.71 1248.51 1547.9 L1248.51 1568.04 L1242.62 1568.04 L1242.62 1532.4 L1248.51 1532.4 L1248.51 1537.93 Q1250.52 1534.66 1253.32 1533.1 Q1256.12 1531.54 1259.97 1531.54 Q1263.85 1531.54 1266.56 1533.51 Q1269.3 1535.48 1270.6 1539.24 Z" fill="#000000" fill-rule="evenodd" fill-opacity="1" /><path clip-path="url(#clip850)" d="M1336.84 1548.76 L1336.84 1551.62 L1309.91 1551.62 Q1310.29 1557.67 1313.54 1560.85 Q1316.82 1564 1322.64 1564 Q1326.01 1564 1329.17 1563.17 Q1332.35 1562.35 1335.47 1560.69 L1335.47 1566.23 Q1332.32 1567.57 1329.01 1568.27 Q1325.7 1568.97 1322.29 1568.97 Q1313.76 1568.97 1308.76 1564 Q1303.8 1559.04 1303.8 1550.57 Q1303.8 1541.82 1308.51 1536.69 Q1313.25 1531.54 1321.27 1531.54 Q1328.47 1531.54 1332.64 1536.18 Q1336.84 1540.8 1336.84 1548.76 M1330.98 1547.04 Q1330.92 1542.23 1328.27 1539.37 Q1325.66 1536.5 1321.34 1536.5 Q1316.43 1536.5 1313.47 1539.27 Q1310.55 1542.04 1310.1 1547.07 L1330.98 1547.04 Z" fill="#000000" fill-rule="evenodd" fill-opacity="1" /><polyline clip-path="url(#clip852)" style="stroke:#000000; stroke-linecap:butt; stroke-linejoin:round; stroke-width:2; stroke-opacity:0.1; fill:none" points="
  178.867,1295.21 2352.76,1295.21 
  "/>
<polyline clip-path="url(#clip852)" style="stroke:#000000; stroke-linecap:butt; stroke-linejoin:round; stroke-width:2; stroke-opacity:0.1; fill:none" points="
  178.867,1044.93 2352.76,1044.93 
  "/>
<polyline clip-path="url(#clip852)" style="stroke:#000000; stroke-linecap:butt; stroke-linejoin:round; stroke-width:2; stroke-opacity:0.1; fill:none" points="
  178.867,794.647 2352.76,794.647 
  "/>
<polyline clip-path="url(#clip852)" style="stroke:#000000; stroke-linecap:butt; stroke-linejoin:round; stroke-width:2; stroke-opacity:0.1; fill:none" points="
  178.867,544.366 2352.76,544.366 
  "/>
<polyline clip-path="url(#clip852)" style="stroke:#000000; stroke-linecap:butt; stroke-linejoin:round; stroke-width:2; stroke-opacity:0.1; fill:none" points="
  178.867,294.085 2352.76,294.085 
  "/>
<polyline clip-path="url(#clip850)" style="stroke:#000000; stroke-linecap:butt; stroke-linejoin:round; stroke-width:4; stroke-opacity:1; fill:none" points="
  178.867,1423.18 178.867,47.2441 
  "/>
<polyline clip-path="url(#clip850)" style="stroke:#000000; stroke-linecap:butt; stroke-linejoin:round; stroke-width:4; stroke-opacity:1; fill:none" points="
  178.867,1295.21 197.764,1295.21 
  "/>
<polyline clip-path="url(#clip850)" style="stroke:#000000; stroke-linecap:butt; stroke-linejoin:round; stroke-width:4; stroke-opacity:1; fill:none" points="
  178.867,1044.93 197.764,1044.93 
  "/>
<polyline clip-path="url(#clip850)" style="stroke:#000000; stroke-linecap:butt; stroke-linejoin:round; stroke-width:4; stroke-opacity:1; fill:none" points="
  178.867,794.647 197.764,794.647 
  "/>
<polyline clip-path="url(#clip850)" style="stroke:#000000; stroke-linecap:butt; stroke-linejoin:round; stroke-width:4; stroke-opacity:1; fill:none" points="
  178.867,544.366 197.764,544.366 
  "/>
<polyline clip-path="url(#clip850)" style="stroke:#000000; stroke-linecap:butt; stroke-linejoin:round; stroke-width:4; stroke-opacity:1; fill:none" points="
  178.867,294.085 197.764,294.085 
  "/>
<path clip-path="url(#clip850)" d="M50.9921 1295.66 L80.6679 1295.66 L80.6679 1299.59 L50.9921 1299.59 L50.9921 1295.66 Z" fill="#000000" fill-rule="evenodd" fill-opacity="1" /><path clip-path="url(#clip850)" d="M90.8993 1311.77 L90.8993 1307.51 Q92.6586 1308.34 94.4641 1308.78 Q96.2697 1309.22 98.0058 1309.22 Q102.635 1309.22 105.066 1306.12 Q107.52 1303 107.867 1296.66 Q106.524 1298.65 104.464 1299.71 Q102.404 1300.78 99.9039 1300.78 Q94.7187 1300.78 91.6864 1297.65 Q88.6771 1294.5 88.6771 1289.06 Q88.6771 1283.74 91.8252 1280.52 Q94.9734 1277.3 100.205 1277.3 Q106.2 1277.3 109.348 1281.91 Q112.52 1286.49 112.52 1295.24 Q112.52 1303.41 108.631 1308.3 Q104.765 1313.16 98.2141 1313.16 Q96.4548 1313.16 94.6493 1312.81 Q92.8438 1312.47 90.8993 1311.77 M100.205 1297.12 Q103.353 1297.12 105.182 1294.97 Q107.033 1292.81 107.033 1289.06 Q107.033 1285.34 105.182 1283.18 Q103.353 1281.01 100.205 1281.01 Q97.0567 1281.01 95.2049 1283.18 Q93.3762 1285.34 93.3762 1289.06 Q93.3762 1292.81 95.2049 1294.97 Q97.0567 1297.12 100.205 1297.12 Z" fill="#000000" fill-rule="evenodd" fill-opacity="1" /><path clip-path="url(#clip850)" d="M130.922 1281.01 Q127.311 1281.01 125.482 1284.57 Q123.677 1288.11 123.677 1295.24 Q123.677 1302.35 125.482 1305.91 Q127.311 1309.46 130.922 1309.46 Q134.556 1309.46 136.362 1305.91 Q138.191 1302.35 138.191 1295.24 Q138.191 1288.11 136.362 1284.57 Q134.556 1281.01 130.922 1281.01 M130.922 1277.3 Q136.732 1277.3 139.788 1281.91 Q142.867 1286.49 142.867 1295.24 Q142.867 1303.97 139.788 1308.58 Q136.732 1313.16 130.922 1313.16 Q125.112 1313.16 122.033 1308.58 Q118.978 1303.97 118.978 1295.24 Q118.978 1286.49 122.033 1281.91 Q125.112 1277.3 130.922 1277.3 Z" fill="#000000" fill-rule="evenodd" fill-opacity="1" /><path clip-path="url(#clip850)" d="M50.9921 1045.38 L80.6679 1045.38 L80.6679 1049.31 L50.9921 1049.31 L50.9921 1045.38 Z" fill="#000000" fill-rule="evenodd" fill-opacity="1" /><path clip-path="url(#clip850)" d="M101.339 1043.06 Q98.1909 1043.06 96.3391 1045.22 Q94.5104 1047.37 94.5104 1051.12 Q94.5104 1054.85 96.3391 1057.02 Q98.1909 1059.18 101.339 1059.18 Q104.487 1059.18 106.316 1057.02 Q108.168 1054.85 108.168 1051.12 Q108.168 1047.37 106.316 1045.22 Q104.487 1043.06 101.339 1043.06 M110.621 1028.41 L110.621 1032.67 Q108.862 1031.84 107.057 1031.4 Q105.274 1030.96 103.515 1030.96 Q98.8854 1030.96 96.4317 1034.08 Q94.0012 1037.21 93.6539 1043.53 Q95.0197 1041.51 97.0798 1040.45 Q99.14 1039.36 101.617 1039.36 Q106.825 1039.36 109.834 1042.53 Q112.867 1045.68 112.867 1051.12 Q112.867 1056.44 109.719 1059.66 Q106.571 1062.88 101.339 1062.88 Q95.3437 1062.88 92.1725 1058.3 Q89.0012 1053.69 89.0012 1044.96 Q89.0012 1036.77 92.89 1031.91 Q96.7789 1027.02 103.33 1027.02 Q105.089 1027.02 106.871 1027.37 Q108.677 1027.72 110.621 1028.41 Z" fill="#000000" fill-rule="evenodd" fill-opacity="1" /><path clip-path="url(#clip850)" d="M130.922 1030.73 Q127.311 1030.73 125.482 1034.29 Q123.677 1037.83 123.677 1044.96 Q123.677 1052.07 125.482 1055.63 Q127.311 1059.18 130.922 1059.18 Q134.556 1059.18 136.362 1055.63 Q138.191 1052.07 138.191 1044.96 Q138.191 1037.83 136.362 1034.29 Q134.556 1030.73 130.922 1030.73 M130.922 1027.02 Q136.732 1027.02 139.788 1031.63 Q142.867 1036.21 142.867 1044.96 Q142.867 1053.69 139.788 1058.3 Q136.732 1062.88 130.922 1062.88 Q125.112 1062.88 122.033 1058.3 Q118.978 1053.69 118.978 1044.96 Q118.978 1036.21 122.033 1031.63 Q125.112 1027.02 130.922 1027.02 Z" fill="#000000" fill-rule="evenodd" fill-opacity="1" /><path clip-path="url(#clip850)" d="M50.9921 795.098 L80.6679 795.098 L80.6679 799.033 L50.9921 799.033 L50.9921 795.098 Z" fill="#000000" fill-rule="evenodd" fill-opacity="1" /><path clip-path="url(#clip850)" d="M104.927 793.293 Q108.283 794.01 110.158 796.279 Q112.057 798.547 112.057 801.881 Q112.057 806.996 108.538 809.797 Q105.02 812.598 98.5382 812.598 Q96.3623 812.598 94.0475 812.158 Q91.7558 811.742 89.3021 810.885 L89.3021 806.371 Q91.2465 807.506 93.5613 808.084 Q95.8761 808.663 98.3993 808.663 Q102.797 808.663 105.089 806.927 Q107.404 805.191 107.404 801.881 Q107.404 798.825 105.251 797.112 Q103.121 795.376 99.3021 795.376 L95.2743 795.376 L95.2743 791.533 L99.4872 791.533 Q102.936 791.533 104.765 790.168 Q106.594 788.779 106.594 786.186 Q106.594 783.524 104.696 782.112 Q102.821 780.677 99.3021 780.677 Q97.3808 780.677 95.1817 781.094 Q92.9826 781.51 90.3438 782.39 L90.3438 778.223 Q93.0058 777.483 95.3206 777.112 Q97.6585 776.742 99.7187 776.742 Q105.043 776.742 108.145 779.172 Q111.246 781.58 111.246 785.7 Q111.246 788.571 109.603 790.561 Q107.959 792.529 104.927 793.293 Z" fill="#000000" fill-rule="evenodd" fill-opacity="1" /><path clip-path="url(#clip850)" d="M130.922 780.446 Q127.311 780.446 125.482 784.01 Q123.677 787.552 123.677 794.682 Q123.677 801.788 125.482 805.353 Q127.311 808.895 130.922 808.895 Q134.556 808.895 136.362 805.353 Q138.191 801.788 138.191 794.682 Q138.191 787.552 136.362 784.01 Q134.556 780.446 130.922 780.446 M130.922 776.742 Q136.732 776.742 139.788 781.348 Q142.867 785.932 142.867 794.682 Q142.867 803.408 139.788 808.015 Q136.732 812.598 130.922 812.598 Q125.112 812.598 122.033 808.015 Q118.978 803.408 118.978 794.682 Q118.978 785.932 122.033 781.348 Q125.112 776.742 130.922 776.742 Z" fill="#000000" fill-rule="evenodd" fill-opacity="1" /><path clip-path="url(#clip850)" d="M130.922 530.165 Q127.311 530.165 125.482 533.73 Q123.677 537.271 123.677 544.401 Q123.677 551.507 125.482 555.072 Q127.311 558.614 130.922 558.614 Q134.556 558.614 136.362 555.072 Q138.191 551.507 138.191 544.401 Q138.191 537.271 136.362 533.73 Q134.556 530.165 130.922 530.165 M130.922 526.461 Q136.732 526.461 139.788 531.068 Q142.867 535.651 142.867 544.401 Q142.867 553.128 139.788 557.734 Q136.732 562.317 130.922 562.317 Q125.112 562.317 122.033 557.734 Q118.978 553.128 118.978 544.401 Q118.978 535.651 122.033 531.068 Q125.112 526.461 130.922 526.461 Z" fill="#000000" fill-rule="evenodd" fill-opacity="1" /><path clip-path="url(#clip850)" d="M104.927 292.731 Q108.283 293.449 110.158 295.717 Q112.057 297.986 112.057 301.319 Q112.057 306.435 108.538 309.236 Q105.02 312.037 98.5382 312.037 Q96.3623 312.037 94.0475 311.597 Q91.7558 311.18 89.3021 310.324 L89.3021 305.81 Q91.2465 306.944 93.5613 307.523 Q95.8761 308.102 98.3993 308.102 Q102.797 308.102 105.089 306.366 Q107.404 304.629 107.404 301.319 Q107.404 298.264 105.251 296.551 Q103.121 294.815 99.3021 294.815 L95.2743 294.815 L95.2743 290.972 L99.4872 290.972 Q102.936 290.972 104.765 289.606 Q106.594 288.217 106.594 285.625 Q106.594 282.963 104.696 281.551 Q102.821 280.116 99.3021 280.116 Q97.3808 280.116 95.1817 280.532 Q92.9826 280.949 90.3438 281.829 L90.3438 277.662 Q93.0058 276.921 95.3206 276.551 Q97.6585 276.18 99.7187 276.18 Q105.043 276.18 108.145 278.611 Q111.246 281.018 111.246 285.139 Q111.246 288.009 109.603 290 Q107.959 291.967 104.927 292.731 Z" fill="#000000" fill-rule="evenodd" fill-opacity="1" /><path clip-path="url(#clip850)" d="M130.922 279.884 Q127.311 279.884 125.482 283.449 Q123.677 286.991 123.677 294.12 Q123.677 301.227 125.482 304.791 Q127.311 308.333 130.922 308.333 Q134.556 308.333 136.362 304.791 Q138.191 301.227 138.191 294.12 Q138.191 286.991 136.362 283.449 Q134.556 279.884 130.922 279.884 M130.922 276.18 Q136.732 276.18 139.788 280.787 Q142.867 285.37 142.867 294.12 Q142.867 302.847 139.788 307.453 Q136.732 312.037 130.922 312.037 Q125.112 312.037 122.033 307.453 Q118.978 302.847 118.978 294.12 Q118.978 285.37 122.033 280.787 Q125.112 276.18 130.922 276.18 Z" fill="#000000" fill-rule="evenodd" fill-opacity="1" /><polyline clip-path="url(#clip852)" style="stroke:#009af9; stroke-linecap:butt; stroke-linejoin:round; stroke-width:4; stroke-opacity:1; fill:none" points="
  178.867,1278.54 180.99,1278.39 183.113,1278.29 185.235,1278.2 187.358,1278.14 189.481,1278.1 191.604,1278.05 193.727,1278.03 195.85,1278.01 197.973,1278 
  200.096,1277.99 202.219,940.527 204.342,297.939 206.465,241.568 208.588,218.32 210.711,208.529 212.834,204.757 214.957,203.903 217.08,204.504 219.202,205.788 
  221.325,207.311 223.448,208.822 225.571,210.193 227.694,211.373 229.817,212.362 231.94,213.182 234.063,213.869 236.186,214.456 238.309,214.978 240.432,215.463 
  242.555,215.936 244.678,216.418 246.801,216.922 248.924,217.461 251.047,218.044 253.169,218.676 255.292,219.364 257.415,220.108 259.538,220.912 261.661,221.775 
  263.784,222.696 265.907,223.675 268.03,224.712 270.153,225.803 272.276,226.947 274.399,228.143 276.522,229.389 278.645,230.683 280.768,232.023 282.891,233.407 
  285.014,234.832 287.137,236.298 289.259,237.802 291.382,239.342 293.505,240.917 295.628,242.525 297.751,244.165 299.874,245.834 301.997,247.532 304.12,249.257 
  306.243,251.007 308.366,252.782 310.489,254.58 312.612,256.4 314.735,258.24 316.858,260.101 318.981,261.979 321.104,263.876 323.226,265.789 325.349,267.717 
  327.472,269.66 329.595,271.617 331.718,273.587 333.841,275.57 335.964,277.563 338.087,279.567 340.21,281.581 342.333,283.603 344.456,285.634 346.579,287.672 
  348.702,289.718 350.825,291.769 352.948,293.827 355.071,295.888 357.193,297.957 359.316,300.026 361.439,302.098 363.562,304.178 365.685,306.255 367.808,308.336 
  369.931,310.418 372.054,312.5 374.177,314.585 376.3,316.669 378.423,318.753 380.546,320.838 382.669,322.922 384.792,325.004 386.915,327.087 389.038,329.162 
  391.161,331.237 393.283,333.316 395.406,335.388 397.529,337.461 399.652,339.532 401.775,341.597 403.898,343.667 406.021,345.726 408.144,347.788 410.267,349.851 
  412.39,351.901 414.513,353.956 416.636,356.009 418.759,358.042 420.882,360.083 423.005,362.129 425.128,364.17 427.25,366.222 429.373,368.269 431.496,370.301 
  433.619,372.356 435.742,374.394 437.865,376.41 439.988,378.461 442.111,380.481 444.234,382.512 446.357,384.561 448.48,386.559 450.603,388.578 452.726,390.591 
  454.849,392.606 456.972,394.675 459.095,396.694 461.217,398.727 463.34,400.812 465.463,402.818 467.586,404.854 469.709,406.888 471.832,408.875 473.955,410.932 
  476.078,413.004 478.201,415.052 480.324,417.156 482.447,419.211 484.57,421.243 486.693,423.319 488.816,425.386 490.939,427.523 493.062,429.647 495.185,431.754 
  497.307,433.878 499.43,436.006 501.553,438.148 503.676,440.294 505.799,442.443 507.922,444.625 510.045,446.802 512.168,449.015 514.291,451.214 516.414,453.434 
  518.537,455.684 520.66,457.928 522.783,460.211 524.906,462.502 527.029,464.799 529.152,467.135 531.274,469.461 533.397,471.822 535.52,474.209 537.643,476.58 
  539.766,478.985 541.889,481.407 544.012,483.843 546.135,486.316 548.258,488.809 550.381,491.328 552.504,493.872 554.627,496.434 556.75,499.033 558.873,501.666 
  560.996,504.33 563.119,507.046 565.241,509.781 567.364,512.542 569.487,515.347 571.61,518.19 573.733,521.08 575.856,524.008 577.979,526.971 580.102,529.997 
  582.225,533.077 584.348,536.203 586.471,539.39 588.594,542.637 590.717,545.947 592.84,549.324 594.963,552.77 597.086,556.292 599.209,559.887 601.331,563.566 
  603.454,567.332 605.577,571.176 607.7,575.12 609.823,579.15 611.946,583.279 614.069,587.515 616.192,591.834 618.315,596.268 620.438,600.799 622.561,605.405 
  624.684,610.141 626.807,614.947 628.93,619.865 631.053,624.869 633.176,629.934 635.298,635.117 637.421,640.352 639.544,645.672 641.667,651.042 643.79,656.469 
  645.913,661.971 648.036,667.492 650.159,673.054 652.282,678.654 654.405,684.275 656.528,689.927 658.651,695.596 660.774,701.282 662.897,706.992 665.02,712.705 
  667.143,718.429 669.265,724.174 671.388,729.918 673.511,735.668 675.634,741.442 677.757,747.22 679.88,753.01 682.003,758.817 684.126,764.633 686.249,770.478 
  688.372,776.343 690.495,782.221 692.618,788.138 694.741,794.082 696.864,800.049 698.987,806.064 701.11,812.104 703.233,818.2 705.355,824.344 707.478,830.533 
  709.601,836.789 711.724,843.108 713.847,849.499 715.97,855.972 718.093,862.53 720.216,869.188 722.339,875.956 724.462,882.834 726.585,889.839 728.708,896.975 
  730.831,904.251 732.954,911.678 735.077,919.259 737.2,927.002 739.322,934.914 741.445,942.998 743.568,951.257 745.691,959.695 747.814,968.313 749.937,977.12 
  752.06,986.119 754.183,995.312 756.306,1004.71 758.429,1014.33 760.552,1024.18 762.675,1034.27 764.798,1044.63 766.921,1055.26 769.044,1066.21 771.167,1077.47 
  773.289,1089.08 775.412,1101.05 777.535,1113.38 779.658,1126.05 781.781,1139.05 783.904,1152.28 786.027,1165.64 788.15,1178.95 790.273,1191.99 792.396,1204.5 
  794.519,1216.2 796.642,1226.83 798.765,1236.21 800.888,1244.24 803.011,1250.93 805.134,1256.38 807.257,1260.73 809.379,1264.13 811.502,1266.77 813.625,1268.78 
  815.748,1270.32 817.871,1271.47 819.994,1272.34 822.117,1273 824.24,1273.49 826.363,1273.86 828.486,1274.14 830.609,1274.35 832.732,1274.52 834.855,1274.64 
  836.978,1274.75 839.101,1274.83 841.224,1274.88 843.346,1274.93 845.469,1274.97 847.592,1275.02 849.715,1275.04 851.838,1275.06 853.961,946.087 856.084,651.199 
  858.207,361.744 860.33,323.638 862.453,302.053 864.576,289.765 866.699,282.533 868.822,278.089 870.945,275.228 873.068,273.326 875.191,272.031 877.313,271.157 
  879.436,270.595 881.559,270.281 883.682,270.176 885.805,270.256 887.928,270.502 890.051,270.9 892.174,271.442 894.297,272.119 896.42,272.922 898.543,273.844 
  900.666,274.88 902.789,276.021 904.912,277.262 907.035,278.599 909.158,280.023 911.28,281.532 913.403,283.12 915.526,284.782 917.649,286.514 919.772,288.311 
  921.895,290.169 924.018,292.085 926.141,294.056 928.264,296.077 930.387,298.146 932.51,300.26 934.633,302.415 936.756,304.61 938.879,306.842 941.002,309.108 
  943.125,311.408 945.248,313.738 947.37,316.097 949.493,318.484 951.616,320.896 953.739,323.333 955.862,325.793 957.985,328.274 960.108,330.776 962.231,333.297 
  964.354,335.839 966.477,338.396 968.6,340.971 970.723,343.564 972.846,346.171 974.969,348.795 977.092,351.435 979.215,354.087 981.337,356.755 983.46,359.438 
  985.583,362.132 987.706,364.841 989.829,367.564 991.952,370.3 994.075,373.05 996.198,375.813 998.321,378.59 1000.44,381.381 1002.57,384.186 1004.69,387.005 
  1006.81,389.84 1008.94,392.688 1011.06,395.552 1013.18,398.432 1015.3,401.327 1017.43,404.239 1019.55,407.168 1021.67,410.114 1023.8,413.077 1025.92,416.06 
  1028.04,419.061 1030.17,422.083 1032.29,425.124 1034.41,428.187 1036.53,431.271 1038.66,434.378 1040.78,437.508 1042.9,440.662 1045.03,443.841 1047.15,447.046 
  1049.27,450.279 1051.39,453.538 1053.52,456.828 1055.64,460.147 1057.76,463.497 1059.89,466.88 1062.01,470.297 1064.13,473.75 1066.26,477.238 1068.38,480.766 
  1070.5,484.334 1072.62,487.943 1074.75,491.597 1076.87,495.298 1078.99,499.047 1081.12,502.85 1083.24,506.703 1085.36,510.615 1087.48,514.585 1089.61,518.619 
  1091.73,522.72 1093.85,526.892 1095.98,531.139 1098.1,535.464 1100.22,539.874 1102.34,544.371 1104.47,548.962 1106.59,553.652 1108.71,558.446 1110.84,563.349 
  1112.96,568.363 1115.08,573.496 1117.21,578.742 1119.33,584.116 1121.45,589.609 1123.57,595.221 1125.7,600.959 1127.82,606.815 1129.94,612.787 1132.07,618.869 
  1134.19,625.053 1136.31,631.331 1138.43,637.702 1140.56,644.15 1142.68,650.67 1144.8,657.254 1146.93,663.889 1149.05,670.571 1151.17,677.293 1153.3,684.048 
  1155.42,690.835 1157.54,697.647 1159.66,704.478 1161.79,711.33 1163.91,718.197 1166.03,725.081 1168.16,731.981 1170.28,738.894 1172.4,745.826 1174.52,752.775 
  1176.65,759.74 1178.77,766.728 1180.89,773.734 1183.02,780.763 1185.14,787.819 1187.26,794.898 1189.39,802.006 1191.51,809.147 1193.63,816.318 1195.75,823.531 
  1197.88,830.785 1200,838.083 1202.12,845.435 1204.25,852.84 1206.37,860.311 1208.49,867.855 1210.61,875.47 1212.74,883.171 1214.86,890.963 1216.98,898.848 
  1219.11,906.842 1221.23,914.945 1223.35,923.164 1225.48,931.508 1227.6,939.977 1229.72,948.58 1231.84,957.325 1233.97,966.213 1236.09,975.254 1238.21,984.453 
  1240.34,993.824 1242.46,1003.38 1244.58,1013.12 1246.7,1023.08 1248.83,1033.27 1250.95,1043.71 1253.07,1054.42 1255.2,1065.42 1257.32,1076.74 1259.44,1088.4 
  1261.57,1100.42 1263.69,1112.79 1265.81,1125.52 1267.93,1138.55 1270.06,1151.83 1272.18,1165.25 1274.3,1178.62 1276.43,1191.72 1278.55,1204.3 1280.67,1216.06 
  1282.79,1226.75 1284.92,1236.18 1287.04,1244.26 1289.16,1250.99 1291.29,1256.48 1293.41,1260.84 1295.53,1264.26 1297.66,1266.9 1299.78,1268.92 1301.9,1270.46 
  1304.02,1271.62 1306.15,1272.49 1308.27,1273.16 1310.39,1273.65 1312.52,1274.02 1314.64,1274.3 1316.76,1274.51 1318.88,1274.68 1321.01,1274.8 1323.13,1274.9 
  1325.25,1274.98 1327.38,1275.03 1329.5,1275.09 1331.62,1275.13 1333.75,1275.17 1335.87,1275.21 1337.99,1275.22 1340.11,1275.26 1342.24,1275.28 1344.36,1275.29 
  1346.48,1275.32 1348.61,1275.32 1350.73,1275.35 1352.85,1275.37 1354.97,1275.37 1357.1,1275.41 1359.22,1275.42 1361.34,1275.46 1363.47,1275.43 1365.59,1275.44 
  1367.71,1275.49 1369.84,1275.5 1371.96,1275.53 1374.08,1275.53 1376.2,1275.55 1378.33,1275.58 1380.45,1275.56 1382.57,1275.58 1384.7,1275.6 1386.82,1275.6 
  1388.94,1275.62 1391.06,1275.62 1393.19,1275.64 1395.31,1275.67 1397.43,1275.67 1399.56,1275.69 1401.68,1275.71 1403.8,1275.72 1405.93,1275.74 1408.05,1275.75 
  1410.17,1275.76 1412.29,1275.79 1414.42,1275.79 1416.54,1275.8 1418.66,1275.82 1420.79,1275.82 1422.91,1275.85 1425.03,1275.85 1427.15,1275.86 1429.28,1275.88 
  1431.4,1275.88 1433.52,1275.9 1435.65,1275.91 1437.77,1275.91 1439.89,1275.93 1442.02,1275.94 1444.14,1275.96 1446.26,1275.97 1448.38,1275.98 1450.51,1275.99 
  1452.63,1275.99 1454.75,1276.02 1456.88,1276.02 1459,1276.05 1461.12,1276.08 1463.24,1276.08 1465.37,1276.1 1467.49,1276.1 1469.61,1276.1 1471.74,1276.12 
  1473.86,1276.1 1475.98,1276.13 1478.11,1276.17 1480.23,1276.16 1482.35,1276.18 1484.47,1276.19 1486.6,1276.19 1488.72,1276.21 1490.84,1276.21 1492.97,1276.22 
  1495.09,1276.25 1497.21,1276.25 1499.33,1276.26 1501.46,1276.26 1503.58,1276.26 1505.7,1046.3 1507.83,406.08 1509.95,261.014 1512.07,232.35 1514.2,220.921 
  1516.32,216.467 1518.44,214.903 1520.56,214.559 1522.69,214.804 1524.81,215.307 1526.93,215.944 1529.06,216.655 1531.18,217.415 1533.3,218.227 1535.42,219.08 
  1537.55,219.995 1539.67,220.951 1541.79,221.976 1543.92,223.086 1546.04,224.238 1548.16,225.493 1550.29,226.779 1552.41,228.151 1554.53,229.559 1556.65,231.033 
  1558.78,232.605 1560.9,234.226 1563.02,235.924 1565.15,237.679 1567.27,239.527 1569.39,241.399 1571.51,243.315 1573.64,245.304 1575.76,247.325 1577.88,249.417 
  1580.01,251.473 1582.13,253.608 1584.25,255.797 1586.38,258.016 1588.5,260.268 1590.62,262.506 1592.74,264.852 1594.87,267.167 1596.99,269.528 1599.11,271.893 
  1601.24,274.296 1603.36,276.774 1605.48,279.221 1607.6,281.736 1609.73,284.208 1611.85,286.711 1613.97,289.238 1616.1,291.771 1618.22,294.321 1620.34,296.866 
  1622.46,299.459 1624.59,302.026 1626.71,304.641 1628.83,307.238 1630.96,309.877 1633.08,312.488 1635.2,315.132 1637.33,317.762 1639.45,320.385 1641.57,323.042 
  1643.69,325.657 1645.82,328.33 1647.94,331.004 1650.06,333.69 1652.19,336.394 1654.31,339.094 1656.43,341.821 1658.55,344.507 1660.68,347.249 1662.8,349.959 
  1664.92,352.7 1667.05,355.442 1669.17,358.167 1671.29,360.937 1673.42,363.685 1675.54,366.462 1677.66,369.203 1679.78,371.982 1681.91,374.755 1684.03,377.551 
  1686.15,380.374 1688.28,383.202 1690.4,386.055 1692.52,388.888 1694.64,391.773 1696.77,394.634 1698.89,397.534 1701.01,400.39 1703.14,403.289 1705.26,406.19 
  1707.38,409.124 1709.51,412.103 1711.63,415.052 1713.75,418.043 1715.87,421.017 1718,424.036 1720.12,427.061 1722.24,430.134 1724.37,433.216 1726.49,436.316 
  1728.61,439.467 1730.73,442.59 1732.86,445.79 1734.98,448.972 1737.1,452.2 1739.23,455.435 1741.35,458.687 1743.47,461.992 1745.6,465.333 1747.72,468.721 
  1749.84,472.101 1751.96,475.555 1754.09,479.035 1756.21,482.58 1758.33,486.132 1760.46,489.741 1762.58,493.412 1764.7,497.069 1766.82,500.816 1768.95,504.606 
  1771.07,508.463 1773.19,512.357 1775.32,516.328 1777.44,520.368 1779.56,524.461 1781.69,528.649 1783.81,532.886 1785.93,537.21 1788.05,541.614 1790.18,546.105 
  1792.3,550.688 1794.42,555.367 1796.55,560.152 1798.67,565.034 1800.79,570.034 1802.91,575.142 1805.04,580.364 1807.16,585.705 1809.28,591.158 1811.41,596.745 
  1813.53,602.439 1815.65,608.254 1817.78,614.157 1819.9,620.191 1822.02,626.309 1824.14,632.508 1826.27,638.796 1828.39,645.151 1830.51,651.598 1832.64,658.059 
  1834.76,664.593 1836.88,671.153 1839,677.756 1841.13,684.385 1843.25,691.039 1845.37,697.718 1847.5,704.408 1849.62,711.127 1851.74,717.846 1853.87,724.586 
  1855.99,731.334 1858.11,738.09 1860.23,744.876 1862.36,751.642 1864.48,758.466 1866.6,765.292 1868.73,772.137 1870.85,778.995 1872.97,785.869 1875.09,792.791 
  1877.22,799.71 1879.34,806.682 1881.46,813.661 1883.59,820.709 1885.71,827.804 1887.83,834.922 1889.96,842.115 1892.08,849.327 1894.2,856.637 1896.32,863.99 
  1898.45,871.44 1900.57,878.953 1902.69,886.575 1904.82,894.302 1906.94,902.132 1909.06,910.092 1911.18,918.135 1913.31,926.335 1915.43,934.644 1917.55,943.13 
  1919.68,951.752 1921.8,960.482 1923.92,969.397 1926.05,978.458 1928.17,987.732 1930.29,997.138 1932.41,1006.76 1934.54,1016.57 1936.66,1026.6 1938.78,1036.87 
  1940.91,1047.39 1943.03,1058.2 1945.15,1069.31 1947.27,1080.76 1949.4,1092.53 1951.52,1104.67 1953.64,1117.19 1955.77,1130 1957.89,1143.13 1960.01,1156.45 
  1962.14,1169.88 1964.26,1183.18 1966.38,1196.15 1968.5,1208.49 1970.63,1219.89 1972.75,1230.16 1974.87,1239.1 1977,1246.72 1979.12,1253 1981.24,1258.09 
  1983.36,1262.11 1985.49,1265.2 1987.61,1267.6 1989.73,1269.41 1991.86,1270.84 1993.98,1271.88 1996.1,1272.68 1998.23,1273.26 2000.35,1273.71 2002.47,1274.07 
  2004.59,1274.32 2006.72,1274.54 2008.84,1274.68 2010.96,1274.81 2013.09,1274.89 2015.21,1274.98 2017.33,1275.03 2019.45,1275.08 2021.58,1275.11 2023.7,1275.15 
  2025.82,1275.19 2027.95,1275.21 2030.07,1275.24 2032.19,1275.26 2034.32,1275.29 2036.44,1275.3 2038.56,1275.32 2040.68,1275.34 2042.81,1275.36 2044.93,1275.38 
  2047.05,1275.4 2049.18,1275.42 2051.3,1275.43 2053.42,1275.46 2055.54,1275.47 2057.67,1275.49 2059.79,1275.51 2061.91,1275.52 2064.04,1275.54 2066.16,1275.55 
  2068.28,1275.57 2070.41,1275.58 2072.53,1275.6 2074.65,1275.61 2076.77,1275.63 2078.9,1275.64 2081.02,1275.65 2083.14,1275.67 2085.27,1275.69 2087.39,1275.7 
  2089.51,1275.71 2091.63,1275.73 2093.76,1275.74 2095.88,1275.76 2098,1275.77 2100.13,1275.78 2102.25,1275.8 2104.37,1275.81 2106.5,1275.82 2108.62,1275.84 
  2110.74,1275.85 2112.86,1275.86 2114.99,1275.87 2117.11,1275.89 2119.23,1275.9 2121.36,1275.91 2123.48,1275.92 2125.6,1275.93 2127.72,1275.95 2129.85,1275.96 
  2131.97,1275.97 2134.09,1275.98 2136.22,1275.99 2138.34,1276.01 2140.46,1276.02 2142.58,1276.03 2144.71,1276.04 2146.83,1276.05 2148.95,1276.06 2151.08,1276.07 
  2153.2,1276.08 2155.32,1276.09 2157.45,1179.75 2159.57,844.849 2161.69,290.573 2163.81,250.711 2165.94,233.877 2168.06,226.726 2170.18,223.739 2172.31,222.556 
  2174.43,222.247 2176.55,222.359 2178.67,222.702 2180.8,223.18 2182.92,223.753 2185.04,224.401 2187.17,225.121 2189.29,225.911 2191.41,226.773 2193.54,227.71 
  2195.66,228.725 2197.78,229.818 2199.9,230.989 2202.03,232.24 2204.15,233.57 2206.27,234.977 2208.4,236.46 2210.52,238.014 2212.64,239.638 2214.76,241.332 
  2216.89,243.09 2219.01,244.91 2221.13,246.789 2223.26,248.725 2225.38,250.713 2227.5,252.75 2229.63,254.836 2231.75,256.968 2233.87,259.139 2235.99,261.352 
  2238.12,263.603 2240.24,265.888 2242.36,268.207 2244.49,270.557 2246.61,272.937 2248.73,275.345 2250.85,277.777 2252.98,280.235 2255.1,282.714 2257.22,285.215 
  2259.35,287.737 2261.47,290.277 2263.59,292.834 2265.72,295.409 2267.84,297.998 2269.96,300.602 2272.08,303.221 2274.21,305.852 2276.33,308.495 2278.45,311.15 
  2280.58,313.815 2282.7,316.491 2284.82,319.177 2286.94,321.872 2289.07,324.576 2291.19,327.289 2293.31,330.011 2295.44,332.741 2297.56,335.478 2299.68,338.223 
  2301.81,340.977 2303.93,343.737 2306.05,346.506 2308.17,349.283 2310.3,352.067 2312.42,354.859 2314.54,357.66 2316.67,360.468 2318.79,363.286 2320.91,366.112 
  2323.03,368.946 2325.16,371.791 2327.28,374.645 2329.4,377.509 2331.53,380.385 2333.65,383.27 2335.77,386.168 2337.9,389.078 2340.02,391.999 2342.14,394.933 
  2344.26,397.883 2346.39,400.845 2348.51,403.823 2350.63,406.816 2352.76,409.824 
  "/>
<polyline clip-path="url(#clip852)" style="stroke:#e26f46; stroke-linecap:butt; stroke-linejoin:round; stroke-width:8; stroke-opacity:1; fill:none" stroke-dasharray="32, 20" points="
  178.867,1278.54 180.99,1278.39 183.113,1278.29 185.235,1278.2 187.358,1278.14 189.481,1278.1 191.604,1278.05 193.727,1278.03 195.85,1278.01 197.973,1278 
  200.096,1277.99 202.219,940.527 204.342,297.939 206.465,241.568 208.588,218.32 210.711,208.529 212.834,204.757 214.957,203.903 217.08,204.504 219.202,205.788 
  221.325,207.311 223.448,208.822 225.571,210.193 227.694,211.373 229.817,212.362 231.94,213.182 234.063,213.869 236.186,214.456 238.309,214.978 240.432,215.463 
  242.555,215.936 244.678,216.418 246.801,216.922 248.924,217.461 251.047,218.044 253.169,218.676 255.292,219.364 257.415,220.108 259.538,220.912 261.661,221.775 
  263.784,222.696 265.907,223.675 268.03,224.712 270.153,225.803 272.276,226.947 274.399,228.143 276.522,229.389 278.645,230.683 280.768,232.023 282.891,233.407 
  285.014,234.832 287.137,236.298 289.259,237.802 291.382,239.342 293.505,240.917 295.628,242.525 297.751,244.165 299.874,245.834 301.997,247.532 304.12,249.257 
  306.243,251.007 308.366,252.782 310.489,254.58 312.612,256.4 314.735,258.24 316.858,260.101 318.981,261.979 321.104,263.876 323.226,265.789 325.349,267.717 
  327.472,269.66 329.595,271.617 331.718,273.587 333.841,275.57 335.964,277.563 338.087,279.567 340.21,281.581 342.333,283.603 344.456,285.634 346.579,287.672 
  348.702,289.718 350.825,291.769 352.948,293.827 355.071,295.888 357.193,297.957 359.316,300.026 361.439,302.098 363.562,304.178 365.685,306.255 367.808,308.336 
  369.931,310.418 372.054,312.5 374.177,314.585 376.3,316.669 378.423,318.753 380.546,320.838 382.669,322.922 384.792,325.004 386.915,327.087 389.038,329.162 
  391.161,331.237 393.283,333.316 395.406,335.388 397.529,337.461 399.652,339.532 401.775,341.597 403.898,343.667 406.021,345.726 408.144,347.788 410.267,349.851 
  412.39,351.901 414.513,353.956 416.636,356.009 418.759,358.042 420.882,360.083 423.005,362.129 425.128,364.17 427.25,366.222 429.373,368.269 431.496,370.301 
  433.619,372.356 435.742,374.394 437.865,376.41 439.988,378.461 442.111,380.481 444.234,382.512 446.357,384.561 448.48,386.559 450.603,388.578 452.726,390.591 
  454.849,392.606 456.972,394.675 459.095,396.694 461.217,398.727 463.34,400.812 465.463,402.818 467.586,404.854 469.709,406.888 471.832,408.875 473.955,410.932 
  476.078,413.004 478.201,415.052 480.324,417.156 482.447,419.211 484.57,421.243 486.693,423.319 488.816,425.386 490.939,427.523 493.062,429.647 495.185,431.754 
  497.307,433.878 499.43,436.006 501.553,438.148 503.676,440.294 505.799,442.443 507.922,444.625 510.045,446.802 512.168,449.015 514.291,451.214 516.414,453.434 
  518.537,455.684 520.66,457.928 522.783,460.211 524.906,462.502 527.029,464.799 529.152,467.135 531.274,469.461 533.397,471.822 535.52,474.209 537.643,476.58 
  539.766,478.985 541.889,481.407 544.012,483.843 546.135,486.316 548.258,488.809 550.381,491.328 552.504,493.872 554.627,496.434 556.75,499.033 558.873,501.666 
  560.996,504.33 563.119,507.046 565.241,509.781 567.364,512.542 569.487,515.347 571.61,518.19 573.733,521.08 575.856,524.008 577.979,526.971 580.102,529.997 
  582.225,533.077 584.348,536.203 586.471,539.39 588.594,542.637 590.717,545.947 592.84,549.324 594.963,552.77 597.086,556.292 599.209,559.887 601.331,563.566 
  603.454,567.332 605.577,571.176 607.7,575.12 609.823,579.15 611.946,583.279 614.069,587.515 616.192,591.834 618.315,596.268 620.438,600.799 622.561,605.405 
  624.684,610.141 626.807,614.947 628.93,619.865 631.053,624.869 633.176,629.934 635.298,635.117 637.421,640.352 639.544,645.672 641.667,651.042 643.79,656.469 
  645.913,661.971 648.036,667.492 650.159,673.054 652.282,678.654 654.405,684.275 656.528,689.927 658.651,695.596 660.774,701.282 662.897,706.992 665.02,712.705 
  667.143,718.429 669.265,724.174 671.388,729.918 673.511,735.668 675.634,741.442 677.757,747.22 679.88,753.01 682.003,758.817 684.126,764.633 686.249,770.478 
  688.372,776.343 690.495,782.221 692.618,788.138 694.741,794.082 696.864,800.049 698.987,806.064 701.11,812.104 703.233,818.2 705.355,824.344 707.478,830.533 
  709.601,836.789 711.724,843.108 713.847,849.499 715.97,855.972 718.093,862.53 720.216,869.188 722.339,875.956 724.462,882.834 726.585,889.839 728.708,896.975 
  730.831,904.251 732.954,911.678 735.077,919.259 737.2,927.002 739.322,934.914 741.445,942.998 743.568,951.257 745.691,959.695 747.814,968.313 749.937,977.12 
  752.06,986.119 754.183,995.312 756.306,1004.71 758.429,1014.33 760.552,1024.18 762.675,1034.27 764.798,1044.63 766.921,1055.26 769.044,1066.21 771.167,1077.47 
  773.289,1089.08 775.412,1101.05 777.535,1113.38 779.658,1126.05 781.781,1139.05 783.904,1152.28 786.027,1165.64 788.15,1178.95 790.273,1191.99 792.396,1204.5 
  794.519,1216.2 796.642,1226.83 798.765,1236.21 800.888,1244.24 803.011,1250.93 805.134,1256.38 807.257,1260.73 809.379,1264.13 811.502,1266.77 813.625,1268.78 
  815.748,1270.32 817.871,1271.47 819.994,1272.34 822.117,1273 824.24,1273.49 826.363,1273.86 828.486,1274.14 830.609,1274.35 832.732,1274.52 834.855,1274.64 
  836.978,1274.75 839.101,1274.83 841.224,1274.88 843.346,1274.93 845.469,1274.97 847.592,1275.02 849.715,1275.04 851.838,1275.06 853.961,1275.09 856.084,1275.1 
  858.207,1275.15 860.33,1275.16 862.453,1275.18 864.576,1275.2 866.699,1275.2 868.822,1275.24 870.945,1275.23 873.068,1275.21 875.191,1275.26 877.313,1275.27 
  879.436,1275.31 881.559,1275.34 883.682,1275.33 885.805,1275.37 887.928,1275.38 890.051,1275.37 892.174,1275.41 894.297,1275.41 896.42,1275.41 898.543,1275.44 
  900.666,1275.44 902.789,1275.49 904.912,1275.5 907.035,1275.48 909.158,1275.51 911.28,1275.51 913.403,1275.52 915.526,1275.54 917.649,1275.55 919.772,1275.59 
  921.895,1275.59 924.018,1275.6 926.141,1275.63 928.264,1275.63 930.387,1275.67 932.51,1172.64 934.633,799.358 936.756,293.717 938.879,257.043 941.002,240.886 
  943.125,233.876 945.248,230.788 947.37,229.582 949.493,229.25 951.616,229.356 953.739,229.691 955.862,230.161 957.985,230.726 960.108,231.367 962.231,232.079 
  964.354,232.864 966.477,233.722 968.6,234.658 970.723,235.67 972.846,236.762 974.969,237.933 977.092,239.181 979.215,240.513 981.337,241.916 983.46,243.393 
  985.583,244.94 987.706,246.557 989.829,248.241 991.952,249.983 994.075,251.787 996.198,253.645 998.321,255.561 1000.44,257.523 1002.57,259.534 1004.69,261.594 
  1006.81,263.689 1008.94,265.827 1011.06,267.992 1013.18,270.203 1015.3,272.448 1017.43,274.722 1019.55,277.024 1021.67,279.342 1023.8,281.697 1025.92,284.071 
  1028.04,286.474 1030.17,288.903 1032.29,291.344 1034.41,293.807 1036.53,296.278 1038.66,298.774 1040.78,301.282 1042.9,303.807 1045.03,306.351 1047.15,308.903 
  1049.27,311.469 1051.39,314.041 1053.52,316.637 1055.64,319.239 1057.76,321.849 1059.89,324.466 1062.01,327.084 1064.13,329.72 1066.26,332.36 1068.38,335.015 
  1070.5,337.673 1072.62,340.344 1074.75,343.021 1076.87,345.709 1078.99,348.405 1081.12,351.109 1083.24,353.824 1085.36,356.543 1087.48,359.278 1089.61,362.004 
  1091.73,364.753 1093.85,367.5 1095.98,370.257 1098.1,373.029 1100.22,375.815 1102.34,378.61 1104.47,381.399 1106.59,384.213 1108.71,387.04 1110.84,389.885 
  1112.96,392.721 1115.08,395.582 1117.21,398.443 1119.33,401.33 1121.45,404.245 1123.57,407.159 1125.7,410.11 1127.82,413.052 1129.94,416.031 1132.07,419.019 
  1134.19,422.026 1136.31,425.044 1138.43,428.082 1140.56,431.14 1142.68,434.204 1144.8,437.329 1146.93,440.445 1149.05,443.601 1151.17,446.762 1153.3,449.961 
  1155.42,453.192 1157.54,456.428 1159.66,459.727 1161.79,463.021 1163.91,466.374 1166.03,469.747 1168.16,473.147 1170.28,476.581 1172.4,480.027 1174.52,483.526 
  1176.65,487.064 1178.77,490.668 1180.89,494.295 1183.02,497.976 1185.14,501.679 1187.26,505.434 1189.39,509.248 1191.51,513.095 1193.63,517.029 1195.75,521.01 
  1197.88,525.082 1200,529.219 1202.12,533.417 1204.25,537.693 1206.37,542.048 1208.49,546.489 1210.61,551.018 1212.74,555.642 1214.86,560.357 1216.98,565.178 
  1219.11,570.089 1221.23,575.116 1223.35,580.257 1225.48,585.487 1227.6,590.866 1229.72,596.327 1231.84,601.937 1233.97,607.655 1236.09,613.464 1238.21,619.396 
  1240.34,625.398 1242.46,631.512 1244.58,637.686 1246.7,643.947 1248.83,650.261 1250.95,656.608 1253.07,663.038 1255.2,669.47 1257.32,675.997 1259.44,682.522 
  1261.57,689.092 1263.69,695.672 1265.81,702.269 1267.93,708.889 1270.06,715.507 1272.18,722.158 1274.3,728.798 1276.43,735.476 1278.55,742.174 1280.67,748.873 
  1282.79,755.598 1284.92,762.319 1287.04,769.094 1289.16,775.87 1291.29,782.679 1293.41,789.518 1295.53,796.364 1297.66,803.266 1299.78,810.174 1301.9,817.145 
  1304.02,824.117 1306.15,831.184 1308.27,838.242 1310.39,845.395 1312.52,852.607 1314.64,859.887 1316.76,867.249 1318.88,874.684 1321.01,882.232 1323.13,889.842 
  1325.25,897.586 1327.38,905.407 1329.5,913.367 1331.62,921.441 1333.75,929.664 1335.87,938.036 1337.99,946.521 1340.11,955.186 1342.24,963.951 1344.36,972.924 
  1346.48,982.031 1348.61,991.335 1350.73,1000.81 1352.85,1010.5 1354.97,1020.4 1357.1,1030.52 1359.22,1040.89 1361.34,1051.5 1363.47,1062.43 1365.59,1073.66 
  1367.71,1085.23 1369.84,1097.15 1371.96,1109.42 1374.08,1122.06 1376.2,1135.01 1378.33,1148.26 1380.45,1161.65 1382.57,1175.08 1384.7,1188.29 1386.82,1201.06 
  1388.94,1213.08 1391.06,1224.06 1393.19,1233.85 1395.31,1242.25 1397.43,1249.35 1399.56,1255.14 1401.68,1259.79 1403.8,1263.46 1405.93,1266.29 1408.05,1268.5 
  1410.17,1270.15 1412.29,1271.4 1414.42,1272.33 1416.54,1273.04 1418.66,1273.58 1420.79,1273.96 1422.91,1274.27 1425.03,1274.49 1427.15,1274.68 1429.28,1274.81 
  1431.4,1274.91 1433.52,1275 1435.65,1275.06 1437.77,1275.11 1439.89,1275.15 1442.02,1275.2 1444.14,1275.23 1446.26,1275.27 1448.38,1275.29 1450.51,1275.31 
  1452.63,1275.33 1454.75,1275.35 1456.88,1275.38 1459,1275.39 1461.12,1275.41 1463.24,1275.42 1465.37,1275.44 1467.49,1275.46 1469.61,1275.47 1471.74,1275.49 
  1473.86,1275.5 1475.98,1275.52 1478.11,1275.53 1480.23,1275.55 1482.35,1275.57 1484.47,1275.58 1486.6,1275.6 1488.72,1275.61 1490.84,1275.62 1492.97,1275.64 
  1495.09,1275.65 1497.21,1275.67 1499.33,1275.68 1501.46,1275.69 1503.58,1275.71 1505.7,1275.72 1507.83,1275.73 1509.95,1275.75 1512.07,1275.76 1514.2,1275.77 
  1516.32,1275.79 1518.44,1275.8 1520.56,1275.81 1522.69,1275.83 1524.81,1275.84 1526.93,1275.85 1529.06,1275.86 1531.18,1275.88 1533.3,1275.89 1535.42,1275.9 
  1537.55,1275.91 1539.67,1275.92 1541.79,1275.94 1543.92,1275.95 1546.04,1275.96 1548.16,1275.97 1550.29,1275.98 1552.41,1275.99 1554.53,1276.01 1556.65,1276.02 
  1558.78,1276.03 1560.9,1276.04 1563.02,1276.05 1565.15,1276.06 1567.27,1276.07 1569.39,1276.08 1571.51,1276.09 1573.64,1276.1 1575.76,1276.11 1577.88,1276.12 
  1580.01,1276.14 1582.13,1276.15 1584.25,1276.16 1586.38,1276.17 1588.5,1276.18 1590.62,1276.19 1592.74,1276.2 1594.87,1276.21 1596.99,1276.22 1599.11,1276.23 
  1601.24,1276.24 1603.36,1276.25 1605.48,1276.26 1607.6,1276.27 1609.73,1276.28 1611.85,1276.29 1613.97,1276.29 1616.1,1276.3 1618.22,1276.31 1620.34,1276.32 
  1622.46,1276.33 1624.59,1276.34 1626.71,1276.35 1628.83,1276.36 1630.96,1276.37 1633.08,1276.38 1635.2,1276.39 1637.33,1276.4 1639.45,1276.4 1641.57,1276.41 
  1643.69,1276.42 1645.82,1276.43 1647.94,1276.44 1650.06,1276.45 1652.19,1276.46 1654.31,1276.46 1656.43,1276.47 1658.55,1276.48 1660.68,1276.49 1662.8,1276.5 
  1664.92,947.937 1667.05,325.661 1669.17,256.146 1671.29,229.891 1673.42,219.116 1675.54,214.641 1677.66,212.821 1679.78,212.233 1681.91,212.224 1684.03,212.504 
  1686.15,212.947 1688.28,213.485 1690.4,214.092 1692.52,214.758 1694.64,215.48 1696.77,216.26 1698.89,217.102 1701.01,218.011 1703.14,218.989 1705.26,220.036 
  1707.38,221.156 1709.51,222.349 1711.63,223.609 1713.75,224.943 1715.87,226.353 1718,227.825 1720.12,229.37 1722.24,230.979 1724.37,232.648 1726.49,234.377 
  1728.61,236.159 1730.73,237.997 1732.86,239.885 1734.98,241.821 1737.1,243.803 1739.23,245.828 1741.35,247.895 1743.47,250 1745.6,252.141 1747.72,254.318 
  1749.84,256.525 1751.96,258.764 1754.09,261.032 1756.21,263.323 1758.33,265.643 1760.46,267.984 1762.58,270.347 1764.7,272.732 1766.82,275.137 1768.95,277.558 
  1771.07,279.998 1773.19,282.452 1775.32,284.922 1777.44,287.406 1779.56,289.901 1781.69,292.411 1783.81,294.93 1785.93,297.461 1788.05,300.002 1790.18,302.551 
  1792.3,305.109 1794.42,307.676 1796.55,310.249 1798.67,312.83 1800.79,315.417 1802.91,318.01 1805.04,320.612 1807.16,323.217 1809.28,325.828 1811.41,328.445 
  1813.53,331.067 1815.65,333.694 1817.78,336.328 1819.9,338.965 1822.02,341.609 1824.14,344.258 1826.27,346.911 1828.39,349.572 1830.51,352.238 1832.64,354.908 
  1834.76,357.587 1836.88,360.27 1839,362.96 1841.13,365.657 1843.25,368.36 1845.37,371.073 1847.5,373.794 1849.62,376.521 1851.74,379.256 1853.87,382.003 
  1855.99,384.759 1858.11,387.524 1860.23,390.302 1862.36,393.09 1864.48,395.889 1866.6,398.703 1868.73,401.527 1870.85,404.366 1872.97,407.218 1875.09,410.084 
  1877.22,412.969 1879.34,415.866 1881.46,418.781 1883.59,421.715 1885.71,424.664 1887.83,427.632 1889.96,430.621 1892.08,433.629 1894.2,436.662 1896.32,439.714 
  1898.45,442.786 1900.57,445.885 1902.69,449.009 1904.82,452.159 1906.94,455.335 1909.06,458.539 1911.18,461.772 1913.31,465.037 1915.43,468.327 1917.55,471.658 
  1919.68,475.021 1921.8,478.414 1923.92,481.847 1926.05,485.313 1928.17,488.825 1930.29,492.384 1932.41,495.979 1934.54,499.623 1936.66,503.313 1938.78,507.054 
  1940.91,510.848 1943.03,514.699 1945.15,518.609 1947.27,522.584 1949.4,526.622 1951.52,530.732 1953.64,534.914 1955.77,539.174 1957.89,543.517 1960.01,547.946 
  1962.14,552.465 1964.26,557.08 1966.38,561.794 1968.5,566.611 1970.63,571.537 1972.75,576.57 1974.87,581.716 1977,586.976 1979.12,592.349 1981.24,597.836 
  1983.36,603.432 1985.49,609.136 1987.61,614.945 1989.73,620.852 1991.86,626.849 1993.98,632.934 1996.1,639.093 1998.23,645.321 2000.35,651.612 2002.47,657.955 
  2004.59,664.346 2006.72,670.776 2008.84,677.239 2010.96,683.731 2013.09,690.246 2015.21,696.781 2017.33,703.333 2019.45,709.899 2021.58,716.476 2023.7,723.066 
  2025.82,729.666 2027.95,736.279 2030.07,742.904 2032.19,749.541 2034.32,756.194 2036.44,762.862 2038.56,769.547 2040.68,776.253 2042.81,782.981 2044.93,789.731 
  2047.05,796.509 2049.18,803.315 2051.3,810.153 2053.42,817.029 2055.54,823.944 2057.67,830.903 2059.79,837.914 2061.91,844.98 2064.04,852.109 2066.16,859.307 
  2068.28,866.582 2070.41,873.944 2072.53,881.397 2074.65,888.951 2076.77,896.615 2078.9,904.394 2081.02,912.298 2083.14,920.331 2085.27,928.5 2087.39,936.812 
  2089.51,945.269 2091.63,953.876 2093.76,962.641 2095.88,971.565 2098,980.658 2100.13,989.927 2102.25,999.378 2104.37,1009.03 2106.5,1018.89 2108.62,1028.97 
  2110.74,1039.3 2112.86,1049.9 2114.99,1060.78 2117.11,1071.97 2119.23,1083.5 2121.36,1095.37 2123.48,1107.6 2125.6,1120.19 2127.72,1133.1 2129.85,1146.3 
  2131.97,1159.68 2134.09,1173.09 2136.22,1186.33 2138.34,1199.16 2140.46,1211.29 2142.58,1222.44 2144.71,1232.41 2146.83,1241.05 2148.95,1248.34 2151.08,1254.32 
  2153.2,1259.12 2155.32,1262.92 2157.45,1265.86 2159.57,1268.12 2161.69,1269.84 2163.81,1271.15 2165.94,1272.13 2168.06,1272.88 2170.18,1273.42 2172.31,1273.84 
  2174.43,1274.16 2176.55,1274.4 2178.67,1274.59 2180.8,1274.72 2182.92,1274.84 2185.04,1274.93 2187.17,1275 2189.29,1275.05 2191.41,1275.09 2193.54,1275.13 
  2195.66,1275.17 2197.78,1275.2 2199.9,1275.23 2202.03,1275.25 2204.15,1275.28 2206.27,1275.3 2208.4,1275.32 2210.52,1275.35 2212.64,1275.36 2214.76,1275.38 
  2216.89,1275.39 2219.01,1275.41 2221.13,1275.43 2223.26,1275.44 2225.38,1275.46 2227.5,1275.48 2229.63,1275.49 2231.75,1275.51 2233.87,1275.53 2235.99,1275.54 
  2238.12,1275.56 2240.24,1275.57 2242.36,1275.59 2244.49,1275.6 2246.61,1275.62 2248.73,1275.64 2250.85,1275.65 2252.98,1275.67 2255.1,1275.68 2257.22,1275.69 
  2259.35,1275.7 2261.47,1275.71 2263.59,1275.73 2265.72,1275.74 2267.84,1275.76 2269.96,1275.78 2272.08,1275.78 2274.21,1275.8 2276.33,1275.81 2278.45,1275.81 
  2280.58,1275.83 2282.7,1275.84 2284.82,1275.85 2286.94,1275.88 2289.07,1275.87 2291.19,1275.92 2293.31,1275.91 2295.44,1275.92 2297.56,1275.94 2299.68,1275.94 
  2301.81,1275.96 2303.93,1275.97 2306.05,1275.99 2308.17,1276.01 2310.3,1276 2312.42,1276.05 2314.54,1276.05 2316.67,1276.08 2318.79,1276.08 2320.91,1276.07 
  2323.03,1276.11 2325.16,1276.1 2327.28,1276.11 2329.4,1276.13 2331.53,1276.11 2333.65,1276.13 2335.77,1276.13 2337.9,1276.15 2340.02,1276.17 2342.14,1276.17 
  2344.26,1276.2 2346.39,1276.19 2348.51,1276.18 2350.63,1276.23 2352.76,1276.23 
  "/>
<polyline clip-path="url(#clip852)" style="stroke:#3da44d; stroke-linecap:butt; stroke-linejoin:round; stroke-width:12; stroke-opacity:1; fill:none" stroke-dasharray="6, 12" points="
  178.867,1286.08 180.99,1285.58 183.113,1285.46 185.235,1286.36 187.358,1284.39 189.481,1287.15 191.604,1283.88 193.727,1285.74 195.85,1286.18 197.973,1284.57 
  200.096,1285.8 202.219,947.629 204.342,305.499 206.465,249.515 208.588,224.181 210.711,217.442 212.834,213.551 214.957,205.165 217.08,221.442 219.202,203.567 
  221.325,217.983 223.448,221.679 225.571,210.764 227.694,221.305 229.817,220.135 231.94,219.533 234.063,221.974 236.186,221.554 238.309,222.604 240.432,223.235 
  242.555,221.734 244.678,225.595 246.801,223.122 248.924,226.306 251.047,224.648 253.169,223.116 255.292,231.921 257.415,227.144 259.538,223.688 261.661,231.22 
  263.784,229.953 265.907,234.314 268.03,231.663 270.153,228.704 272.276,232.874 274.399,239.511 276.522,239.25 278.645,236.996 280.768,237.346 282.891,240.705 
  285.014,243.288 287.137,243.254 289.259,245.153 291.382,246.973 293.505,248.176 295.628,249.863 297.751,251.678 299.874,253.144 301.997,254.804 304.12,256.776 
  306.243,258.754 308.366,259.634 310.489,261.935 312.612,264.921 314.735,264.702 316.858,266.9 318.981,269.752 321.104,271.676 323.226,273.547 325.349,275.118 
  327.472,276.112 329.595,278.613 331.718,282.834 333.841,281.828 335.964,284.078 338.087,289.279 340.21,287.792 342.333,289.947 344.456,294.164 346.579,295.679 
  348.702,295.646 350.825,299.321 352.948,302.058 355.071,303.559 357.193,304.927 359.316,306.813 361.439,309.403 363.562,312.092 365.685,314.146 367.808,315.552 
  369.931,317.003 372.054,319.904 374.177,323.08 376.3,324.014 378.423,325.151 380.546,327.637 382.669,331.225 384.792,334.271 386.915,333.735 389.038,333.043 
  391.161,338.992 393.283,344.448 395.406,345.776 397.529,343.21 399.652,340.854 401.775,346.682 403.898,357.293 406.021,355.904 408.144,352.488 410.267,353.152 
  412.39,359.246 414.513,367.365 416.636,369.346 418.759,353.675 420.882,355.439 423.005,373.282 425.128,385.852 427.25,384.243 429.373,372 431.496,365.114 
  433.619,378.511 435.742,385.218 437.865,386.413 439.988,385.868 442.111,386.038 444.234,388.073 446.357,391.81 448.48,395.776 450.603,397.187 452.726,397.213 
  454.849,399.118 456.972,401.77 459.095,404.398 461.217,406.601 463.34,408.344 465.463,409.96 467.586,412.107 469.709,414.408 471.832,416.503 473.955,418.444 
  476.078,420.302 478.201,422.165 480.324,424.137 482.447,426.343 484.57,428.922 486.693,431.837 488.816,433.189 490.939,434.07 493.062,435.772 495.185,438.666 
  497.307,442.209 499.43,444.939 501.553,445.792 503.676,446.844 505.799,448.688 507.922,451.428 510.045,454.768 512.168,458.014 514.291,460.073 516.414,460.04 
  518.537,461.54 520.66,464.242 522.783,467.04 524.906,469.41 527.029,471.412 529.152,473.685 531.274,477.455 533.397,483.932 535.52,486.495 537.643,485.261 
  539.766,483.214 541.889,482.942 544.012,486.634 546.135,495.814 548.258,501.032 550.381,500.975 552.504,499.923 554.627,500.589 556.75,504.115 558.873,510.073 
  560.996,516.469 563.119,519.735 565.241,514.737 567.364,504.154 569.487,513.963 571.61,531.796 573.733,545.945 575.856,550.004 577.979,542.873 580.102,528.751 
  582.225,517.144 584.348,522.731 586.471,538.716 588.594,552.086 590.717,563.106 592.84,571.682 594.963,577.366 597.086,579.347 599.209,576.46 601.331,567.181 
  603.454,550.044 605.577,549.701 607.7,568.235 609.823,590.741 611.946,607.259 614.069,612.769 616.192,607.198 618.315,595.416 620.438,587.235 622.561,596.779 
  624.684,619.235 626.807,638.998 628.93,648.824 631.053,647.339 633.176,639.044 635.298,634.314 637.421,646.939 639.544,650.156 641.667,644.685 643.79,643.669 
  645.913,654.053 648.036,676.585 650.159,705.819 652.282,730.106 654.405,731.601 656.528,703.106 658.651,669.55 660.774,651.091 662.897,657.412 665.02,687.715 
  667.143,730.725 669.265,764.689 671.388,768.416 673.511,769.479 675.634,770.866 677.757,771.081 679.88,769.607 682.003,766.893 684.126,764.367 686.249,764.425 
  688.372,770.438 690.495,782.13 692.618,791.6 694.741,799.244 696.864,805.822 698.987,812.068 701.11,818.688 703.233,826.365 705.355,835.754 707.478,847.484 
  709.601,857.543 711.724,862.567 713.847,864.073 715.97,863.546 718.093,862.432 720.216,862.141 722.339,864.047 724.462,869.486 726.585,879.762 728.708,894.939 
  730.831,911.823 732.954,927.936 735.077,941.572 737.2,951.774 739.322,958.339 741.445,961.818 743.568,963.512 745.691,965.477 747.814,970.512 749.937,978.748 
  752.06,988.028 754.183,997.78 756.306,1007.67 758.429,1017.61 760.552,1027.74 762.675,1038.44 764.798,1050.34 766.921,1064.18 769.044,1078.12 771.167,1091.06 
  773.289,1102.94 775.412,1113.86 777.535,1124.06 779.658,1133.94 781.781,1144.03 783.904,1155.03 786.027,1167.78 788.15,1181.21 790.273,1193.01 792.396,1205.91 
  794.519,1221.21 796.642,1238.55 798.765,1255.88 800.888,1269.48 803.011,1273.97 805.134,1266.59 807.257,1262.46 809.379,1262.25 811.502,1264.42 813.625,1267.72 
  815.748,1271.23 817.871,1274.35 819.994,1276.8 822.117,1278.58 824.24,1280.06 826.363,1281.88 828.486,1284.52 830.609,1286.91 832.732,1288.07 834.855,1287.55 
  836.978,1285.35 839.101,1281.98 841.224,1278.45 843.346,1276.23 845.469,1277.31 847.592,1284.13 849.715,1288.19 851.838,1285.53 853.961,1281.54 856.084,1279.61 
  858.207,1281.12 860.33,1285.48 862.453,1290.08 864.576,1290.92 866.699,1289.61 868.822,1287.47 870.945,1284.77 873.068,1281.82 875.191,1278.94 877.313,1276.5 
  879.436,1274.87 881.559,1274.38 883.682,1274.53 885.805,1274.79 887.928,1274.99 890.051,1275.3 892.174,1276.21 894.297,1278.53 896.42,1283.41 898.543,1292.94 
  900.666,1303.28 902.789,1306.05 904.912,1297.52 907.035,1278.83 909.158,1256 911.28,1239.89 913.403,1246.24 915.526,1285.2 917.649,1333.45 919.772,1366.8 
  921.895,1368.43 924.018,1328.87 926.141,1246.04 928.264,1125.19 930.387,978.966 932.51,827.328 934.633,678.719 936.756,535.58 938.879,408.455 941.002,304.864 
  943.125,229.308 945.248,183.267 947.37,165.2 949.493,170.545 951.616,191.72 953.739,218.121 955.862,239.301 957.985,254.143 960.108,263.745 962.231,269.114 
  964.354,271.165 966.477,270.723 968.6,268.525 970.723,265.214 972.846,261.346 974.969,257.383 977.092,253.7 979.215,250.579 981.337,248.152 983.46,246.4 
  985.583,245.379 987.706,245.123 989.829,245.64 991.952,246.911 994.075,248.889 996.198,251.503 998.321,254.654 1000.44,258.217 1002.57,262.041 1004.69,265.947 
  1006.81,269.733 1008.94,273.267 1011.06,276.565 1013.18,279.655 1015.3,282.562 1017.43,285.306 1019.55,287.911 1021.67,290.394 1023.8,292.773 1025.92,295.061 
  1028.04,297.273 1030.17,299.419 1032.29,301.508 1034.41,303.547 1036.53,305.564 1038.66,307.718 1040.78,309.984 1042.9,312.304 1045.03,314.635 1047.15,316.943 
  1049.27,319.209 1051.39,321.428 1053.52,323.604 1055.64,325.757 1057.76,327.918 1059.89,330.13 1062.01,332.451 1064.13,334.948 1066.26,337.705 1068.38,340.816 
  1070.5,344.387 1072.62,348.54 1074.75,353.405 1076.87,357.823 1078.99,360.209 1081.12,361.329 1083.24,361.891 1085.36,362.518 1087.48,363.74 1089.61,366 
  1091.73,369.649 1093.85,374.952 1095.98,382.08 1098.1,391.118 1100.22,402.008 1102.34,409.749 1104.47,412.304 1106.59,411.232 1108.71,407.894 1110.84,403.453 
  1112.96,398.874 1115.08,394.922 1117.21,392.164 1119.33,390.969 1121.45,391.507 1123.57,393.751 1125.7,397.472 1127.82,402.246 1129.94,407.463 1132.07,413.112 
  1134.19,419.264 1136.31,425.73 1138.43,432.336 1140.56,438.929 1142.68,445.37 1144.8,451.543 1146.93,457.344 1149.05,462.691 1151.17,467.519 1153.3,471.78 
  1155.42,475.444 1157.54,478.498 1159.66,480.95 1161.79,482.822 1163.91,484.157 1166.03,485.013 1168.16,485.468 1170.28,485.617 1172.4,485.572 1174.52,486.179 
  1176.65,488.479 1178.77,492.095 1180.89,496.663 1183.02,501.866 1185.14,507.424 1187.26,513.101 1189.39,518.702 1191.51,524.075 1193.63,529.108 1195.75,533.732 
  1197.88,537.918 1200,541.68 1202.12,545.073 1204.25,548.195 1206.37,551.185 1208.49,554.221 1210.61,557.528 1212.74,561.368 1214.86,566.046 1216.98,571.91 
  1219.11,579.288 1221.23,586.552 1223.35,592.984 1225.48,598.791 1227.6,604.157 1229.72,609.248 1231.84,614.208 1233.97,619.161 1236.09,624.21 1238.21,629.436 
  1240.34,634.9 1242.46,640.642 1244.58,646.683 1246.7,653.019 1248.83,659.63 1250.95,666.472 1253.07,673.481 1255.2,680.572 1257.32,687.64 1259.44,694.558 
  1261.57,701.18 1263.69,707.336 1265.81,712.839 1267.93,717.756 1270.06,723.904 1272.18,731.162 1274.3,739.003 1276.43,746.999 1278.55,754.815 1280.67,762.211 
  1282.79,769.043 1284.92,775.263 1287.04,780.917 1289.16,786.147 1291.29,791.19 1293.41,796.379 1295.53,802.142 1297.66,809 1299.78,817.408 1301.9,826.178 
  1304.02,834.845 1306.15,843.321 1308.27,851.542 1310.39,859.467 1312.52,867.076 1314.64,874.372 1316.76,881.381 1318.88,888.151 1321.01,894.754 1323.13,901.282 
  1325.25,907.851 1327.38,914.601 1329.5,921.691 1331.62,929.306 1333.75,937.652 1335.87,946.901 1337.99,956.65 1340.11,966.691 1342.24,976.942 1344.36,987.327 
  1346.48,997.783 1348.61,1008.25 1350.73,1018.7 1352.85,1029.07 1354.97,1039.35 1357.1,1049.51 1359.22,1059.56 1361.34,1069.48 1363.47,1079.29 1365.59,1089.01 
  1367.71,1098.67 1369.84,1108.31 1371.96,1117.96 1374.08,1127.7 1376.2,1137.86 1378.33,1150.19 1380.45,1164.24 1382.57,1179.21 1384.7,1194.4 1386.82,1209.21 
  1388.94,1223.12 1391.06,1235.73 1393.19,1246.73 1395.31,1255.91 1397.43,1263.16 1399.56,1268.45 1401.68,1271.89 1403.8,1273.63 1405.93,1273.98 1408.05,1273.31 
  1410.17,1272.09 1412.29,1270.91 1414.42,1270.44 1416.54,1271.44 1418.66,1274.8 1420.79,1280.92 1422.91,1285.82 1425.03,1288.83 1427.15,1290.31 1429.28,1290.58 
  1431.4,1289.93 1433.52,1288.64 1435.65,1286.93 1437.77,1285.02 1439.89,1283.11 1442.02,1281.34 1444.14,1279.86 1446.26,1278.75 1448.38,1278.11 1450.51,1277.98 
  1452.63,1278.39 1454.75,1279.33 1456.88,1280.77 1459,1282.5 1461.12,1283.7 1463.24,1284.34 1465.37,1284.54 1467.49,1284.42 1469.61,1284.07 1471.74,1283.59 
  1473.86,1283.08 1475.98,1282.59 1478.11,1282.21 1480.23,1282 1482.35,1282.01 1484.47,1282.28 1486.6,1282.86 1488.72,1283.6 1490.84,1283.87 1492.97,1283.79 
  1495.09,1283.52 1497.21,1283.2 1499.33,1282.91 1501.46,1282.73 1503.58,1282.7 1505.7,1282.82 1507.83,1283.07 1509.95,1283.37 1512.07,1283.65 1514.2,1283.77 
  1516.32,1283.6 1518.44,1283.2 1520.56,1282.72 1522.69,1282.29 1524.81,1281.98 1526.93,1281.85 1529.06,1281.95 1531.18,1282.28 1533.3,1282.84 1535.42,1283.59 
  1537.55,1284.46 1539.67,1285.38 1541.79,1286.27 1543.92,1287.06 1546.04,1287.7 1548.16,1288.15 1550.29,1288.33 1552.41,1288.22 1554.53,1287.77 1556.65,1286.94 
  1558.78,1285.69 1560.9,1284.01 1563.02,1281.87 1565.15,1279.24 1567.27,1276.11 1569.39,1272.48 1571.51,1268.33 1573.64,1263.67 1575.76,1258.49 1577.88,1252.8 
  1580.01,1248.51 1582.13,1248.15 1584.25,1250.75 1586.38,1255.45 1588.5,1261.48 1590.62,1268.24 1592.74,1275.23 1594.87,1282.1 1596.99,1288.63 1599.11,1294.72 
  1601.24,1300.41 1603.36,1305.86 1605.48,1311.42 1607.6,1319.01 1609.73,1328.81 1611.85,1339.78 1613.97,1350.96 1616.1,1361.52 1618.22,1370.71 1620.34,1377.9 
  1622.46,1382.55 1624.59,1384.24 1626.71,1382.64 1628.83,1377.53 1630.96,1368.79 1633.08,1356.41 1635.2,1340.48 1637.33,1321.19 1639.45,1298.84 1641.57,1273.83 
  1643.69,1246.66 1645.82,1217.94 1647.94,1188.38 1650.06,1158.8 1652.19,1130.11 1654.31,1089.12 1656.43,1023.66 1658.55,941.525 1660.68,849.692 1662.8,754.279 
  1664.92,660.542 1667.05,572.878 1669.17,494.822 1671.29,429.045 1673.42,377.361 1675.54,340.72 1677.66,319.212 1679.78,312.064 1681.91,317.643 1684.03,333.456 
  1686.15,356.146 1688.28,381.497 1690.4,404.43 1692.52,419.006 1694.64,418.425 1696.77,395.023 1698.89,340.278 1701.01,248.995 1703.14,171.634 1705.26,121.822 
  1707.38,94.8017 1709.51,86.1857 1711.63,91.9554 1713.75,108.461 1715.87,132.421 1718,160.923 1720.12,191.423 1722.24,221.747 1724.37,250.088 1726.49,275.008 
  1728.61,295.439 1730.73,310.681 1732.86,320.402 1734.98,324.641 1737.1,323.802 1739.23,318.661 1741.35,310.362 1743.47,300.417 1745.6,290.708 1747.72,283.483 
  1749.84,279.97 1751.96,277.132 1754.09,274.703 1756.21,272.719 1758.33,271.211 1760.46,270.199 1762.58,269.7 1764.7,269.722 1766.82,270.267 1768.95,271.329 
  1771.07,272.897 1773.19,274.952 1775.32,277.467 1777.44,280.41 1779.56,283.741 1781.69,287.414 1783.81,291.375 1785.93,295.563 1788.05,299.912 1790.18,304.347 
  1792.3,308.788 1794.42,313.146 1796.55,317.326 1798.67,321.227 1800.79,324.74 1802.91,327.75 1805.04,330.134 1807.16,331.863 1809.28,333.808 1811.41,336.11 
  1813.53,338.669 1815.65,341.392 1817.78,344.202 1819.9,347.031 1822.02,349.825 1824.14,352.542 1826.27,355.149 1828.39,357.628 1830.51,359.973 1832.64,362.188 
  1834.76,364.29 1836.88,366.308 1839,368.283 1841.13,370.268 1843.25,372.328 1845.37,374.539 1847.5,376.99 1849.62,379.781 1851.74,383.026 1853.87,386.848 
  1855.99,391.385 1858.11,396.784 1860.23,402.642 1862.36,406.44 1864.48,408.505 1866.6,409.507 1868.73,410.014 1870.85,410.489 1872.97,411.294 1875.09,412.685 
  1877.22,414.816 1879.34,417.739 1881.46,421.399 1883.59,425.641 1885.71,430.204 1887.83,434.726 1889.96,438.741 1892.08,442.194 1894.2,445.496 1896.32,448.634 
  1898.45,451.601 1900.57,454.402 1902.69,457.055 1904.82,459.587 1906.94,462.036 1909.06,464.453 1911.18,466.899 1913.31,469.446 1915.43,472.177 1917.55,475.187 
  1919.68,478.582 1921.8,482.477 1923.92,487.002 1926.05,492.278 1928.17,497.273 1930.29,501.425 1932.41,504.905 1934.54,507.878 1936.66,510.502 1938.78,512.931 
  1940.91,515.315 1943.03,517.796 1945.15,520.512 1947.27,523.594 1949.4,527.17 1951.52,531.36 1953.64,536.282 1955.77,542.064 1957.89,548.89 1960.01,556.282 
  1962.14,563.709 1964.26,570.756 1966.38,577.123 1968.5,582.625 1970.63,587.195 1972.75,590.879 1974.87,593.839 1977,596.353 1979.12,598.814 1981.24,601.73 
  1983.36,605.727 1985.49,611.543 1987.61,618.924 1989.73,626.459 1991.86,633.716 1993.98,640.393 1996.1,646.315 1998.23,651.432 2000.35,655.821 2002.47,659.684 
  2004.59,663.349 2006.72,667.27 2008.84,672.027 2010.96,678.315 2013.09,685.734 2015.21,693.535 2017.33,701.5 2019.45,709.451 2021.58,717.245 2023.7,724.782 
  2025.82,732 2027.95,738.875 2030.07,745.422 2032.19,751.697 2034.32,757.794 2036.44,763.845 2038.56,770.022 2040.68,776.537 2042.81,783.639 2044.93,791.543 
  2047.05,799.592 2049.18,807.589 2051.3,815.574 2053.42,823.578 2055.54,831.627 2057.67,839.734 2059.79,847.909 2061.91,856.152 2064.04,864.454 2066.16,872.801 
  2068.28,881.168 2070.41,889.524 2072.53,897.83 2074.65,906.039 2076.77,914.095 2078.9,921.917 2081.02,929.401 2083.14,936.622 2085.27,943.672 2087.39,950.633 
  2089.51,957.58 2091.63,964.579 2093.76,971.69 2095.88,978.965 2098,986.447 2100.13,994.172 2102.25,1002.17 2104.37,1010.46 2106.5,1019.05 2108.62,1027.95 
  2110.74,1037.16 2112.86,1046.67 2114.99,1056.45 2117.11,1066.49 2119.23,1076.74 2121.36,1087.17 2123.48,1097.72 2125.6,1109.51 2127.72,1125.82 2129.85,1144.68 
  2131.97,1164.03 2134.09,1182.26 2136.22,1198.21 2138.34,1211.2 2140.46,1220.96 2142.58,1227.7 2144.71,1232.09 2146.83,1235.23 2148.95,1238.68 2151.08,1244.47 
  2153.2,1255.06 2155.32,1269.51 2157.45,1277.09 2159.57,1279.2 2161.69,1278.04 2163.81,1275.42 2165.94,1272.71 2168.06,1270.92 2170.18,1270.62 2172.31,1271.99 
  2174.43,1274.8 2176.55,1278.41 2178.67,1281.79 2180.8,1283.48 2182.92,1281.64 2185.04,1276.9 2187.17,1275.21 2189.29,1275.92 2191.41,1278.1 2193.54,1280.97 
  2195.66,1283.91 2197.78,1286.41 2199.9,1288.12 2202.03,1288.84 2204.15,1288.49 2206.27,1287.14 2208.4,1285.01 2210.52,1282.46 2212.64,1279.99 2214.76,1278.24 
  2216.89,1277.9 2219.01,1277.94 2221.13,1277.8 2223.26,1277.48 2225.38,1277 2227.5,1276.35 2229.63,1275.58 2231.75,1274.69 2233.87,1273.74 2235.99,1272.78 
  2238.12,1271.86 2240.24,1271.05 2242.36,1270.42 2244.49,1270.06 2246.61,1270.07 2248.73,1270.55 2250.85,1271.6 2252.98,1273.35 2255.1,1275.89 2257.22,1278.55 
  2259.35,1281.01 2261.47,1283.26 2263.59,1285.31 2265.72,1287.17 2267.84,1288.84 2269.96,1290.32 2272.08,1291.65 2274.21,1292.82 2276.33,1293.88 2278.45,1294.84 
  2280.58,1295.73 2282.7,1296.62 2284.82,1297.93 2286.94,1299.35 2289.07,1300.45 2291.19,1300.91 2293.31,1300.59 2295.44,1299.45 2297.56,1297.63 2299.68,1295.39 
  2301.81,1293.13 2303.93,1291.41 2306.05,1290.9 2308.17,1291.26 2310.3,1291.39 2312.42,1291.32 2314.54,1291.07 2316.67,1290.68 2318.79,1290.15 2320.91,1289.48 
  2323.03,1288.68 2325.16,1287.71 2327.28,1286.56 2329.4,1285.18 2331.53,1283.54 2333.65,1281.57 2335.77,1279.22 2337.9,1276.4 2340.02,1273.12 2342.14,1269.84 
  2344.26,1266.91 2346.39,1264.43 2348.51,1262.2 2350.63,1259.8 2352.76,1256.48 
  "/>
</svg>
